<?xml version="1.0" encoding="utf-8"?>
<!-- Generator: Adobe Illustrator 16.0.0, SVG Export Plug-In . SVG Version: 6.00 Build 0)  -->
<!DOCTYPE svg PUBLIC "-//W3C//DTD SVG 1.1//EN" "http://www.w3.org/Graphics/SVG/1.1/DTD/svg11.dtd">
<svg version="1.1" id="Layer_1" xmlns="http://www.w3.org/2000/svg" xmlns:xlink="http://www.w3.org/1999/xlink" x="0px" y="0px"
	 width="225px" height="225px" viewBox="0 0 225 225" enable-background="new 0 0 225 225" xml:space="preserve">
<g>
	<path fill-rule="evenodd" clip-rule="evenodd" d="M80.154,81.457c-0.74-1.085-1.854-2.014-1.99-3.067
		c-0.271-2.104-0.155-4.297,0.115-6.412c0.104-0.808,1.072-1.504,1.709-2.332c-0.932-2.2-1.898-4.56-2.926-6.893
		c-1.82-4.136-1.212-8.214,0.271-12.259c1.569-4.279,4.916-6.754,8.856-8.636c6.062-2.895,12.486-4.565,19.122-5.199
		c6.361-0.607,12.763-0.864,19.152-1.075c3.454-0.114,6.745,0.698,9.5,3.035c2.438,2.069,3.811,4.67,4.211,7.831
		c0.048,0.378,0.366,0.917,0.687,1.034c3.474,1.271,5.072,4.01,5.783,7.383c0.98,4.648,0.734,9.311-0.146,13.946
		c-0.139,0.736-0.1,1.242,0.533,1.769c0.929,0.774,1.363,1.85,1.342,3.087c-0.015,0.84-0.002,1.68-0.004,2.52
		c-0.008,2.914-0.275,3.429-2.689,5.106c3.469,2.874,3.105,6.482,1.854,10.188c-1.169,3.465-3.026,6.43-6.46,8.132
		c-0.254,0.126-0.516,0.524-0.527,0.808c-0.248,5.479-3.094,9.634-6.77,13.367c-0.841,0.854-1.787,1.609-2.584,2.498
		c-0.314,0.35-0.508,0.951-0.49,1.428c0.047,1.275,0.307,2.545,0.347,3.82c0.028,0.904,0.396,1.219,1.251,1.367
		c5.777,1,11.395,2.527,16.651,5.209c7.733,3.943,13.528,9.652,16.063,18.139c1.665,5.57,1.771,11.273,0.603,16.98
		c-2.021,9.867-8.164,16.32-17.063,20.412c-9.832,4.52-20.353,5.645-30.996,6c-9.9,0.33-19.764-0.078-29.473-2.234
		c-8.196-1.818-15.861-4.777-21.804-11.061c-4.225-4.467-6.425-9.881-7.143-15.914c-0.882-7.4,0.159-14.471,4.203-20.863
		c3.697-5.846,9.111-9.641,15.35-12.398c5.39-2.381,11.064-3.684,16.849-4.578c0.908-0.141,1.307-0.443,1.341-1.398
		c0.051-1.436,0.697-3.025,0.256-4.25c-0.438-1.217-1.896-2.076-2.929-3.068c-2.213-2.126-4.145-4.497-5.3-7.338
		c-0.741-1.821-1.096-3.813-1.495-5.754c-0.131-0.639-0.225-1.07-0.874-1.364c-4.256-1.924-7.559-8.722-6.909-13.694
		C77.879,83.841,78.749,82.335,80.154,81.457z M138.071,142.525c1.402,1.883,2.695,3.609,3.979,5.342
		c0.905,1.225,0.856,1.988-0.206,3.057c-1.747,1.758-3.498,3.51-5.26,5.252c-7.563,7.473-15.13,14.941-22.697,22.41
		c-1.619,1.598-2.27,1.582-3.885-0.016c-5.969-5.902-11.941-11.801-17.913-17.701c-3.187-3.146-6.383-6.283-9.561-9.439
		c-1.667-1.652-1.707-2.178-0.307-4.1c0.988-1.355,1.994-2.703,3.055-4.004c0.498-0.611,0.439-1.002-0.139-1.49
		c-0.824-0.695-1.548-1.516-2.396-2.178c-1.049-0.818-1.544-1.846-1.746-3.143c-0.335-2.156-0.804-4.289-1.255-6.631
		c-1.508,0.695-2.868,1.252-4.163,1.932c-4.568,2.398-8.529,5.52-11.264,9.975c-3.222,5.248-4.128,11.021-3.624,17.07
		c0.751,9.027,5.119,15.742,13.009,20.148c4.617,2.58,9.602,4.127,14.784,5.115c10.886,2.076,21.858,2.303,32.863,1.496
		c8.369-0.615,16.605-1.93,24.282-5.613c3.991-1.918,7.571-4.422,10.15-8.029c5.541-7.752,6.054-16.361,3.483-25.205
		c-1.891-6.506-6.426-11.029-12.181-14.385c-0.957-0.559-1.973-1.016-3.09-1.584c-0.438,2.279-0.795,4.402-1.282,6.494
		c-0.152,0.652-0.559,1.318-1.028,1.809C140.556,140.281,139.323,141.355,138.071,142.525z M89.093,81.4c0,0.649,0,1.122,0,1.595
		c0,5.197,0.129,10.398-0.045,15.59c-0.131,3.912,1.119,7.205,3.534,10.159c4.065,4.973,9.181,8.645,14.793,11.621
		c2.281,1.209,4.891,1.404,7.362,0.578c1.753-0.584,3.436-1.482,5.021-2.453c4.036-2.471,7.78-5.322,10.896-8.933
		c2.156-2.5,4.004-5.238,4.099-8.606c0.176-6.231,0.062-12.471,0.087-18.707c0.003-0.721-0.345-0.868-0.966-0.854
		c-1.158,0.026-2.324,0.08-3.476-0.014c-1.179-0.095-1.778,0.264-2.314,1.425c-4.482,9.712-16.342,13.276-25.476,7.707
		c-3.233-1.972-5.552-4.764-7.097-8.221c-0.162-0.362-0.605-0.831-0.938-0.847C92.825,81.355,91.071,81.4,89.093,81.4z
		 M121.138,39.059c-5.535,0.446-10.534,0.695-15.491,1.286c-7.271,0.866-14.32,2.572-20.68,6.447
		c-3.742,2.28-6.423,8.397-5.084,12.576c1.044,3.259,2.566,6.369,3.963,9.507c0.478,1.074,1.57,0.409,2.376,0.466
		c0.177,0.013,0.423-0.599,0.592-0.945c0.223-0.459,0.279-1.066,0.617-1.393c3.408-3.284,7.488-5.098,12.218-5.476
		c0.664-0.053,1.411-0.205,1.946-0.567c5.218-3.533,10.915-4.48,16.648-2.024c3.618,1.55,7.217,2.964,10.979,4.107
		c2.779,0.844,5.467,2.267,7.024,4.928c0.664,1.136,1.335,1.667,2.604,1.442c0.232-0.041,0.482-0.033,0.718-0.002
		c0.799,0.106,1.195-0.234,1.252-1.033c0.221-3.103,0.594-6.203,0.629-9.308c0.025-2.143-0.277-4.332-1.513-6.216
		c-0.809-1.231-1.797-2.084-3.477-1.765c-1.451,0.277-2.514-0.771-2.144-2.215c0.962-3.753-1.899-8.224-5.984-9.048
		C125.812,39.318,123.197,39.265,121.138,39.059z M107.676,170.975c0.074-0.049,0.147-0.098,0.222-0.146
		c-4.488-14.846-8.976-29.691-13.545-44.807c-3.402,0.787-6.902,1.578-10.383,2.449c-0.241,0.059-0.521,0.734-0.468,1.074
		c0.312,1.975,0.677,3.941,1.115,5.889c0.131,0.58,0.45,1.197,0.864,1.621c1.256,1.283,2.627,2.455,3.9,3.723
		c0.982,0.977,1.021,1.734,0.205,2.867c-1.167,1.621-2.357,3.227-3.578,4.809c-0.395,0.512-0.414,0.855,0.068,1.316
		c1.416,1.354,2.793,2.748,4.187,4.123c4.665,4.604,9.329,9.209,14,13.807C105.388,168.805,106.538,169.885,107.676,170.975z
		 M129.401,126.494c-4.491,14.869-8.943,29.607-13.396,44.344c0.411-0.064,0.634-0.215,0.823-0.402
		c2.222-2.186,4.437-4.377,6.656-6.566c4.639-4.574,9.269-9.156,13.93-13.709c0.707-0.689,0.952-1.195,0.203-2.063
		c-1.068-1.236-1.978-2.609-2.964-3.916c-1.351-1.791-1.296-2.391,0.387-3.945c1.144-1.059,2.316-2.088,3.417-3.189
		c0.37-0.371,0.689-0.893,0.805-1.398c0.399-1.752,0.668-3.533,1.05-5.291c0.169-0.781-0.034-1.195-0.815-1.395
		c-2.67-0.682-5.329-1.404-8-2.084C130.776,126.695,130.031,126.607,129.401,126.494z M98.802,119.469
		c-0.437,3.418-0.592,6.514,0.355,9.701c1.574,5.295,5.722,9.213,11.01,9.902c5.509,0.721,10.626-1.842,13.292-6.84
		c0.798-1.496,1.311-3.176,1.738-4.826c0.668-2.582,0.236-5.176-0.065-7.963c-4.207,2.734-8.006,5.631-13.13,5.643
		C106.839,125.098,102.994,122.207,98.802,119.469z M111.98,61.405c-7.864-0.008-14.164,6.254-14.145,14.06
		c0.019,7.666,6.447,14.026,14.145,13.995c7.729-0.031,14.091-6.381,14.086-14.056C126.062,67.685,119.75,61.412,111.98,61.405z
		 M102.517,140.186c3.164,10.502,6.227,20.664,9.289,30.826c0.095-0.002,0.189-0.006,0.284-0.01
		c3.063-10.158,6.126-20.314,9.292-30.813C114.953,144.059,108.871,144.035,102.517,140.186z M129.783,77.545
		c0.165,0.06,0.275,0.134,0.386,0.134c3.875,0.014,7.75,0.014,11.625,0.032c0.696,0.003,0.9-0.356,0.889-0.977
		c-0.015-0.799-0.057-1.602,0.007-2.396c0.078-0.982-0.366-1.225-1.269-1.21c-2.637,0.042-5.273,0.015-7.911,0.015
		c-1.226,0-2.451,0-3.727,0C129.783,74.718,129.783,76.134,129.783,77.545z M94.162,73.144c-3.178,0-6.247,0-9.315,0
		c-3.303,0-3.266,0-3.26,3.293c0.002,1.021,0.375,1.297,1.335,1.285c3.437-0.041,6.874-0.014,10.311-0.021
		c0.305-0.001,0.608-0.063,0.93-0.1C94.162,76.126,94.162,74.737,94.162,73.144z M138.625,95.259
		c0.106,0.077,0.214,0.154,0.32,0.231c0.345-0.421,0.703-0.832,1.032-1.266c1.401-1.851,2.279-3.925,2.611-6.223
		c0.426-2.94-0.914-4.342-3.964-4.133C138.625,87.665,138.625,91.462,138.625,95.259z M85.276,95.604c0-4.16,0-7.965,0-11.77
		c-2.42-0.009-3.806,0.707-3.929,2.241C81.052,89.766,82.458,92.816,85.276,95.604z M90.69,69.399c1.343,0,2.687,0.02,4.028-0.019
		c0.22-0.007,0.525-0.223,0.63-0.425c0.504-0.978,0.951-1.983,1.508-3.17C94.357,66.4,92.389,67.569,90.69,69.399z M127.71,66.192
		c-0.094,0.106-0.187,0.213-0.279,0.32c0.377,0.823,0.738,1.655,1.143,2.465c0.091,0.181,0.333,0.396,0.512,0.402
		c1.119,0.037,2.239,0.019,3.359,0.019c0.039-0.137,0.078-0.272,0.117-0.409C130.944,68.058,129.327,67.125,127.71,66.192z"/>
	<path fill-rule="evenodd" clip-rule="evenodd" d="M142.624,172.574c-2.637,0-5.273,0.01-7.91-0.004
		c-1.551-0.006-2.23-0.637-2.252-2.146c-0.03-2.117-0.027-4.234,0.006-6.352c0.023-1.564,0.727-2.248,2.309-2.254
		c5.234-0.014,10.468-0.016,15.701-0.002c1.518,0.004,2.202,0.672,2.228,2.199c0.035,2.156,0.036,4.314-0.001,6.471
		c-0.025,1.488-0.658,2.076-2.169,2.084C147.898,172.586,145.261,172.574,142.624,172.574z M142.493,168.918
		c1.437,0,2.873,0.02,4.309-0.004c2.512-0.039,2.143,0.408,2.229-2.221c0.032-1.002-0.378-1.195-1.267-1.184
		c-3.112,0.041-6.225-0.004-9.336,0.021c-2.566,0.02-2.215-0.418-2.284,2.291c-0.02,0.818,0.228,1.139,1.083,1.111
		C138.98,168.881,140.737,168.918,142.493,168.918z"/>
	<path fill-rule="evenodd" clip-rule="evenodd" d="M122.415,75.349c0.016,5.721-4.714,10.466-10.435,10.471
		c-5.717,0.005-10.491-4.735-10.497-10.421c-0.005-5.73,4.705-10.374,10.51-10.363C117.727,65.047,122.399,69.671,122.415,75.349z
		 M118.726,75.38c-0.018-3.656-3.095-6.68-6.785-6.667c-3.697,0.012-6.746,3.047-6.74,6.706c0.008,3.665,3.07,6.681,6.78,6.673
		C115.674,82.084,118.743,79.029,118.726,75.38z"/>
</g>
</svg>
