<?xml version="1.0" encoding="utf-8"?>
<!-- Generator: Adobe Illustrator 16.0.0, SVG Export Plug-In . SVG Version: 6.00 Build 0)  -->
<!DOCTYPE svg PUBLIC "-//W3C//DTD SVG 1.1//EN" "http://www.w3.org/Graphics/SVG/1.1/DTD/svg11.dtd">
<svg version="1.1" id="Layer_1" xmlns="http://www.w3.org/2000/svg" xmlns:xlink="http://www.w3.org/1999/xlink" x="0px" y="0px"
	 width="225px" height="225px" viewBox="0 0 225 225" enable-background="new 0 0 225 225" xml:space="preserve">
<path fill-rule="evenodd" clip-rule="evenodd" d="M171.655,183.377c0.488-0.505,0.957-0.796,1.116-1.206
	c0.208-0.534,0.441-1.48,0.189-1.697c-1.013-0.871-0.757-1.979-0.825-3.017c-0.094-1.426-0.183-2.773-0.784-4.171
	c-0.521-1.218-0.213-2.772-0.393-4.162c-0.078-0.592-0.479-1.138-0.706-1.716c-0.125-0.324-0.255-0.668-0.273-1.009
	c-0.066-1.27-0.072-2.542-0.133-3.813c-0.036-0.734,0.18-1.557-0.77-2c-0.193-0.09-0.209-0.656-0.229-1.007
	c-0.067-1.27,0.259-2.703-0.223-3.779c-1.098-2.454-0.325-5.182-1.206-7.465c-0.781-2.024-0.692-4.002-1.04-5.99
	c-0.06-0.329-0.354-0.618-0.541-0.925c-0.149-0.243-0.428-0.48-0.433-0.726c-0.026-1.402-1.443-1.894-1.877-2.821
	c-0.695-1.484-2.575-0.501-3.069-1.955c-0.062-0.18-0.847-0.119-1.299-0.156c-0.805-0.064-1.608,0.168-2.214-0.816
	c-0.239-0.387-1.343-0.237-2.052-0.34c-0.777-0.115-1.8,0.339-2.095-0.906c-0.015-0.061-0.138-0.12-0.219-0.136
	c-2.322-0.452-4.641-0.918-6.973-1.305c-0.205-0.034-0.713,0.446-0.717,0.692c-0.048,3.487-0.033,6.977-0.033,10.273
	c1.579,0.627,2.991,1.073,4.282,1.75c0.615,0.322,0.986,1.098,1.491,1.647c0.536,0.584,1.097,1.146,1.655,1.712
	c0.089,0.09,0.293,0.125,0.313,0.216c0.602,2.691,2.195,5.27,1.316,8.134c-0.438,1.427-1.273,2.756-2.074,4.038
	c-0.702,1.123-1.587,2.137-2.443,3.153c-0.16,0.188-0.6,0.114-0.861,0.252c-0.434,0.225-0.832,0.519-1.236,0.795
	c-0.141,0.096-0.242,0.292-0.388,0.326c-1.407,0.333-2.829,0.937-4.225,0.881c-1.726-0.068-3.548-0.436-5.105-1.154
	c-1.199-0.554-2.043-1.864-3.069-2.812c-0.582-0.536-1.241-0.989-1.808-1.542c-0.191-0.188-0.161-0.586-0.302-0.851
	c-0.244-0.464-0.563-0.887-0.805-1.35c-0.156-0.296-0.321-0.633-0.326-0.955c-0.037-1.998-0.064-3.998-0.005-5.994
	c0.011-0.364,0.497-0.69,0.663-1.079c0.271-0.628,0.457-1.292,0.642-1.826c0.679-0.643,1.387-1.184,1.938-1.854
	c1.474-1.792,3.094-3.276,5.747-3.179c0-4.479,0-8.901,0-13.405c-1.746-0.426-3.52-0.82-5.269-1.311
	c-0.376-0.105-0.613-0.65-0.991-0.818c-0.388-0.175-0.869-0.135-1.356-0.194c-0.35,0.909-0.324,1.753-1.182,2.53
	c-0.869,0.786-0.937,2.47-1.328,3.769c-0.185,0.614,0.26,1.549-0.891,1.65c-0.077,0.008-0.199,0.209-0.192,0.313
	c0.063,1.004-0.479,1.663-0.981,2.492c-0.771,1.274-0.815,2.961-1.371,4.395c-0.56,1.444-1.366,2.795-2.066,4.185
	c-0.019,0.039-0.075,0.063-0.088,0.104c-0.41,1.398-0.789,2.809-1.244,4.193c-0.16,0.49-0.5,0.923-0.77,1.374
	c-0.04,0.068-0.216,0.12-0.209,0.144c0.431,1.436-1.052,2.188-1.211,3.414c-0.11,0.839-0.128,1.552-0.871,2.353
	c-0.85,0.915-1.021,2.488-1.396,3.802c-0.194,0.682,0.177,1.582-0.951,1.807c-0.146,0.029-0.178,0.644-0.254,0.988
	c-0.186,0.84,0.386,1.995-0.979,2.342c0.29,1.53-1.075,2.51-1.29,3.874c-0.114,0.721,0.342,1.719-0.918,1.894
	c-0.05,0.007-0.093,0.148-0.116,0.232c-0.41,1.524-0.733,3.079-1.255,4.563c-0.34,0.967-0.966,1.832-1.521,2.849
	c-0.857,0-1.838,0-2.435,0c-0.629-0.912-1.182-1.514-1.501-2.221c-0.5-1.105-0.898-2.266-1.232-3.433
	c-0.239-0.839,0.235-1.925-1.013-2.389c-0.188-0.071-0.09-0.776-0.228-1.15c-0.236-0.642-0.551-1.255-0.842-1.876
	c-0.035-0.076-0.162-0.116-0.185-0.191c-0.424-1.468-0.813-2.947-1.265-4.406c-0.173-0.561-0.479-1.08-0.723-1.619
	c-0.136,0.034-0.27,0.067-0.403,0.102c0-0.542,0.106-1.113-0.03-1.619c-0.14-0.521-0.515-0.979-0.792-1.462
	c-0.083-0.146-0.255-0.273-0.269-0.42c-0.084-0.901-0.339-1.6-0.917-2.429c-0.854-1.226-0.966-2.954-1.476-4.44
	c-0.189-0.553-0.711-0.992-0.897-1.545c-0.5-1.488-0.642-3.164-1.42-4.472c-0.67-1.126-0.86-2.228-1.169-3.412
	c-0.283-1.079-1.22-1.977-1.801-2.993c-0.189-0.333-0.181-0.785-0.238-1.186c-0.111-0.767,0.129-1.667-0.938-2.031
	c-0.158-0.055-0.166-0.567-0.23-0.869c-0.125-0.578,0.085-1.329-0.858-1.467c-0.126-0.019-0.224-0.448-0.279-0.698
	c-0.208-0.944,0.189-2.101-1.046-2.689c-0.174-0.082-0.098-0.679-0.145-1.036c-0.041-0.311-0.041-0.868-0.147-0.891
	c-1.374-0.29-0.81-1.484-1.108-2.366c-0.791-0.004-1.624-0.261-2.058,0.766c-0.041,0.098-0.2,0.177-0.318,0.206
	c-1.729,0.423-3.463,0.836-5.312,1.28c0,1.761,0,3.553,0,5.674c1.05,0.364,2.332,0.666,3.471,1.25
	c0.811,0.417,1.44,1.199,2.123,1.846c0.498,0.472,0.992,0.957,1.41,1.495c0.339,0.437,0.664,0.934,0.809,1.453
	c0.186,0.658-0.109,1.47,0.851,1.81c0.182,0.064,0.254,0.624,0.264,0.959c0.047,1.453-0.056,2.919,0.103,4.357
	c0.146,1.353,0.558,2.676,0.84,4.016c0.057,0.265,0.076,0.541,0.079,0.812c0.057,4.765,0.077,9.53,0.188,14.294
	c0.026,1.075-0.281,1.917-1.083,2.52c-0.914,0.686-1.576,1.778-3.018,1.652c-1.438-0.127-2.899,0.046-4.344-0.037
	c-0.947-0.055-1.955-0.514-1.695-1.618c0.173-0.733,0.967-1.358,1.567-1.944c1.076-1.047,2.513-0.853,3.854-1.046
	c1.119-0.159,1.424-1.23,0.87-2.296c-0.295-0.569-0.563-1.229-0.581-1.854c-0.095-3.269-0.081-6.541-0.161-9.81
	c-0.029-1.232-0.044-2.404-0.75-3.622c-0.553-0.954-0.5-2.421-0.324-3.602c0.334-2.244-1.168-3.547-2.41-4.815
	c-0.892-0.911-2.205-1.701-3.772-1.349c-0.607,0.137-1.27,0.073-1.903,0.038c-1.555-0.085-2.329,1.099-3.444,1.83
	c-1.138,0.748-0.714,2.282-1.965,2.761c-0.167,0.063-0.172,0.664-0.179,1.018c-0.031,1.635,0.025,3.274-0.067,4.905
	c-0.092,1.625,0.283,3.317-0.815,4.824c-0.325,0.447-0.24,1.23-0.25,1.862c-0.047,2.953-0.034,5.907-0.102,8.859
	c-0.02,0.893,0.223,1.222,1.175,1.368c1.493,0.229,2.942,0.743,4.512,1.164c0,0.962,0,1.941,0,3.006
	c-2.483,0.749-4.959,0.435-7.408,0.09c-0.501-0.071-1.147-0.617-1.335-1.098c-0.363-0.931-1.475-1.324-1.415-2.599
	c0.171-3.674-0.462-7.496,0.354-10.996c0.908-3.889,0.455-7.718,0.861-11.549c0.009-0.09-0.029-0.218,0.018-0.268
	c1.023-1.069,0.607-2.734,1.229-3.689c0.743-1.144,1.28-2.504,2.313-3.463c0.236-0.221,0.699-0.178,1.01-0.345
	c0.384-0.207,0.722-0.501,1.07-0.769c0.101-0.078,0.146-0.25,0.251-0.289c1.036-0.382,2.079-0.744,2.965-1.057
	c0.115-0.338,0.166-0.421,0.169-0.508c0.145-3.348-0.677-4.114-3.794-2.73c-1.266,0.561-2.837,0.331-3.6,1.02
	c-1.212,1.093-2.798,0.422-3.609,1.107c-1.375,1.161-3.038,0.5-4.194,1.182c-1.467,0.865-3.376,1.064-4.399,2.923
	c-0.396,0.716-0.529,1.689-0.994,2.113c-1.836,1.678-0.582,3.771-1.053,5.592c-0.152,0.589-0.513,1.123-0.754,1.692
	c-0.115,0.274-0.226,0.57-0.246,0.861c-0.058,0.815-0.042,1.636-0.102,2.45c-0.076,0.994,0.068,1.936-0.722,2.898
	c-0.523,0.638-0.29,1.914-0.356,2.906c-0.095,1.394-1.582,2.633-2.882,2.199c-0.618-0.207-1.155-0.809-1.601-1.34
	c-0.443-0.529,0.109-3.766,0.577-4.339c0.204-0.251,0.326-0.624,0.356-0.952c0.08-0.858,0.005-1.737,0.151-2.582
	c0.145-0.837,0.542-1.628,0.719-2.464c0.169-0.789,0.172-1.613,0.288-2.417c0.217-1.496-0.447-3.19,0.994-4.427
	c0.129-0.109,0.098-0.435,0.102-0.659c0.023-1.887,1.211-3.19,2.206-4.624c0.819-1.185,1.922-1.756,3.118-2.472
	c1.16-0.697,2.73-0.415,3.287-1.076c1.343-1.594,3.511-0.416,4.776-1.896c0.332-0.388,1.281-0.245,1.948-0.347
	c0.708-0.109,1.561,0.192,1.943-0.816c0.066-0.176,0.653-0.159,1.002-0.219c0.879-0.152,1.932,0.216,2.469-0.945
	c0.082-0.178,0.688-0.22,1.02-0.156c1.297,0.247,2.189-0.527,3.148-1.154c0.069-0.045,0.129-0.13,0.162-0.208
	c0.347-0.846,1.057-1.741,0.955-2.529c-0.236-1.836,0.728-3.326,1.552-4.527c0.948-1.383,1.212-3.201,2.922-4.269
	c0.929-0.58,1.869-1.667,2.694-2.629c0.086-0.101,0.117-0.279,0.219-0.331c1.092-0.542,2.201-1.046,3.286-1.602
	c0.661-0.338,1.32-0.707,1.898-1.165c0.1-0.079-0.17-0.69-0.337-1.022c-0.156-0.309-0.583-0.578-0.575-0.855
	c0.039-1.268-1.273-1.539-1.699-2.446c-0.147-0.314-0.471-0.562-0.561-0.882c-0.173-0.617,0.013-1.395-0.985-1.521
	c-0.139-0.018-0.152-0.653-0.313-0.958c-0.219-0.417-0.521-0.789-0.785-1.183c-0.115-0.173-0.301-0.345-0.317-0.53
	c-0.072-0.789-0.429-1.343-0.871-2.028c-0.783-1.21-1.164-2.81-1.279-4.281c-0.089-1.138-0.772-1.956-1.429-1.963
	c-1.966-0.025-3.599-0.821-5.454-1.92c-0.208-0.447,0.338-1.695-1.031-1.95c-0.093-0.018-0.112-0.587-0.114-0.9
	c-0.013-2.044,0.174-4.112-0.078-6.126c-0.179-1.432,0.952-1.982,1.41-2.95c0.313-0.659,1.234-1.031,1.995-1.617
	c0-4.791-0.008-9.695,0.002-14.599c0.007-3.543,0-7.088,0.091-10.63c0.016-0.612,0.502-1.209,0.749-1.821
	c0.114-0.285,0.246-0.589,0.252-0.887c0.034-1.59,1.006-2.662,1.954-3.782c0.421-0.496,0.634-1.163,1.011-1.703
	c0.909-1.306,2.491-1.741,3.632-2.722c1.406-1.209,3.121-1.567,4.701-2.303c2.921-1.36,5.838-0.815,8.739-0.843
	c10.131-0.096,20.265-0.031,30.396,0.008c1.118,0.004,2.377-0.329,3.235,0.867c0.125,0.174,0.601,0.093,0.914,0.139
	c0.578,0.085,1.343-0.175,1.463,0.789c0.011,0.09,0.199,0.232,0.299,0.228c2.062-0.093,2.729,2.301,4.646,2.591
	c0.53,0.081,1.029,0.995,1.358,1.623c0.606,1.158,1.181,2.297,2.249,3.131c0.218,0.168,0.188,0.673,0.242,1.028
	c0.123,0.791-0.229,1.771,0.921,2.146c0.114,0.038,0.171,0.4,0.172,0.612c0.011,3.084,0.008,6.167,0.008,9.485
	c-0.938,0-1.983,0.292-2.673-0.08c-0.734-0.396-1.494-1.368-1.605-2.177c-0.268-1.967-0.143-3.986-0.229-5.982
	c-0.033-0.773,0.105-1.652-0.888-2.081c-0.177-0.076-0.194-0.561-0.255-0.863c-0.229-1.135-1.027-1.828-1.879-2.5
	c-0.453-0.357-0.961-0.72-1.254-1.197c-0.973-1.587-2.849-1.61-4.09-2.471c-2.005-1.391-3.941-0.835-5.858-0.854
	c-10.813-0.104-21.628-0.055-32.44-0.023c-0.892,0.002-2.018-0.442-2.532,0.889c-0.072,0.185-0.663,0.219-1.019,0.235
	c-1.439,0.064-2.32,0.94-3.177,1.973c-0.494,0.597-1.259,0.961-1.821,1.511c-0.373,0.365-0.682,0.841-0.886,1.324
	c-0.606,1.433-1.849,2.548-1.842,4.3c0.031,8.224-0.013,16.448-0.022,24.672c0,0.446,0.07,0.892,0.117,1.451
	c1.069,0.058,2.092,0.113,3.352,0.181c0-0.747,0-1.361,0-1.977c0.003-4.998-0.022-9.996,0.035-14.993
	c0.011-0.932-0.426-2.145,0.951-2.654c0.094-0.036,0.128-0.325,0.134-0.498c0.052-1.99,1.897-2.7,2.789-4.054
	c0.845-1.282,2.612-0.448,3.153-1.897c0.057-0.155,0.675-0.135,1.033-0.138c2.316-0.016,4.635-0.045,6.95-0.002
	c0.791,0.015,1.768-0.307,2.21,0.818c0.054,0.137,0.494,0.173,0.755,0.169c1.632-0.023,2.602,1.07,3.806,1.944
	c1.116,0.81,2.771,1.441,4.072,1.267c1.207-0.161,2.568-0.776,3.722-1.69c0.792-0.628,1.578-1.723,2.974-1.519
	c0.449,0.065,0.969-0.448,1.474-0.653c0.359-0.146,0.748-0.31,1.123-0.313c2.68-0.021,5.36-0.029,8.039,0.034
	c0.376,0.009,0.745,0.42,1.115,0.65c0.142,0.087,0.271,0.257,0.418,0.27c2.067,0.172,3.069,1.684,4.331,3.063
	c0.692,0.755,0.563,1.697,1.018,2.191c1.994,2.162,0.818,4.676,0.941,6.985c0.227,4.25,0.064,8.521,0.064,12.879
	c1.13,0,2.149,0,3.201,0c1.182-3.746-0.999-7.872,1.498-11.365c1.026,0,2.014,0,3.276,0c0,1.336,0,2.587,0,3.838
	c0,1.227,0.16,2.48-0.039,3.673c-0.269,1.611,0.432,2.696,1.56,3.568c1.429,1.106,2.182,2.4,1.943,4.27
	c-0.138,1.073,0.047,2.183-0.043,3.266c-0.1,1.192,0.564,2.584-0.942,3.478c-0.325,0.193-0.287,0.999-0.324,1.145
	c-0.905,0.671-1.503,1.25-2.214,1.595c-0.49,0.239-1.137,0.186-1.715,0.208c-2.221,0.087-2.619,0.496-2.896,2.664
	c-0.077,0.603-0.503,1.161-0.776,1.736c-0.056,0.12-0.171,0.216-0.21,0.338c-0.398,1.258-0.437,2.883-1.27,3.682
	c-0.954,0.915-0.486,2.523-1.868,3.021c-0.114,0.041-0.218,0.292-0.219,0.446c-0.015,1.427-0.981,2.173-1.983,2.938
	c-0.234,0.179-0.222,0.651-0.398,0.941c-0.251,0.409-0.644,0.741-0.839,1.168c-0.144,0.315-0.233,0.862-0.062,1.072
	c0.332,0.404,0.837,0.701,1.322,0.938c1.146,0.562,2.338,1.028,3.477,1.603c0.536,0.271,1.154,0.598,1.451,1.075
	c1.145,1.835,3.578,2.726,3.82,5.208c1.582,0.255,0.423,2.476,1.975,2.768c0.066,0.014,0.104,0.235,0.136,0.365
	c0.384,1.555,0.597,3.182,1.216,4.635c0.302,0.71,1.294,1.241,2.088,1.598c0.885,0.397,2.168-0.364,2.805,0.986
	c0.096,0.203,0.764,0.125,1.164,0.195c0.788,0.139,1.7-0.219,2.252,0.843c0.154,0.298,1.117,0.113,1.672,0.276
	c0.859,0.252,1.677,0.641,2.531,0.914c0.461,0.148,0.963,0.17,1.444,0.263c0.778,0.152,1.794-0.229,2.134,0.944
	c0.023,0.084,0.242,0.188,0.338,0.163c1.727-0.474,2.944,0.817,4.324,1.374c1.261,0.508,2.344,1.604,2.952,2.885
	c0.625,1.314,1.798,2.483,1.42,4.152c1.632,1.607,0.393,3.881,1.185,5.531c1.059,2.208,0.27,4.657,1.146,6.631
	c0.987,2.225,0.306,4.639,1.192,6.586c1.059,2.324,0.273,4.828,1.158,6.872c1.031,2.385,0.135,4.955,1.091,7.026
	c1.575,3.413,0.673,6.837,0.916,10.244c0.07,0.987-1.846,2.871-2.606,3.432c-2.236,1.652-4.729,0.935-7.093,0.938
	c-38.53,0.05-77.06,0.036-115.591,0.035c-0.59,0-1.181,0.001-1.771-0.004c-2.176-0.02-3.652-0.917-4.988-2.792
	c-1.09-1.53-0.948-2.976-0.989-4.518c-0.038-1.402,0.094-2.812,0.189-4.215c0.059-0.859-0.171-1.788,0.772-2.438
	c0.272-0.188,0.283-0.837,0.312-1.281c0.062-0.996,0.216-2.025,0.046-2.99c-0.287-1.614,0.971-2.59,1.426-3.882
	c0.115-0.327,1.176-0.676,1.521-0.491c0.634,0.34,1.507,1.074,1.499,1.635c-0.035,2.603,0.47,5.239-0.723,7.808
	c-0.518,1.117-0.229,2.593-0.415,3.89c-0.08,0.553-0.41,1.076-0.667,1.592c-0.347,0.701-0.693,1.346,0.221,1.934
	c0.316,0.203,0.494,0.624,0.875,1.129C89.594,183.377,130.698,183.377,171.655,183.377z M85.86,85.048
	c0,1.71,0.237,3.734-0.059,5.676c-0.381,2.5,1.006,4.533,1.443,6.796c0.149,0.777,0.986,1.62,1.014,2.651
	c0.002,0.066,0.098,0.161,0.172,0.192c1.826,0.774,1.684,3.039,3.119,4.116c0.412,0.311,0.775,0.701,1.117,1.093
	c0.837,0.951,1.474,2.239,2.511,2.81c1.384,0.762,2.192,2.122,3.769,2.778c1.438,0.598,2.637,1.861,4.368,2.003
	c0.208,0.018,0.386,0.303,0.599,0.43c0.313,0.187,0.641,0.488,0.965,0.492c3.584,0.03,7.17,0.02,10.755-0.006
	c0.277-0.001,0.563-0.171,0.826-0.302c0.479-0.236,0.933-0.523,1.416-0.749c0.349-0.162,0.753-0.211,1.089-0.393
	c1.032-0.558,2.054-1.137,3.058-1.744c0.806-0.486,1.664-0.932,2.346-1.562c0.997-0.924,1.833-2.019,2.78-3
	c1.18-1.22,2.805-2.083,3.11-3.993c0.03-0.194,0.216-0.366,0.344-0.539c0.669-0.908,1.737-1.556,1.806-2.854
	c0.014-0.246,0.172-0.488,0.275-0.726c0.305-0.697,0.603-1.396,0.926-2.083c0.221-0.466,0.485-0.911,0.717-1.372
	c0.115-0.228,0.282-0.469,0.283-0.706c0.021-3.08,0.014-6.159,0.014-9.161c-0.613-0.41-1.17-0.951-1.837-1.189
	c-1.305-0.468-1.585-1.366-1.579-2.622c0.035-6.221,0.055-12.442-0.017-18.664c-0.018-1.476,0.683-3.203-1.036-4.327
	c-0.873-0.569-1.657-1.665-2.549-1.744c-2.611-0.228-5.257-0.073-7.889-0.039c-0.276,0.003-0.566,0.182-0.824,0.325
	c-0.452,0.254-0.886,0.541-1.326,0.818c-0.315,0.198-0.622,0.407-0.939,0.602c-1.081,0.659-1.814,1.881-3.432,1.645
	c-0.944-0.136-1.967,0.272-2.994,0.442c-0.653-0.146-1.411-0.372-2.186-0.475c-0.762-0.102-1.766,0.214-2.266-0.171
	c-1.201-0.926-2.154-2.18-3.845-2.257c-0.028-0.002-0.077-0.063-0.079-0.098c-0.083-1.243-1.069-0.885-1.734-0.9
	c-2.088-0.049-4.195-0.162-6.26,0.063c-1.157,0.125-2.486,0.621-3.298,1.405c-0.817,0.791-1.469,1.928-1.3,3.38
	c0.202,1.748,0.035,3.537,0.035,5.309c-0.002,5.04,0.011,10.081-0.014,15.122c-0.003,0.563-0.021,1.355-0.365,1.646
	C88.05,83.88,87.017,84.357,85.86,85.048z M110.225,136.627c4.68-3.468,9.323-6.908,14.177-10.505
	c-0.048-0.392,0.086-1.451-0.245-1.623c-0.999-0.521-0.735-1.346-0.865-2.093c-0.07-0.399,0.003-1.062-0.202-1.16
	c-1.24-0.6-0.754-1.686-0.833-2.594c-0.062-0.712-0.013-1.431-0.013-2.468c-1.746,0.648-3.262,1.2-4.77,1.777
	c-0.598,0.228-1.168,0.724-1.758,0.734c-3.632,0.072-7.266,0.059-10.899,0.024c-0.509-0.006-1.026-0.26-1.521-0.447
	c-0.547-0.208-1.074-0.466-1.604-0.714c-0.447-0.21-0.869-0.479-1.33-0.646c-0.568-0.207-1.165-0.335-1.75-0.498
	c-0.121,0.452-0.307,0.896-0.35,1.356c-0.092,0.99,0.285,2.459-0.233,2.892c-1.375,1.147-0.13,3.321-1.903,4.127
	c-0.057,0.026-0.013,0.26-0.033,0.394c-0.236,1.572,1.179,2.044,2.06,2.435c1.086,0.482,1.718,1.292,2.527,1.995
	c0.668,0.581,1.445,1.033,2.179,1.536c0.768,0.525,1.563,1.017,2.308,1.575c0.997,0.75,1.958,1.551,2.935,2.329
	c0.038-0.045,0.076-0.09,0.115-0.135C108.904,135.506,109.595,136.092,110.225,136.627z M135.849,154.527
	c-0.057,0.005-0.116,0.012-0.175,0.018c0.152,0.956,0.235,1.931,0.483,2.86c0.137,0.508,0.564,0.935,0.844,1.408
	c0.129,0.22,0.158,0.594,0.335,0.675c1.056,0.479,2.148,0.881,3.216,1.337c0.336,0.145,0.613,0.489,0.951,0.545
	c0.703,0.117,1.441,0.206,2.138,0.106c0.487-0.071,0.926-0.478,1.39-0.729c0.392-0.212,0.811-0.384,1.176-0.633
	c1.028-0.701,1.627-1.85,2.432-2.647c0.768-0.762,0.652-1.382,0.814-2.125c0.521-2.376-0.579-4.225-2.198-5.663
	c-0.742-0.658-1.426-1.943-2.887-1.51c-0.188,0.056-0.483-0.424-0.773-0.516c-0.564-0.179-1.587-0.505-1.679-0.344
	c-0.85,1.476-2.613,0.916-3.804,1.861c-1.215,0.963-1.563,2.202-2.212,3.343C135.606,153.027,135.849,153.846,135.849,154.527z
	 M110.511,172.084c0.602-1.771,0.89-3.51,1.762-4.874c0.595-0.928,0.854-1.761,0.934-2.765c0.01-0.119,0.092-0.248,0.174-0.343
	c0.81-0.927,1.246-3.214,0.498-4.025c-0.721-0.779-0.664-1.595-0.715-2.463c-0.039-0.679,0.078-1.389-0.082-2.034
	c-0.312-1.258-0.753-2.485-1.184-3.71c-0.051-0.146-0.365-0.274-0.562-0.28c-0.892-0.03-1.786-0.014-2.61-0.014
	c-0.198,0.87-0.31,1.568-0.524,2.234c-0.175,0.538-0.614,1.018-0.69,1.558c-0.137,0.981-0.05,1.993-0.139,2.986
	c-0.041,0.46-0.346,0.895-0.41,1.356c-0.187,1.329-0.695,2.797-0.308,3.951c0.218,0.645,0.483,1.512,0.879,2.113
	c0.771,1.174,0.752,2.572,1.313,3.651c0.377,0.725,0.786,1.433,1.02,2.245C109.906,171.814,110.19,171.888,110.511,172.084z
	 M128.245,122.809c-0.049,0.139-0.098,0.276-0.146,0.415c1.713,0,3.426-0.018,5.139,0.014c0.436,0.008,1.152,0.051,1.252,0.285
	c0.41,0.968,1.24,0.717,1.939,0.861c0.563,0.117,1.133,0.202,1.685,0.357c0.306,0.087,0.578,0.29,0.865,0.44
	c0.113-0.324,0.308-0.643,0.326-0.971c0.105-1.836-0.971-3.155-2.038-4.463c-0.434-0.53-0.914-1.022-1.373-1.531
	c-0.871-0.961-1.604-2.132-2.654-2.819c-1.059-0.693-2.173-1.664-3.678-1.329c-0.134,0.028-0.412-0.096-0.446-0.206
	c-0.401-1.274-1.363-0.604-2.212-0.738c0,2.4-0.002,4.699,0.003,6.997c0.001,0.176,0.011,0.378,0.093,0.525
	C127.4,121.375,127.828,122.09,128.245,122.809z M93.688,113.058c-0.732,0.091-1.66-0.021-1.807,0.266
	c-0.504,0.984-1.32,0.759-2.083,0.849c-0.178,0.022-0.495,0.037-0.509,0.105c-0.312,1.473-2.143,0.657-2.794,1.991
	c-0.546,1.12-1.973,1.79-2.928,2.74c-0.468,0.466-0.808,1.091-1.101,1.695c-0.248,0.513-0.416,0.993-0.794,1.488
	c-0.487,0.634-0.153,1.901-0.142,2.894c0,0.023,0.408,0.104,0.595,0.049c0.813-0.239,1.612-0.521,2.418-0.782
	c0.416-0.134,0.849-0.224,1.251-0.389c0.522-0.215,1.014-0.669,1.534-0.695c1.745-0.091,3.497-0.035,4.866-0.035
	C94.352,119.861,93.697,116.514,93.688,113.058z M99.346,141.461c0.36-0.031,0.963,0.053,1.043-0.113
	c0.602-1.248,1.867-0.816,2.784-1.226c0.717-0.321,1.345-0.842,2.012-1.273c-0.385-0.379-0.774-0.753-1.15-1.14
	c-0.055-0.055-0.016-0.209-0.071-0.252c-0.752-0.585-1.499-1.175-2.274-1.729c-0.705-0.505-1.461-0.941-2.159-1.457
	c-0.802-0.59-1.563-1.238-2.348-1.854c-0.763-0.596-1.527-1.185-2.301-1.765c-0.237-0.179-0.503-0.322-0.756-0.48
	c-0.013,0.356-0.128,0.747-0.015,1.056c0.108,0.293,0.578,0.46,0.673,0.751c0.329,1.014,0.179,2.024,1.081,3.044
	c0.896,1.013,0.963,2.778,1.336,4.229C97.464,140.27,98.583,141.486,99.346,141.461z M122.279,141.515
	c0.472-1.417,0.903-2.723,1.345-4.024c0.041-0.122,0.165-0.213,0.221-0.334c0.571-1.242,1.133-2.49,1.707-3.733
	c0.211-0.459,0.471-0.897,0.667-1.361c0.188-0.446,0.358-0.908,0.456-1.378c0.031-0.15-0.193-0.497-0.31-0.501
	c-0.212-0.008-0.479,0.126-0.636,0.286c-0.563,0.575-0.987,1.514-1.647,1.717c-1.404,0.429-2.46,1.09-3.245,2.34
	c-0.313,0.497-0.938,1.059-1.467,1.109c-1.814,0.172-2.438,2.001-3.902,2.618c-0.084,0.035-0.061,0.75,0.077,0.818
	c0.926,0.46,1.889,0.848,2.853,1.224c0.371,0.146,1.021,0.089,1.128,0.317C120.088,141.821,121.118,141.328,122.279,141.515z
	 M110.04,141.83c-0.042,0.05-0.238,0.478-0.557,0.609c-1.168,0.485-2.382,0.862-3.567,1.309c-0.217,0.081-0.42,0.273-0.547,0.468
	c-0.036,0.054,0.223,0.303,0.349,0.459c0.226,0.281,0.423,0.597,0.688,0.835c0.589,0.534,1.218,1.466,1.82,1.458
	c1.861-0.022,3.954,0.862,5.52-0.981c0.467-0.552,1.046-1.006,1.525-1.547c0.088-0.101,0.008-0.548-0.103-0.598
	c-0.995-0.449-2.011-0.854-3.026-1.253C111.511,142.342,110.867,142.128,110.04,141.83z M77.868,86.34
	c0.624,0.597,0.969,0.973,1.365,1.283c0.177,0.14,0.652,0.229,0.664,0.201c0.344-0.794,1.684-0.938,1.361-2.195
	c-0.153-0.596-0.024-1.264-0.027-1.898c-0.004-1.303-1.024-2.352-2.323-2.459c-0.681-0.057-1.043,0.152-1.042,0.868
	C77.87,83.672,77.868,85.206,77.868,86.34z M142.582,81.378c-1.201-0.056-2.997,0.679-3.087,1.359
	c-0.152,1.155-0.231,2.374-0.015,3.503c0.118,0.625,0.9,1.124,1.26,1.538c0.699-0.446,1.248-0.796,1.842-1.175
	C142.582,84.947,142.582,83.199,142.582,81.378z M117.374,153.841c0.153-0.64,0.133-1.625,0.475-1.771
	c1.076-0.466,0.906-1.291,0.979-2.106c0.019-0.21,0.086-0.521,0.229-0.596c1.2-0.621,0.861-1.745,0.902-2.726
	c0.008-0.188-0.232-0.503-0.413-0.55c-0.19-0.052-0.519,0.086-0.66,0.25c-0.546,0.635-0.989,1.361-1.566,1.964
	c-0.895,0.936-1.198,4.503-0.392,5.5C116.966,153.853,117.099,153.822,117.374,153.841z M100.36,146.096
	c0.533,1.931,1.013,3.669,1.495,5.405c0.011,0.039,0.058,0.093,0.091,0.095c1.05,0.077,0.83,0.974,1.055,1.596
	c0.088,0.241,0.293,0.439,0.445,0.658c0.127-0.03,0.253-0.061,0.378-0.09c0-1.582,0.292-3.241-0.097-4.721
	c-0.288-1.101-1.439-1.984-2.254-2.927C101.365,145.987,100.985,146.096,100.36,146.096z"/>
</svg>
