<?xml version="1.0" encoding="utf-8"?>
<!-- Generator: Adobe Illustrator 16.0.0, SVG Export Plug-In . SVG Version: 6.00 Build 0)  -->
<!DOCTYPE svg PUBLIC "-//W3C//DTD SVG 1.1//EN" "http://www.w3.org/Graphics/SVG/1.1/DTD/svg11.dtd">
<svg version="1.1" id="Layer_1" xmlns="http://www.w3.org/2000/svg" xmlns:xlink="http://www.w3.org/1999/xlink" x="0px" y="0px"
	 width="225px" height="225px" viewBox="0 0 225 225" enable-background="new 0 0 225 225" xml:space="preserve">
<g>
	<path fill-rule="evenodd" clip-rule="evenodd" d="M142.403,114.123c2.598,0,4.891-0.053,7.18,0.01
		c17.729,0.479,31.524,14.441,31.705,32.206c0.109,10.792-0.054,21.585,0.068,32.377c0.037,3.294-1.127,4.575-4.49,4.567
		c-33.275-0.074-66.554-0.074-99.83,0.002c-3.383,0.008-4.528-1.32-4.495-4.581c0.108-10.792-0.087-21.588,0.075-32.378
		c0.27-17.881,13.895-31.616,31.736-32.184c2.288-0.072,4.582-0.01,7.117-0.01c0.702-5.034,1.286-9.005-3.662-12.641
		c-7.932-5.828-11.188-14.434-10.889-24.314c0.289-9.489,0.681-18.979,0.714-28.468c0.013-3.332,1.147-4.726,4.359-5.508
		c16.68-4.06,33.292-4.019,49.97-0.005c3.208,0.771,4.383,2.229,4.407,5.54c0.071,9.751,0.599,19.498,0.702,29.249
		c0.1,9.379-3.118,17.72-10.689,23.278C141.555,104.808,141.532,108.734,142.403,114.123z M175.813,177.603
		c0-9.996-0.326-19.62,0.075-29.217c0.62-14.854-10.337-31.025-32.955-28.717c-1.017,0.104-2.215,1.155-2.821,2.094
		c-3.417,5.282-6.658,10.68-9.999,16.015c-2.137,3.411-4.134,3.441-6.28,0.038c-3.288-5.215-6.428-10.525-9.773-15.701
		c-0.681-1.053-1.934-2.316-3.033-2.431c-22.332-2.323-33.392,13.39-33.02,28.271c0.197,7.836,0.035,15.681,0.035,23.521
		c0,2.003,0,4.007,0,5.897c5.515,0,10.441,0,15.556,0c0-4.7-0.007-9.064,0.003-13.429c0.004-1.993,0.014-4.148,2.759-4.169
		c2.828-0.022,2.693,2.238,2.709,4.169c0.04,4.473,0.014,8.945,0.014,13.433c18.755,0,37.158,0,55.804,0
		c0-5.073-0.133-9.821,0.103-14.554c0.053-1.055,1.216-2.385,2.223-2.929c0.532-0.288,2.198,0.616,2.688,1.4
		c0.546,0.872,0.427,2.214,0.438,3.354c0.04,4.304,0.016,8.609,0.016,12.955C165.741,177.603,170.479,177.603,175.813,177.603z
		 M127.039,68.745c-7.337,1.429-14.501,2.721-21.598,4.317c-1.122,0.252-2.67,1.793-2.781,2.867
		c-1.032,9.973,2.764,17.946,11.157,23.3c8.411,5.364,17.355,5.463,25.864,0.26c8.475-5.184,12.487-13.061,11.626-23.063
		c-0.105-1.209-1.598-3.032-2.744-3.3C141.482,71.472,134.316,70.182,127.039,68.745z M103.196,67.792
		c16.066-4.944,31.619-4.907,47.567-0.018c0-6.196,0.078-11.825-0.094-17.446c-0.022-0.76-1.196-1.957-2.025-2.151
		c-14.365-3.366-28.77-3.425-43.134-0.017c-0.908,0.216-2.183,1.527-2.213,2.368C103.1,56.03,103.196,61.542,103.196,67.792z
		 M117.255,108.061c0.184,3.018-0.486,6.658,0.768,9.428c2.297,5.079,5.729,9.645,9.072,15.046
		c3.738-8.449,12.389-14.393,8.998-24.474C130.006,108.061,124.062,108.061,117.255,108.061z"/>
	<path fill-rule="evenodd" clip-rule="evenodd" d="M36.952,134.986c0-11.562-0.075-23.125,0.088-34.685
		c0.021-1.522,1.29-3.009,1.897-4.545c0.435-1.096,1.017-2.244,1.037-3.376c0.108-6.036-0.054-12.078,0.096-18.113
		c0.204-8.292,6.306-14.984,14.403-16.054c3.838-0.507,4.919,0.374,4.933,4.281c0.035,9.763-0.071,19.528,0.094,29.289
		c0.026,1.495,1.225,2.959,1.82,4.461c0.45,1.136,1.146,2.312,1.149,3.471c0.067,23.509,0.107,47.02,0.016,70.529
		c-0.029,7.635-5.541,13.01-12.844,12.978c-7.248-0.03-12.619-5.51-12.67-13.162C36.895,158.368,36.952,146.676,36.952,134.986z
		 M42.451,101.421c0,8.337-0.001,16.277,0,24.215c0,14.628-0.034,29.253,0.021,43.881c0.021,5.504,3.449,8.73,8.361,8.115
		c3.843-0.48,6.165-3.564,6.169-8.37c0.02-21.556,0.011-43.111,0.003-64.667c0-0.994-0.086-1.988-0.142-3.175
		C52.062,101.421,47.507,101.421,42.451,101.421z M53.731,64.096c-4.588,1.46-7.518,4.263-7.777,8.291
		c-0.489,7.616-0.142,15.286-0.142,23.048c2.757,0,5.25,0,7.919,0C53.731,84.973,53.731,74.763,53.731,64.096z"/>
	<path fill-rule="evenodd" clip-rule="evenodd" d="M161.903,144.977c-1.761,2.222-3.137,3.964-4.514,5.704
		c-1.191-1.807-2.382-3.615-3.618-5.491c-1.597-1.049-3.523-2.313-5.45-3.579c1.823-1.33,3.646-2.662,5.791-4.228
		c0.876-1.324,2.135-3.227,3.393-5.127c1.335,1.816,2.669,3.633,4.004,5.451c-0.286,0.217-0.572,0.432-0.857,0.648
		c1.904,1.262,6.105-0.894,5.782,3.154C166.323,142.889,163.222,144.025,161.903,144.977z"/>
</g>
</svg>
