<?xml version="1.0" encoding="utf-8"?>
<!-- Generator: Adobe Illustrator 16.0.0, SVG Export Plug-In . SVG Version: 6.00 Build 0)  -->
<!DOCTYPE svg PUBLIC "-//W3C//DTD SVG 1.1//EN" "http://www.w3.org/Graphics/SVG/1.1/DTD/svg11.dtd">
<svg version="1.1" id="Layer_1" xmlns="http://www.w3.org/2000/svg" xmlns:xlink="http://www.w3.org/1999/xlink" x="0px" y="0px"
	 width="225px" height="225px" viewBox="0 0 225 225" enable-background="new 0 0 225 225" xml:space="preserve">
<g>
	<path fill-rule="evenodd" clip-rule="evenodd" d="M153.624,179.584c-0.599,0-1.113,0-1.333,0c-1.751-2.043-0.953-4.502-1.609-6.564
		c-0.72-2.26-0.201-4.668-1.007-6.688c-0.81-2.025-0.258-4.148-1.021-5.951c-0.754-1.779-0.317-3.723-1.033-5.244
		c-0.543-1.152-0.618-2.482-1.535-3.631c-1.046-1.311-2.324-2.406-3.347-3.734c-0.492-0.641-1.834-0.598-2.396-1.221
		c-0.74-0.822-1.64-0.846-2.51-1.141c-0.756-0.258-1.488-0.586-2.235-0.867c-0.218-0.082-0.616-0.061-0.656-0.18
		c-0.303-0.908-1.075-0.65-1.704-0.75c-0.555-0.088-1.259,0.104-1.401-0.758c-0.01-0.059-0.105-0.127-0.174-0.146
		c-1.21-0.373-2.442-0.684-3.628-1.123c-1.188-0.439-2.335-0.992-3.485-1.525c-0.653-0.303-1.224-0.438-1.532,0.416
		c-0.08,0.223-0.143,0.465-0.144,0.697c-0.006,3.16-0.022,6.32,0.037,9.48c0.007,0.336,0.402,0.787,0.736,0.977
		c1.305,0.742,2.919,1.145,3.92,2.162c1.028,1.047,2.324,2.102,2.346,3.984c0.013,1.004,1.111,1.908,0.832,3.143
		c-0.149,0.66,0.163,1.441-0.686,1.889c-0.188,0.098-0.236,0.578-0.243,0.885c-0.029,1.348-0.603,2.328-1.79,2.998
		c-0.34,0.193-0.5,0.689-0.831,0.916c-0.898,0.613-1.82,1.205-2.784,1.707c-0.399,0.207-0.938,0.256-1.399,0.215
		c-1.534-0.139-3.258,0.695-4.545-0.836c-0.075-0.09-0.305-0.07-0.463-0.07c-1.109,0.002-1.658-0.793-2.256-1.545
		c-0.285-0.359-0.691-0.623-0.967-0.988c-0.601-0.791-1.17-1.607-1.71-2.441c-0.14-0.215-0.16-0.529-0.169-0.801
		c-0.033-1.08-0.057-2.158-0.056-3.238c0.003-2.152,1.042-3.771,2.628-5.129c0.492-0.42,0.883-0.957,1.342-1.42
		c0.149-0.15,0.36-0.248,0.557-0.338c0.781-0.361,1.592-0.668,2.338-1.09c0.186-0.105,0.242-0.561,0.243-0.855
		c0.016-3.76,0.015-7.52,0.007-11.279c-0.002-0.766-0.987-1.738-1.844-1.852c-0.604-0.078-1.101-0.102-1.608-0.707
		c-0.358-0.426-1.413-0.352-2.156-0.352c-0.628,0.002-1.239-0.184-1.727,0.77c-0.479,0.939-1.7,1.475-2.509,2.275
		c-0.826,0.818-1.54,1.75-2.319,2.619c-0.402,0.445-0.786,0.939-1.273,1.273c-1.137,0.777-1.978,1.787-2.823,2.863
		c-0.705,0.896-1.774,1.504-2.668,2.258c-0.41,0.346-0.797,0.721-1.178,1.1c-1.199,1.195-2.02,1.014-3.131-0.416
		c-0.758-0.975-1.777-1.746-2.655-2.633c-0.794-0.803-1.529-1.662-2.332-2.453c-1.214-1.197-2.476-2.344-3.694-3.533
		c-1.147-1.121-2.308-2.234-3.384-3.422c-0.856-0.943-3.103-1.023-3.94-0.064c-0.135,0.156-0.375,0.271-0.582,0.301
		c-0.978,0.139-2.065-0.047-2.698,1.016c-0.193,0.324-0.585,0.635-0.589,0.955c-0.04,3.6-0.004,7.199-0.033,10.799
		c-0.007,0.949,0.357,1.367,1.301,1.414c0.704,0.035,1.558-0.162,1.889,0.818c0.027,0.08,0.29,0.119,0.441,0.115
		c1.186-0.033,1.697,1.158,2.622,1.469c1.312,0.439,1.78,1.643,2.437,2.541c0.531,0.727,1.424,1.42,1.365,2.633
		c-0.038,0.801,0.451,1.623,0.678,2.441c0.084,0.301,0.13,0.623,0.131,0.934c0.018,3.84,0.029,7.68,0.027,11.52
		c0,1.287-0.943,2.309-2.24,2.227c-1.223-0.076-2.434,0.309-3.697-0.418c-1.104-0.635-0.977-1.318-0.846-2.307
		c0.498-0.049,0.965-0.121,1.434-0.135c1.753-0.051,2.436-0.729,2.431-2.443c-0.006-2.199,0.015-4.4-0.03-6.6
		c-0.021-1.076,0.31-2.246-0.703-3.135c-0.156-0.137-0.136-0.539-0.109-0.811c0.141-1.438-0.745-2.268-1.739-3.061
		c-0.335-0.266-0.553-0.684-0.893-0.939c-0.823-0.621-1.676-1.207-2.545-1.764c-0.214-0.139-0.533-0.148-0.806-0.152
		c-1.398-0.021-2.8-0.064-4.197-0.014c-0.753,0.029-1.725-0.352-2.088,0.807c-0.029,0.092-0.357,0.113-0.551,0.129
		c-1.123,0.088-1.725,0.885-2.322,1.689c-0.613,0.822-1.244,1.635-1.824,2.48c-0.141,0.207-0.149,0.533-0.151,0.803
		c-0.024,3.881-0.042,7.76-0.05,11.639c-0.002,0.938,0.34,1.48,1.433,1.389c0.611-0.051,1.274,0.086,1.855,0.297
		c0.265,0.096,0.51,0.568,0.536,0.889c0.02,0.236-0.277,0.592-0.525,0.74c-1.096,0.658-2.238,1.033-3.586,0.955
		c-2.039-0.117-2.705-0.674-2.701-2.717c0.009-4.48-0.004-8.959,0.066-13.438c0.009-0.572,0.464-1.137,0.714-1.703
		c0.063-0.143,0.186-0.281,0.188-0.424c0.026-1.275,0.959-1.902,1.787-2.652c0.861-0.779,1.611-1.682,2.42-2.52
		c0.101-0.105,0.252-0.174,0.393-0.221c1.449-0.467,2.9-0.928,4.474-1.428c0-3.496,0.008-7.131-0.017-10.766
		c-0.002-0.262-0.24-0.521-0.368-0.781c-0.206,0.139-0.418,0.27-0.616,0.418c-0.121,0.094-0.205,0.273-0.336,0.313
		c-1.287,0.385-2.586,0.732-3.866,1.135c-0.319,0.102-0.592,0.361-0.874,0.563c-0.091,0.064-0.146,0.262-0.215,0.26
		c-1.256-0.016-2.299,0.496-3.408,1.051c-1.196,0.598-2.695,0.59-3.893,1.188c-2.015,1.006-4.08,1.916-6.057,2.996
		c-0.455,0.25-0.912,0.607-1.2,1.029c-0.788,1.158-1.294,2.58-2.275,3.516c-0.996,0.949-0.467,2.273-1.021,2.984
		c-1.338,1.717-0.296,3.715-0.991,5.316c-1.016,2.338-0.296,4.875-1.119,7.076c-0.743,1.986-0.682,3.943-0.88,5.928
		c-0.021,0.199,0.026,0.484-0.085,0.582c-1.195,1.021-0.754,2.412-0.828,3.664c-0.104,1.766-0.203,1.902-1.948,1.803
		c-0.271-0.016-0.542-0.053-0.907-0.09c0-1.479-0.498-3.182,0.108-4.27c1.124-2.018,0.137-4.27,0.987-6.006
		c1.095-2.234,0.271-4.592,1.076-6.654c0.759-1.941,0.451-3.895,0.816-5.799c0.303-1.574,1.089-3.057,1.657-4.582
		c0.11-0.297,0.265-0.594,0.299-0.902c0.132-1.197,0.811-1.99,1.707-2.742c0.814-0.684,1.409-1.621,2.186-2.357
		c0.646-0.613,1.526-0.998,2.105-1.658c0.847-0.965,2.434-0.504,3.071-1.744c0.016-0.029,0.063-0.053,0.1-0.063
		c1.228-0.365,2.465-0.701,3.679-1.105c0.423-0.141,0.789-0.451,1.179-0.689c0.064-0.039,0.116-0.145,0.173-0.143
		c1.255,0.027,2.294-0.514,3.396-1.055c1.217-0.6,2.933-0.512,3.819-1.363c0.925-0.885,2.498-0.191,3-1.604
		c0.047-0.133,0.6-0.074,0.915-0.123c0.654-0.1,1.505,0.229,1.75-0.791c0.013-0.053,0.123-0.098,0.196-0.117
		c1.33-0.369,2.695-0.645,3.985-1.123c1.295-0.482,2.497-1.211,3.78-1.732c0.431-0.176,1.149-0.262,1.45-0.025
		c0.892,0.703,1.623,1.605,2.45,2.396c0.869,0.834,1.778,1.625,2.667,2.439c0.401,0.365,0.803,0.734,1.188,1.117
		c0.979,0.967,1.976,1.918,2.914,2.924c1.136,1.219,2.215,2.488,3.326,3.729c0.33,0.371,0.639,0.932,1.042,1.02
		c0.493,0.109,1.408-0.021,1.563-0.336c0.868-1.75,2.621-2.488,3.924-3.727c1.135-1.078,2.131-2.299,3.239-3.406
		c0.883-0.883,1.876-1.652,2.76-2.533c0.8-0.797,1.435-1.775,2.297-2.486c0.668-0.551,1.126-1.773,2.354-1.223
		c1.095,0.492,2.143,1.09,3.222,1.619c0.281,0.137,0.598,0.227,0.907,0.273c0.678,0.1,1.216,0.227,1.848,0.727
		c0.883,0.699,2.192,0.887,3.341,1.219c0.601,0.172,1.414-0.176,1.637,0.787c0.016,0.07,0.199,0.111,0.311,0.145
		c1.283,0.371,2.929,0.373,3.766,1.195c1.161,1.145,3.007,0.271,3.851,1.746c0.067,0.119,0.367,0.094,0.549,0.162
		c0.633,0.238,1.25,0.52,1.893,0.727c1.386,0.445,2.789,0.836,4.171,1.295c0.428,0.143,0.811,0.428,1.208,0.656
		c0.129,0.074,0.244,0.256,0.36,0.252c1.92-0.066,2.884,1.691,4.367,2.455c0.914,0.471,2.262,1.508,2.386,3.107
		c0.038,0.492,0.677,0.912,0.954,1.414c0.598,1.076,1.168,2.168,1.688,3.283c0.178,0.383,0.18,0.848,0.247,1.277
		c0.218,1.385-0.462,2.951,0.878,4.117c0.152,0.133,0.082,0.535,0.091,0.814c0.037,1.32,0.053,2.639,0.105,3.957
		c0.026,0.648-0.152,1.369,0.658,1.781c0.177,0.09,0.196,0.572,0.213,0.877c0.055,0.998-0.001,2.008,0.135,2.994
		c0.097,0.705,0.443,1.373,0.656,2.064c0.092,0.297,0.171,0.609,0.184,0.918c0.049,1.158,0.066,2.318,0.101,3.477
		c0.008,0.281-0.079,0.68,0.069,0.818C154.951,177.949,154.12,178.729,153.624,179.584z M115.815,160.91
		c0.199,0.859-0.017,1.857,0.804,3.008c0.987,1.385,2.347,1.996,3.58,2.594c1.838,0.891,3.655-0.369,5.383-1.139
		c0.087-0.039,0.124-0.195,0.18-0.299c0.431-0.807,0.677-1.834,1.328-2.375c1.295-1.072,0.597-2.326,0.599-3.5
		c0.001-0.346-0.665-0.658-0.751-1.045c-0.313-1.408-1.018-2.354-2.5-2.615c-0.205-0.037-0.391-0.197-0.58-0.307
		c-0.333-0.193-0.65-0.529-0.996-0.561c-0.871-0.082-1.757-0.063-2.633-0.01c-0.373,0.021-0.796,0.145-1.088,0.363
		c-0.601,0.451-1.109,1.021-1.689,1.504c-0.938,0.779-1.784,1.586-1.642,2.967C115.851,159.891,115.815,160.293,115.815,160.91z"/>
	<path fill-rule="evenodd" clip-rule="evenodd" d="M156.827,94.757c0,1.368,0.003,2.681-0.001,3.992
		c-0.004,1.276-0.671,2.166-1.619,2.95c-0.551,0.454-0.97,1.067-1.447,1.611c-0.05,0.058-0.092,0.181-0.135,0.18
		c-1.32-0.027-2.055,1.46-3.53,1.255c-0.813-0.112-1.705,0.524-2.568,0.546c-1.222,0.029-2.449-0.192-3.673-0.322
		c-0.146-0.015-0.299-0.213-0.417-0.186c-1.395,0.319-1.991-1.099-3.098-1.411c-0.34-0.097-1.562-4.06-1.308-4.225
		c0.84-0.546,0.629-1.437,0.919-2.157c0.227-0.564,0.994-0.896,1.452-1.394c0.188-0.203,0.362-0.718,0.254-0.849
		c-2.617-3.146-1.926-6.846-1.693-10.429c0.038-0.602,0.925-1.124,1.337-1.739c0.154-0.229,0.209-0.71,0.071-0.919
		c-0.463-0.702-1.188-0.887-2.016-1.105c-0.918-0.243-1.7-1.057-2.498-1.678c-0.445-0.347-0.73-0.957-1.212-1.186
		c-0.868-0.412-0.761-1.136-0.787-1.815c-0.044-1.118,0.043-2.242-0.031-3.357c-0.087-1.304,0.79-2.079,1.519-2.9
		c0.407-0.458,0.463-0.542-0.075-0.923c-0.584-0.413-0.996-1.067-1.488-1.611c-0.308-0.34-0.678-0.637-0.925-1.016
		c-0.59-0.908-1.158-1.836-1.664-2.793c-0.194-0.367-0.266-0.835-0.271-1.259c-0.03-2.159-0.048-4.318-0.012-6.477
		c0.012-0.74-0.252-1.641,0.775-2.041c0.104-0.04,0.127-0.362,0.134-0.556c0.038-1.122,0.938-1.665,1.585-2.371
		c0.761-0.829,1.472-1.725,2.336-2.429c0.759-0.618,1.303-1.662,2.543-1.562c0.17,0.014,0.37-0.294,0.548-0.462
		c0.13-0.123,0.228-0.349,0.371-0.38c1.563-0.332,3.121-0.734,4.703-0.901c0.71-0.075,1.468,0.347,2.208,0.523
		c0.463,0.111,0.938,0.275,1.401,0.261c1.486-0.046,2.566,0.634,3.466,1.735c0.106,0.13,0.348,0.18,0.535,0.207
		c1.093,0.161,1.657,0.984,2.271,1.761c0.923,1.165,1.867,2.313,2.786,3.48c0.111,0.142,0.178,0.364,0.172,0.546
		c-0.059,1.692,1.658,2.097,2.356,3.24c0.076,0.124,0.456,0.058,0.693,0.088c0.816,0.104,1.77-0.219,2.302,0.791
		c0.07,0.134,0.466,0.063,0.672,0.165c0.406,0.202,0.785,0.456,1.172,0.692c0.129,0.078,0.244,0.23,0.375,0.242
		c1.813,0.161,2.483,1.729,3.533,2.834c0.486,0.513,1.01,0.99,1.519,1.482c0.057,0.055,0.151,0.087,0.181,0.15
		c0.421,0.935,0.827,1.876,1.253,2.809c0.12,0.262,0.272,0.514,0.447,0.741c0.088,0.113,0.345,0.134,0.382,0.244
		c0.41,1.237,1.075,2.472,1.128,3.73c0.153,3.67,0.077,7.351,0.036,11.026c-0.004,0.382-0.381,0.757-0.577,1.14
		c-0.104,0.203-0.267,0.411-0.277,0.623c-0.075,1.496-0.806,2.627-1.89,3.591c-0.129,0.114-0.159,0.361-0.197,0.554
		c-0.206,1.025-0.974,1.574-1.74,2.153c-0.52,0.393-0.968,0.881-1.442,1.332c-0.139,0.131-0.256,0.4-0.388,0.404
		c-1.207,0.029-1.919,1.092-2.974,1.508c-0.993,0.393-2.224,0.325-2.915,0.886C160.011,94.903,158.475,94.381,156.827,94.757z
		 M145.598,97.383c-0.248,0.045-0.48,0.093-0.715,0.128c-0.945,0.142-2.053-0.017-2.258,1.383c-0.055,0.364-0.181,2.044,0.128,2.263
		c0.745,0.528,1.577,1.261,2.394,1.286c1.28,0.04,2.567-0.525,3.869-0.667c1.286-0.14,2.615-0.044,3.527-1.193
		c0.437-0.55,1.059-1.115,1.151-1.739c0.183-1.246,0.339-2.627-0.027-3.783c-0.287-0.908-1.245-1.851-2.141-2.258
		c-1.125-0.51-0.564-1.245-0.613-1.873c-0.03-0.393,1.489-1.028,1.784-0.87c1.575,0.84,3.095,1.86,5.025,1.603
		c0.905-0.12,1.865-0.059,2.711-0.345c1.11-0.375,2.143-0.991,3.189-1.541c0.794-0.417,1.641-0.794,2.314-1.365
		c0.967-0.821,2.008-1.683,2.615-2.755c0.451-0.797,1.627-1.28,1.32-2.487c-0.036-0.142-0.002-0.423,0.072-0.451
		c1.25-0.475,0.734-1.595,0.926-2.455c0.221-0.99,0.519-1.966,0.679-2.965c0.112-0.699,0.146-1.439,0.044-2.137
		c-0.184-1.267-0.45-2.526-0.765-3.769c-0.31-1.225-0.72-2.423-1.089-3.633c-0.011-0.035-0.052-0.06-0.074-0.093
		c-0.576-0.862-1.144-1.73-1.733-2.583c-0.287-0.416-0.703-0.761-0.913-1.207c-0.533-1.132-1.299-1.968-2.508-2.364
		c-0.207-0.068-0.403-0.185-0.591-0.301c-0.845-0.52-1.637-1.375-2.536-1.505c-1.85-0.267-3.541-0.678-4.769-2.164
		c-0.626-0.758-1.169-1.593-1.681-2.434c-0.492-0.809-0.779-1.768-1.371-2.484c-0.721-0.875-1.384-1.755-2.446-2.442
		c-1.144-0.739-2.028-1.731-3.528-1.677c-0.25,0.009-0.509-0.147-0.761-0.236c-0.538-0.188-1.106-0.601-1.606-0.53
		c-1.398,0.195-2.769,0.59-4.148,0.911c-0.071,0.017-0.132,0.081-0.194,0.127c-0.843,0.618-1.698,1.22-2.521,1.862
		c-0.336,0.263-0.574,0.649-0.904,0.922c-0.779,0.645-1.676,1.183-1.75,2.352c-0.013,0.188-0.076,0.505-0.176,0.531
		c-0.906,0.234-0.698,0.979-0.709,1.567c-0.032,1.718-0.144,3.451,0.043,5.149c0.123,1.119,0.709,2.187,1.09,3.275
		c0.012,0.033,0.049,0.06,0.078,0.084c0.935,0.775,1.808,1.646,2.822,2.299c1.129,0.726,2.328,1.479,3.604,1.803
		c1.285,0.325,2.7,0.174,4.058,0.166c2.021-0.012,2.619,0.735,2.093,2.822c-2.047,0-4.117,0.047-6.184-0.024
		c-0.739-0.025-1.469-0.337-2.336-0.551c-0.227,0.11-0.663,0.393-1.142,0.54c-0.703,0.217-1.089,0.621-1.099,1.363
		c-0.009,0.6-0.035,1.199-0.023,1.798c0.021,1.003-0.061,2.093,1.47,2.014c0.125-0.006,0.332,0.115,0.377,0.228
		c0.472,1.179,1.813,1.204,2.629,1.472c1.574,0.516,3.417,0.523,5.096,0.318c1.619-0.197,3.507,0.554,4.846-1.025
		c1.792,0.101,1.818-1.68,2.56-2.593c0.914-1.125,1.415-1.628,2.987-1.253c-0.126,1.059,0.326,2.034-0.666,3.187
		c-0.743,0.865-1.214,1.973-2.249,2.718c-0.967,0.695-2.823,1.733-3.922,1.786c-1.039,0.051-2.078,0.071-3.116,0.121
		c-0.272,0.013-0.729,0.009-0.785,0.144c-0.485,1.163-1.982,0.531-2.669,1.693c-0.547,0.925-1.68,1.492-1.691,2.818
		c-0.005,0.451-0.264,0.896-0.374,1.352c-0.059,0.242-0.117,0.519-0.058,0.749c0.123,0.479,0.314,0.94,0.497,1.401
		c0.456,1.151,0.919,2.3,1.394,3.442c0.038,0.091,0.215,0.113,0.291,0.199c0.926,1.043,1.854,2.087,1.269,3.654
		C145.694,97.198,145.674,97.231,145.598,97.383z"/>
	<path fill-rule="evenodd" clip-rule="evenodd" d="M131.472,124.525c-0.788,0.506-1.757,1.127-2.723,1.75
		c-0.094,0.061-0.169,0.195-0.263,0.205c-0.808,0.094-1.492,0.701-2.122,0.865c-2.495,0.654-4.942,1.889-7.647,1.346
		c-0.336-0.068-0.872-0.412-0.87-0.625c0.004-0.51,0.138-1.139,0.462-1.5c0.9-1.006,2.189-0.846,3.398-0.945
		c0.48-0.039,0.937-0.389,1.398-0.607c0.139-0.064,0.287-0.264,0.386-0.238c1.519,0.408,2.547-0.824,3.801-1.232
		c0.952-0.311,1.632-1.455,2.433-2.227c-0.12-0.045-0.24-0.09-0.36-0.135c-0.172-0.563-0.386-1.115-0.505-1.688
		c-0.146-0.701,0.149-1.551-0.813-1.939c-0.139-0.057-0.12-0.506-0.168-0.773c-0.155-0.871,0.297-1.92-0.836-2.512
		c-0.184-0.096-0.117-0.672-0.166-1.025c-0.127-0.95,0.042-1.893-0.785-2.762c-0.422-0.444-0.102-1.542-0.241-2.321
		c-0.109-0.608-0.454-1.17-0.616-1.773c-0.153-0.568-0.28-1.164-0.289-1.749c-0.072-4.838-0.082-9.678-0.196-14.515
		c-0.022-0.941-0.457-1.867-0.63-2.813c-0.15-0.821-0.176-1.666-0.299-2.494c-0.121-0.812,0.235-1.784-0.805-2.321
		c-0.166-0.086-0.059-0.616-0.171-0.905c-0.14-0.356-0.366-0.682-0.574-1.008c-0.079-0.123-0.305-0.208-0.31-0.316
		c-0.036-0.864-0.672-1.547-0.855-2.224c-0.451-1.664-1.904-2.565-2.52-4.093c-0.396-0.98-1.887-1.464-2.538-2.411
		c-1.021-1.485-2.544-2.121-3.965-2.99c-0.876-0.535-1.571-1.403-2.482-1.838c-1.104-0.527-2.36-0.729-3.532-1.126
		c-0.471-0.159-0.884-0.483-1.343-0.688c-0.276-0.123-0.592-0.226-0.89-0.227c-3.918-0.016-7.836-0.032-11.753,0.017
		c-0.419,0.005-0.835,0.411-1.247,0.638c-0.1,0.055-0.174,0.172-0.276,0.201c-1.292,0.372-2.619,0.647-3.87,1.127
		c-0.943,0.361-1.816,0.938-2.669,1.498c-0.604,0.397-1.113,0.938-1.677,1.397c-1.702,1.391-3.858,2.279-4.716,4.592
		c-0.221,0.597-0.97,0.985-1.435,1.506c-0.314,0.352-0.656,0.732-0.811,1.162c-0.418,1.158-1.56,1.956-1.596,3.307
		c-0.006,0.244-0.271,0.487-0.435,0.719c-0.089,0.125-0.283,0.204-0.317,0.334c-0.4,1.493-1.033,2.979-1.112,4.491
		c-0.206,3.91-0.052,7.839-0.256,11.749c-0.17,3.27-0.317,6.607-1.118,9.75c-0.398,1.563-0.408,3.207-0.973,4.65
		c-0.444,1.139-0.377,2.563-0.951,3.329c-0.85,1.135-0.292,2.625-0.981,3.283c-0.991,0.943-0.743,1.91-0.837,2.891
		c-0.099,1.043,0.903,2.086,1.931,2.342c0.429,0.107,0.775,0.512,1.2,0.674c0.463,0.176,0.969,0.242,1.461,0.332
		c0.581,0.104,1.278-0.176,1.582,0.713c0.07,0.205,0.779,0.252,1.199,0.268c1.426,0.057,2.798,0.127,4.133,0.848
		c0.797,0.432,0.626,0.984,0.544,1.48c-0.051,0.307-0.571,0.76-0.886,0.764c-1.636,0.02-3.313,0.111-4.898-0.209
		c-1.293-0.26-2.473-1.07-3.712-1.619c-0.322-0.143-0.675-0.287-1.018-0.299c-1.179-0.039-1.848-0.857-2.591-1.584
		c-0.395-0.385-0.839-0.721-1.215-1.121c-1.049-1.121-1.062-4.162-0.048-5.352c0.075-0.088,0.157-0.189,0.183-0.299
		c0.419-1.727,0.81-3.461,1.254-5.18c0.128-0.499,0.47-0.942,0.6-1.44c0.176-0.677,0.237-1.383,0.358-2.074
		c0.129-0.731-0.258-1.618,0.731-2.104c0.189-0.094,0.192-0.659,0.203-1.009c0.041-1.438,0.018-2.88,0.088-4.317
		c0.047-0.951-0.276-2,0.699-2.768c0.193-0.152,0.117-0.682,0.121-1.037c0.048-4.118,0.071-8.237,0.141-12.355
		c0.016-0.881-0.174-1.859,0.763-2.503c0.137-0.095,0.091-0.451,0.134-0.687c0.152-0.842-0.213-1.862,0.873-2.39
		c0.137-0.065,0.17-0.44,0.172-0.674c0.009-1.37,0.909-2.284,1.647-3.283c0.069-0.094,0.149-0.196,0.174-0.306
		c0.271-1.213,1.159-2.001,1.922-2.89c0.479-0.557,0.827-1.223,1.262-1.82c0.414-0.571,0.81-1.171,1.308-1.66
		c0.945-0.927,1.928-1.822,2.955-2.655c0.66-0.537,1.425-0.948,2.152-1.401c0.983-0.612,1.967-1.224,2.969-1.805
		c0.23-0.134,0.531-0.168,0.806-0.201c0.722-0.086,1.534,0.105,1.936-0.818c0.06-0.137,0.516-0.101,0.788-0.146
		c0.813-0.136,1.773,0.193,2.305-0.847c0.094-0.184,0.672-0.164,1.025-0.165c3.956-0.01,7.912-0.021,11.868,0.018
		c0.417,0.004,0.836,0.312,1.246,0.496c0.216,0.098,0.4,0.285,0.623,0.347c1.44,0.397,3.091,0.468,4.266,1.253
		c0.92,0.615,2.241,0.433,2.872,1.602c0.251,0.466,0.901,0.856,1.444,0.998c1.651,0.432,2.444,1.829,3.546,2.889
		c0.857,0.823,1.934,1.472,2.613,2.414c0.813,1.127,1.788,2.123,2.477,3.406c0.443,0.828,0.326,2.245,1.604,2.656
		c0.133,0.044,0.086,0.528,0.202,0.77c0.188,0.393,0.44,0.755,0.672,1.125c0.081,0.129,0.24,0.232,0.268,0.367
		c0.377,1.854,0.745,3.709,1.096,5.567c0.147,0.781-0.183,1.681,0.75,2.256c0.209,0.128,0.153,0.745,0.155,1.138
		c0.037,5.038,0.056,10.077,0.1,15.115c0.005,0.639-0.166,1.322,0.637,1.78c0.263,0.148,0.193,0.879,0.274,1.344
		c0.223,1.268-0.425,2.724,0.862,3.777c0.175,0.144,0.085,0.611,0.117,0.93c0.099,0.965-0.107,1.997,0.86,2.735
		c0.227,0.172,0.086,0.771,0.213,1.141c0.207,0.604,0.517,1.17,0.741,1.768c0.135,0.357,0.182,0.744,0.281,1.115
		c0.208,0.771,0.455,1.537,0.626,2.316c0.082,0.377,0.132,0.816,0.015,1.166C132.246,122.92,131.885,123.6,131.472,124.525z"/>
	<path fill-rule="evenodd" clip-rule="evenodd" d="M139.034,113.742c1.651,0,3.32,0.016,4.988-0.002
		c3.517-0.039,7.033-0.096,10.55-0.146c0.079-0.002,0.187,0.014,0.234-0.029c1.078-0.968,2.705-0.484,3.651-1.093
		c0.983-0.633,2.271-0.371,2.786-0.963c0.807-0.927,2.298-0.275,2.772-1.541c0.049-0.13,0.45-0.095,0.645-0.209
		c0.433-0.253,0.834-0.559,1.256-0.829c0.159-0.103,0.338-0.228,0.515-0.242c1.192-0.093,1.932-0.831,2.578-1.729
		c0.08-0.11,0.25-0.208,0.386-0.219c1.208-0.093,1.756-1.045,2.507-1.795c1.162-1.16,2.495-2.148,3.677-3.29
		c0.804-0.776,1.5-1.671,2.197-2.55c0.95-1.199,1.862-2.429,2.773-3.659c0.134-0.18,0.179-0.43,0.247-0.652
		c0.15-0.486-0.05-1.188,0.789-1.246c0.057-0.004,0.133-0.098,0.157-0.166c0.381-1.075,0.716-2.169,1.14-3.229
		c0.528-1.316,1.189-2.583,1.67-3.915c0.251-0.695,0.229-1.487,0.35-2.232c0.141-0.864-0.172-1.849,0.78-2.505
		c0.201-0.138,0.175-0.672,0.176-1.024c0.01-3.52,0.027-7.039-0.026-10.559c-0.007-0.477-0.436-0.935-0.591-1.426
		c-0.151-0.483-0.21-0.997-0.3-1.5c-0.215-1.205,0.044-2.431-0.925-3.576c-0.708-0.838-0.813-2.196-1.148-3.334
		c-0.166-0.563,0.113-1.346-0.825-1.482c-0.066-0.01-0.156-0.188-0.152-0.286c0.047-1.354-1.063-2.052-1.656-3.048
		c-0.429-0.719-0.619-1.553-1.303-2.156c-1.153-1.017-1.474-2.664-2.865-3.595c-0.922-0.617-1.402-1.856-2.248-2.634
		c-0.979-0.899-2.146-1.591-3.22-2.388c-0.386-0.286-0.775-0.584-1.099-0.936c-1.103-1.201-3-1.254-3.914-2.732
		c-0.075-0.121-0.361-0.123-0.554-0.159c-0.544-0.1-1.256,0.098-1.341-0.79c-0.005-0.047-0.121-0.1-0.193-0.122
		c-1.254-0.375-2.644-0.521-3.73-1.173c-1.537-0.922-3.33-0.603-4.769-1.271c-1.165-0.541-2.239-0.707-3.41-0.716
		c-3.319-0.023-6.64-0.013-9.959,0.021c-0.713,0.008-1.406-0.09-2.04,0.648c-0.347,0.404-1.365,0.186-2.055,0.357
		c-0.683,0.171-1.331,0.48-1.995,0.729c-0.148,0.056-0.296,0.116-0.447,0.162c-1.294,0.385-2.887,0.434-3.796,1.247
		c-0.838,0.75-2.228,0.395-2.67,1.616c-0.039,0.108-0.371,0.084-0.537,0.175c-1.401,0.774-2.875,1.45-4.164,2.381
		c-0.902,0.651-1.513,1.694-2.322,2.491c-0.721,0.71-1.59,1.271-2.299,1.99c-0.9,0.914-1.69,1.937-2.561,2.884
		c-0.469,0.51-1.014,0.948-1.504,1.439c-0.15,0.151-0.293,0.359-0.333,0.562c-0.278,1.4-1.373,2.198-2.379,2.977
		c-0.184,0.142-1.276-0.518-1.572-1.026c-0.204-0.352,0.222-1.087,0.407-1.638c0.078-0.233,0.332-0.415,0.383-0.647
		c0.23-1.057,1.042-1.65,1.742-2.355c0.444-0.448,0.788-1.006,1.133-1.543c0.459-0.716,0.768-1.56,1.337-2.164
		c0.768-0.816,1.731-1.446,2.59-2.18c0.333-0.285,0.645-0.609,0.907-0.96c0.935-1.244,2.666-1.446,3.546-2.862
		c0.394-0.632,1.643-0.686,2.17-1.292c0.77-0.886,2.188-0.512,2.751-1.649c0.083-0.166,0.515-0.131,0.748-0.257
		c0.414-0.223,0.8-0.498,1.196-0.753c0.13-0.082,0.253-0.232,0.387-0.24c0.824-0.054,1.564-0.635,2.226-0.729
		c1.96-0.279,3.612-1.724,5.714-1.385c0.612,0.099,1.369,0.167,1.745-0.679c0.073-0.165,0.573-0.194,0.877-0.195
		c4.239-0.014,8.479-0.025,12.717,0.013c0.409,0.004,0.807,0.37,1.226,0.523c0.426,0.155,0.866,0.284,1.311,0.373
		c1.055,0.208,2.344-0.42,3.092,0.878c0.015,0.024,0.074,0.023,0.112,0.033c1.391,0.365,2.819,0.624,4.158,1.126
		c1.149,0.431,2.203,1.123,3.283,1.729c0.55,0.31,1.031,0.901,1.6,0.986c1.704,0.257,2.475,1.928,4.059,2.442
		c0.965,0.313,1.682,1.431,2.477,2.219c0.459,0.455,0.832,0.994,1.279,1.461c0.92,0.96,1.781,2.002,2.818,2.815
		c1.394,1.093,1.865,2.838,2.999,4.001c1.107,1.137,1.188,2.848,2.528,3.76c0.207,0.142,0.18,0.597,0.315,0.88
		c0.272,0.573,0.581,1.128,0.877,1.688c0.018,0.033,0.077,0.047,0.087,0.08c0.355,1.077,0.758,2.143,1.038,3.238
		c0.178,0.691-0.015,1.392,0.772,1.975c0.385,0.284,0.192,1.346,0.268,2.055c0.076,0.714-0.2,1.507,0.662,2.025
		c0.23,0.138,0.256,0.732,0.258,1.117c0.019,4.039,0.033,8.079-0.013,12.117c-0.006,0.471-0.407,0.932-0.594,1.408
		c-0.124,0.316-0.217,0.649-0.283,0.982c-0.232,1.162,0.122,2.314-0.815,3.503c-0.818,1.036-0.803,2.719-1.209,4.1
		c-0.137,0.462-0.429,0.88-0.667,1.308c-0.073,0.132-0.244,0.214-0.3,0.349c-0.412,0.989-0.731,2.027-1.233,2.969
		c-0.37,0.692-0.976,1.259-1.469,1.887c-0.113,0.145-0.269,0.307-0.283,0.472c-0.105,1.15-1.013,1.708-1.708,2.445
		c-0.793,0.84-1.578,1.711-2.208,2.673c-0.672,1.025-1.426,1.846-2.517,2.47c-0.937,0.535-1.724,1.36-2.51,2.126
		c-0.732,0.713-1.415,1.438-2.419,1.809c-0.522,0.192-1.228,0.529-1.379,0.965c-0.438,1.261-2.248,0.391-2.521,1.766
		c-0.015,0.07-0.365,0.08-0.561,0.107c-0.562,0.08-1.247-0.075-1.383,0.785c-0.012,0.076-0.269,0.146-0.416,0.16
		c-0.749,0.066-1.323,0.449-1.979,0.789c-1.274,0.658-2.775,0.898-4.201,1.238c-0.857,0.203-1.813-0.059-2.522,0.789
		c-0.214,0.256-0.83,0.236-1.263,0.238c-4.519,0.027-9.037,0.057-13.555,0.029C139.264,116.611,138.651,115.535,139.034,113.742z"/>
	<path fill-rule="evenodd" clip-rule="evenodd" d="M80.133,91.567c2.596,0,5.192,0.045,7.786-0.032
		c0.651-0.019,1.281-0.469,1.94-0.648c0.528-0.144,1.086-0.18,1.631-0.262c0.828-0.126,1.809,0.206,2.348-0.787
		c0.017-0.031,0.06-0.055,0.096-0.066c1.12-0.375,2.275-0.67,3.353-1.144c0.919-0.404,1.749-1.011,2.616-1.532
		c0.156-0.095,0.298-0.298,0.451-0.303c1.28-0.041,1.882-1.035,2.704-1.778c0.647-0.584,1.551-0.875,2.269-1.395
		c0.59-0.427,1.037-1.045,1.613-1.493c0.815-0.634,1.391-1.51,2.716-1.522c1.084-0.011,1.249,0.881,1.869,1.259
		c0.641,0.391,0.886,1.415,1.329,2.147c0.56,0.924,1.16,1.823,1.708,2.755c0.15,0.257,0.13,0.61,0.265,0.881
		c0.183,0.369,0.437,0.702,0.665,1.048c0.08,0.121,0.231,0.222,0.257,0.35c0.371,1.904,0.716,3.813,1.093,5.717
		c0.22,1.109,0.598,2.198,0.702,3.315c0.118,1.26,0.4,2.499-0.331,3.808c-0.481,0.861-0.291,2.095-0.419,3.159
		c-0.08,0.662,0.162,1.381-0.693,1.866c-0.295,0.167-0.139,1.048-0.288,1.574c-0.146,0.514-0.417,0.992-0.638,1.484
		c-0.064,0.144-0.163,0.272-0.215,0.419c-0.418,1.177-0.788,2.372-1.259,3.526c-0.216,0.531-0.515,1.148-0.963,1.443
		c-1.273,0.84-1.26,2.617-2.754,3.371c-0.952,0.482-1.579,1.605-2.351,2.443c-0.025,0.029-0.03,0.086-0.061,0.102
		c-1.432,0.795-3.086,1.354-4.24,2.441c-1.259,1.186-2.645,0.744-3.969,1.043c-0.236,0.053-0.406,0.412-0.64,0.455
		c-0.548,0.104-1.135,0.209-1.67,0.113c-0.647-0.117-1.267-0.66-1.882-0.635c-1.498,0.063-2.479-0.764-3.482-1.637
		c-0.087-0.076-0.171-0.201-0.267-0.213c-1.346-0.162-2.084-1.195-2.985-2.016c-0.391-0.355-1.025-0.473-1.353-0.863
		c-1.149-1.375-2.167-2.859-3.324-4.227c-0.917-1.082-1.31-2.592-2.134-3.498c-1.055-1.161-0.133-2.931-1.631-3.69
		c-0.122-0.063-0.087-0.443-0.117-0.677c-0.129-0.979,0.228-2.08-0.813-2.831c-0.177-0.128-0.137-0.604-0.139-0.92
		c-0.017-2.999-0.057-5.998,0.002-8.995c0.01-0.535,0.474-1.051,0.669-1.597c0.185-0.514,0.293-1.056,0.436-1.585
		C80.066,91.817,80.1,91.692,80.133,91.567z M109.619,84.424c-0.547,0.182-1.172,0.242-1.596,0.565
		c-0.539,0.411-0.862,1.095-1.376,1.552c-0.478,0.424-1.076,0.714-1.633,1.044c-0.711,0.421-1.726,0.65-2.086,1.269
		c-0.643,1.099-1.878,0.88-2.694,1.623c-0.798,0.726-2.406,0.608-3.118,1.368c-0.78,0.832-1.558,0.712-2.397,0.861
		c-0.27,0.048-0.541,0.104-0.798,0.195c-0.627,0.222-1.23,0.536-1.873,0.683c-0.69,0.158-1.703-0.098-2.063,0.296
		c-0.743,0.81-1.572,0.661-2.408,0.695c-1.438,0.06-2.879,0.095-4.315,0.047c-1.058-0.035-1.513,0.353-1.492,1.43
		c0.048,2.557,0.036,5.114,0.061,7.671c0.003,0.273-0.01,0.666,0.152,0.799c1.503,1.232,0.214,3.421,1.759,4.775
		c0.736,0.645,0.779,2.076,1.149,3.146c0.031,0.092,0.186,0.132,0.251,0.221c0.225,0.3,0.471,0.593,0.639,0.925
		c0.121,0.238,0.044,0.621,0.209,0.789c0.846,0.863,1.741,1.678,2.619,2.51c0.391,0.371,0.832,0.701,1.164,1.119
		c0.605,0.762,1.213,1.482,2.178,1.814c0.279,0.098,0.497,0.354,0.762,0.504c0.804,0.457,1.597,0.939,2.434,1.328
		c0.649,0.303,1.345,0.535,2.044,0.691c0.442,0.1,0.945,0.078,1.393-0.02c0.706-0.156,1.385-0.436,2.082-0.641
		c0.34-0.1,0.754-0.059,1.032-0.238c0.84-0.543,1.627-1.166,2.439-1.75c0.48-0.346,0.986-0.66,1.453-1.021
		c0.694-0.535,1.459-1.021,2.021-1.676c0.714-0.83,1.142-1.877,2.13-2.518c0.446-0.291,0.777-0.859,1-1.371
		c0.442-1.017,0.773-2.083,1.153-3.128c0.026-0.074,0.05-0.181,0.105-0.206c1.031-0.467,0.769-1.455,0.928-2.273
		c0.052-0.268,0.059-0.727,0.19-0.768c1.004-0.315,0.676-1.151,0.751-1.806c0.118-1.026,0.123-2.067,0.273-3.088
		c0.139-0.947,0.795-2.002,0.541-2.788c-0.638-1.964-0.778-3.938-0.84-5.951c-0.004-0.113-0.054-0.229-0.102-0.335
		c-0.605-1.321-1.214-2.641-1.823-3.959c-0.253-0.546-0.49-1.099-0.771-1.629C110.683,86.307,110.189,85.451,109.619,84.424z"/>
</g>
</svg>
