<?xml version="1.0" encoding="utf-8"?>
<!-- Generator: Adobe Illustrator 16.0.0, SVG Export Plug-In . SVG Version: 6.00 Build 0)  -->
<!DOCTYPE svg PUBLIC "-//W3C//DTD SVG 1.1//EN" "http://www.w3.org/Graphics/SVG/1.1/DTD/svg11.dtd">
<svg version="1.1" id="Layer_1" xmlns="http://www.w3.org/2000/svg" xmlns:xlink="http://www.w3.org/1999/xlink" x="0px" y="0px"
	 width="225px" height="225px" viewBox="0 0 225 225" enable-background="new 0 0 225 225" xml:space="preserve">
<g>
	<path fill-rule="evenodd" clip-rule="evenodd" d="M119.911,121.774c1.42,0,2.846,0.07,4.26-0.019
		c1.531-0.098,2.62,1.163,3.108,2.157c0.422,0.858-0.295,1.413-0.724,2.017c-0.424,0.595-1.046,0.733-1.737,0.714
		c-0.647-0.019-1.299-0.044-1.944-0.008c-2.998,0.171-6.012,0.219-8.983,0.599c-1.776,0.229-3.488,0.977-5.223,1.516
		c-0.655,0.205-1.295,0.463-1.934,0.723c-1.979,0.8-3.827,1.807-5.176,3.523c-0.84,1.071-1.45,2.188-1.627,3.641
		c-0.165,1.357-0.001,2.674,0.271,3.897c0.283,1.27,1.053,2.524,1.889,3.559c1.411,1.744,2.964,3.397,4.61,4.922
		c1.078,0.998,2.402,1.744,3.665,2.523c1.531,0.947,3.105,1.827,4.676,2.706c0.852,0.477,1.723,0.92,2.609,1.323
		c0.503,0.229,0.876,0.092,0.971-0.558c0.165-1.119,0.355-2.238,0.59-3.345c0.105-0.496,0.4-0.951,0.497-1.447
		c0.103-0.52,0.019-0.877-0.663-1.152c-1.213-0.491-2.321-1.249-3.459-1.922c-0.773-0.457-1.531-0.945-2.281-1.442
		c-1.911-1.27-3.762-2.553-5.092-4.542c-0.624-0.933-1.044-1.888-1.401-2.898c-0.694-1.971,1.123-4.229,2.925-3.938
		c0.871,0.14,1.423,0.686,1.696,1.517c0.46,1.396,0.37,3.059,1.828,4.015c1.391,0.913,2.736,1.892,4.145,2.774
		c0.97,0.607,2.012,1.098,3.021,1.641c0.621,0.335,1.347-0.15,1.643-0.937c0.445-1.186,0.988-2.334,1.51-3.49
		c0.49-1.088,0.971-2.182,1.521-3.24c0.62-1.192,1.315-2.346,1.974-3.519c0.717-1.273,1.419-2.557,2.146-3.824
		c0.612-1.068,1.224-2.14,1.885-3.178c0.737-1.156,1.547-2.266,2.298-3.414c1.443-2.204,2.835-4.442,4.314-6.623
		c0.786-1.161,1.746-2.201,2.562-3.342c1.288-1.804,2.475-3.679,3.786-5.462c1.464-1.988,3.035-3.895,4.532-5.857
		c1.09-1.43,2.099-2.922,3.216-4.33c0.637-0.804,1.317-1.55,2.58-1.459c1.031,0.074,1.529,0.801,2.076,1.386
		c0.968,1.034,1.76,2.231,2.626,3.36c0.953,1.24,1.918,2.474,2.862,3.722c0.884,1.172,1.741,2.365,2.622,3.54
		c1.069,1.427,2.323,2.748,3.182,4.292c1.163,2.091,2.797,3.822,4.047,5.834c1.043,1.68,2.13,3.331,3.2,4.993
		c0.956,1.486,1.94,2.954,2.863,4.46c0.864,1.407,1.688,2.841,2.49,4.286c1.198,2.167,2.41,4.33,3.522,6.542
		c1.048,2.083,2.048,4.198,2.932,6.357c0.579,1.415,0.836,2.961,1.379,4.394c0.66,1.749,0.874,3.592,1.35,5.361
		c0.525,1.95,0.428,3.85,0.276,5.738c-0.18,2.231-0.701,4.441-1.179,6.638c-0.283,1.311-0.635,2.637-1.19,3.848
		c-0.816,1.784-1.797,3.495-2.789,5.19c-0.729,1.247-1.562,2.438-2.392,3.623c-1.749,2.493-3.954,4.527-6.368,6.372
		c-1.746,1.335-3.504,2.629-5.532,3.502c-1.479,0.637-2.965,1.259-4.456,1.863c-2.833,1.146-5.823,1.497-8.822,1.952
		c-3.218,0.488-6.322,0.038-9.45-0.384c-1.604-0.216-3.201-0.636-4.744-1.138c-1.257-0.408-2.434-1.068-3.641-1.627
		c-0.842-0.391-1.71-0.739-2.506-1.208c-1.349-0.793-2.731-1.563-3.949-2.532c-1.54-1.229-2.96-2.614-4.375-3.99
		c-2.118-2.06-3.879-4.382-5.261-7.016c-1.176-2.245-2.262-4.501-2.979-6.949c-0.503-1.712-0.99-3.403-1.172-5.184
		c-0.125-1.229-0.977-1.864-2.058-2.345c-1.566-0.697-3.081-1.511-4.621-2.267c-0.861-0.421-1.74-0.803-2.59-1.246
		c-0.869-0.453-1.751-0.9-2.555-1.456c-1.271-0.879-2.554-1.763-3.694-2.795c-1.796-1.622-3.61-3.258-5.172-5.096
		c-1.441-1.699-2.584-3.658-3.131-5.887c-0.311-1.275-0.706-2.534-0.945-3.821c-0.095-0.503,0.13-1.066,0.219-1.6
		c0.046-0.271,0.157-0.535,0.162-0.803c0.04-1.668,0.792-3.024,1.662-4.407c1.035-1.646,2.356-2.975,3.865-4.129
		c0.812-0.619,1.748-1.082,2.647-1.581c0.718-0.397,1.45-0.774,2.203-1.098c0.623-0.268,1.273-0.494,1.933-0.647
		c1.962-0.458,3.917-0.967,5.903-1.276c2.333-0.362,4.696-0.534,7.046-0.79C119.898,121.642,119.905,121.708,119.911,121.774z
		 M184.599,158.354c-0.147-1.872,0.265-3.771-0.505-5.627c-0.738-1.783-1.209-3.678-1.816-5.517
		c-0.175-0.526-0.428-1.027-0.635-1.544c-0.483-1.207-0.9-2.446-1.453-3.622c-0.651-1.382-1.411-2.714-2.135-4.063
		c-0.856-1.597-1.688-3.209-2.599-4.775c-0.662-1.142-1.456-2.207-2.156-3.329c-0.899-1.44-1.726-2.928-2.653-4.35
		c-1.04-1.598-2.167-3.139-3.241-4.715c-0.97-1.423-1.894-2.878-2.884-4.287c-0.796-1.133-1.694-2.194-2.484-3.33
		c-1.105-1.587-2.018-3.329-3.263-4.793c-1.457-1.715-2.863-3.448-4.118-5.316c-0.221-0.327-0.66-0.649-1.085-0.006
		c-0.469,0.711-1.06,1.339-1.59,2.009c-1.022,1.294-2.084,2.56-3.049,3.896c-1.138,1.575-2.162,3.23-3.285,4.818
		c-1.254,1.771-2.601,3.479-3.835,5.263c-1.271,1.832-2.473,3.711-3.67,5.591c-0.854,1.341-1.638,2.727-2.479,4.076
		c-1.073,1.725-2.22,3.403-3.248,5.154c-0.944,1.606-1.784,3.276-2.653,4.929c-0.45,0.854-0.868,1.724-1.286,2.595
		c-0.555,1.157-1.153,2.296-1.628,3.486c-0.677,1.697-1.315,3.414-1.858,5.158c-0.475,1.525-0.799,3.098-1.181,4.653
		c-0.064,0.267-0.107,0.543-0.128,0.818c-0.085,1.155-0.363,2.343-0.193,3.461c0.405,2.674,0.945,5.335,1.587,7.964
		c0.311,1.279,0.932,2.493,1.49,3.699c0.422,0.911,0.966,1.763,1.459,2.64c0.473,0.84,0.824,1.788,1.449,2.495
		c1.389,1.571,2.952,2.987,4.376,4.53c1.853,2.009,4.077,3.477,6.522,4.618c1.461,0.68,3.034,1.124,4.476,1.84
		c2.223,1.104,4.679,1.086,7.021,1.538c2.82,0.545,5.66-0.271,8.486-0.568c0.061-0.006,0.122-0.021,0.18-0.043
		c1.973-0.722,3.934-1.48,5.92-2.16c2.225-0.76,4.186-2.007,5.992-3.434c1.784-1.412,3.445-3.013,4.991-4.688
		c1.115-1.206,2.02-2.627,2.891-4.031c0.747-1.208,1.38-2.501,1.938-3.81c0.508-1.189,0.811-2.465,1.265-3.68
		c0.621-1.662,1.101-3.342,1.07-5.136C184.588,159.958,184.599,159.154,184.599,158.354z"/>
	<path fill-rule="evenodd" clip-rule="evenodd" d="M68.765,81.09c2.756,0.096,5.629,0.149,8.493,0.315
		c1.45,0.085,2.91,0.274,4.326,0.594c2.283,0.517,4.561,1.094,6.79,1.808c2.062,0.659,4.131,1.375,6.059,2.34
		c3.228,1.617,6.321,3.425,8.753,6.26c1.207,1.409,2.13,2.886,2.926,4.525c0.783,1.608,1.177,3.261,1.098,5.03
		c-0.092,2.063-0.612,4.021-1.768,5.736c-0.959,1.423-1.927,2.884-3.139,4.079c-1.435,1.415-3.039,2.672-4.897,3.573
		c-1.188,0.577-2.273,1.363-3.429,2.015c-0.52,0.295-1.084,0.521-1.647,0.724c-0.747,0.267-1.515,0.47-2.27,0.716
		c-0.938,0.307-1.869,0.641-2.811,0.938c-0.841,0.268-1.68,0.562-2.543,0.735c-1.396,0.283-2.804,0.526-4.219,0.698
		c-3.09,0.374-6.182,0.781-9.286,1c-1.799,0.127-3.623-0.072-5.436-0.155c-1.694-0.077-3.398-0.107-5.078-0.323
		c-1.845-0.237-3.668-0.652-5.496-1.012c-0.832-0.164-1.656-0.373-2.481-0.563c-1.154-0.267-2.323-0.487-3.456-0.819
		c-0.825-0.241-1.6-0.644-2.403-0.954c-0.633-0.243-1.306-0.396-1.91-0.688c-1.494-0.724-2.947-1.528-4.438-2.256
		c-2.73-1.333-4.875-3.401-6.852-5.624c-0.84-0.945-1.438-2.149-1.956-3.321c-0.484-1.101-0.849-2.294-1.021-3.481
		c-0.146-1.004-0.028-2.074,0.134-3.088c0.161-1.012,0.488-2.003,0.803-2.983c0.614-1.907,1.767-3.474,3.207-4.835
		c0.931-0.879,1.845-1.784,2.844-2.58c0.786-0.627,1.669-1.143,2.545-1.645c1.34-0.766,2.694-1.506,4.072-2.196
		c0.666-0.334,1.395-0.545,2.104-0.789c1.47-0.506,2.939-1.012,4.419-1.485c0.87-0.279,1.751-0.542,2.645-0.729
		c1.364-0.287,2.761-0.435,4.114-0.759c3.199-0.763,6.468-0.495,9.702-0.73C67.724,81.126,68.187,81.116,68.765,81.09z
		 M68.871,86.087c-0.007-0.116-0.012-0.232-0.019-0.349c-3.92,0.337-7.841,0.674-11.76,1.013c-0.122,0.011-0.244,0.029-0.362,0.062
		c-1.23,0.337-2.459,0.694-3.694,1.014c-1,0.26-2.019,0.45-3.015,0.723c-0.703,0.193-1.405,0.421-2.063,0.728
		c-1.502,0.696-3.006,1.396-4.452,2.196c-1.206,0.666-2.419,1.37-3.468,2.249c-1.11,0.927-2.113,2.018-3.008,3.159
		c-0.558,0.713-1.08,1.626-1.173,2.496c-0.176,1.637-0.554,3.374,0.443,4.918c0.706,1.095,1.39,2.226,2.251,3.191
		c0.719,0.805,1.661,1.42,2.541,2.069c0.927,0.684,1.835,1.438,2.863,1.929c1.652,0.791,3.384,1.423,5.104,2.063
		c1.605,0.596,3.215,1.207,4.867,1.639c1.834,0.479,3.703,0.915,5.584,1.095c3.396,0.322,6.811,0.471,10.221,0.63
		c1.289,0.061,2.601,0.047,3.883-0.102c2.295-0.266,4.577-0.652,6.864-1c1.285-0.194,2.567-0.411,3.852-0.618
		c0.059-0.01,0.117-0.033,0.175-0.054c1.587-0.557,3.175-1.109,4.759-1.675c0.505-0.18,0.995-0.399,1.495-0.594
		c0.705-0.279,1.45-0.481,2.111-0.842c1.175-0.645,2.295-1.388,3.444-2.08c1.727-1.04,3.148-2.433,4.305-4.048
		c1.362-1.898,1.904-3.985,1.282-6.377c-0.389-1.497-1.175-2.759-2.141-3.786c-1.271-1.349-2.861-2.415-4.392-3.493
		c-1.062-0.748-2.214-1.399-3.398-1.931c-1.289-0.58-2.658-0.983-3.997-1.446c-1.499-0.52-2.99-1.069-4.512-1.512
		c-0.976-0.283-1.995-0.44-3.006-0.578c-1.884-0.258-3.77-0.553-5.665-0.663C72.824,85.999,70.846,86.087,68.871,86.087z"/>
	<path fill-rule="evenodd" clip-rule="evenodd" d="M172.676,47.482c0,0.895,0.118,1.81-0.024,2.682
		c-0.282,1.708-0.703,3.396-1.083,5.089c-0.207,0.921-0.377,1.86-0.694,2.745c-0.458,1.278-1.034,2.513-1.558,3.766
		c-0.269,0.644-0.497,1.306-0.802,1.931c-0.826,1.701-1.619,3.423-2.548,5.069c-0.739,1.311-1.629,2.541-2.506,3.771
		c-1.103,1.548-2.188,3.115-3.41,4.566c-1.634,1.939-3.28,3.894-5.124,5.625c-2.582,2.423-5.295,4.716-8.064,6.923
		c-1.473,1.174-3.149,2.111-4.798,3.042c-1.577,0.892-3.22,1.67-4.862,2.441c-3.153,1.479-6.461,2.388-9.966,2.238
		c-1.423-0.061-2.907-0.232-4.231-0.715c-2.095-0.764-3.976-2.024-5.537-3.629c-0.628-0.644-0.81-1.703-1.383-2.425
		c-1.115-1.405-0.959-3.206-1.641-4.74c-0.21-0.474-0.107-1.096-0.111-1.65c-0.007-1.483-0.125-2.98,0.043-4.443
		c0.187-1.609,0.628-3.192,0.986-4.78c0.239-1.064,0.485-2.131,0.81-3.17c0.279-0.892,0.678-1.748,1.015-2.622
		c0.242-0.632,0.41-1.302,0.719-1.898c1.096-2.117,2.204-4.226,3.371-6.302c0.846-1.507,1.733-2.998,2.712-4.421
		c0.915-1.329,1.921-2.606,2.982-3.823c1.859-2.132,3.761-4.231,5.708-6.284c1.228-1.295,2.466-2.623,3.885-3.687
		c2.351-1.757,4.815-3.372,7.303-4.934c1.492-0.938,3.099-1.709,4.692-2.469c1.634-0.777,3.291-1.478,5.126-1.733
		c1.702-0.237,3.363-0.891,5.063-0.978c1.625-0.085,3.338,0.109,4.901,0.563c2.549,0.743,4.919,2.01,6.399,4.322
		c0.863,1.348,1.33,2.947,2.032,4.406C172.936,43.733,172.637,45.626,172.676,47.482z M168.123,47.95
		c-0.317-1.745-0.54-3.301-0.909-4.821c-0.152-0.631-0.549-1.24-0.957-1.765c-0.545-0.703-1.195-1.325-1.821-1.962
		c-1.711-1.742-3.937-1.889-6.168-1.88c-0.876,0.004-1.759,0.256-2.625,0.458c-0.805,0.187-1.622,0.378-2.376,0.702
		c-1.579,0.678-3.138,1.41-4.672,2.185c-0.938,0.474-1.844,1.03-2.715,1.621c-1.125,0.764-2.206,1.595-3.298,2.408
		c-1.461,1.085-2.997,2.088-4.349,3.296c-1.56,1.393-2.873,3.063-4.439,4.449c-2.272,2.011-3.999,4.453-5.728,6.891
		c-1.145,1.614-2.132,3.345-3.117,5.065c-0.974,1.707-1.938,3.429-2.752,5.213c-0.6,1.313-0.972,2.732-1.407,4.115
		c-0.246,0.783-0.421,1.586-0.62,2.383c-0.332,1.33-0.801,2.645-0.957,3.994c-0.304,2.625,0.018,5.217,1.117,7.642
		c0.375,0.826,0.958,1.583,1.56,2.273c1.532,1.756,3.68,2.076,5.827,2.273c2.342,0.215,4.524-0.635,6.734-1.206
		c1.007-0.26,2.003-0.686,2.908-1.204c1.818-1.04,3.593-2.161,5.344-3.312c1.32-0.868,2.655-1.744,3.842-2.777
		c2.104-1.834,4.15-3.741,6.125-5.714c1.37-1.367,2.628-2.856,3.849-4.362c0.998-1.235,1.881-2.565,2.789-3.872
		c0.885-1.273,1.788-2.539,2.585-3.866c0.636-1.056,1.141-2.192,1.675-3.307c0.641-1.336,1.339-2.656,1.851-4.042
		c0.566-1.533,1.013-3.119,1.397-4.708C167.318,52.043,167.708,49.938,168.123,47.95z"/>
	<path fill-rule="evenodd" clip-rule="evenodd" d="M88.732,71.105c-1.481,0-2.977,0.126-4.439-0.034
		c-1.605-0.177-3.182-0.609-4.766-0.952c-0.828-0.177-1.652-0.382-2.47-0.607c-1.554-0.429-3.125-0.808-4.64-1.347
		c-1.195-0.427-2.329-1.037-3.467-1.609c-1.635-0.822-3.273-1.642-4.863-2.544c-0.952-0.54-1.861-1.182-2.709-1.876
		c-1.086-0.89-2.123-1.845-3.123-2.831c-0.77-0.762-1.547-1.548-2.15-2.439c-1.65-2.433-2.822-5.065-2.358-8.099
		c0.15-0.979,0.72-1.886,1.007-2.853c0.35-1.182,1.009-2.168,1.911-2.938c0.947-0.807,1.963-1.593,3.07-2.14
		c1.378-0.683,2.882-1.11,4.331-1.646c0.058-0.021,0.121-0.029,0.183-0.035c3.177-0.346,6.343-0.919,9.561-0.583
		c1.617,0.17,3.244,0.313,4.844,0.593c1.29,0.226,2.545,0.65,3.82,0.966c1.001,0.247,2.035,0.388,3.009,0.713
		c1.406,0.472,2.776,1.051,4.152,1.614c1.04,0.424,2.104,0.816,3.08,1.36c1.523,0.848,3.011,1.768,4.457,2.742
		c1.393,0.938,2.766,1.921,4.055,2.995c1.697,1.412,2.993,3.208,4.021,5.131c1.161,2.168,1.842,4.591,1.211,7.018
		c-0.521,2.006-1.504,3.912-3.139,5.347c-1.703,1.497-3.697,2.38-5.858,3.063C94.597,71.018,91.696,71.285,88.732,71.105z
		 M89.058,66.529c3.553-0.094,6.255-0.492,10.03-2.518c0.837-0.45,1.766-1.244,2.059-2.087c0.666-1.907,0.414-3.871-0.875-5.536
		c-0.792-1.021-1.667-1.982-2.563-2.914c-1.401-1.458-2.873-2.847-4.677-3.811c-1.11-0.593-2.23-1.171-3.368-1.711
		c-1.019-0.483-2.061-0.917-3.103-1.345c-0.575-0.237-1.167-0.441-1.764-0.622c-1.145-0.346-2.295-0.67-3.446-0.989
		c-0.205-0.056-0.452,0.01-0.641-0.071c-1.674-0.706-3.428-1.01-5.229-1.11c-0.893-0.05-1.784-0.136-2.675-0.204
		c-0.884-0.067-1.774-0.225-2.652-0.176c-1.439,0.078-2.875,0.288-4.311,0.45c-0.303,0.034-0.625,0.048-0.902,0.161
		c-1.249,0.507-2.486,1.045-3.727,1.576c-1.402,0.6-2.721,2.722-2.565,4.209c0.205,1.977,1.048,3.742,2.391,5.129
		c2.452,2.532,5.073,4.892,8.396,6.296c1.743,0.737,3.447,1.565,5.188,2.309c0.661,0.283,1.384,0.423,2.066,0.666
		c0.806,0.287,1.58,0.683,2.4,0.907c0.959,0.262,1.946,0.438,2.934,0.566C84.365,66.007,86.713,66.258,89.058,66.529z"/>
	<path fill-rule="evenodd" clip-rule="evenodd" d="M66.972,142.538c0.864,0,1.729,0.002,2.593,0c2.018-0.006,3.951,0.54,5.722,1.367
		c1.817,0.849,3.221,2.241,4.081,4.212c0.895,2.054,0.745,4.145,0.341,6.134c-0.279,1.374-1.258,2.69-2.177,3.829
		c-1.258,1.562-2.649,3.055-4.18,4.347c-1.344,1.137-2.913,2.034-4.463,2.893c-1.738,0.961-3.545,1.811-5.365,2.61
		c-0.931,0.409-1.949,0.623-2.936,0.894c-0.958,0.262-1.928,0.495-2.896,0.719c-0.65,0.148-1.305,0.311-1.968,0.377
		c-2.069,0.204-4.148,0.548-6.214,0.487c-1.676-0.049-3.333-0.619-5.003-0.93c-2.311-0.431-4.021-1.768-5.355-3.608
		c-0.45-0.621-0.607-1.453-1.037-2.093c-0.698-1.038-0.481-2.167-0.5-3.274c-0.02-1.197,0.397-2.271,0.997-3.298
		c0.465-0.796,0.8-1.671,1.29-2.449c1.135-1.798,2.661-3.251,4.36-4.501c1.546-1.136,3.154-2.188,4.754-3.251
		c0.41-0.272,0.879-0.473,1.341-0.655c1.219-0.48,2.451-0.932,3.678-1.396c0.886-0.337,1.768-0.681,2.653-1.017
		c0.112-0.043,0.228-0.081,0.346-0.104c1.275-0.243,2.546-0.519,3.827-0.719c2.022-0.317,4.055-0.583,6.083-0.871
		C66.952,142.34,66.963,142.438,66.972,142.538z M50.864,165.296c0.01,0.093,0.021,0.186,0.032,0.277
		c2.36-0.33,4.725-0.626,7.077-1.006c0.89-0.144,1.766-0.433,2.618-0.736c0.744-0.266,1.445-0.649,2.172-0.97
		c1.073-0.474,2.229-0.812,3.208-1.429c1.628-1.025,3.188-2.178,4.702-3.367c1.87-1.471,3.414-3.269,4.262-5.504
		c0.248-0.653,0.065-1.66-0.282-2.313c-1.006-1.89-2.959-2.473-4.857-2.764c-3.157-0.483-6.318-0.147-9.426,0.596
		c-0.798,0.191-1.586,0.44-2.362,0.709c-0.839,0.29-1.66,0.63-2.487,0.952c-0.638,0.248-1.302,0.45-1.904,0.765
		c-1.331,0.696-2.677,1.38-3.931,2.198c-1.289,0.845-2.54,1.777-3.697,2.796c-1.478,1.301-2.685,2.805-3.28,4.772
		c-0.36,1.188-0.322,2.226,0.518,3.127c1.143,1.226,2.596,1.775,4.216,1.883C48.577,165.356,49.723,165.296,50.864,165.296z"/>
	<path fill-rule="evenodd" clip-rule="evenodd" d="M152.675,182.621c-1.357-0.043-2.798,0.091-3.506-1.309
		c-0.345-0.682-0.354-1.676-0.162-2.44c0.156-0.622,0.689-1.188,1.611-1.233c1.795-0.087,3.611-0.21,5.361-0.585
		c1.468-0.316,2.848-1.032,4.279-1.534c1.568-0.551,2.889-1.493,4.232-2.444c1.792-1.271,3.308-2.797,4.607-4.532
		c1.323-1.767,2.335-3.705,3.113-5.798c0.653-1.755,1.094-3.49,1.134-5.368c0.024-1.139,0.225-2.311,0.577-3.394
		c0.166-0.506,0.825-1.055,1.36-1.19c0.973-0.245,1.991-0.175,2.733,0.765c0.459,0.581,0.694,1.182,0.615,1.916
		c-0.218,2.033-0.283,4.097-0.691,6.091c-0.278,1.359-1.022,2.625-1.567,3.928c-0.425,1.01-0.832,2.03-1.304,3.018
		c-0.809,1.692-1.89,3.21-3.2,4.548c-1.307,1.334-2.608,2.683-4.022,3.896c-0.906,0.778-1.998,1.351-3.036,1.964
		c-0.968,0.573-1.96,1.112-2.971,1.604c-0.543,0.265-1.141,0.432-1.727,0.588c-1.059,0.284-2.12,0.566-3.195,0.779
		C155.511,182.168,154.091,182.38,152.675,182.621z"/>
	<path fill-rule="evenodd" clip-rule="evenodd" d="M156.627,143.027c0,1.081,0.043,2.163-0.014,3.24
		c-0.044,0.822,0.31,1.105,1.073,1.101c2.13-0.018,4.259-0.028,6.388-0.016c1.47,0.009,2.758,1.466,2.628,2.921
		c-0.068,0.752-1.01,1.632-1.713,1.908c-2.121,0.834-4.306,0.285-6.456,0.395c-1.892,0.098-1.892,0.02-1.894,1.855
		c-0.002,1.852,0.007,3.702-0.023,5.553c-0.023,1.382-0.916,2.222-2.313,2.248c-1.369,0.024-2.472-0.901-2.506-2.234
		c-0.052-2.035-0.015-4.072-0.022-6.109c-0.004-1.198-0.06-1.259-1.25-1.267c-1.79-0.015-3.582,0.035-5.369-0.032
		c-0.907-0.033-1.844-0.245-2.459-0.994c-0.479-0.582-0.865-1.217-0.511-2.089c0.792-1.941,1.035-2.142,3.189-2.147
		c1.696-0.005,3.395-0.006,5.091-0.02c1.174-0.009,1.281-0.113,1.29-1.256c0.016-1.976,0.017-3.95,0.038-5.925
		c0.011-0.925,0.716-2.054,1.393-2.287c1.013-0.349,2.727,0.073,3.243,0.845c0.142,0.212,0.177,0.526,0.181,0.794
		c0.019,1.172,0.007,2.345,0.007,3.517C156.621,143.027,156.624,143.027,156.627,143.027z"/>
	<path fill-rule="evenodd" clip-rule="evenodd" d="M159.596,122.252c0.307,3.461-2.18,5.462-5.278,5.556
		c-3.161,0.095-5.512-2.608-5.506-5.467c0.008-3.728,2.578-5.695,5.607-5.713C156.983,116.614,159.876,118.492,159.596,122.252z"/>
	<path fill-rule="evenodd" clip-rule="evenodd" d="M169.244,135.173c0.229,2.413-1.881,3.855-3.68,3.801
		c-1.813-0.053-3.717-1.842-3.578-3.988c0.129-1.981,1.766-3.706,3.85-3.63C167.475,131.417,169.5,132.698,169.244,135.173z"/>
	<path fill-rule="evenodd" clip-rule="evenodd" d="M69.207,111.537c-3.263-0.204-6.438-0.315-9.593-0.633
		c-1.985-0.2-3.962-0.621-5.899-1.114c-1.332-0.34-2.596-0.963-3.884-1.479c-1.157-0.464-2.358-0.855-3.437-1.464
		c-0.854-0.482-1.696-1.135-2.275-1.912c-0.659-0.882-1.074-1.964-1.499-3.001c-0.449-1.101,0.638-2.765,1.818-2.835
		c1.662-0.099,2.484-0.217,3.275,2.161c0.197,0.592,0.932,1.096,1.532,1.445c1.11,0.645,2.304,1.146,3.465,1.702
		c0.053,0.025,0.121,0.021,0.181,0.032c1.245,0.23,2.509,0.385,3.729,0.707c5.619,1.479,11.35,1.267,17.064,1.118
		c2.078-0.054,4.158-0.375,6.218-0.712c1.6-0.26,3.22-0.59,4.733-1.15c1.714-0.637,3.358-1.498,4.945-2.412
		c0.433-0.248,0.6-1.02,0.807-1.581c0.247-0.67,0.569-1.232,1.349-1.287c1.053-0.075,2.172-0.331,2.942,0.729
		c0.7,0.963,0.689,1.883,0.199,3.029c-0.501,1.176-1.051,2.271-2.075,2.975c-1.227,0.84-2.569,1.516-3.887,2.214
		c-0.615,0.327-1.275,0.59-1.943,0.792c-1.267,0.386-2.543,0.747-3.834,1.044c-1.593,0.367-3.203,0.659-4.807,0.983
		c-0.12,0.023-0.242,0.049-0.365,0.057C75.018,111.146,72.066,111.344,69.207,111.537z"/>
	<path fill-rule="evenodd" clip-rule="evenodd" d="M131.183,86.128c-1.77,0.188-3.058-0.693-4.164-1.892
		c-0.804-0.87-0.114-3.02,0.974-3.542c0.785-0.377,1.542-0.266,2.197,0.038c0.975,0.451,1.884,0.214,2.713-0.122
		c1.22-0.495,2.381-1.161,3.501-1.861c1.09-0.681,2.126-1.458,3.128-2.265c0.968-0.778,1.905-1.607,2.783-2.486
		c1.288-1.289,2.529-2.627,3.758-3.975c0.767-0.842,1.481-1.735,2.204-2.617c0.92-1.119,1.863-2.221,2.724-3.384
		c0.909-1.227,1.758-2.5,2.586-3.784c0.619-0.961,1.24-1.935,1.727-2.966c0.521-1.104,0.889-2.279,1.316-3.426
		c0.26-0.695,0.595-1.375,0.744-2.093c0.214-1.033,0.374-2.092,0.38-3.142c0.001-0.466-0.341-1.025-0.69-1.382
		c-0.802-0.823-0.218-1.526,0.199-2.096c0.612-0.837,1.435-1.537,2.63-1.262c1.017,0.232,1.611,0.934,2.139,1.809
		c0.797,1.321,1.266,2.708,1.006,4.224c-0.239,1.386-0.622,2.754-1.028,4.103c-0.339,1.132-0.748,2.251-1.228,3.332
		c-0.488,1.098-1.071,2.158-1.662,3.205c-0.602,1.062-1.278,2.08-1.896,3.132c-1.78,3.024-3.796,5.894-6.101,8.526
		c-1.733,1.98-3.66,3.799-5.585,5.6c-1.669,1.563-3.396,3.076-5.21,4.461c-1.103,0.844-2.4,1.444-3.649,2.078
		c-1.104,0.558-2.237,1.075-3.403,1.486C132.623,86.057,131.884,86.035,131.183,86.128z"/>
	<path fill-rule="evenodd" clip-rule="evenodd" d="M65.892,48.866c0.488,0.473,1.079,0.808,1.308,1.309
		c0.996,2.189,2.605,3.78,4.629,4.979c1.319,0.782,2.641,1.615,4.065,2.148c1.701,0.635,3.54,0.894,5.267,1.468
		c1.396,0.464,2.807,0.479,4.229,0.613c0.479,0.046,1.003,0.46,1.336,0.849c0.189,0.221,0.191,0.916,0.002,1.081
		c-0.38,0.332-0.937,0.495-1.446,0.628c-0.223,0.06-0.505-0.16-0.769-0.193c-1.851-0.233-3.717-0.375-5.55-0.704
		c-1.028-0.185-2.005-0.656-2.993-1.026c-1.079-0.406-2.172-0.79-3.213-1.28c-2.049-0.967-3.969-2.156-5.491-3.861
		c-0.762-0.854-1.548-1.751-2.026-2.769c-0.348-0.739-0.253-1.709-0.252-2.576C64.986,49.356,65.449,49.18,65.892,48.866z"/>
	<path fill-rule="evenodd" clip-rule="evenodd" d="M59.355,160.766c-0.49-0.357-1.307-0.699-1.292-1.001
		c0.027-0.569,0.395-1.345,0.866-1.629c1.367-0.821,2.856-1.439,4.296-2.14c1.876-0.911,3.156-2.497,4.541-3.972
		c0.238-0.254,0.83-0.493,1.054-0.369c0.378,0.207,0.772,0.683,0.84,1.097c0.195,1.197-0.585,2.08-1.331,2.846
		c-0.85,0.872-1.792,1.702-2.83,2.327c-1.321,0.797-2.773,1.379-4.18,2.035C60.736,160.23,60.129,160.45,59.355,160.766z"/>
</g>
</svg>
