<?xml version="1.0" encoding="utf-8"?>
<!-- Generator: Adobe Illustrator 16.0.0, SVG Export Plug-In . SVG Version: 6.00 Build 0)  -->
<!DOCTYPE svg PUBLIC "-//W3C//DTD SVG 1.1//EN" "http://www.w3.org/Graphics/SVG/1.1/DTD/svg11.dtd">
<svg version="1.1" id="Layer_1" xmlns="http://www.w3.org/2000/svg" xmlns:xlink="http://www.w3.org/1999/xlink" x="0px" y="0px"
	 width="225px" height="225px" viewBox="0 0 225 225" enable-background="new 0 0 225 225" xml:space="preserve">
<path fill-rule="evenodd" clip-rule="evenodd" stroke="#000000" stroke-width="2" stroke-miterlimit="10" d="M145.607,187.539
	c-0.815,0-1.455,0-2.096,0c-17.965,0-35.932,0.007-53.897-0.007c-1.936-0.001-1.823,0.3-1.825-1.782
	c-0.007-22.402-0.002-44.807-0.002-67.21c0-0.388,0-0.773,0-1.242c-1.902,0-3.691-0.03-5.48,0.036
	c-0.254,0.011-0.646,0.477-0.7,0.781c-0.104,0.591-0.009,1.22-0.009,1.834c0.002,17.749,0.005,35.498-0.002,53.247
	c0,1.335-0.01,2.673-0.123,3.999c-0.04,0.454-0.41,0.88-0.636,1.313c-0.063,0.119-0.21,0.231-0.208,0.344
	c0.025,1.219-1.035,1.663-1.625,2.462c-0.881,1.189-2.426,1.312-3.285,2.424c-0.053,0.067-0.201,0.09-0.304,0.091
	c-2.259,0.017-4.589,0.365-6.751-0.091c-1.188-0.251-2.588-1.039-3.529-2.357c-0.691-0.976-1.172-2.055-1.865-2.976
	c-0.979-1.306-0.692-2.703-0.695-4.07c-0.014-22.656,0.003-45.313,0.023-67.966c0-0.721-0.145-1.482,0.588-2.064
	c0.23-0.187,0.188-0.741,0.242-1.129c0.104-0.784-0.181-1.688,0.809-2.173c0.141-0.069,0.072-0.54,0.121-0.823
	c0.069-0.419-0.135-1.005,0.615-1.033c0.074-0.002,0.174-0.119,0.21-0.205c0.358-0.85,0.624-1.753,1.079-2.547
	c0.379-0.667,0.971-1.211,1.476-1.807c0.269-0.318,0.57-0.614,0.815-0.95c0.452-0.618,0.84-1.286,1.317-1.88
	c0.385-0.479,0.822-0.934,1.308-1.31c0.957-0.743,2.14-1.274,2.886-2.176c0.531-0.641,1.516-0.609,1.62-0.892
	c0.396-1.076,1.705-0.563,2.126-1.446c0.076-0.165,0.508-0.146,0.761-0.243c0.322-0.121,0.639-0.265,0.945-0.419
	c0.316-0.158,0.613-0.355,0.93-0.511c0.452-0.221,0.913-0.419,1.372-0.626c0.099-0.045,0.192-0.111,0.292-0.134
	c1.528-0.343,3.053-0.957,4.586-0.974c9.161-0.105,18.324-0.07,27.486-0.08c0.176,0,0.348,0.031,0.589,0.052
	c0,6.892,0,13.727,0,20.62c-1.405,0.05-2.462,1.46-4.02,1.068c-0.03-0.008-0.083,0.003-0.102,0.026
	c-0.452,0.467-1.043,1.064-1.586,0.51c-0.353-0.36-0.255-1.195-0.288-1.821c-0.094-1.761-0.05-3.537-0.277-5.278
	c-0.072-0.561-0.736-1.331-1.272-1.483c-0.87-0.243-2.256-0.431-2.703,0.041c-0.698,0.737-1.66,0.76-2.397,1.436
	c-1.171,1.072-1.639,2.673-2.742,3.479c-0.936,0.685-0.328,2.074-1.556,2.329c-0.099,0.021-0.049,0.55-0.146,0.812
	c-0.097,0.26-0.284,0.491-0.451,0.718c-0.096,0.129-0.313,0.214-0.337,0.343c-0.12,0.712-0.257,1.292-0.746,1.979
	c-0.711,0.99-0.73,2.467-1.094,3.719c-0.148,0.495-0.439,0.949-0.662,1.422c-0.045,0.096-0.094,0.196-0.113,0.3
	c-0.359,1.965-0.758,3.924-1.051,5.9c-0.127,0.848,0.068,1.743-0.062,2.591c-0.257,1.646,0.469,2.988,1.352,4.492
	c0.792,0,2.224,0.413,2.703-0.086c1.069-1.112,2.806-0.111,3.609-1.476c0.028-0.047,0.13-0.055,0.202-0.067
	c1.78-0.33,3.557-0.68,5.342-0.975c0.632-0.104,1.289-0.07,1.699-0.089c1.531-1.83,1.225-3.862,1.234-5.834
	c0.012-2.525-0.002-5.051,0-7.576c0.003-1.585,0.236-1.803,1.783-1.896c0.74-0.043,1.533,0.159,2.113-0.692
	c0.188-0.276,0.994-0.13,1.596-0.186c0.021,0.474,0.054,0.825,0.054,1.177c0.003,9.018,0.005,18.037,0,27.056
	c0,2.033-0.399,2.433-2.429,2.444c-2.523,0.016-5.05-0.003-7.575,0.028c-1.458,0.018-2.657,0.766-3.853,1.497
	c-0.674,0.415-1.382,0.779-2.018,1.245c-0.356,0.26-0.699,0.635-0.871,1.034c-0.469,1.089-0.908,2.2-1.23,3.34
	c-0.158,0.568-0.055,1.221-0.032,1.832c0.028,0.821-0.179,1.663,0.663,2.338c0.447,0.355,0.018,1.39,0.92,1.607
	c0.206,1.853,2.42,1.73,3.095,3.133c0.034,0.075,0.267,0.064,0.407,0.075c1.403,0.103,2.803,0.278,4.206,0.284
	c7.575,0.027,15.151,0.009,22.728,0.015c1.627,0,3.273,1.353,3.105,2.669c-0.07,0.54-0.455,1.22-0.905,1.485
	c-0.741,0.439-1.65,0.828-2.491,0.834c-7.828,0.062-15.654,0.034-23.486,0.038c-0.646,0.001-1.299,0.096-1.943,0.05
	c-1.917-0.139-3.262,1.052-4.222,2.329c-1.128,1.498-1.736,3.518-1.044,5.343c0.447,1.177,0.795,2.744,2.35,3.258
	c0.15,1.345,1.834,0.563,2.279,1.628c0.095,0.224,0.939,0.177,1.439,0.177c8.118,0.01,16.233,0.008,24.352,0.01
	c0.541,0,1.083-0.002,1.625,0.011c1.545,0.037,2.782,1.917,1.915,3.179c-0.505,0.74-1.312,1.388-2.546,1.365
	c-5.662-0.096-11.328-0.042-16.992-0.04c-4.186,0-8.37-0.007-12.555,0.006c-1.399,0.005-2.395,1.333-1.926,2.652
	c0.141,0.396,0.598,0.816,1,0.946c0.635,0.209,1.346,0.242,2.023,0.242c9.199,0.013,18.398,0.02,27.597-0.006
	c1.294-0.004,2.603-0.084,3.867-0.323c0.56-0.104,1.06-0.658,1.526-1.072c0.556-0.492,1.049-1.052,1.557-1.597
	c0.088-0.095,0.165-0.248,0.168-0.375c0.02-1.824,0.024-3.648,0.033-5.473c-0.959-0.494-0.65-1.963-1.93-2.326
	c-0.912-0.259-1.675-1.008-2.556-1.441c-0.388-0.191-0.895-0.197-1.349-0.198c-7.938-0.013-15.875-0.012-23.811-0.014
	c-0.217,0-0.434,0.003-0.651,0c-3.134-0.065-3.319,0.471-3.019-3.331c0.364-0.374,0.594-0.695,0.899-0.898
	c0.267-0.173,0.62-0.297,0.937-0.301c2.344-0.027,4.688-0.021,7.034-0.021c6.564-0.002,13.132,0.004,19.697-0.012
	c1.233-0.003,2.114-0.781,2.97-1.559c0.486-0.441,0.986-0.869,1.457-1.329c0.134-0.131,0.254-0.352,0.256-0.534
	c0.041-1.751,0.16-3.512,0.023-5.249c-0.053-0.642-0.728-1.231-1.191-1.959c-0.16-0.193-0.413-0.497-0.664-0.801
	c-0.046-0.053-0.094-0.153-0.137-0.152c-1.217,0.052-1.972-1.063-3.303-1.045c-8.406,0.113-16.813,0.033-25.217,0.074
	c-1.333,0.006-2.024-0.7-2.939-1.527c-1.569-1.422-0.772-2.981-0.734-4.499c0.009-0.339,0.467-0.735,0.807-0.981
	c0.723-0.519,1.225-1.356,2.387-1.227c1.391,0.154,2.81,0.037,4.219,0.024c0.826-0.007,1.334,0.257,1.693,1.123
	c0.306,0.735,0.881,1.433,1.795,1.698c0.676,0.195,1.285,0.64,1.965,0.782c0.716,0.152,1.333,0.333,2.014,0.687
	c0.808,0.421,1.969,0.221,2.973,0.189c0.738-0.023,1.502,0.173,2.152-0.618c0.291-0.353,1.228-0.149,1.863-0.242
	c0.586-0.087,1.355,0.264,1.643-0.628c0.016-0.052,0.123-0.121,0.172-0.11c1.193,0.273,1.771-0.92,2.771-1.171
	c0.542-0.137,1.001-0.668,1.456-1.067c0.554-0.486,1.135-0.967,1.569-1.548c0.5-0.668,0.726-1.575,1.302-2.144
	c1.311-1.293,0.549-2.867,0.814-4.293c0.23-1.234-0.793-1.806-1.268-2.644c-0.342-0.604-0.983-1.042-1.519-1.522
	c-0.134-0.121-0.39-0.098-0.571-0.179c-0.442-0.204-0.857-0.553-1.316-0.622c-0.828-0.12-1.984-0.43-2.457-0.027
	c-0.795,0.681-1.578,0.535-2.395,0.656c-0.494,0.071-1.124-0.134-1.279,0.665c-0.023,0.112-0.428,0.132-0.643,0.229
	c-0.375,0.172-0.73,0.384-1.108,0.552c-0.269,0.118-0.57,0.277-0.833,0.239c-0.125-0.018-0.215-0.451-0.268-0.707
	c-0.044-0.207-0.01-0.433-0.01-0.647c0-7.432,0-14.864,0-22.296c0-0.429,0-0.859,0-1.45c1.11,0.098,2.117-0.313,3.142,0.545
	c0.494,0.415,1.444,0.284,2.39,0.431c0,0.33,0,0.743,0,1.156c0,3.932-0.004,7.864,0.004,11.797c0.006,1.503,0.769,2.249,2.254,2.284
	c0.793,0.02,1.751-0.2,2.336,0.166c1.049,0.656,2.438,0.272,3.156,0.839c0.982,0.775,2.187,0.335,2.845,0.883
	c0.832,0.688,1.606,0.755,2.509,0.775c1.363,0.032,1.457-0.453,2.285-1.546c1.372-1.813,0.512-3.71,0.707-5.552
	c0.031-0.312-0.289-0.656-0.428-0.993c-0.117-0.282-0.279-0.57-0.303-0.864c-0.063-0.827-0.008-1.665-0.118-2.482
	c-0.058-0.419-0.37-0.804-0.575-1.199c-0.046-0.09-0.188-0.178-0.174-0.243c0.325-1.56-0.964-2.73-1.01-4.208
	c-0.01-0.336-0.338-0.667-0.531-0.993c-0.051-0.087-0.176-0.138-0.205-0.226c-0.396-1.136-0.752-2.288-1.177-3.412
	c-0.204-0.533-0.406-1.235-0.829-1.479c-0.882-0.51-0.494-1.814-1.559-2.163c-0.25-0.084-0.388-0.601-0.52-0.94
	c-0.445-1.143-1.564-1.594-2.391-2.341c-1.207-1.091-2.701-1.306-4.246-1.001c-0.385,0.076-0.883,0.447-1.012,0.799
	c-0.293,0.808-1.142,1.301-1.031,2.374c0.158,1.562,0.04,3.153,0.04,4.896c-1.136-0.246-2.196,0.339-3.167-0.717
	c-0.385-0.418-1.433-0.226-2.313-0.33c-0.018-0.308-0.051-0.651-0.051-0.995c-0.004-6.205,0.008-12.41-0.018-18.615
	c-0.002-0.75,0.118-1.093,0.988-1.087c9.163,0.036,18.326,0.017,27.488,0.069c0.764,0.003,1.52,0.435,2.286,0.65
	c0.269,0.076,0.554,0.096,0.837,0.137c0.809,0.121,1.713-0.178,2.334,0.725c0.158,0.232,0.762,0.12,1.122,0.266
	c0.407,0.164,0.769,0.438,1.147,0.67c0.057,0.035,0.104,0.153,0.141,0.145c1.074-0.201,1.699,0.719,2.551,1.066
	c0.695,0.284,1.247,0.921,1.875,1.386c0.18,0.134,0.395,0.229,0.604,0.315c0.818,0.336,1.449,0.84,2.015,1.565
	c0.636,0.818,1.55,1.417,2.313,2.142c0.305,0.289,0.559,0.643,0.786,0.999c0.491,0.766,0.927,1.569,1.429,2.329
	c0.479,0.721,1.015,1.405,1.526,2.105c0.019,0.027,0.054,0.048,0.065,0.079c0.363,1.041,0.707,2.089,1.104,3.117
	c0.174,0.46,0.453,0.877,0.68,1.316c0.064,0.122,0.168,0.255,0.161,0.378c-0.116,2.511,1.015,4.808,1.001,7.363
	c-0.11,21.537-0.06,43.073-0.083,64.613c0,0.938,0.354,2.022-0.7,2.743c-0.141,0.098-0.115,0.479-0.115,0.728
	c0,1.197-0.635,1.991-1.565,2.65c-0.398,0.281-0.744,0.661-1.05,1.048c-0.629,0.792-1.438,1.241-2.311,1.765
	c-2.357,1.413-4.76,0.421-7.117,0.653c-0.646-0.799-1.853-0.563-2.512-1.511c-0.576-0.828-1.546-1.382-2.345-2.057
	c-0.054-0.044-0.161-0.047-0.183-0.097c-0.371-0.867-0.734-1.739-1.086-2.613c-0.165-0.409-0.368-0.818-0.44-1.249
	c-0.16-0.951-0.354-1.914-0.354-2.871c-0.021-18.326-0.017-36.652-0.017-54.98c0-0.39,0-0.778,0-1.206c-2.123,0-4.146,0-6.271,0
	C145.607,140.78,145.607,164.068,145.607,187.539z M89.605,185.69c18.377,0,36.639,0,55.045,0c0-23.425,0-46.747,0-70.105
	c3.037,0,5.928,0,8.898,0c0.035,0.732,0.1,1.376,0.1,2.02c0.004,18.941,0.002,37.882,0.004,56.822c0,0.578-0.096,1.183,0.048,1.725
	c0.28,1.066,0.646,2.117,1.085,3.13c0.176,0.407,0.587,0.753,0.965,1.022c0.658,0.472,1.354,0.9,2.07,1.277
	c0.978,0.514,1.958,1.058,2.994,1.422c1.863,0.65,3.35-0.877,5.09-1.025c0.057-0.005,0.111-0.083,0.156-0.135
	c0.432-0.465,0.781-1.065,1.303-1.374c0.926-0.55,1.559-1.218,1.674-2.314c0.012-0.104,0.056-0.275,0.116-0.291
	c0.978-0.247,0.698-1.062,0.719-1.681c0.064-2.054,0.088-4.109,0.091-6.165c0.027-15.441,0.063-30.882,0.059-46.322
	c-0.002-5.915-0.085-11.831-0.154-17.746c-0.009-0.708-0.107-1.432-0.275-2.12c-0.111-0.461-0.476-0.854-0.629-1.312
	c-0.352-1.054-0.642-2.128-0.964-3.192c-0.017-0.059-0.089-0.14-0.14-0.144c-0.76-0.056-0.57-0.682-0.689-1.127
	c-0.059-0.224-0.105-0.462-0.221-0.656c-0.207-0.352-0.467-0.669-0.693-1.012c-0.371-0.567-0.693-1.174-1.108-1.707
	c-0.485-0.619-1.034-1.193-1.581-1.757c-0.631-0.649-1.268-1.291-1.947-1.889c-0.473-0.419-1.108-0.684-1.509-1.155
	c-0.601-0.713-1.225-1.326-2.147-1.571c-0.168-0.042-0.336-0.107-0.479-0.202c-0.761-0.494-1.46-1.127-2.284-1.475
	c-1.065-0.45-2.225-0.675-3.34-1.007c-0.206-0.061-0.395-0.174-0.598-0.247c-0.573-0.205-1.139-0.453-1.729-0.584
	c-0.485-0.108-1.021,0.003-1.504-0.111c-4.777-1.121-9.631-0.628-14.457-0.696c-3.715-0.054-7.432-0.012-11.148-0.012
	c-0.217,0-0.455-0.06-0.646,0.012c-0.758,0.294-1.497,0.59-1.493,1.637c0.017,5.159,0,10.319,0.025,15.478
	c0.003,0.332,0.225,0.692,0.42,0.99c0.799,1.217,1.969,0.56,3.127,0.689c0-1.416-0.043-2.707,0.013-3.994
	c0.04-0.859-0.072-1.631,0.841-2.42c0.953-0.825,2.033-1.291,3.063-1.465c0.992-0.168,2.123,0.479,3.188,0.776
	c0.056,0.015,0.077,0.12,0.132,0.16c0.341,0.243,0.687,0.48,1.028,0.72c0.551,0.388,1.246,0.674,1.613,1.193
	c0.429,0.606,0.896,1.208,1.249,1.912c0.459,0.917,1.522,1.537,1.595,2.747c0.006,0.088,0.1,0.22,0.179,0.248
	c1.142,0.398,0.817,1.687,1.475,2.472c0.732,0.879,0.76,2.35,1.099,3.561c0.025,0.1,0.074,0.267,0.129,0.276
	c0.957,0.138,0.568,0.905,0.67,1.43c0.074,0.386-0.034,1.027,0.163,1.133c1.022,0.544,0.61,1.49,0.767,2.271
	c0.098,0.485,0.162,0.982,0.302,1.457c0.135,0.447,0.518,0.881,0.496,1.303c-0.183,3.5,0.965,7.127-0.846,10.168
	c-0.808,0.451-1.368,0.859-1.989,1.075c-0.402,0.139-1.156,0.176-1.313-0.049c-0.504-0.729-1.199-0.486-1.833-0.629
	c-1.411-0.314-2.808-0.688-4.206-1.043c-0.068-0.018-0.159-0.052-0.185-0.104c-0.371-0.75-1.069-0.591-1.692-0.615
	c-0.758-0.027-1.517-0.02-2.272-0.073c-0.263-0.017-0.53-0.142-0.778-0.254c-0.359-0.162-0.688-0.453-1.062-0.515
	c-1.081-0.18-1.811-0.905-1.818-2.011c-0.019-3.859-0.036-7.719-0.009-11.58c0.006-0.954-0.663-1.465-1.281-1.727
	c-0.629-0.267-1.461-0.059-2.117-0.059c-0.102,0.143-0.142,0.173-0.142,0.201c-0.015,6.638-0.028,13.275-0.03,19.912
	c0,0.195,0.133,0.563,0.189,0.559c0.838-0.039,1.682-0.076,2.506-0.227c0.402-0.075,0.758-0.546,1.14-0.558
	c1.766-0.054,3.534-0.015,5.3,0.009c0.235,0.003,0.506,0.049,0.695,0.171c0.895,0.583,1.766,1.198,2.705,1.842
	c0.098,0.342,0.083,1.003,0.375,1.191c1.046,0.682,0.885,1.919,1.34,2.829c0.893,1.786-0.77,3.467-0.982,5.277
	c-0.052,0.416-0.415,0.838-0.726,1.171c-0.489,0.524-1.06,0.972-1.597,1.453c-0.893,0.801-1.543,1.871-2.743,2.334
	c-0.596,0.23-1.419,0.451-1.657,0.921c-0.573,1.12-1.514,0.627-2.299,0.813c-0.2,0.047-0.547,0.04-0.583,0.143
	c-0.28,0.801-0.969,0.661-1.542,0.67c-2.559,0.031-5.119,0.027-7.68,0.018c-0.265-0.001-0.712-0.069-0.76-0.213
	c-0.26-0.78-0.916-0.675-1.436-0.625c-1.055,0.1-1.373-0.949-2.16-1.26c-0.357-0.141-0.705-0.475-0.911-0.812
	c-0.802-1.327-2.924-2.084-4.333-1.372c-0.969,0.487-1.988,1.035-2.699,1.817c-0.365,0.403-0.308,1.458-0.064,2.066
	c0.215,0.536,0.914,1.146,1.467,1.226c1.49,0.208,3.018,0.183,4.531,0.19c4.003,0.021,8.009-0.084,12.008,0.044
	c3.945,0.126,7.951-0.697,11.826,0.717c0.576,0.209,1.17,0.122,1.662,0.755c0.27,0.348,0.782,0.677,1.184,1.032
	c0.676,0.598,1.424,1.088,1.49,2.099c0.01,0.144,0.01,0.37,0.09,0.409c1.199,0.605,0.732,1.731,0.794,2.649
	c0.06,0.927,0.292,2.265-0.2,2.713c-0.809,0.741-0.426,1.964-1.52,2.545c-0.855,0.452-1.295,1.729-2.157,2.125
	c-1.243,0.57-2.7,0.923-4.07,0.935c-8.116,0.084-16.233,0.042-24.351,0.046c-0.504,0-1.029-0.023-1.502,0.106
	c-0.183,0.051-0.252,0.506-0.371,0.776c0.64,0.272,0.888,1.034,1.834,1.018c5.341-0.083,10.68-0.048,16.019-0.039
	c3.572,0.003,7.144,0.022,10.713,0.048c0.356,0.002,0.996,0.021,1.021,0.139c0.257,1.162,1.753,0.444,2.198,1.603
	c0.271,0.715,1.334,1.175,1.482,2.174c0.029,0.199,0.117,0.395,0.197,0.584c0.23,0.55,0.599,1.078,0.683,1.648
	c0.116,0.813,0.165,1.684-0.003,2.478c-0.225,1.057-0.459,2.248-1.105,3.039c-0.613,0.751-1.084,1.633-2.195,2.179
	c-1.488,0.726-2.805,1.51-4.539,1.501c-8.515-0.039-17.027-0.017-25.542-0.018c-1.588,0-3.176,0.018-4.762-0.034
	c-0.433-0.015-0.886-0.202-1.281-0.407c-0.368-0.191-0.665-0.514-0.985-0.772c-0.156-0.478-0.334-0.992-0.496-1.511
	c-0.14-0.45-0.449-1.258-0.357-1.309c0.73-0.395,0.633-1.12,0.84-1.721c0.03-0.097,0.102-0.232,0.178-0.254
	c1.094-0.296,1.878-1.233,3.162-1.214c4.692,0.08,9.382,0.032,14.071,0.032c4.942,0,9.886-0.021,14.828,0.018
	c1.024,0.008,1.323-0.307,0.955-1.255c-0.058-0.154-0.071-0.327-0.122-0.552c-0.6,0-1.139,0-1.678,0
	c-8.189,0-16.377-0.006-24.566,0.002c-1.723,0.001-3.42,0.019-4.49-1.714c-0.246-0.395-0.648-0.708-1.016-1.012
	c-0.856-0.709-1.582-1.42-1.501-2.703c0.102-1.58,0.03-3.172,0.046-4.756c0.005-0.244-0.002-0.543,0.129-0.72
	c0.5-0.688,1.14-1.282,1.563-2.006c0.538-0.919,1.198-1.543,2.288-1.641c0.137-0.012,0.371-0.042,0.392-0.113
	c0.32-1.049,1.198-0.717,1.872-0.718c8.658-0.025,17.316-0.021,25.977-0.024c0.379,0,0.756,0,1.137,0c0-0.662,0-1.151,0-1.753
	c-0.485,0-0.909,0-1.336,0c-6.387,0-12.773,0.1-19.154-0.045c-2.806-0.062-5.738,0.83-8.42-0.812
	c-0.784-0.479-1.982-0.56-2.451-1.209c-0.707-0.977-2.209-1.466-2.072-3.021c0.008-0.09-0.256-0.185-0.359-0.305
	c-0.162-0.192-0.371-0.388-0.426-0.614c-0.276-1.127-0.732-2.273-0.698-3.399c0.04-1.381,0.503-2.745,0.784-4.118
	c1.075-0.152,0.642-1.082,0.797-1.504c0.656-0.603,1.209-1.079,1.727-1.589c0.459-0.45,0.818-1.234,1.338-1.346
	c1.409-0.307,2.592-1.346,4.199-1.091c1.266,0.2,2.593,0.032,3.891,0.031c1.651-0.001,3.303-0.001,4.934-0.001
	c0.091-0.35,0.113-0.772,0.225-0.799c0.965-0.217,0.68-0.966,0.685-1.555c0.019-2.381,0.007-4.763,0.007-7.143
	c0-5.702,0.006-11.4-0.016-17.102c-0.002-0.391-0.088-0.963-0.347-1.136c-1.057-0.707-3.106,0.515-3.106,1.8
	c-0.009,3.679,0.004,7.36-0.02,11.04c-0.01,1.415-0.725,2.188-2.07,2.372c-0.178,0.024-0.472,0.003-0.512,0.092
	c-0.457,1.053-1.415,0.632-2.168,0.725c-0.816,0.101-1.654,0.045-2.483,0.083c-0.239,0.014-0.661,0.07-0.687,0.182
	c-0.191,0.832-0.865,0.571-1.379,0.671c-0.351,0.069-0.87,0-1.029,0.209c-0.67,0.871-1.6,0.581-2.441,0.697
	c-0.426,0.06-0.883,0.067-1.261,0.241c-0.466,0.216-0.73,0.886-1.436,0.254c-0.412-0.366-1.296-0.292-1.588-0.693
	c-0.479-0.652-1.329-1.209-1.057-2.29c0.09-0.357-0.142-0.812-0.267-1.209c-0.144-0.451-0.449-0.883-0.477-1.336
	c-0.053-0.896,0.002-1.714,0.548-2.611c0.462-0.758,0.182-1.964,0.241-2.972c0.033-0.61-0.15-1.488,0.18-1.777
	c0.903-0.799,0.56-1.771,0.703-2.674c0.052-0.32-0.014-0.84,0.153-0.929c0.981-0.522,0.647-1.484,0.856-2.258
	c0.055-0.203,0.039-0.503,0.168-0.599c1.152-0.838,0.683-2.366,1.51-3.396c0.587-0.729,0.754-1.792,1.12-2.699
	c0.032-0.08,0.194-0.098,0.253-0.176c0.43-0.56,0.876-1.109,1.26-1.7c0.422-0.646,0.666-1.443,1.189-1.973
	c0.762-0.769,1.64-1.474,2.585-1.989c1.185-0.644,2.462-1.146,3.755-1.536c0.374-0.114,0.914,0.411,1.405,0.56
	c1.735,0.534,2.905,2.079,2.936,3.896c0.019,1.26,0.051,2.52,0.14,3.776c0.009,0.171,0.373,0.319,0.574,0.478
	c0.308-1.047,1.314-0.568,2.025-0.893c0.014-0.316,0.041-0.633,0.041-0.951c0.004-2.85,0-5.699,0-8.55
	c0-2.598,0.011-5.195,0.006-7.792c0-0.799-0.072-1.476-1.215-1.42c-7.883,0.387-15.789-0.592-23.682,0.555
	c-2.407,0.35-4.787,0.773-7.113,1.396c-0.621,0.164-1.6,0.432-1.924,0.83c-0.568,0.702-1.164,0.726-1.866,0.811
	c-0.106,0.015-0.19,0.177-0.299,0.254c-0.675,0.491-1.347,0.991-2.035,1.458c-0.165,0.112-0.524,0.054-0.589,0.178
	c-0.416,0.809-1.037,1.351-1.838,1.769c-0.416,0.221-0.756,0.627-1.067,1.001c-0.659,0.79-1.161,1.759-1.947,2.383
	c-0.813,0.646-1.515,1.238-1.65,2.317c-0.017,0.128-0.093,0.319-0.192,0.359c-1.062,0.428-0.906,1.642-1.535,2.396
	c-0.621,0.746-0.691,1.95-1.02,2.947c-0.039,0.113-0.213,0.173-0.28,0.284c-0.181,0.309-0.454,0.619-0.489,0.951
	c-0.094,0.857-0.065,1.727-0.115,2.592c-0.015,0.276-0.101,0.553-0.191,0.818c-0.173,0.499-0.484,0.979-0.541,1.489
	c-0.096,0.892-0.052,1.8-0.052,2.703c-0.005,19.951-0.022,39.901,0.032,59.853c0.006,1.661-0.566,3.404,0.656,5.034
	c0.505,0.666-0.043,1.923,0.994,2.621c0.503,0.335,0.688,1.148,1.189,1.488c0.99,0.673,1.695,1.894,3.134,1.8
	c0.085-0.005,0.171,0.11,0.265,0.154c0.482,0.224,0.951,0.579,1.453,0.636c2.334,0.265,4.227-0.803,5.986-2.16
	c0.543-0.42,1.229-0.828,1.488-1.403c0.373-0.828,1.334-1.438,1.078-2.537c-0.014-0.054,0.156-0.134,0.207-0.221
	c0.188-0.337,0.469-0.664,0.521-1.024c0.09-0.639,0.046-1.296,0.046-1.945c0.004-18.76,0.003-37.52,0.003-56.28
	c0-0.631,0-1.263,0-1.948c2.778,0,5.335-0.001,7.89,0.002c0.75,0.001,1.121,0.391,1.135,1.131c0.005,0.36,0.008,0.721,0.008,1.081
	c0,22.153,0,44.304,0,66.455C89.605,184.674,89.605,185.173,89.605,185.69z"/>
<path fill-rule="evenodd" clip-rule="evenodd" stroke="#000000" stroke-width="2" stroke-miterlimit="10" d="M116.717,77.526
	c-1.728,0-3.46,0.03-5.186-0.026c-0.36-0.012-0.713-0.343-1.061-0.54c-0.086-0.05-0.169-0.226-0.213-0.213
	c-1.269,0.383-2.104-0.703-3.045-1.12c-0.75-0.333-1.845-0.408-2.408-1.414c-0.334-0.595-1.254-0.848-1.885-1.29
	c-0.52-0.363-1.073-0.71-1.486-1.177c-0.927-1.044-1.791-2.146-2.646-3.25c-0.241-0.312-0.395-0.706-0.528-1.084
	c-0.417-1.174-1.581-2.031-1.466-3.435c0.017-0.209,0.014-0.571-0.09-0.618c-1.172-0.532-0.612-1.605-0.807-2.439
	c-0.191-0.816-0.531-1.615-0.601-2.439c-0.126-1.5-0.458-3.008,0.257-4.511c0.322-0.674,0.227-1.541,0.364-2.314
	c0.136-0.746-0.31-1.715,0.802-2.128c0.104-0.039,0.063-0.468,0.091-0.716c0.051-0.467-0.149-1.063,0.606-1.164
	c0.059-0.008,0.131-0.076,0.156-0.134c0.356-0.88,0.656-1.792,1.078-2.639c0.29-0.581,0.728-1.101,1.148-1.604
	c0.477-0.565,0.982-1.109,1.523-1.61c0.752-0.698,1.515-1.395,2.342-1.997c0.398-0.29,0.375-0.883,1.141-1
	c0.742-0.112,1.377-0.927,2.061-1.433c0.027-0.021,0.047-0.059,0.076-0.069c1.181-0.38,2.368-0.743,3.545-1.14
	c0.574-0.193,1.125-0.46,1.697-0.663c0.297-0.104,0.615-0.193,0.925-0.196c2.453-0.015,4.903-0.037,7.356,0.019
	c0.496,0.01,0.979,0.346,1.477,0.508c0.428,0.14,0.867,0.259,1.308,0.362c0.585,0.136,1.344-0.114,1.602,0.74
	c0.017,0.054,0.103,0.102,0.165,0.125c0.942,0.338,1.905,0.631,2.823,1.026c0.512,0.22,1.24,0.518,1.372,0.938
	c0.339,1.091,1.531,0.878,2.096,1.68c0.787,1.116,2.128,1.785,2.592,3.23c0.164,0.519,0.723,0.906,1.068,1.378
	c0.25,0.342,0.473,0.712,0.662,1.091c0.549,1.094,1.074,2.199,1.61,3.298c0.044,0.094,0.129,0.175,0.15,0.272
	c0.322,1.458,0.765,2.905,0.918,4.382c0.157,1.533,0.083,3.101-0.007,4.645c-0.035,0.578-0.449,1.124-0.594,1.707
	c-0.156,0.622-0.174,1.276-0.291,1.91c-0.11,0.59,0.156,1.354-0.703,1.625c-0.059,0.018-0.114,0.097-0.135,0.157
	c-0.334,0.964-0.623,1.948-1.014,2.888c-0.184,0.445-0.551,0.815-0.854,1.207c-0.521,0.67-1.063,1.325-1.581,1.999
	c-0.399,0.517-0.695,1.147-1.18,1.561c-0.902,0.771-1.906,1.423-2.875,2.12c-0.413,0.296-0.826,0.592-1.257,0.861
	c-0.815,0.514-1.646,1.009-2.47,1.514c-0.031,0.018-0.06,0.064-0.085,0.062c-1.326-0.088-2.343,0.941-3.576,1.039
	c-1.647,0.133-3.312,0.033-4.968,0.033C116.717,77.534,116.717,77.53,116.717,77.526z M136.453,56.432c-0.004,0-0.01,0-0.014,0
	c0-1.586,0.115-3.184-0.042-4.753c-0.103-1.022-0.596-2.005-0.921-3.006c-0.01-0.03-0.048-0.05-0.068-0.079
	c-0.492-0.736-1.248-1.417-1.417-2.222c-0.292-1.393-1.353-2.227-2.177-3.04c-1.428-1.405-2.654-3.154-4.701-3.861
	c-0.52-0.179-1.273-0.447-1.4-0.839c-0.297-0.926-0.963-0.662-1.539-0.766c-0.283-0.053-0.696-0.026-0.822-0.2
	c-0.678-0.942-1.672-0.551-2.539-0.684c-0.455-0.07-1.01-0.011-1.345-0.251c-1.45-1.044-3.024-0.469-4.534-0.399
	c-0.92,0.042-1.815,0.469-2.736,0.664c-0.486,0.104-1.342-0.078-1.446,0.146c-0.56,1.183-1.903,0.585-2.763,1.401
	c-0.814,0.766-2.211,1.088-3.174,1.944c-0.797,0.711-1.664,1.343-2.467,2.048c-0.369,0.325-0.691,0.716-0.976,1.122
	c-0.468,0.665-0.894,1.357-1.319,2.048c-0.526,0.854-1.567,1.419-1.467,2.627c0.007,0.101-0.025,0.271-0.087,0.299
	c-0.958,0.413-0.653,1.31-0.806,2.036c-0.055,0.264-0.146,0.525-0.256,0.772c-0.172,0.394-0.533,0.77-0.541,1.158
	c-0.051,2.56-0.031,5.121-0.023,7.682c0,0.282-0.002,0.759,0.134,0.814c0.974,0.396,0.616,1.249,0.744,1.933
	c0.058,0.312,0.076,0.65,0.22,0.919c0.482,0.894,0.996,1.771,1.525,2.64c0.402,0.663,0.835,1.309,1.279,1.947
	c0.238,0.341,0.492,0.688,0.801,0.964c0.752,0.677,1.613,1.249,2.297,1.985c1.135,1.223,1.72,1.708,3.465,2.531
	c0.136,0.063,0.207,0.248,0.334,0.348c0.216,0.171,0.434,0.379,0.688,0.466c0.297,0.102,0.816-0.023,0.927,0.151
	c0.672,1.046,1.726,0.644,2.631,0.805c0.369,0.066,0.735,0.18,1.085,0.317c0.354,0.139,0.686,0.475,1.029,0.483
	c2.02,0.042,4.039,0.021,6.059,0.005c0.277-0.003,0.748-0.022,0.804-0.162c0.333-0.842,1.066-0.532,1.646-0.693
	c1.024-0.283,2.028-0.637,3.039-0.964c0.03-0.009,0.047-0.052,0.077-0.073c0.833-0.563,1.657-1.143,2.506-1.685
	c0.603-0.386,1.353-0.612,1.831-1.106c0.83-0.862,1.502-1.871,2.23-2.83c0.343-0.456,0.598-0.994,0.992-1.396
	c0.682-0.694,1.566-1.228,1.508-2.384c-0.009-0.127,0.065-0.349,0.14-0.37c0.891-0.234,0.675-0.97,0.759-1.579
	c0.049-0.35,0.117-0.705,0.238-1.037c0.167-0.455,0.545-0.882,0.565-1.334C136.498,59.462,136.453,57.946,136.453,56.432z"/>
</svg>
