<?xml version="1.0" encoding="utf-8"?>
<!-- Generator: Adobe Illustrator 16.0.0, SVG Export Plug-In . SVG Version: 6.00 Build 0)  -->
<!DOCTYPE svg PUBLIC "-//W3C//DTD SVG 1.1//EN" "http://www.w3.org/Graphics/SVG/1.1/DTD/svg11.dtd">
<svg version="1.1" id="Layer_1" xmlns="http://www.w3.org/2000/svg" xmlns:xlink="http://www.w3.org/1999/xlink" x="0px" y="0px"
	 width="225px" height="225px" viewBox="0 0 225 225" enable-background="new 0 0 225 225" xml:space="preserve">
<g>
	<path fill-rule="evenodd" clip-rule="evenodd" stroke="#000000" stroke-miterlimit="10" d="M97.748,185.392
		c-12.109,0-24.217,0-36.324,0c-0.172,0-0.344,0.005-0.512-0.008c-0.893-0.076-1.312-0.581-1.125-1.444
		c0.32-1.489,0.686-2.972,1.021-4.458c0.234-1.028,0.453-2.06,0.684-3.09c0.391-1.75,0.791-3.499,1.176-5.253
		c0.194-0.891,0.378-1.784,0.537-2.681c0.506-2.836,1.48-5.421,3.861-7.252c1.053-0.811,2.156-1.521,3.483-1.823
		c1.741-0.399,3.476-0.823,5.208-1.259c1.34-0.336,2.672-0.709,4.009-1.058c1.372-0.36,2.757-0.677,4.116-1.075
		c1.596-0.468,2.902-1.311,3.434-3.01c0.081-0.259,0.176-0.525,0.182-0.79c0.033-1.16,0.037-2.319,0.051-3.479
		c0.006-0.405-0.121-0.692-0.533-0.886c-1.725-0.81-2.621-2.451-3.636-3.908c-0.571-0.821-0.71-1.959-0.978-2.974
		c-0.141-0.532-0.371-0.918-0.863-1.183c-0.857-0.466-1.304-1.161-1.473-2.174c-0.26-1.564-0.813-3.079-1.067-4.646
		c-0.206-1.267-0.194-2.577-0.21-3.868c-0.008-0.661,0.295-1.243,0.803-1.701c0.404-0.369,0.477-0.768,0.381-1.36
		c-0.154-0.961-0.08-1.965-0.05-2.945c0.016-0.611,0.116-1.22,0.198-1.827c0.318-2.366,0.941-4.633,2.025-6.778
		c2.055-4.057,5.176-6.912,9.42-8.515c1.768-0.67,3.635-0.858,5.525-0.862c3.779-0.007,7.16,1.148,10.127,3.471
		c2.434,1.904,4.21,4.319,5.355,7.188c0.785,1.965,1.337,3.985,1.451,6.114c0.038,0.709,0.228,1.411,0.254,2.12
		c0.02,0.532-0.092,1.075-0.184,1.607c-0.113,0.655-0.164,1.248,0.385,1.793c0.457,0.455,0.668,1.06,0.781,1.726
		c0.26,1.513,0.033,2.947-0.371,4.402c-0.271,0.977-0.367,2-0.561,2.997c-0.261,1.34-0.459,2.704-1.926,3.386
		c-0.268,0.122-0.48,0.486-0.597,0.786c-0.349,0.91-0.549,1.888-0.974,2.753c-0.412,0.84-1.045,1.573-1.557,2.366
		c-0.643,1-1.533,1.698-2.564,2.256c-0.41,0.22-0.603,0.586-0.582,1.095c0.037,0.917-0.002,1.84,0.012,2.762
		c0.025,1.537,0.739,2.802,1.677,3.94c0.479,0.58,1.124,0.954,1.894,1.139c1.662,0.394,3.328,0.679,5.045,0.751
		c2.246,0.094,4.495,0.227,6.727,0.483c1.949,0.227,3.888,0.69,5.592,1.695c1.465,0.866,2.695,2.054,3.444,3.638
		c0.591,1.256,1.05,2.54,1.319,3.923c0.428,2.193,1.048,4.348,1.557,6.526c0.361,1.552,0.646,3.122,1.006,4.672
		c0.353,1.512,0.755,3.012,1.13,4.517c0.042,0.165,0.063,0.336,0.082,0.504c0.153,1.363-0.153,1.697-1.542,1.697
		c-12.109,0-24.217,0-36.324,0V185.392z M133.195,183.268c-0.095-0.621-0.139-1.121-0.253-1.604
		c-0.353-1.521-0.755-3.03-1.097-4.553c-0.34-1.518-0.623-3.049-0.943-4.572c-0.14-0.659-0.308-1.312-0.471-1.966
		c-0.223-0.879-0.508-1.744-0.662-2.634c-0.196-1.109-0.5-2.173-1.061-3.144c-1.066-1.845-2.629-3.151-4.671-3.716
		c-2.194-0.609-4.452-0.874-6.748-0.916c-2.003-0.036-4.001-0.274-6.001-0.426c-0.068-0.004-0.145,0.002-0.201-0.027
		c-1.127-0.587-1.847-0.241-2.652,0.753c-2.105,2.608-4.372,5.083-6.571,7.615c-0.997,1.15-1.95,2.342-2.983,3.454
		c-1.205,1.294-3.031,1.389-4.289-0.048c-0.756-0.862-1.529-1.709-2.271-2.583c-2.714-3.204-5.413-6.421-8.124-9.627
		c-0.734-0.869-1.135-0.938-2.208-0.561c-0.696,0.248-1.407,0.466-2.126,0.634c-0.889,0.209-1.8,0.32-2.688,0.53
		c-1.648,0.388-3.283,0.81-4.922,1.229c-3.505,0.894-5.919,2.886-6.638,6.591c-0.147,0.766-0.312,1.526-0.491,2.288
		c-0.218,0.918-0.482,1.824-0.685,2.744c-0.196,0.892-0.317,1.802-0.515,2.693c-0.371,1.679-0.775,3.354-1.162,5.032
		c-0.122,0.526-0.265,1.053-0.338,1.587c-0.055,0.38-0.013,0.771-0.013,1.225C86.004,183.268,109.488,183.268,133.195,183.268z
		 M82.479,125.178c1.631-0.729,2.969-1.752,4.146-2.958c1.588-1.629,2.648-3.568,3.006-5.851c0.023-0.152,0.135-0.306,0.244-0.424
		c0.55-0.584,1.192-0.571,1.739,0.111c1.021,1.275,2.087,2.515,3.401,3.489c1.354,1.001,2.74,1.967,4.181,2.835
		c1.526,0.921,3.19,1.561,4.864,2.189c1.952,0.736,3.992,1.062,5.99,1.577c0.505,0.13,1.071,0.019,1.69,0.019
		c0.046-0.514,0.143-0.983,0.124-1.449c-0.056-1.627-0.051-3.239-0.428-4.865c-0.453-1.97-1.109-3.812-2.152-5.524
		c-1.35-2.213-3.121-4.003-5.404-5.247c-2.406-1.312-4.973-1.888-7.73-1.763c-1.555,0.071-3.04,0.446-4.418,1.023
		c-2.426,1.019-4.506,2.581-6.065,4.761c-1.144,1.604-2.011,3.321-2.618,5.213c-0.646,2.019-0.783,4.062-0.787,6.141
		C82.262,124.674,82.389,124.889,82.479,125.178z M85.316,133.562c0.137,0.636,0.309,1.183,0.365,1.743
		c0.208,2.004,0.291,4.028-0.002,6.018c-0.178,1.211,0.227,2.066,0.896,2.972c0.563,0.761,1.227,1.323,2.072,1.745
		c1.308,0.65,2.558,1.415,3.855,2.084c0.988,0.506,1.973,1.17,3.031,1.357c2.061,0.359,4.131,0.256,5.992-0.968
		c1.047-0.688,2.146-1.3,3.22-1.95c1.199-0.727,2.269-1.562,3.073-2.765c0.449-0.672,0.66-1.267,0.574-2.066
		c-0.16-1.486-0.32-2.985-0.285-4.475c0.028-1.241,0.339-2.474,0.537-3.793c-0.507-0.062-1.01-0.104-1.504-0.187
		c-1.4-0.235-2.799-0.495-4.201-0.727c-1.307-0.215-2.626-0.347-3.92-0.616c-1.494-0.308-2.964-0.302-4.452-0.002
		c-1.097,0.223-2.2,0.418-3.308,0.584c-1.309,0.2-2.63,0.332-3.936,0.538C86.697,133.156,86.086,133.363,85.316,133.562z
		 M103.693,149.96c-0.299,0.059-0.419,0.048-0.492,0.102c-2.152,1.593-4.608,1.905-7.184,1.677c-0.5-0.044-0.996-0.179-1.488-0.293
		c-1.34-0.317-2.475-1.076-3.67-1.707c-0.232-0.122-0.523-0.141-0.918-0.239c0,0.854,0.083,1.543-0.02,2.204
		c-0.135,0.893-0.303,1.809-0.65,2.629c-0.654,1.552-1.684,2.777-3.645,3.109c0.234,0.354,0.385,0.636,0.587,0.875
		c2.426,2.871,4.857,5.735,7.288,8.604c0.805,0.952,1.598,1.915,2.416,2.854c0.557,0.638,0.923,0.66,1.539,0.141
		c0.129-0.109,0.24-0.244,0.347-0.375c0.625-0.748,1.237-1.509,1.872-2.247c2.1-2.442,4.209-4.874,6.311-7.313
		c0.459-0.532,0.899-1.077,1.332-1.601C104.426,156.273,103.665,153.317,103.693,149.96z M84.622,131.368
		c0.556-0.086,1.056-0.159,1.552-0.245c0.402-0.069,0.798-0.165,1.2-0.227c1.34-0.211,2.683-0.402,4.022-0.623
		c0.865-0.142,1.73-0.313,2.594-0.486c1.755-0.355,3.52-0.3,5.276-0.064c1.31,0.176,2.607,0.445,3.911,0.669
		c1.602,0.276,3.205,0.561,4.814,0.815c0.49,0.079,0.996,0.073,1.523,0.107c0.238-1.067,0.877-1.89,0.95-2.928
		c-2.396-0.492-4.703-0.947-6.946-1.733c-3.088-1.081-5.979-2.51-8.614-4.43c-1.118-0.813-2.113-1.799-3.167-2.702
		c-0.43-0.368-0.686-0.305-0.891,0.209c-0.086,0.218-0.162,0.442-0.269,0.65c-1.347,2.646-3.438,4.575-5.925,6.119
		c-0.569,0.354-1.135,0.717-1.707,1.078C83.506,128.843,84.035,130.039,84.622,131.368z M110.439,137.733
		c1.066,0.144,1.217,0.052,1.404-0.837c0.297-1.396,0.507-2.816,0.916-4.178c0.271-0.903,0.397-1.786,0.366-2.706
		c-0.006-0.195-0.139-0.386-0.23-0.625C111.565,130.765,110.333,135.014,110.439,137.733z M81.168,129.483
		c-0.334,0.818-0.224,1.642-0.074,2.406c0.33,1.693,0.771,3.365,1.174,5.044c0.198,0.827,0.319,0.892,1.299,0.745
		C83.891,135.753,82.452,130.752,81.168,129.483z"/>
	<path fill-rule="evenodd" clip-rule="evenodd" stroke="#000000" stroke-miterlimit="10" d="M155.438,113.265
		c-0.231,0.431-0.398,0.727-0.554,1.028c-1.195,2.297-3.226,3.238-5.672,3.274c-1.46,0.02-2.75-0.676-3.833-1.67
		c-0.343-0.314-0.698-0.495-1.185-0.502c-1.645-0.013-3.171-0.383-4.372-1.622c-0.136-0.141-0.333-0.218-0.554-0.358
		c-0.753,1.225-1.37,2.405-1.093,3.92c0.17,0.929,0.081,1.902,0.12,2.857c0.045,1.055-0.276,2.029-0.733,2.945
		c-1.656,3.303-3.748,6.294-6.571,8.709c-1.398,1.197-2.977,2.131-4.756,2.68c-0.824,0.257-1.495-0.154-1.621-1.027
		c-0.023-0.166-0.04-0.343-0.014-0.509c0.189-1.242,0.389-2.483,0.592-3.723c0.027-0.168,0.135-0.327,0.137-0.491
		c0.022-1.638,0.93-2.952,1.598-4.347c1.024-2.141,2.113-4.248,3.164-6.377c0.641-1.298,1.218-2.631,1.902-3.904
		c0.407-0.755,0.117-1.468,0.072-2.193c-0.01-0.157-0.318-0.317-0.513-0.434c-0.521-0.317-1.094-0.56-1.581-0.92
		c-1.762-1.301-2.094-3.2-1.973-5.204c0.105-1.778,0.613-3.481,1.336-5.111c0.874-1.98,1.734-3.969,2.667-5.923
		c0.95-1.986,1.945-3.952,2.986-5.891c1.61-3.006,3.007-6.131,4.934-8.964c1.538-2.265,3.308-4.345,5.401-6.093
		c1.561-1.305,3.398-2.207,5.402-2.714c0.887-0.226,1.641-0.588,2.291-1.354c1.846-2.167,5.199-1.748,6.485,0.79
		c0.533,1.057,1.265,1.362,2.376,1.486c1.829,0.206,3.651,0.453,5.49,0.352c1.896-0.104,3.807-0.177,5.669-0.503
		c2.359-0.412,4.675-1.064,7.009-1.613c0.689-0.163,0.951-0.702,1.152-1.299c0.619-1.834,2.76-2.994,4.623-2.475
		c0.921,0.257,1.422,0.992,1.779,1.815c1.148,2.643,2.289,5.289,3.406,7.944c1.048,2.486,2.043,4.993,3.09,7.478
		c0.748,1.775,1.552,3.529,2.314,5.299c0.637,1.48,0.1,2.96-1.302,3.739c-0.964,0.535-2.009,0.786-3.047,0.5
		c-1.245-0.343-2.233,0.168-3.271,0.645c-1.769,0.817-3.343,1.93-4.715,3.296c-0.593,0.589-1.063,1.318-1.517,2.027
		c-2.147,3.34-4.781,6.104-8.445,7.845c-1.809,0.857-3.641,1.411-5.608,1.614c-1.22,0.125-2.436,0.273-3.657,0.379
		c-0.553,0.048-0.844,0.285-1.006,0.828c-0.518,1.73-1.676,2.982-3.283,3.692c-1.174,0.518-2.463,0.8-3.783,0.36
		C156.368,113.404,155.926,113.364,155.438,113.265z M189.846,90.47c-0.036-0.165-0.053-0.404-0.145-0.61
		c-1.061-2.45-2.16-4.886-3.203-7.344c-1.479-3.486-2.928-6.986-4.377-10.484c-0.188-0.454-0.504-0.525-0.902-0.41
		c-0.936,0.27-1.854,0.597-2.795,0.832c-1.637,0.409-3.271,0.867-4.934,1.118c-1.982,0.3-3.976,0.525-5.999,0.516
		c-2.29-0.014-4.561-0.145-6.825-0.462c-0.662-0.092-1.057,0.14-1.354,0.77c-1.047,2.194-2.141,4.366-3.234,6.538
		c-1.383,2.746-2.795,5.478-4.17,8.227c-0.582,1.166-1.105,2.363-1.689,3.625c1.078,0.207,2.065,0.298,2.988,0.593
		c2.012,0.64,3.896,1.554,5.543,2.912c1.276,1.053,1.17,1.904-0.339,2.521c-0.907,0.371-1.821,0.727-2.731,1.094
		c-1.912,0.771-3.824,1.545-5.737,2.32c-2.22,0.898-4.458,1.756-6.647,2.724c-0.758,0.335-1.523,0.835-2.054,1.46
		c-1.372,1.614-1.114,3.439-0.145,5.214c0.213,0.388,0.605,0.739,0.999,0.957c1.373,0.758,2.879,0.521,4.285,0.24
		c1.238-0.245,2.406-0.85,3.596-1.319c2.391-0.939,4.773-1.9,7.163-2.844c1.315-0.521,2.632-1.04,3.958-1.538
		c0.597-0.224,1.206-0.502,1.827-0.56c2.368-0.222,4.751-0.332,7.087-0.819c1.43-0.298,2.824-0.744,4.105-1.464
		c2.877-1.617,5.026-3.995,6.723-6.762c1.058-1.725,2.428-3.1,4.072-4.189C186.449,92.308,188.102,91.469,189.846,90.47z
		 M151.07,73.221c-0.503,0.043-0.914-0.036-1.19,0.122c-1.176,0.672-2.425,1.28-3.438,2.156c-2.682,2.319-4.744,5.163-6.43,8.272
		c-1.046,1.932-2.029,3.897-3.043,5.848c-0.701,1.349-1.436,2.685-2.098,4.054c-0.984,2.042-1.947,4.097-2.863,6.17
		c-0.544,1.232-1.137,2.475-1.42,3.776c-0.246,1.121-0.434,2.284-0.153,3.506c0.333,1.46,1.424,2.433,3.007,2.239
		C139.277,97.397,145.129,85.402,151.07,73.221z M134.781,111.647c0.61-0.03,0.969-0.011,1.313-0.076
		c0.462-0.082,0.912-0.243,1.371-0.349c0.658-0.151,0.775-0.28,0.781-0.974c0.006-0.715-0.046-1.435,0.01-2.146
		c0.104-1.362,0.565-2.59,1.651-3.48c0.648-0.533,1.343-1.021,2.063-1.456c0.483-0.291,0.87-0.61,1.122-1.125
		c0.637-1.308,1.305-2.603,1.953-3.906c1.488-2.999,2.965-6.002,4.465-8.994c0.998-1.989,2.037-3.957,3.035-5.945
		c0.912-1.814,1.79-3.644,2.689-5.465c0.793-1.604,1.603-3.199,2.388-4.808c0.467-0.96,0.166-1.919-0.737-2.464
		c-0.701-0.421-1.643-0.173-2.243,0.612c-0.185,0.242-0.341,0.51-0.474,0.783c-1.07,2.178-2.143,4.355-3.2,6.54
		c-1.606,3.32-3.192,6.65-4.803,9.967c-1.683,3.463-3.378,6.92-5.073,10.376c-1.609,3.279-3.229,6.554-4.838,9.833
		C135.797,109.499,135.358,110.438,134.781,111.647z M127.156,131.327c0.355-0.064,0.621-0.052,0.822-0.159
		c0.324-0.177,0.609-0.425,0.903-0.653c2.636-2.036,4.625-4.615,6.224-7.505c0.965-1.742,1.332-3.574,0.684-5.561
		c-0.223-0.686-0.193-1.474,0.128-2.204c0.2-0.45,0.331-0.945,0.092-1.504c-0.807,0.224-1.538,0.4-1.911,1.269
		c-0.424,0.993-0.963,1.939-1.441,2.911c-1.234,2.5-2.49,4.988-3.683,7.507c-0.747,1.577-1.765,3.083-1.578,4.971
		C127.42,130.64,127.271,130.898,127.156,131.327z M184.883,68.136c-1.219,0.042-1.715,0.83-1.278,1.853
		c0.81,1.897,1.606,3.799,2.409,5.698c0.961,2.268,1.915,4.54,2.883,6.805c0.76,1.772,1.54,3.536,2.308,5.304
		c0.362,0.836,0.677,1.698,1.093,2.505c0.314,0.604,0.715,0.628,1.474,0.243c0.731-0.371,0.845-0.589,0.563-1.261
		c-1.244-2.989-2.486-5.981-3.76-8.958c-0.814-1.901-1.695-3.772-2.52-5.669c-0.833-1.915-1.645-3.838-2.438-5.771
		C185.449,68.473,185.277,68.15,184.883,68.136z M146.438,101.242c3.24-1.218,6.391-2.534,9.698-3.861
		c-0.337-0.306-0.528-0.539-0.771-0.685c-0.402-0.242-0.836-0.437-1.262-0.639c-1.238-0.588-2.563-0.848-3.914-1.021
		c-0.813-0.103-1.346,0.225-1.695,0.963c-0.553,1.158-1.204,2.273-1.698,3.452C146.59,99.939,146.042,100.387,146.438,101.242z
		 M152.713,112.875c-1.451,0.167-2.568,0.978-3.836,1.325c-0.329,0.09-0.609,0.352-0.959,0.563
		C149.742,115.885,152.46,114.734,152.713,112.875z M157.326,111.033c1.472,0.689,2.992,0.105,3.648-1.328
		C160.076,109.738,158.891,110.16,157.326,111.033z"/>
	<path fill-rule="evenodd" clip-rule="evenodd" stroke="#000000" stroke-miterlimit="10" d="M62.311,85.578
		c-0.835-1.313-1.633-2.49-2.348-3.714c-1.434-2.461-2.491-5.071-3.227-7.837c-0.589-2.221-0.923-4.466-1.023-6.74
		c-0.102-2.247,0.018-4.5,0.486-6.711c0.316-1.491,0.615-2.996,1.074-4.445c0.4-1.276,1.006-2.489,1.537-3.724
		c1.012-2.348,2.447-4.434,4.047-6.407c2.368-2.926,5.194-5.324,8.449-7.229c2.023-1.183,4.165-2.087,6.357-2.877
		c0.787-0.284,1.636-0.393,2.461-0.571c1.09-0.236,2.179-0.466,3.271-0.69c0.232-0.049,0.473-0.087,0.71-0.087
		c2.182,0,4.367-0.065,6.543,0.048c1.162,0.061,2.314,0.41,3.46,0.675c1.182,0.274,2.372,0.538,3.519,0.931
		c1.238,0.424,2.453,0.941,3.637,1.506c3.97,1.894,7.342,4.593,10.169,7.938c1.196,1.416,2.159,3.031,3.226,4.557
		c1.254,1.795,2.012,3.83,2.758,5.861c0.336,0.92,0.593,1.88,0.791,2.842c0.221,1.062,0.253,2.168,0.514,3.217
		c0.451,1.789,0.372,3.597,0.273,5.389c-0.094,1.654-0.35,3.313-0.687,4.938c-0.306,1.488-0.808,2.937-1.231,4.4
		c-0.556,1.901-1.531,3.606-2.482,5.325c-1.406,2.547-3.273,4.736-5.314,6.78c-3.026,3.034-6.664,5.128-10.614,6.715
		c-1.957,0.787-4.006,1.191-6.079,1.6c-2.754,0.542-5.494,0.394-8.238,0.308c-1.473-0.047-2.939-0.437-4.395-0.746
		c-1.086-0.23-2.166-0.53-3.223-0.884c-2.553-0.858-4.946-2.049-7.166-3.582c-0.305-0.211-0.621-0.41-0.928-0.62
		C67.768,91.15,67.77,91.151,67,91.955c-0.188,0.196-0.391,0.379-0.596,0.558c-0.322,0.283-0.469,0.666-0.221,1.002
		c0.627,0.849,0.195,1.514-0.361,2.084c-1.444,1.481-2.94,2.912-4.42,4.361c-2.35,2.303-4.707,4.596-7.048,6.91
		c-2.97,2.937-5.925,5.889-8.882,8.838c-0.747,0.743-1.67,1.184-2.668,1.409c-1.002,0.229-1.975-0.112-2.82-0.607
		c-1.234-0.726-2.163-1.818-3.053-2.933c-0.938-1.176-0.875-4.163,0.421-5.417c2.14-2.07,4.216-4.202,6.317-6.311
		c4.082-4.096,8.163-8.194,12.242-12.291c0.693-0.695,1.371-1.405,2.07-2.096c0.627-0.621,0.908-0.623,1.705-0.262
		c0.266,0.122,0.732,0.181,0.916,0.032C61.227,86.729,61.765,86.122,62.311,85.578z M58.041,66.042
		c0.059,1.725-0.026,3.444,0.3,5.18c0.269,1.441,0.7,2.828,1.086,4.22c0.552,1.991,1.517,3.838,2.571,5.621
		c2.066,3.497,4.802,6.397,8.047,8.805c2.715,2.014,5.732,3.444,8.984,4.386c2.264,0.655,4.561,1.104,6.914,1.203
		c2.738,0.115,5.433-0.16,8.107-0.808c1.713-0.414,3.385-0.928,4.988-1.632c2.709-1.188,5.154-2.79,7.41-4.727
		c2.474-2.122,4.531-4.561,6.191-7.342c1.002-1.679,1.887-3.433,2.456-5.309c0.507-1.678,0.938-3.387,1.28-5.106
		c0.232-1.163,0.366-2.371,0.344-3.554c-0.037-1.938-0.129-3.887-0.396-5.802c-0.2-1.425-0.711-2.807-1.088-4.207
		c-0.557-2.065-1.504-3.956-2.567-5.8c-1.905-3.306-4.427-6.098-7.405-8.429c-1.938-1.515-4.091-2.74-6.39-3.712
		c-2.58-1.091-5.198-1.933-8.005-2.108c-0.168-0.011-0.339-0.035-0.504-0.078c-1.783-0.466-3.596-0.302-5.387-0.16
		c-1.477,0.116-2.936,0.453-4.396,0.727c-0.764,0.144-1.535,0.305-2.271,0.557c-3.228,1.109-6.227,2.664-8.943,4.733
		c-2.225,1.697-4.159,3.699-5.799,5.962c-1.434,1.979-2.637,4.093-3.537,6.389c-0.518,1.322-1.02,2.636-1.304,4.026
		c-0.243,1.193-0.542,2.385-0.663,3.592C57.951,63.783,58.041,64.918,58.041,66.042z M63.713,94.397
		c-0.368-0.403-0.627-0.705-0.905-0.987c-1.073-1.087-2.141-2.179-3.232-3.245c-0.517-0.504-0.622-0.478-1.181,0.012
		c-0.127,0.111-0.258,0.22-0.378,0.338c-1.29,1.288-2.575,2.581-3.868,3.867c-3.518,3.498-7.041,6.993-10.555,10.494
		c-1.438,1.43-2.848,2.887-4.288,4.311c-1.288,1.273-1.144,2.599-0.261,3.618c0.489,0.562,1.043,1.077,1.613,1.562
		c0.915,0.782,1.939,0.82,2.902,0.107c0.378-0.28,0.671-0.67,1.008-1.006c3.434-3.431,6.866-6.865,10.305-10.292
		c2.404-2.398,4.818-4.788,7.228-7.18C62.604,95.5,63.102,95.003,63.713,94.397z M63.758,87.202
		c-0.662,0.71-1.248,1.338-1.928,2.065c0.664,0.684,1.244,1.328,1.887,1.903c0.137,0.124,0.574,0.103,0.732-0.026
		c0.542-0.444,1.02-0.965,1.628-1.558C65.28,88.765,64.566,88.031,63.758,87.202z"/>
	<path fill-rule="evenodd" clip-rule="evenodd" stroke="#000000" stroke-miterlimit="10" d="M165.608,166.015
		c-0.304-0.279-0.625-0.479-0.799-0.766c-0.185-0.301-0.104-0.65,0.192-0.919c0.701-0.629,1.412-1.254,2.085-1.916
		c1.089-1.065,2.149-2.165,3.229-3.244c0.21-0.212,0.431-0.432,0.685-0.585c0.459-0.269,1.022-0.179,1.303,0.157
		c0.356,0.426,0.265,0.826-0.078,1.186c-1.17,1.226-2.33,2.457-3.529,3.652c-0.645,0.646-1.346,1.239-2.049,1.824
		C166.373,165.633,166.027,165.773,165.608,166.015z"/>
	<path fill-rule="evenodd" clip-rule="evenodd" stroke="#000000" stroke-miterlimit="10" d="M192.352,115.206
		c-0.256,1.665-0.492,3.166-0.717,4.665c-0.057,0.371-0.068,0.745-0.135,1.111c-0.135,0.764-0.268,1.53-0.451,2.284
		c-0.113,0.459-0.588,0.739-1,0.679c-0.438-0.064-0.775-0.415-0.738-0.95c0.057-0.811,0.211-1.611,0.331-2.417
		c0.076-0.5,0.179-0.998,0.237-1.502c0.161-1.377,0.306-2.756,0.454-4.135c0.052-0.482,0.314-0.814,0.737-1.021
		c0.424-0.209,0.789,0.053,0.985,0.325C192.266,114.538,192.288,114.971,192.352,115.206z"/>
	<path fill-rule="evenodd" clip-rule="evenodd" stroke="#000000" stroke-miterlimit="10" d="M176.886,153.831
		c-0.542,0.011-0.927-0.326-0.875-0.876c0.032-0.359,0.153-0.747,0.349-1.047c1.336-2.036,2.698-4.051,4.049-6.076
		c0.056-0.084,0.069-0.198,0.131-0.273c0.295-0.366,0.922-0.518,1.267-0.323c0.461,0.259,0.583,0.648,0.41,1.127
		c-0.103,0.284-0.216,0.573-0.378,0.823c-1.232,1.904-2.461,3.811-3.734,5.688C177.819,153.294,177.537,153.828,176.886,153.831z"/>
	<path fill-rule="evenodd" clip-rule="evenodd" stroke="#000000" stroke-miterlimit="10" d="M159.996,170.296
		c-0.076,0.114-0.204,0.504-0.475,0.674c-2.188,1.393-4.401,2.745-6.616,4.095c-0.162,0.102-0.392,0.104-0.595,0.129
		c-0.436,0.059-0.813-0.015-1.006-0.482c-0.178-0.429-0.068-0.833,0.383-1.142c0.446-0.304,0.919-0.569,1.385-0.845
		c1.135-0.675,2.278-1.334,3.404-2.023c0.661-0.402,1.288-0.864,1.943-1.277C159.211,168.928,159.966,169.231,159.996,170.296z"/>
	<path fill-rule="evenodd" clip-rule="evenodd" stroke="#000000" stroke-miterlimit="10" d="M188.933,131.354
		c-0.13,0.449-0.269,1.081-0.495,1.68c-0.707,1.886-1.446,3.761-2.177,5.637c-0.073,0.189-0.169,0.373-0.278,0.543
		c-0.225,0.341-0.545,0.518-0.958,0.436c-0.401-0.082-0.795-0.543-0.709-0.974c0.116-0.591,0.347-1.16,0.553-1.729
		c0.529-1.452,1.067-2.899,1.612-4.346c0.236-0.63,0.49-1.25,0.76-1.865c0.234-0.532,0.67-0.766,1.121-0.625
		C188.896,130.273,188.951,130.706,188.933,131.354z"/>
	<path fill-rule="evenodd" clip-rule="evenodd" stroke="#000000" stroke-miterlimit="10" d="M164.821,49.552
		c0.86,0.243,1.419,0.899,2.031,1.467c1.214,1.124,2.407,2.271,3.604,3.411c0.273,0.261,0.53,0.527,0.418,0.964
		c-0.203,0.785-0.89,1.041-1.547,0.513c-0.523-0.42-0.975-0.931-1.469-1.39c-1.061-0.983-2.133-1.958-3.196-2.94
		c-0.148-0.136-0.296-0.277-0.421-0.435c-0.498-0.642-0.449-0.946,0.219-1.403C164.57,49.664,164.697,49.614,164.821,49.552z"/>
	<path fill-rule="evenodd" clip-rule="evenodd" stroke="#000000" stroke-miterlimit="10" d="M140.844,35.93
		c0.92,0.281,1.739,0.481,2.522,0.781c1.224,0.47,2.427,1.003,3.634,1.521c0.277,0.118,0.559,0.258,0.799,0.438
		c0.477,0.36,0.598,0.755,0.396,1.136c-0.28,0.537-0.805,0.733-1.384,0.506c-0.313-0.122-0.616-0.276-0.926-0.404
		c-1.598-0.655-3.196-1.305-4.792-1.961c-0.249-0.102-0.504-0.202-0.722-0.352c-0.378-0.258-0.546-0.679-0.327-1.059
		C140.201,36.26,140.588,36.113,140.844,35.93z"/>
	<path fill-rule="evenodd" clip-rule="evenodd" stroke="#000000" stroke-miterlimit="10" d="M153.461,41.611
		c0.338,0.147,0.6,0.226,0.824,0.365c1.753,1.085,3.498,2.18,5.24,3.281c0.197,0.124,0.361,0.302,0.533,0.464
		c0.27,0.254,0.41,0.566,0.212,0.909c-0.187,0.321-0.423,0.658-0.871,0.558c-0.319-0.07-0.651-0.164-0.925-0.333
		c-1.688-1.046-3.36-2.114-5.033-3.183c-0.225-0.145-0.528-0.301-0.604-0.519c-0.111-0.32-0.143-0.731-0.039-1.047
		C152.871,41.891,153.232,41.772,153.461,41.611z"/>
	<path fill-rule="evenodd" clip-rule="evenodd" stroke="#000000" stroke-miterlimit="10" d="M127.868,32.652
		c1.336,0.257,2.672,0.499,4.003,0.78c0.863,0.182,1.707,0.448,2.569,0.633c0.542,0.116,0.813,0.567,0.729,1.044
		c-0.091,0.52-0.467,0.629-0.902,0.637c-0.306,0.005-0.62,0.01-0.917-0.049c-1.06-0.213-2.11-0.467-3.167-0.681
		c-0.965-0.196-1.938-0.343-2.9-0.546c-0.553-0.118-0.729-0.399-0.694-0.95C126.627,32.877,126.927,32.69,127.868,32.652z"/>
	<path fill-rule="evenodd" clip-rule="evenodd" stroke="#000000" stroke-miterlimit="10" d="M117.072,31.897
		c0.988,0,1.977-0.001,2.966,0c0.169,0,0.347-0.021,0.509,0.015c0.463,0.103,0.801,0.377,0.918,0.845
		c0.094,0.387-0.215,0.816-0.717,0.99c-0.249,0.087-0.533,0.118-0.799,0.111c-1.94-0.048-3.877-0.111-5.816-0.169
		c-0.204-0.006-0.412,0.003-0.612-0.026c-0.589-0.087-0.817-0.333-0.821-0.849c-0.002-0.449,0.305-0.818,0.797-0.904
		c0.23-0.041,0.475-0.03,0.713-0.031c0.956-0.003,1.909-0.001,2.863-0.001C117.072,31.885,117.072,31.891,117.072,31.897z"/>
	<path fill-rule="evenodd" clip-rule="evenodd" stroke="#000000" stroke-miterlimit="10" d="M47.488,139.817
		c-0.396,0.038-0.682-0.227-0.855-0.632c-0.467-1.088-0.93-2.181-1.383-3.273c-0.256-0.62-0.524-1.241-0.73-1.876
		c-0.112-0.346-0.138-0.729-0.144-1.095c-0.005-0.369,0.188-0.675,0.577-0.731c0.398-0.058,0.826-0.107,1.051,0.38
		c0.114,0.245,0.261,0.478,0.362,0.729c0.701,1.747,1.396,3.498,2.09,5.251C48.699,139.184,48.27,139.786,47.488,139.817z"/>
	<path fill-rule="evenodd" clip-rule="evenodd" stroke="#000000" stroke-miterlimit="10" d="M54.695,149.983
		c-0.191,0.278-0.314,0.656-0.559,0.77c-0.387,0.18-0.871,0.212-1.196-0.208c-0.224-0.293-0.418-0.61-0.612-0.923
		c-0.872-1.404-1.752-2.806-2.593-4.225c-0.16-0.272-0.233-0.643-0.216-0.959c0.038-0.627,0.762-0.982,1.281-0.634
		c0.271,0.182,0.506,0.459,0.678,0.739c0.951,1.543,1.881,3.101,2.813,4.655C54.424,149.424,54.531,149.665,54.695,149.983z"/>
	<path fill-rule="evenodd" clip-rule="evenodd" stroke="#000000" stroke-miterlimit="10" d="M43.43,85.566
		c0.181-0.575,0.345-1.155,0.547-1.724c0.449-1.275,0.881-2.559,1.391-3.81c0.369-0.898,1.115-1.076,1.664-0.493
		c0.259,0.273,0.354,0.572,0.221,0.932c-0.461,1.24-0.924,2.48-1.381,3.721c-0.22,0.603-0.42,1.212-0.65,1.812
		c-0.203,0.529-0.673,0.824-1.071,0.707C43.672,86.571,43.48,86.238,43.43,85.566z"/>
	<path fill-rule="evenodd" clip-rule="evenodd" stroke="#000000" stroke-miterlimit="10" d="M154.343,135.628
		c0.497,0,1.074-0.032,1.649,0.006c0.65,0.046,0.916,0.309,0.959,0.835c0.048,0.579-0.191,0.947-0.881,1.004
		c-1.146,0.099-2.301,0.095-3.453,0.101c-0.223,0-0.447-0.142-0.672-0.216c-0.376-0.12-0.524-0.394-0.534-0.773
		c-0.011-0.37,0.098-0.704,0.458-0.826c0.375-0.128,0.779-0.201,1.176-0.221C153.448,135.516,153.855,135.587,154.343,135.628z"/>
	<path fill-rule="evenodd" clip-rule="evenodd" stroke="#000000" stroke-miterlimit="10" d="M57.629,154.248
		c0.141,0.091,0.471,0.212,0.68,0.442c0.725,0.791,1.428,1.603,2.09,2.445c0.22,0.277,0.412,0.672,0.395,1.002
		c-0.012,0.267-0.313,0.638-0.572,0.739c-0.248,0.094-0.729,0.013-0.902-0.179c-0.927-1.016-1.84-2.054-2.656-3.157
		C56.207,154.928,56.678,154.235,57.629,154.248z"/>
	<path fill-rule="evenodd" clip-rule="evenodd" stroke="#000000" stroke-miterlimit="10" d="M44.326,126.826
		c-0.027,0.529-0.154,0.926-0.643,1.006c-0.443,0.071-0.896,0.056-1.141-0.438c-0.074-0.15-0.167-0.299-0.207-0.459
		c-0.252-1.047-0.498-2.097-0.738-3.147c-0.146-0.634,0.182-1.298,0.682-1.405c0.621-0.134,1.084,0.281,1.236,1.003
		c0.207,0.983,0.479,1.956,0.718,2.934C44.281,126.517,44.307,126.716,44.326,126.826z"/>
	<path fill-rule="evenodd" clip-rule="evenodd" stroke="#000000" stroke-miterlimit="10" d="M123.63,137.619
		c-0.438,0-0.879,0.009-1.319-0.005c-0.236-0.007-0.479-0.018-0.702-0.084c-0.604-0.184-0.888-0.529-0.853-0.991
		c0.039-0.517,0.51-1.002,1.105-1.004c1.188-0.004,2.373,0.025,3.559,0.099c0.625,0.037,0.902,0.371,0.902,0.89
		c0,0.541-0.252,0.874-0.861,0.938c-0.604,0.064-1.219,0.016-1.831,0.016C123.63,137.523,123.63,137.571,123.63,137.619z"/>
	<path fill-rule="evenodd" clip-rule="evenodd" stroke="#000000" stroke-miterlimit="10" d="M41.082,95.232
		c0.297-1.413,0.557-2.697,0.846-3.974c0.118-0.518,0.559-0.502,0.979-0.497c0.522,0.007,0.765,0.341,0.741,0.78
		c-0.036,0.771-0.15,1.541-0.268,2.306c-0.071,0.461-0.233,0.906-0.317,1.366c-0.083,0.458-0.246,0.856-0.707,1.023
		C41.714,96.47,41.064,95.875,41.082,95.232z"/>
	<path fill-rule="evenodd" clip-rule="evenodd" stroke="#000000" stroke-miterlimit="10" d="M47.875,74.45
		c0.016-0.046,0.045-0.251,0.136-0.425c0.493-0.953,0.999-1.899,1.501-2.848c0.048-0.089,0.092-0.185,0.15-0.265
		c0.355-0.478,0.934-0.691,1.319-0.493c0.409,0.21,0.631,0.902,0.362,1.447c-0.523,1.06-1.086,2.103-1.684,3.121
		c-0.291,0.495-0.789,0.65-1.219,0.484C48.062,75.322,47.841,75.038,47.875,74.45z"/>
	<path fill-rule="evenodd" clip-rule="evenodd" stroke="#000000" stroke-miterlimit="10" d="M145.527,177.988
		c0.046,0.439-0.292,0.75-0.707,0.918c-1.113,0.45-2.247,0.864-3.385,1.261c-0.537,0.187-0.93-0.067-1.227-0.621
		c-0.279-0.518,0.057-0.782,0.395-0.991c0.424-0.265,0.893-0.466,1.354-0.659c0.685-0.282,1.376-0.545,2.073-0.799
		C144.863,176.792,145.502,177.139,145.527,177.988z"/>
	<path fill-rule="evenodd" clip-rule="evenodd" stroke="#000000" stroke-miterlimit="10" d="M103.092,34.904
		c-0.13-0.02-0.427,0.02-0.576-0.111c-0.234-0.203-0.445-0.5-0.523-0.797c-0.092-0.35,0.106-0.674,0.469-0.806
		c0.381-0.137,0.771-0.256,1.168-0.329c0.897-0.166,1.799-0.3,2.701-0.442c0.521-0.083,1.057,0.251,1.171,0.725
		c0.128,0.526-0.143,0.978-0.703,1.172c-0.03,0.011-0.064,0.018-0.098,0.022C105.533,34.523,104.366,34.705,103.092,34.904z"/>
	<path fill-rule="evenodd" clip-rule="evenodd" stroke="#000000" stroke-miterlimit="10" d="M174.783,59.605
		c0.117,0.065,0.436,0.149,0.609,0.356c0.781,0.925,1.546,1.869,2.27,2.841c0.313,0.421,0.227,1.078-0.064,1.315
		c-0.399,0.327-1.012,0.271-1.441-0.24c-0.799-0.955-1.582-1.931-2.305-2.944C173.4,60.299,173.82,59.619,174.783,59.605z"/>
	<path fill-rule="evenodd" clip-rule="evenodd" stroke="#000000" stroke-miterlimit="10" d="M146.52,135.529
		c0.519,0.027,1.197,0.033,1.868,0.109c0.642,0.073,0.915,0.364,0.94,0.866c0.021,0.425-0.113,0.752-0.572,0.816
		c-1.436,0.198-2.867,0.489-4.326,0.049c-0.48-0.146-0.654-0.383-0.629-0.868c0.026-0.493,0.287-0.764,0.736-0.82
		C145.143,135.604,145.752,135.584,146.52,135.529z"/>
	<path fill-rule="evenodd" clip-rule="evenodd" stroke="#000000" stroke-miterlimit="10" d="M131.428,135.617
		c0.543,0,1.086-0.023,1.627,0.006c0.65,0.039,0.917,0.289,0.974,0.816c0.054,0.518-0.196,0.893-0.728,1.084
		c-0.094,0.035-0.197,0.065-0.297,0.061c-1.217-0.05-2.434-0.101-3.651-0.163c-0.132-0.007-0.26-0.071-0.388-0.119
		c-0.371-0.133-0.502-0.422-0.516-0.793c-0.014-0.4,0.18-0.674,0.561-0.729c0.8-0.111,1.606-0.174,2.408-0.256
		C131.422,135.555,131.426,135.587,131.428,135.617z"/>
	<path fill-rule="evenodd" clip-rule="evenodd" stroke="#000000" stroke-miterlimit="10" d="M138.111,135.603
		c0.775,0,1.553-0.022,2.328,0.011c0.293,0.01,0.664,0.063,0.848,0.247c0.202,0.201,0.287,0.57,0.322,0.877
		c0.041,0.364-0.244,0.58-0.572,0.58c-1.41,0.002-2.813,0.515-4.233,0.034c-0.322-0.109-0.667-0.13-0.712-0.581
		c-0.049-0.457,0.077-0.828,0.532-0.971c0.479-0.148,0.981-0.229,1.472-0.338C138.101,135.51,138.105,135.555,138.111,135.603z"/>
	<path fill-rule="evenodd" clip-rule="evenodd" stroke="#000000" stroke-miterlimit="10" d="M190.719,101.907
		c0.473,0,0.785-0.053,1.066,0.017c0.199,0.05,0.507,0.273,0.504,0.414c-0.047,1.639,0.649,3.291-0.127,5.002
		c-0.047,0.107-0.594,0.066-0.906-0.007c-0.189-0.041-0.473-0.27-0.479-0.427C190.693,105.288,190.529,103.667,190.719,101.907z"/>
	<path fill-rule="evenodd" clip-rule="evenodd" stroke="#000000" stroke-miterlimit="10" d="M160.346,135.587
		c0.611-0.009,0.963,0.323,0.975,0.915c0.014,0.557-0.48,1.082-0.998,1.067c-0.645-0.017-1.205-0.474-1.219-0.989
		C159.086,135.908,159.473,135.598,160.346,135.587z"/>
	<path fill-rule="evenodd" clip-rule="evenodd" stroke="#000000" stroke-miterlimit="10" d="M83.704,191.345
		c-0.016,0.623-0.324,0.905-0.966,0.886c-0.58-0.018-0.915-0.382-0.906-0.983c0.007-0.497,0.484-0.945,0.996-0.935
		C83.346,190.326,83.721,190.763,83.704,191.345z"/>
	<path fill-rule="evenodd" clip-rule="evenodd" stroke="#000000" stroke-miterlimit="10" d="M101.945,181.578
		c-0.141-3.183-0.135-6.171-0.029-9.128c0.773-0.357,1.447-0.465,2.186-0.435c1.354,0.053,2.715,0.025,4.07,0.002
		c0.197-0.004,0.391-0.172,0.666-0.304c-0.16-0.183-0.224-0.314-0.327-0.364c-1.304-0.632-1.396-3.133-0.097-4.161
		c0.899-0.706,2.534-0.724,3.516,0.334c0.854,0.921,0.875,2.491,0.012,3.445c-0.046,0.05-0.104,0.092-0.146,0.141
		c-0.178,0.216-0.645,0.325-0.394,0.7c0.105,0.157,0.464,0.196,0.71,0.198c1.465,0.009,2.934-0.008,4.397-0.015
		c0.138-0.002,0.272-0.014,0.409-0.005c1.332,0.098,1.611,0.355,1.626,1.688c0.024,2.149,0.026,4.298,0.007,6.448
		c-0.012,1.411-0.326,1.72-1.791,1.728c-3.684,0.019-7.368,0.012-11.053,0.015c-0.58,0-1.163,0.038-1.738-0.005
		C103.338,181.811,102.713,181.688,101.945,181.578z M116.429,179.519c0-1.518,0.014-2.87-0.004-4.226
		c-0.013-0.933-0.116-1.025-1.097-1.025c-3.375-0.004-6.752,0-10.127,0.006c-0.332,0.003-0.663,0.047-1.063,0.078
		c0,1.728,0,3.378,0,5.194C108.206,179.529,112.212,179.565,116.429,179.519z M109.723,169.628c0.367-0.018,0.719,0.022,0.667-0.433
		c-0.015-0.128-0.255-0.329-0.381-0.323C109.559,168.897,109.656,169.231,109.723,169.628z"/>
	<path fill-rule="evenodd" clip-rule="evenodd" stroke="#000000" stroke-miterlimit="10" d="M60.869,66.088
		c-0.162-14.577,11.689-26.332,25.964-26.492c7.261-0.083,13.577,2.369,18.817,7.368c5.373,5.125,7.848,11.576,8.203,18.914
		c-0.285,14.859-11.68,26.297-26.094,26.602C72.936,92.793,60.732,80.649,60.869,66.088z M63.148,65.865
		c-0.211,2.677,0.193,5.097,0.936,7.425c0.748,2.346,1.787,4.58,3.256,6.601c2.139,2.944,4.699,5.411,7.873,7.201
		c1.709,0.963,3.49,1.792,5.404,2.285c2.109,0.541,4.229,1.006,6.432,1.004c2.09-0.002,4.113-0.333,6.141-0.821
		c2.125-0.513,4.122-1.292,6.011-2.361c4.313-2.439,7.575-5.885,9.789-10.317c0.661-1.322,1.298-2.649,1.591-4.122
		c0.186-0.958,0.643-1.888,0.696-2.846c0.104-1.93,0.353-3.843,0.177-5.81c-0.23-2.566-0.821-4.989-1.751-7.368
		c-1.22-3.113-3.123-5.766-5.488-8.072c-3.188-3.107-6.935-5.249-11.327-6.223c-1.994-0.444-3.994-0.785-6.04-0.714
		c-1.011,0.035-2.017,0.25-3.032,0.316c-1.57,0.102-3.055,0.568-4.527,1.048c-1.771,0.579-3.413,1.456-4.999,2.444
		c-2.74,1.708-4.988,3.933-6.869,6.53c-1.372,1.896-2.348,3.994-3.127,6.213c-0.591,1.68-0.921,3.39-1.125,5.131
		C63.064,64.284,63.148,65.182,63.148,65.865z"/>
	<path fill-rule="evenodd" clip-rule="evenodd" fill="#FFFFFF" stroke="#000000" stroke-miterlimit="10" d="M109.723,169.628
		c-0.066-0.396-0.164-0.73,0.286-0.756c0.126-0.006,0.366,0.195,0.381,0.323C110.441,169.65,110.09,169.61,109.723,169.628z"/>
</g>
</svg>
