<?xml version="1.0" encoding="utf-8"?>
<!-- Generator: Adobe Illustrator 16.0.0, SVG Export Plug-In . SVG Version: 6.00 Build 0)  -->
<!DOCTYPE svg PUBLIC "-//W3C//DTD SVG 1.1//EN" "http://www.w3.org/Graphics/SVG/1.1/DTD/svg11.dtd">
<svg version="1.1" id="Layer_1" xmlns="http://www.w3.org/2000/svg" xmlns:xlink="http://www.w3.org/1999/xlink" x="0px" y="0px"
	 width="225px" height="225px" viewBox="0 0 225 225" enable-background="new 0 0 225 225" xml:space="preserve">
<g>
	<path fill-rule="evenodd" clip-rule="evenodd" d="M110.742,188.545c-8.776,0.094-17.511-0.402-26.052-2.646
		c-6.318-1.658-12.229-4.146-17.113-8.639c-5.852-5.385-8.344-12.246-8.501-20.016c-0.241-12.015,4.798-21.187,15.153-27.356
		c0.777-0.463,0.854-0.857,0.563-1.667c-3.768-10.445-5.145-21.23-4.545-32.295c0.312-5.727,1.195-11.358,2.663-16.903
		c0.089-0.336-0.138-0.775-0.271-1.147c-0.202-0.571-0.621-1.118-0.651-1.69c-0.087-1.703-0.021-3.413-0.032-5.122
		c-0.007-1.116,0.488-1.925,1.586-2.1c2.589-0.413,3.92-1.986,5.08-4.282c3.426-6.773,8.135-12.541,14.346-17.035
		c10.723-7.76,24.747-7.73,35.461,0.04c6.85,4.969,11.697,11.513,15.391,19.003c0.376,0.764,0.828,1.229,1.658,1.439
		c0.859,0.219,1.682,0.58,2.522,0.871c0.917,0.317,1.388,0.954,1.39,1.923c0.004,1.782,0.029,3.565-0.017,5.345
		c-0.013,0.454-0.13,1.08-0.438,1.314c-0.726,0.553-0.604,1.11-0.414,1.84c3.491,13.477,3.654,27.007,0.494,40.557
		c-0.646,2.775-1.564,5.491-2.447,8.204c-0.27,0.828-0.168,1.202,0.605,1.654c6.483,3.788,11.389,9.021,13.532,16.307
		c2.97,10.09,2.282,19.793-4.417,28.406c-3.588,4.611-8.498,7.458-13.885,9.512c-7.971,3.04-16.313,4.079-24.762,4.466
		C115.347,188.635,113.042,188.545,110.742,188.545z M133.636,89.625c0-4.713-0.015-9.427,0.015-14.14
		c0.004-0.702-0.155-1.074-0.904-1.217c-1.638-0.312-3.267-0.686-4.89-1.075c-0.615-0.148-0.877,0.071-1.221,0.587
		c-1.022,1.535-1.977,3.18-3.281,4.449c-8.141,7.914-21.475,5.534-26.463-4.676c-0.369-0.758-0.732-0.932-1.525-0.724
		c-1.504,0.396-3.033,0.723-4.564,0.993c-0.961,0.17-1.301,0.568-1.295,1.6c0.047,8.795,0.079,17.592,0.002,26.387
		c-0.031,3.27,0.884,6.147,2.827,8.712c3.981,5.256,9.186,9.05,14.976,12.02c3.011,1.543,6.247,1.341,9.22-0.286
		c4.774-2.613,9.161-5.781,12.825-9.856c2.855-3.174,4.551-6.754,4.32-11.195C133.477,97.353,133.636,93.484,133.636,89.625z
		 M137.442,129.241c0.108,0.548,0.161,0.869,0.236,1.186c1.143,4.761,2.264,9.526,3.445,14.277c0.307,1.237,0.057,2.149-0.979,2.915
		c-0.884,0.654-1.69,1.411-2.571,2.159c1.359,1.667,2.605,3.282,3.947,4.81c0.887,1.008,0.963,1.938,0.356,3.131
		c-4.235,8.333-8.424,16.689-12.626,25.04c-0.172,0.34-0.324,0.688-0.547,1.168c0.424-0.033,0.645-0.033,0.857-0.069
		c4.254-0.715,8.428-1.724,12.431-3.364c9.615-3.942,15.8-10.586,16.696-21.339c0.479-5.743-0.306-11.271-3.182-16.352
		C151.508,135.738,145.059,131.893,137.442,129.241z M84.039,129.304c-0.484,0.139-0.804,0.191-1.091,0.317
		c-1.661,0.729-3.326,1.448-4.97,2.218c-3.999,1.869-7.386,4.54-10.097,8.021c-4.584,5.897-5.889,12.676-5.148,19.952
		c0.786,7.738,4.482,13.703,11.075,17.851c4.751,2.987,10.008,4.626,15.458,5.731c0.922,0.188,1.852,0.336,2.949,0.534
		c-0.225-0.513-0.346-0.819-0.491-1.115c-3.959-8.096-7.872-16.216-11.924-24.267c-0.858-1.708-0.753-2.917,0.543-4.268
		c1.241-1.294,2.306-2.76,3.479-4.187c-0.972-0.812-1.795-1.563-2.684-2.227c-0.93-0.695-1.142-1.528-0.871-2.635
		c1.002-4.07,1.952-8.152,2.918-12.23C83.466,131.825,83.731,130.645,84.039,129.304z M86.018,75.052
		c-0.43,0.081-0.753,0.122-1.065,0.205c-2.295,0.61-4.579,1.264-6.884,1.826c-0.786,0.191-1.151,0.558-1.374,1.341
		c-3.807,13.377-4.144,26.847-1.057,40.393c0.68,2.983,1.642,5.902,2.529,9.052c2.854-1.225,5.501-2.241,8.041-3.481
		c2.531-1.235,4.954-2.69,7.42-4.057c0.693-0.384,1.369-0.796,2.054-1.195c-0.131,0.063-0.262,0.125-0.394,0.187
		c-1.272-1.447-2.544-2.897-3.821-4.342c-2.778-3.14-5.024-6.567-5.308-10.889c-0.081-1.224-0.443-1.836-1.555-2.402
		c-1.084-0.553-2.047-1.479-2.852-2.423c-2.049-2.41-3.133-5.269-3.48-8.407c-0.424-3.861,1.594-6.554,5.43-7.24
		c0.754-0.135,1.517-0.224,2.315-0.34C86.018,80.543,86.018,77.879,86.018,75.052z M109.173,145.271
		c-4.793,1.663-8.478,0.385-11.082-4.051c-0.055,0.264-0.091,0.364-0.094,0.463c-0.281,13.991-0.555,27.982-0.85,41.973
		c-0.016,0.716,0.213,0.994,0.916,1.027c3.484,0.161,6.967,0.35,10.451,0.518c0.206,0.011,0.414-0.056,0.658-0.094
		C109.173,171.811,109.173,158.582,109.173,145.271z M137.194,83.314c0.625,0.073,1.105,0.124,1.584,0.188
		c0.33,0.044,0.661,0.095,0.986,0.169c3.74,0.845,5.67,3.449,5.133,7.246c-0.689,4.878-2.582,9.054-7.336,11.352
		c-0.205,0.099-0.411,0.435-0.415,0.663c-0.097,4.908-2.452,8.765-5.63,12.255c-1.293,1.422-2.557,2.869-3.834,4.304
		c0.043,0.039,0.406,0.278,0.78,0.495c2.274,1.328,4.785,2.38,6.763,4.058c1.764,1.498,3.812,1.954,5.775,2.783
		c0.666,0.282,1.348,0.528,2.033,0.797c0.127-0.253,0.205-0.38,0.256-0.517c0.199-0.558,0.398-1.117,0.586-1.682
		c2.017-6.053,3.197-12.268,3.666-18.626c0.721-9.726-0.216-19.275-2.996-28.63c-0.105-0.352-0.354-0.843-0.637-0.929
		c-2.189-0.67-4.404-1.256-6.715-1.897C137.194,78.084,137.194,80.661,137.194,83.314z M112.841,144.495c0,13.68,0,27.157,0,40.807
		c3.287-0.191,6.467-0.415,9.648-0.536c1.053-0.039,1.36-0.368,1.342-1.437c-0.206-11.502-0.363-23.006-0.526-34.51
		c-0.022-1.573-0.002-3.146-0.002-5.014C119.795,146.454,116.433,146.675,112.841,144.495z M126.522,123.053
		c0.275,18.49,0.547,36.659,0.818,54.827c0.355-0.149,0.457-0.305,0.539-0.469c3.389-6.726,6.787-13.447,10.137-20.193
		c0.17-0.343,0.07-1.021-0.174-1.336c-1.289-1.676-2.675-3.276-4.004-4.922c-0.936-1.159-0.836-2.11,0.305-3.082
		c0.875-0.746,1.752-1.491,2.663-2.196c0.499-0.389,0.643-0.767,0.482-1.42c-1.351-5.514-2.655-11.038-3.983-16.557
		c-0.074-0.312-0.162-0.738-0.389-0.878C130.874,125.58,128.8,124.387,126.522,123.053z M94.755,123.804
		c-2.217,1.223-4.204,2.29-6.152,3.426c-0.29,0.171-0.494,0.628-0.582,0.99c-1.322,5.481-2.635,10.967-3.894,16.463
		c-0.089,0.389,0.122,1.003,0.413,1.289c0.817,0.805,1.758,1.482,2.633,2.228c1.165,0.991,1.267,1.896,0.32,3.071
		c-1.257,1.561-2.514,3.124-3.826,4.637c-0.533,0.614-0.613,1.094-0.234,1.855c3.217,6.48,6.381,12.987,9.564,19.485
		c0.146,0.299,0.322,0.581,0.485,0.871c0.072-0.034,0.146-0.067,0.217-0.102C94.048,160.032,94.399,142.046,94.755,123.804z
		 M139.737,66.325c-3.957-7.273-8.791-13.368-15.807-17.369c-8.48-4.836-17.152-4.997-25.815-0.385
		c-5.149,2.742-9.199,6.74-12.562,11.446c-1.412,1.977-2.652,4.075-3.969,6.119c2.4-0.327,4.586-0.85,6.756-1.433
		c0.473-0.126,0.964-0.387,1.319-0.721c1.486-1.397,3.142-2.546,5.126-3.014c1.15-0.272,1.689-0.875,2.176-1.88
		c2.954-6.118,9.519-9.852,16.207-9.182c6.533,0.655,11.162,4.053,13.955,9.99c0.177,0.377,0.572,0.792,0.953,0.908
		c2.256,0.691,4.193,1.86,5.808,3.578c0.224,0.239,0.468,0.543,0.757,0.624C136.239,65.455,137.854,65.845,139.737,66.325z
		 M111.686,79.456c7.155,0.102,13.153-5.697,13.261-12.823c0.11-7.275-5.699-13.246-12.978-13.339
		c-7.226-0.092-13.235,5.812-13.292,13.057C98.624,73.452,104.479,79.354,111.686,79.456z M111.5,138.727
		c0.182-0.087,0.296-0.113,0.373-0.183c3.549-3.213,7.097-6.428,10.638-9.651c0.184-0.167,0.423-0.406,0.426-0.615
		c0.035-1.866,0.02-3.733,0.02-5.829c-1.4,0.869-2.513,1.593-3.658,2.266c-5.002,2.946-10.059,3.046-15.107,0.159
		c-1.705-0.975-3.313-2.118-4.969-3.178c-0.225-0.146-0.474-0.253-0.937-0.493c0,1.668-0.065,3.117,0.033,4.556
		c0.038,0.555,0.308,1.222,0.699,1.603c1.678,1.63,3.437,3.172,5.169,4.742C106.627,134.316,109.071,136.527,111.5,138.727z
		 M95.185,66.843c-0.438,0.075-0.801,0.112-1.15,0.203c-5.67,1.464-11.346,2.913-17.004,4.417c-1.793,0.477-1.826,0.64-1.451,2.595
		c6.603-1.635,13.206-3.27,19.854-4.916C95.354,68.409,95.274,67.681,95.185,66.843z M128.132,69.584
		c5.955,1.489,11.8,2.95,17.641,4.411c0.376-1.991,0.378-2.061-1.458-2.597c-3.626-1.058-7.261-2.085-10.907-3.067
		c-1.596-0.428-3.232-0.713-4.957-1.086C128.333,68.105,128.236,68.826,128.132,69.584z M108.833,141.014
		c-3.227-2.931-6.395-5.806-9.563-8.683c0.563,2.594,1.207,5.069,2.127,7.437C102.565,142.767,106.544,143.442,108.833,141.014z
		 M86.018,86.865c-0.579,0.049-1.021,0.056-1.45,0.126c-2.3,0.377-3.073,1.34-2.818,3.671c0.287,2.612,1.321,4.922,3.088,6.881
		c0.301,0.334,0.678,0.598,1.181,1.034C86.018,94.546,86.018,90.785,86.018,86.865z M114.313,141.047
		c2.226,2.099,5.576,1.957,6.951-0.459c0.938-1.651,1.283-3.651,1.809-5.52c0.143-0.515-0.026-1.117-0.063-1.917
		C119.997,135.888,117.188,138.438,114.313,141.047z M137.2,98.477c2.583-1.813,4.564-6.168,4.245-9.07
		c-0.111-1.013-0.577-1.778-1.579-2.068c-0.834-0.242-1.702-0.37-2.666-0.571C137.2,90.75,137.2,94.534,137.2,98.477z"/>
	<path fill-rule="evenodd" clip-rule="evenodd" d="M101.951,66.362c-0.001-5.401,4.456-9.855,9.872-9.86
		c5.389-0.006,9.859,4.436,9.91,9.849c0.051,5.347-4.445,9.869-9.844,9.9C106.409,76.281,101.956,71.851,101.951,66.362z
		 M111.729,72.756c3.487,0.08,6.415-2.729,6.509-6.246c0.096-3.455-2.752-6.419-6.255-6.513c-3.533-0.095-6.499,2.753-6.571,6.31
		C105.341,69.766,108.189,72.674,111.729,72.756z"/>
</g>
</svg>
