<?xml version="1.0" encoding="utf-8"?>
<!-- Generator: Adobe Illustrator 16.0.0, SVG Export Plug-In . SVG Version: 6.00 Build 0)  -->
<!DOCTYPE svg PUBLIC "-//W3C//DTD SVG 1.1//EN" "http://www.w3.org/Graphics/SVG/1.1/DTD/svg11.dtd">
<svg version="1.1" id="Layer_1" xmlns="http://www.w3.org/2000/svg" xmlns:xlink="http://www.w3.org/1999/xlink" x="0px" y="0px"
	 width="225px" height="225px" viewBox="0 0 225 225" enable-background="new 0 0 225 225" xml:space="preserve">
<path fill-rule="evenodd" clip-rule="evenodd" d="M157.278,151.748c10.929,0,21.792,0,32.603,0c0.783,3.173,0.27,3.845-2.782,3.851
	c-4.435,0.007-8.868,0.034-13.304-0.018c-1.486-0.018-2.043,0.955-2.667,2.006c-0.661,1.11-1.347,2.218-2.134,3.238
	c-0.863,1.117-1.756,2.25-2.818,3.166c-1.293,1.117-2.354,2.521-4.1,3.148c-0.977,0.351-1.721,1.312-2.645,1.874
	c-0.534,0.323-1.207,0.471-1.837,0.58c-1.563,0.271-1.864,0.662-1.653,2.561c2.207,0,4.441-0.069,6.666,0.04
	c0.703,0.035,1.383,0.555,2.069,0.861c0.134,0.058,0.247,0.222,0.374,0.227c2.33,0.077,3.838,1.77,5.539,2.972
	c0.873,0.614,1.322,1.834,1.948,2.788c0.692,1.058,1.372,2.123,2.048,3.19c0.125,0.199,0.283,0.426,0.284,0.642
	c0.022,2.277,0.014,4.556,0.014,6.977c-0.901,0.045-1.749,0.125-2.597,0.125c-17.535,0.005-35.069,0.002-52.604,0
	c-0.51,0-1.019-0.013-1.529-0.025c-1.246-0.029-1.928-0.701-1.842-1.914c0.112-1.598-0.365-3.215,0.964-4.736
	c0.923-1.053,1.107-2.735,1.716-4.092c0.27-0.602,0.656-1.344,1.191-1.598c1.631-0.774,2.109-3.036,4.191-3.156
	c0.628-1.63,2.939-0.447,3.602-2.135c0.076-0.199,0.851-0.17,1.301-0.172c2.391-0.016,4.781-0.008,7.172-0.008
	c0.085-0.127,0.171-0.251,0.258-0.378c-0.554-0.692-1.122-1.977-1.66-1.964c-1.4,0.032-2.232-0.892-3.004-1.556
	c-1.411-1.215-3.355-1.636-4.43-3.433c-0.723-1.207-2.201-1.946-3.273-2.967c-0.434-0.41-0.829-0.973-0.993-1.538
	c-0.426-1.469-1.991-2.345-2.013-4.015c-0.004-0.267-0.289-0.548-0.486-0.786c-0.149-0.18-0.485-0.274-0.531-0.456
	c-0.477-1.896-1.139-3.78-1.301-5.707c-0.227-2.732-0.124-5.498-0.064-8.248c0.027-1.257-0.313-2.628,0.941-3.662
	c0.316-0.26,0.172-1.063,0.268-1.612c0.131-0.745-0.17-1.709,0.992-1.953c0.104-0.021,0.211-0.331,0.208-0.507
	c-0.017-1.645,1.283-2.484,2.141-3.607c0.663-0.87,1.161-1.865,1.827-2.732c0.56-0.732,1.273-1.345,1.887-2.039
	c0.229-0.259,0.547-0.622,0.512-0.898c-0.093-0.726-3.295-3.118-4.016-2.992c-0.385,0.066-0.75,0.42-1.059,0.713
	c-0.672,0.636-1.363,1.266-1.937,1.986c-0.692,0.872-1.757,1.402-1.894,2.785c-0.301,3.029-0.686,6.07-1.34,9.039
	c-0.271,1.233-1.321,2.296-2.025,3.432c-0.1,0.162-0.326,0.291-0.344,0.451c-0.168,1.63-1.391,2.565-2.304,3.745
	c-0.703,0.906-0.96,2.146-1.55,3.159c-0.59,1.013-1.341,1.934-2.03,2.887c-0.083,0.117-0.263,0.174-0.319,0.296
	c-0.549,1.2-1.039,2.432-1.636,3.606c-0.419,0.832-0.975,1.594-1.474,2.383c-0.305,0.484-0.887,0.965-0.889,1.448
	c-0.008,6.115,0.064,12.23,0.119,18.346c1.917,3.736,0.682,7.753,1.01,11.631c0.162,1.917-0.809,2.952-2.427,2.965
	c-1.737,0.012-2.587-0.979-2.604-3.029c-0.063-7.136-0.031-14.274-0.229-21.405c-0.104-3.724-0.676-7.432-0.912-11.152
	c-0.098-1.533,0.031-3.012,0.733-4.558c0.61-1.342,0.212-3.111,0.426-4.672c0.12-0.879,0.601-1.702,0.872-2.566
	c0.15-0.478,0.221-0.985,0.309-1.48c0.239-1.342-0.18-2.843,1.124-3.922c0.269-0.222,0.194-0.866,0.259-1.319
	c0.174-1.205-0.189-2.546,1.075-3.465c0.255-0.184,0.138-0.868,0.212-1.318c0.146-0.885-0.304-2.024,1.017-2.417
	c0.038-0.013,0.083-0.066,0.093-0.107c0.477-2.147,0.969-4.293,1.398-6.451c0.052-0.262-0.24-0.591-0.373-0.89
	c-0.316,0.153-0.646,0.289-0.95,0.465c-0.274,0.16-0.524,0.529-0.778,0.524c-1.906-0.039-3.973,0.843-5.608-0.919
	c-0.136-0.146-0.48-0.164-0.72-0.142c-1.428,0.134-2.063-1.23-3.193-1.675c-0.744-0.293-1.41-0.791-2.301-1.006
	c0.139,1.596-0.69,3.117,0.716,4.417c0.44,0.407,0.319,1.438,0.423,2.188c0.202,1.458,0.01,2.915,1.011,4.304
	c0.56,0.779,0.262,2.171,0.366,3.284c0.148,1.579,0.045,3.121,0.752,4.712c0.602,1.359,0.385,3.099,0.442,4.675
	c0.091,2.496,0.06,4.995,0.172,7.489c0.065,1.411-0.436,2.957,0.871,4.156c0.22,0.202,0.117,0.779,0.12,1.185
	c0.034,10.808,0.066,21.611,0.089,32.419c0.005,1.662-1.019,2.69-2.601,2.676c-1.459-0.016-2.439-1.103-2.444-2.724
	c-0.03-9.734-0.093-19.471-0.048-29.207c0.008-1.753-0.957-2.803-1.973-3.931c-0.098-0.109-0.312-0.174-0.33-0.281
	c-0.172-1.04-0.87-1.842-1.251-2.71c-0.647-1.472-1.588-2.661-2.401-3.982c-0.725-1.178-0.892-2.93-1.875-3.659
	c-1.215-0.9-0.607-2.543-2.048-3.303c-0.816-0.431-0.856-2.157-1.638-2.864c-1.096-0.986-0.648-2.778-2.109-3.464
	c-0.188-0.088-0.181-0.537-0.322-0.784c-0.308-0.539-0.889-1.035-0.936-1.584c-0.107-1.288,0.008-2.598,0.102-3.894
	c0.016-0.228,0.522-0.428,0.53-0.649c0.082-2.523,0.331-5.073,0.058-7.563c-0.125-1.128-1.297-2.151-2.029-3.197
	c-0.445-0.636-1.26-1.171-1.379-1.847c-0.248-1.388-1.152-1.112-1.934-0.972c-1.264,0.226-2.76-0.341-3.725,1.128
	c-0.208,0.316-1.074,0.147-1.592,0.329c-0.697,0.245-1.352,0.612-2.021,0.93c-0.135,0.063-0.275,0.222-0.392,0.203
	c-1.903-0.327-3.284,1.088-4.97,1.499c-0.727,0.179-1.461,0.702-1.98,1.265c-1.429,1.555-2.693,3.26-4.119,4.818
	c-2.299,2.516-2.531,5.538-2.48,8.729c0.111,7.083,0.086,14.17,0.191,21.253c0.013,0.819,0.517,1.625,0.757,2.446
	c0.126,0.434,0.23,0.887,0.247,1.334c0.078,2.036,0.104,4.075,0.186,6.11c0.062,1.496,0.1,2.907,0.828,4.389
	c0.623,1.265,0.225,3.004,0.438,4.513c0.125,0.878,0.638,1.694,0.846,2.57c0.221,0.932,0.266,1.902,0.422,2.848
	c0.142,0.841-0.215,1.879,0.906,2.369c0.121,0.055,0.134,0.369,0.189,0.563c0.521,1.887,1.042,3.773,1.561,5.663
	c0.055,0.196,0.021,0.507,0.141,0.579c1.404,0.847,0.792,1.322-0.007,2.375c-0.819,1.075-1.665,0.717-2.373,0.609
	c-0.636-0.097-1.417-0.789-1.688-1.411c-0.617-1.416-0.575-3.285-1.506-4.355c-1.292-1.486-0.473-3.345-1.272-4.542
	c-1.231-1.842-0.448-4.027-1.347-5.607c-1.059-1.865-0.721-3.694-0.951-5.541c-0.191-1.516,0.234-3.146-1.008-4.452
	c-0.223-0.234-0.127-0.787-0.145-1.192c-0.084-2.089-0.104-4.182-0.248-6.265c-0.162-2.345,0.268-4.729-0.809-7.026
	c-0.445-0.951-0.308-2.205-0.316-3.323c-0.039-5.403-0.072-10.808-0.013-16.208c0.008-0.783,0.556-1.551,0.802-2.343
	c0.178-0.569,0.293-1.162,0.398-1.752c0.148-0.848-0.137-1.884,1.067-2.245c0.114-0.034,0.194-0.349,0.206-0.537
	c0.09-1.56,0.971-2.58,2.217-3.38c0.139-0.089,0.242-0.32,0.26-0.496c0.182-1.784,1.663-2.371,2.884-3.236
	c0.864-0.613,1.626-1.371,2.431-2.07c0.072-0.063,0.092-0.211,0.168-0.24c1.266-0.488,2.543-0.946,3.805-1.448
	c0.745-0.297,1.457-0.678,2.199-0.983c0.314-0.128,0.669-0.158,1.005-0.23c1.06-0.229,2.431,0.366,3.008-1.146
	c0.021-0.057,0.185-0.063,0.281-0.087c1.866-0.453,3.769-0.794,5.587-1.393c1.598-0.525,3.087-1.369,4.651-2.01
	c0.642-0.264,1.358-0.545,2.024-0.508c2.254,0.123,3.49-1.495,4.961-2.72c0.092-0.076,0.055-0.292,0.105-0.435
	c0.507-1.43,0.657-3.191,1.604-4.216c1.787-1.937,1.18-4.027,1.065-6.113c-0.035-0.651-0.57-1.275-0.881-1.909
	c-0.065-0.131-0.192-0.243-0.22-0.378c-0.513-2.581-1.05-5.159-1.506-7.75c-0.219-1.249,0.196-2.601-0.908-3.69
	c-0.312-0.309-0.233-1.07-0.237-1.624c-0.031-4.281-0.07-8.562-0.034-12.842c0.011-1.167-0.249-2.463,0.92-3.37
	c0.175-0.136,0.208-0.596,0.15-0.874c-0.483-2.287,1.146-4.023,1.626-6.062c0.422-1.787,1.361-3.585,2.508-5.033
	c1.338-1.692,2.373-3.606,3.841-5.178c1.251-1.338,2.583-2.61,3.979-3.797c0.747-0.635,1.864-0.872,2.524-1.564
	c1.094-1.151,2.939-0.951,3.846-2.347c0.095-0.146,0.476-0.111,0.725-0.148c0.354-0.052,0.93,0.022,1.024-0.158
	c0.798-1.531,2.6-0.632,3.429-1.323c1.952-1.628,4.32-0.55,6.234-1.409c1.768-0.793,3.523-0.905,5.301-0.738
	c2.687,0.251,5.52,0.336,7.95,1.327c1.332,0.544,2.653,0.681,3.921,1.139c1.164,0.421,2.135,1.375,3.197,2.086
	c0.121,0.08,0.279,0.138,0.424,0.144c1.59,0.066,2.409,1.364,3.537,2.181c0.905,0.656,1.894,1.196,2.816,1.828
	c0.543,0.371,1.031,0.817,1.541,1.234c1.429,1.166,2.828,2.368,4.293,3.488c0.807,0.617,1.66,1.267,2.6,1.603
	c1.633,0.584,3.354,0.915,5.024,1.4c0.827,0.241,1.614,0.621,2.437,0.884c0.421,0.134,0.881,0.203,1.324,0.208
	c2.029,0.021,4.057,0.01,5.652,0.01c2.486,3.611,1.939,7.361,1.879,11.026c-0.011,0.636-0.521,1.264-0.813,1.893
	c-0.06,0.129-0.197,0.23-0.237,0.362c-0.48,1.614-0.848,3.271-1.462,4.831c-0.365,0.926-1.11,1.705-1.697,2.541
	c-0.273,0.392-0.582,0.758-0.863,1.146c-0.555,0.771-0.961,1.725-1.676,2.291c-1.677,1.325-3.498,2.468-5.264,3.679
	c-0.124,0.084-0.277,0.141-0.425,0.171c-2.562,0.525-4.913,1.985-7.701,1.557c-1.192-0.184-2.481,1.165-2.716,2.31
	c-0.11,0.535-0.549,1.003-0.848,1.497c-0.075,0.124-0.213,0.218-0.26,0.347c-0.491,1.383-0.838,2.836-1.493,4.136
	c-0.563,1.117-1.522,2.027-2.214,3.09c-0.578,0.891-0.869,2.01-1.564,2.775c-1.014,1.118-1.058,2.734-2.33,3.761
	c-0.775,0.625-0.973,1.935-1.516,2.89c-0.381,0.673-0.828,1.344-1.381,1.878c-1.479,1.426-3.049,2.757-4.542,4.17
	c-0.628,0.596-1.149,1.303-1.72,1.958c-0.098,0.111-0.202,0.304-0.307,0.306c-1.131,0.027-1.956,0.571-2.838,1.265
	c-0.841,0.661-2.008,0.895-2.974,1.422c-0.192,0.104-0.296,0.898-0.15,1.017c1.235,1.002,2.555,1.903,3.819,2.874
	c0.879,0.676,1.684,1.45,2.57,2.114c1.377,1.03,2.803,1.994,4.188,3.011c0.412,0.304,0.719,0.898,1.152,0.987
	c0.547,0.113,1.197-0.079,1.757-0.273c0.709-0.244,1.37-0.631,2.06-0.938c0.132-0.059,0.396,0.021,0.439-0.055
	c0.944-1.659,2.875-0.589,3.898-1.321c1.243-0.89,2.461-0.912,3.768-1.115c0.164-0.026,0.436-0.879,0.313-0.999
	c-0.609-0.599-1.567-0.945-1.961-1.633c-0.662-1.152-1.107-2.468-1.426-3.77c-0.33-1.342-0.184-2.603-1.242-3.951
	c-1.451-1.848-2.282-4.34-1.512-6.877c0.203-0.671,0.76-1.299,1.301-1.787c1.07-0.971,2.658-1.615,3.268-2.79
	c0.748-1.442,2.334-0.927,3.075-1.974c0.073-0.105,0.31-0.214,0.396-0.171c1.168,0.575,2.326,1.175,3.479,1.782
	c0.063,0.034,0.069,0.272,0.092,0.271c1.882-0.116,2.902,2.178,4.99,1.682c1.67-0.394,2.862,0.573,3.905,1.857
	c0.884,1.086,2.007,1.976,2.997,2.98c0.717,0.728,1.355,1.533,2.09,2.241c1.041,1.002,2.15,1.932,3.204,2.921
	c0.613,0.576,1.159,1.223,1.759,1.814c0.723,0.71,1.51,1.36,2.195,2.102c1.004,1.084,1.912,2.255,2.918,3.336
	c0.604,0.649,1.312,1.202,1.979,1.789c0.505,0.446,1.053,0.848,1.527,1.322c1.308,1.299,2.788,2.488,3.808,3.988
	c0.79,1.165,1.036,2.718,1.438,4.124c0.338,1.179,0.046,2.284,1.086,3.569c1.334,1.647,2.328,4.088,1.533,6.546
	c-0.216,0.666-0.651,1.325-1.152,1.819c-1.05,1.035-2.223,1.945-3.322,2.932c-0.695,0.624-1.25,1.617-2.05,1.869
	c-1.042,0.326-2.495,0.482-3.354-0.013c-1.132-0.649-2.399-1.329-3.317-2.165c-1.633-1.486-3.433-0.819-5.129-1.21
	c-0.832-0.191-1.566-1.02-2.228-1.68c-0.958-0.954-1.731-2.11-2.749-2.984c-0.365-0.311-1.723-0.193-1.77-0.027
	c-0.371,1.302-1.432,0.83-2.223,1.041c-0.767,0.204-1.512,0.479-2.272,0.703c-0.229,0.067-0.491,0.142-0.714,0.093
	c-1.307-0.286-2.664-0.465-3.894-0.959c-1.028-0.412-1.951-1.142-2.832-1.842c-1.138-0.906-2.179-2.509-3.767-1.636
	c-1.368,0.755-3.217,0.43-4.205,1.946c-0.088,0.136-0.354,0.192-0.545,0.216c-1.422,0.178-1.941,1.628-2.939,2.163
	c-1.357,0.728-0.927,2.377-2.129,2.974c-0.042,0.02-0.092,0.069-0.097,0.111c-0.254,2.271-2.24,4.331-1.271,6.671
	c0.816,1.971,1.021,4.238,2.494,5.898c1.164,1.312,2.416,2.566,3.767,3.682c0.359,0.296,1.229,0.022,1.852-0.075
	c0.194-0.029,0.326-0.36,0.518-0.515c1.102-0.894,8.02-0.458,9.073,0.515c0.226,0.209,0.664,0.169,0.949,0.336
	c0.504,0.289,0.945,0.689,1.453,0.969c0.32,0.174,0.715,0.301,1.078,0.304c1.439,0.012,2.809-1.401,2.854-2.867
	C157.166,153.278,157.224,152.624,157.278,151.748z M112.883,107.057c0,0.043,0,0.088,0,0.133c1.223-0.057,2.444-0.093,3.663-0.182
	c0.384-0.027,0.777-0.149,1.139-0.3c1.646-0.685,3.315-1.324,4.903-2.123c0.982-0.494,1.901-1.173,2.734-1.896
	c1.128-0.977,2.179-2.047,3.2-3.135c0.636-0.676,1.188-1.436,1.72-2.2c0.738-1.062,1.439-2.149,2.125-3.247
	c0.619-0.994,1.227-1.999,1.784-3.03c0.524-0.971,0.736-2.502,1.516-2.866c1.528-0.712,1.118-2.311,2.062-3.336
	c1.125-1.225,1.196-3.431,2.559-4.816c0.12-0.122,0.098-0.62-0.023-0.703c-0.771-0.526-1.57-1.019-2.398-1.45
	c-0.295-0.153-0.771,0.016-1.036-0.159c-1.876-1.25-3.733-2.534-5.565-3.848c-0.446-0.32-0.771-0.803-1.172-1.189
	c-0.746-0.722-1.56-1.381-2.248-2.153c-0.851-0.954-1.65-1.96-2.381-3.007c-0.638-0.91-1.131-1.919-1.718-2.865
	c-0.371-0.594-0.728-1.225-1.222-1.701c-0.596-0.575-1.279-1.315-2.017-1.442c-3.37-0.581-6.873-1.515-9.401,2.041
	c-0.425,0.599-1.191,0.944-1.727,1.481c-0.688,0.689-1.332,1.43-1.934,2.194c-0.299,0.379-0.418,0.9-0.705,1.291
	c-0.557,0.758-1.334,1.395-1.726,2.22c-0.372,0.787-0.606,1.534-1.151,2.318c-1.242,1.786-2.754,2.502-4.619,2.012
	c-1.148-0.302-2.613-1.206-3.008-2.207c-0.843-2.139-0.982-4.546-1.622-6.782c-0.229-0.808-1.058-1.454-1.652-2.137
	c-0.05-0.057-0.553,0.106-0.601,0.249c-0.512,1.513-1.264,3.019-1.393,4.572c-0.261,3.192-0.138,6.414-0.275,9.62
	c-0.031,0.713-0.502,1.404-0.75,2.112c-0.078,0.222-0.197,0.622-0.117,0.677c1.67,1.14,0.668,2.894,1.021,4.326
	c0.104,0.423,0.148,0.869,0.307,1.269c0.257,0.653,0.647,1.258,0.864,1.921c0.185,0.565,0.079,1.242,0.319,1.769
	c0.699,1.533,1.487,3.027,2.287,4.511c0.309,0.579,0.761,1.079,1.107,1.64c0.555,0.906,0.955,1.934,1.635,2.729
	c1.13,1.323,2.396,2.538,3.672,3.728c0.59,0.549,1.283,1.048,2.018,1.362c1.343,0.576,2.753,0.997,4.131,1.49
	c0.09,0.033,0.148,0.146,0.237,0.184c0.748,0.314,1.478,0.773,2.257,0.888C110.729,107.173,111.813,107.057,112.883,107.057z
	 M100.017,69.708c0.144-0.05,0.286-0.1,0.429-0.149c0.59-0.896,1.211-1.774,1.764-2.693c0.584-0.966,1.057-2.001,1.674-2.945
	c0.338-0.518,0.855-0.923,1.319-1.349c0.687-0.631,1.44-1.195,2.093-1.855c1.342-1.358,2.479-2.972,4.545-3.343
	c0.229-0.041,0.443-0.168,0.655-0.277c0.559-0.292,1.101-0.824,1.67-0.856c1.879-0.104,3.793-0.213,5.646,0.037
	c1.293,0.174,2.512,0.934,3.763,1.435c0.04,0.016,0.059,0.079,0.093,0.115c0.606,0.681,1.111,1.512,1.846,2.006
	c1.228,0.824,1.994,1.872,2.365,3.27c0.057,0.212,0.214,0.424,0.378,0.58c0.631,0.601,1.451,1.077,1.894,1.789
	c0.816,1.319,1.646,2.547,2.783,3.664c1.977,1.938,4.363,3.248,6.641,4.682c1.267,0.799,3.009,0.828,4.525,1.25
	c2.727,0.762,5.004-1.324,7.631-1.176c0.074,0.004,0.221-0.101,0.227-0.162c0.072-1.176,1.029-0.857,1.702-1.024
	c0.273-0.068,0.597-0.103,0.796-0.272c0.774-0.653,1.546-1.319,2.248-2.05c1.012-1.054,1.965-2.166,2.938-3.258
	c0.383-0.432,0.875-0.824,1.1-1.331c0.513-1.164,1.182-2.367,1.264-3.589c0.189-2.76,0.061-5.542,0.061-8.456
	c-0.832,0-1.393-0.056-1.939,0.01c-3.465,0.415-6.65-0.869-9.906-1.661c-0.938-0.229-1.814-0.784-2.664-1.283
	c-0.678-0.398-1.308-0.901-1.895-1.429c-0.665-0.597-1.173-1.681-1.902-1.837c-2.041-0.436-2.763-2.514-4.564-3.237
	c-1.051-0.42-1.861-1.431-2.783-2.175c-0.48-0.387-0.909-0.9-1.455-1.13c-1.31-0.551-2.674-0.968-4.018-1.438
	c-0.143-0.05-0.379-0.049-0.418-0.137c-0.612-1.418-1.957-0.936-3.017-1.178c-0.64-0.146-1.302-0.203-1.929-0.385
	c-0.789-0.23-1.546-0.758-2.33-0.788c-2.544-0.099-5.095-0.04-7.644-0.014c-0.503,0.005-1.202-0.054-1.476,0.235
	c-1.713,1.8-4.477,0.36-6.285,2.224c-0.873,0.902-2.55,1.024-3.86,1.508c-0.082,0.031-0.14,0.134-0.208,0.204
	c-0.664,0.661-1.217,1.636-2.016,1.921c-2.131,0.759-3.387,2.361-4.695,4.016c-1.443,1.825-3.02,3.492-4.027,5.692
	c-0.428,0.934-0.609,2.229-1.302,2.798c-1.553,1.273-0.634,2.723-0.985,4.149c1.244,0,2.255,0.037,3.26-0.01
	c1.111-0.053,1.832,0.555,2.729,1.117c2.045,1.282,2.568,3.218,2.93,5.303C99.861,67.372,99.903,68.545,100.017,69.708z
	 M145.72,186.011c0,0.007,0,0.013,0,0.018c7.595,0,15.19,0.005,22.784-0.016c0.412,0,0.985-0.092,1.203-0.363
	c0.588-0.739,0.096-2.775-0.666-3.509c-0.973-0.941-1.9-1.932-2.832-2.915c-0.979-1.035-1.924-1.983-3.553-1.988
	c-9.785-0.025-19.57-0.147-29.354-0.164c-3.014-0.006-6.001-0.058-8.396,2.548c-0.938,1.023-2.147,1.7-2.353,3.224
	c-0.025,0.179-0.139,0.465-0.262,0.495c-1.32,0.331-0.92,1.398-0.701,2.093c0.105,0.334,1.072,0.553,1.65,0.556
	C130.734,186.023,138.229,186.011,145.72,186.011z M155.463,113.398c2.166-0.793,4.078,0.818,6.211,1.512
	c0.133,0.043,0.267,0.139,0.355,0.247c0.579,0.698,1.098,1.452,1.729,2.097c0.569,0.584,2.22,3.203,2.229,3.886
	c0.028,2.087,0.067,4.175-0.009,6.258c-0.019,0.507-0.539,0.975-0.688,1.5c-0.213,0.74-0.65,1.729-0.352,2.233
	c0.607,1.023,1.615,1.823,2.526,2.64c0.177,0.161,0.758,0.109,0.978-0.064c0.488-0.383,0.867-0.904,1.285-1.376
	c1.022-1.154,2.008-2.347,3.073-3.46c1.194-1.248,2.397-2.505,3.719-3.61c0.931-0.777,1.175-1.113-0.177-1.629
	c-0.578-0.221-0.98-0.939-1.424-1.466c-0.961-1.139-1.85-2.345-2.858-3.439c-1.146-1.246-2.394-2.399-3.593-3.596
	c-0.54-0.539-1.047-1.114-1.615-1.619c-1.093-0.971-2.293-1.833-3.311-2.874c-1.033-1.051-1.859-2.302-2.852-3.397
	c-1.158-1.278-2.385-2.493-3.607-3.708c-0.482-0.479-1-0.942-1.572-1.298c-0.191-0.121-0.719,0.004-0.896,0.197
	c-0.986,1.07-1.869,2.235-2.871,3.289c-1.202,1.266-2.475,2.466-3.742,3.667c-0.615,0.583-1.336,1.06-1.898,1.685
	c-0.15,0.168-0.013,0.806,0.199,1.046c0.564,0.64,1.49,1.066,1.821,1.786c0.655,1.422,1.429,0.64,2.202,0.344
	c0.655-0.25,1.262-0.713,1.928-0.813C153.201,113.293,154.185,113.398,155.463,113.398z M136.291,158.525
	c-0.938-0.847-2.34-1.78-3.287-3.052c-1.033-1.389-2.744-2.432-2.768-4.478c-0.003-0.191-0.267-0.373-0.389-0.572
	c-0.256-0.413-0.734-0.852-0.709-1.255c0.231-3.775-0.994-7.568,0.934-11.365c1.043-2.052,1.859-4.026,3.784-5.38
	c0.555-0.389,0.985-0.951,1.503-1.4c0.84-0.728,1.604-1.672,2.585-2.082c1.646-0.691,3.423-1.102,5.176-1.499
	c1.243-0.282,1.47-1.395,0.925-1.888c-1.17-1.061-0.633-1.705,0.281-2.509c-1.638-0.927-3.193-0.754-4.662-0.195
	c-1.391,0.527-2.68,1.321-4.02,1.986c-1.156,0.572-2.324,1.122-3.479,1.7c-0.12,0.058-0.169,0.245-0.271,0.353
	c-0.591,0.633-1.104,1.379-1.801,1.858c-1.104,0.759-1.949,1.651-2.429,2.906c-0.117,0.304-0.366,0.56-0.572,0.823
	c-0.532,0.685-1.437,1.309-1.546,2.053c-0.359,2.438-2.204,4.464-1.818,7.12c0.119,0.818-0.402,1.717-0.559,2.593
	c-0.064,0.369,0.018,0.779,0.098,1.155c0.134,0.627,0.529,1.274,0.447,1.862c-0.389,2.79,1.244,5.092,1.715,7.665
	c0.02,0.1,0.037,0.249,0.103,0.281c1.831,0.914,1.649,3.32,3.417,4.421c1.195,0.741,1.837,2.334,2.972,3.235
	c0.587,0.463,1.749,0.421,2.58,0.257c0.38-0.077,0.658-0.981,0.864-1.551C135.709,160.621,135.958,159.638,136.291,158.525z
	 M85.378,109.919c-2.437-1.15-3.82,1.12-5.767,1.462c0.813,1.179,1.568,2.102,2.131,3.13c0.639,1.167,1.107,2.429,1.65,3.649
	c0.021,0.044,0.053,0.106,0.092,0.116c1.516,0.408,1.119,1.716,0.998,2.617c-0.258,1.902,0.51,3.929-1.131,5.722
	c-0.954,1.042,0.58,6.122,1.6,7.198c0.561,0.59,0.787,1.482,1.25,2.181c1.061,1.59,2.273,3.086,3.232,4.734
	c0.674,1.154,0.975,2.519,1.566,3.729c0.168,0.343,0.754,0.537,1.189,0.672c0.237,0.074,0.556-0.122,0.837-0.197
	c-0.134-0.33-0.288-0.656-0.396-0.998c-0.163-0.522-0.342-1.045-0.43-1.582c-0.499-3.052,0.377-6.159-1.131-9.251
	c-0.969-1.986-0.51-4.546-1.205-6.907c-0.924-3.145-1.207-6.473-2.58-9.573C86.367,114.547,86.01,112.223,85.378,109.919z
	 M90.883,101.058c0.016,1.084-0.527,1.917-1.087,2.882c-0.711,1.225-0.528,2.799,0.864,4.075c1.221,1.121,1.786,3.022,3.084,3.979
	c1.44,1.06,2.818,2.276,4.272,3.312c1.972,1.408,3.769,2.172,6.114,2.058c1.587-0.077,2.468-0.988,3.307-2.15
	c0.588-0.813,1.329-1.517,1.889-2.144c-0.189-2.057-1.518-2.192-3.04-2.144c-0.487,0.015-1.007-0.225-1.472-0.436
	c-0.453-0.204-0.836-0.566-1.287-0.774c-0.352-0.163-0.829-0.097-1.135-0.304c-1.056-0.713-2.078-1.48-3.079-2.271
	c-0.445-0.353-0.79-0.827-1.204-1.22c-1.218-1.152-2.357-2.412-3.699-3.396C93.428,101.802,92.914,99.852,90.883,101.058z
	 M159.26,118.948c-0.013,0.033-0.025,0.068-0.039,0.103c-0.859-0.528-1.666-1.182-2.587-1.562c-2.19-0.9-3.792,1.171-5.802,1.296
	c-0.035,0.002-0.037,0.195-0.087,0.278c-0.57,0.949-1.105,1.923-1.728,2.836c-1.206,1.769-1.126,3.926,0.264,5.643
	c0.457,0.565,0.867,1.173,1.367,1.695c0.947,0.992,1.881,2.007,3.409,2.109c2.341,0.158,3.992-0.926,5.812-2.344
	c1.297-1.012,1.223-2.389,1.975-3.476c1.223-1.769-1.035-3.483-1.182-5.376c-0.004-0.054-0.18-0.078-0.254-0.145
	C160.021,119.658,159.643,119.302,159.26,118.948z M139.049,165.285c0.172,0.934,0.138,1.977,0.568,2.768
	c0.494,0.906,1.297,1.737,2.152,2.33c1.025,0.706,1.738,1.921,3.373,1.771c1.58-0.142,3.004-0.231,4.412-1.204
	c1.203-0.832,2.313-1.459,2.511-3.076c0.095-0.777,0.565-1.499,0.813-2.263c0.096-0.296,0.145-0.886,0.048-0.926
	c-1.096-0.438-0.771-1.406-0.922-2.208c-0.09-0.482-0.154-1.145-0.478-1.379c-1.327-0.958-2.692-1.904-4.161-2.605
	c-0.709-0.336-2.193-0.461-2.439-0.09c-0.861,1.289-2.488,0.704-3.534,2.009C140.156,161.952,138.98,163.194,139.049,165.285z
	 M119.914,117.814c-0.854-0.725-1.637-1.513-2.543-2.114c-0.675-0.448-1.516-0.927-2.271-0.909
	c-1.113,0.026-1.311,1.009-1.312,2.017c-0.001,0.959,0.206,2.451-0.288,2.775c-1.211,0.791-0.793,1.843-1.029,2.797
	c-0.471,1.901-0.969,3.796-1.457,5.693c-0.025,0.099-0.042,0.247-0.106,0.279c-1.091,0.535-0.874,1.582-1.002,2.497
	c-0.063,0.452-0.011,1.147-0.271,1.308c-1.324,0.81-0.881,2.12-1.078,3.248c-0.044,0.25,0.031,0.638-0.109,0.733
	c-1.386,0.965-0.874,2.465-1.127,3.749c-0.102,0.516-0.16,1.147-0.488,1.491c-0.881,0.921-0.979,2.512-0.121,3.537
	c1.041-1.7,2.441-3.311,3.059-5.178c0.674-2.048,2.902-3.197,2.885-5.532c-0.002-0.088,0.244-0.159,0.318-0.273
	c0.259-0.397,0.688-0.802,0.705-1.217c0.098-2.442,0.082-4.888,0.146-7.332c0.012-0.473,0.072-1.076,0.361-1.389
	c1.037-1.127,2.219-2.12,3.273-3.231C118.27,119.911,118.971,118.957,119.914,117.814z M165.818,155.604
	c-0.613,0-1.313-0.022-2.006,0.007c-0.74,0.032-1.345-0.154-1.914,0.887c-0.662,1.207-2.13,1.951-3.164,2.981
	c-0.636,0.63-1.356,1.347-1.598,2.155c-0.244,0.814,0.057,1.792,0.123,2.748c0.34,0,0.746,0.092,0.809-0.016
	c0.534-0.923,1.378-1.191,2.354-1.262c0.129-0.01,0.266-0.124,0.367-0.221c1.201-1.147,2.522-2.201,3.553-3.487
	C165.154,158.386,166.736,157.557,165.818,155.604z M149.325,100.195c-1.036-0.701-1.812-1.296-2.662-1.752
	c-0.214-0.115-0.743,0.141-1.001,0.368c-0.826,0.737-1.595,1.54-2.643,2.566c-0.717,1.48,0.214,2.876,1.418,4.145
	c0.147,0.154,0.863,0.032,1.078-0.19c0.994-1.032,1.709-2.58,2.896-3.118C149.907,101.538,149.34,100.734,149.325,100.195z
	 M178.348,130.295c-1.107,0.897-2.32,1.52-2.977,2.51c-0.66,0.993-2.559,1.577-1.439,3.257c0.818,0.415,1.56,0.998,2.383,1.425
	c0.27,0.14,0.791-0.05,1.122-0.229c0.343-0.185,0.552-0.613,0.894-0.808c1.507-0.857,2.244-2.049,1.75-3.684
	C179.792,131.818,178.902,131.053,178.348,130.295z"/>
<path fill-rule="evenodd" clip-rule="evenodd" d="M66.654,144.296c0.771-0.172,1.398-0.398,2.037-0.438
	c2.141-0.139,2.854,0.53,2.916,2.648c0.051,1.73,0.016,3.468,0.153,5.189c0.157,1.967-0.005,3.896,0.829,5.892
	c0.723,1.728,0.304,3.915,0.516,5.884c0.109,1.008,0.57,1.977,0.734,2.981c0.219,1.347,0.238,2.729,0.473,4.069
	c0.114,0.66,0.539,1.26,0.781,1.902c0.158,0.415,0.307,0.855,0.338,1.296c0.092,1.218,0.078,2.444,0.195,3.659
	c0.035,0.384,0.332,0.752,0.547,1.103c0.122,0.196,0.458,0.336,0.465,0.513c0.065,1.657,0.406,3.184,1.225,4.691
	c0.498,0.916,0.017,2.235,1.101,3.119c0.294,0.241,0.237,1.339-0.055,1.787c-0.771,1.185-1.884,1.728-3.407,1.286
	c-0.93-0.269-1.22-0.831-1.234-1.647c-0.037-1.946-1.848-3.447-1.369-5.516c-1.593-1.187-0.637-3.23-1.419-4.52
	c-1.271-2.104-0.466-4.564-1.382-6.459c-1.139-2.362-0.256-4.915-1.162-7.001c-1.572-3.627-0.24-7.482-1.338-10.904
	c-0.803-2.504-0.734-4.883-0.934-7.335C66.606,145.794,66.654,145.082,66.654,144.296z"/>
</svg>
