<?xml version="1.0" encoding="utf-8"?>
<!-- Generator: Adobe Illustrator 16.0.0, SVG Export Plug-In . SVG Version: 6.00 Build 0)  -->
<!DOCTYPE svg PUBLIC "-//W3C//DTD SVG 1.1//EN" "http://www.w3.org/Graphics/SVG/1.1/DTD/svg11.dtd">
<svg version="1.1" id="Layer_1" xmlns="http://www.w3.org/2000/svg" xmlns:xlink="http://www.w3.org/1999/xlink" x="0px" y="0px"
	 width="225px" height="225px" viewBox="0 0 225 225" enable-background="new 0 0 225 225" xml:space="preserve">
<g>
	<path fill-rule="evenodd" clip-rule="evenodd" d="M64.612,94.564c-1.435-0.194-2.257-0.774-2.962-1.766
		c-0.604-0.853-1.553-1.462-2.351-2.178c-0.079-0.071-0.206-0.122-0.242-0.212c-0.421-0.989-0.813-1.992-1.245-2.978
		c-0.519-1.19-1.078-2.361-1.592-3.553c-0.102-0.23-0.098-0.517-0.102-0.778c-0.014-1.254-0.063-2.511,0.01-3.76
		c0.026-0.448,0.412-0.864,0.545-1.32c0.141-0.491,0.251-1.014,0.254-1.522c0.014-8.817,0.006-17.632,0.009-26.447
		c0.003-1.063-0.075-2.147,0.103-3.184c0.209-1.227,0.446-2.529,1.046-3.588c0.774-1.372,1.845-2.604,2.935-3.758
		c0.543-0.575,1.423-0.828,2.141-1.243c0.908-0.525,1.76-1.206,2.73-1.558c0.827-0.303,1.79-0.232,2.689-0.336
		c0.671-0.078,1.432,0.204,1.891-0.667c0.113-0.217,0.771-0.128,1.174-0.214c0.591-0.125,1.449,0.291,1.607-0.763
		c0.008-0.041,0.127-0.077,0.199-0.095c1.459-0.34,2.924-0.656,4.375-1.025c0.427-0.11,0.81-0.39,1.23-0.55
		c0.381-0.144,0.777-0.263,1.176-0.338c1.296-0.244,2.719,0.15,3.863-0.88c0.229-0.205,0.732-0.122,1.109-0.137
		c1.67-0.058,3.348-0.04,5.011-0.169c1.481-0.117,2.955-0.611,4.419-0.552c2.994,0.123,6.031,0.266,8.947,0.885
		c1.424,0.305,2.875,0.609,4.305,0.952c1.332,0.32,2.57,1.014,3.865,1.503c0.381,0.143,0.834,0.095,1.215,0.238
		c0.4,0.149,0.756,0.419,1.123,0.644c0.09,0.054,0.15,0.183,0.244,0.204c1.383,0.337,2.752,0.782,4.157,0.956
		c1.847,0.231,3.563,0.696,5.034,1.861c1.265,1.002,2.575,1.967,3.723,3.094c0.559,0.549,0.782,1.435,1.171,2.161
		c0.505,0.947,1.072,1.866,1.515,2.84c0.193,0.425,0.195,0.96,0.197,1.446c0.018,9.271,0.02,18.544,0.029,27.814
		c0.002,3,0.021,5.999,0.004,8.999c-0.002,0.52,0.173,1.196-0.654,1.363c-0.072,0.015-0.139,0.165-0.172,0.265
		c-0.354,1.024-0.604,2.098-1.078,3.063c-0.377,0.777-1.015,1.433-1.558,2.125c-0.437,0.555-0.902,1.083-1.349,1.626
		c-0.068,0.085-0.081,0.245-0.159,0.282c-0.839,0.404-1.687,0.791-2.565,1.199c-0.076,0.519-0.291,1.065-0.205,1.561
		c0.316,1.871-0.521,3.555-1.057,5.193c-0.275,0.849-0.375,2.134-1.443,2.718c-0.112,0.061-0.074,0.358-0.171,0.502
		c-0.521,0.789-1.046,1.574-1.599,2.34c-0.342,0.474-0.869,0.854-1.078,1.369c-0.594,1.469-1.771,2.364-2.906,3.344
		c-0.789,0.683-1.496,1.465-2.217,2.227c-0.748,0.792-0.94,3.208-0.381,4.222c0.159,0.287,0.314,0.599,0.371,0.918
		c0.242,1.372,0.945,2.017,2.338,2.066c0.871,0.03,1.748,0.016,2.619,0.082c0.707,0.057,1.41-0.11,2.027,0.673
		c0.304,0.391,1.368,0.131,2.064,0.281c0.613,0.135,1.191,0.433,1.784,0.661c0.07,0.024,0.138,0.081,0.21,0.084
		c1.421,0.027,2.725,0.391,4.029,1.019c1.197,0.575,2.672,0.603,3.836,1.227c1.262,0.673,2.499,1.311,3.854,1.797
		c0.854,0.311,1.523,1.09,2.32,1.597c0.679,0.434,1.519,0.664,2.105,1.187c1.088,0.965,2.684,1.223,3.479,2.638
		c0.154,0.281,1.188,0.307,1.666,0.1c0.512-0.219,0.838-0.86,1.268-1.296c0.168-0.166,0.412-0.253,0.604-0.398
		c0.733-0.547,1.46-1.1,2.185-1.659c0.089-0.064,0.135-0.2,0.226-0.238c0.945-0.387,2.15-0.524,2.783-1.2
		c0.795-0.848,2.217-0.372,2.69-1.563c0.021-0.054,0.122-0.089,0.192-0.105c1.415-0.34,2.84-0.646,4.242-1.02
		c0.732-0.191,1.432-0.515,2.158-0.739c0.318-0.099,0.67-0.144,1.007-0.146c3.304-0.015,6.61-0.046,9.913,0.005
		c0.58,0.012,1.154,0.379,1.732,0.58c0.107,0.039,0.215,0.084,0.323,0.108c1.745,0.391,3.494,0.763,5.231,1.183
		c0.301,0.074,0.556,0.345,0.826,0.529c0.143,0.096,0.268,0.271,0.418,0.294c0.664,0.097,1.18,0.147,1.739,0.805
		c0.56,0.662,1.771,0.739,2.646,1.173c0.642,0.317,1.209,0.794,1.798,1.212c0.335,0.237,0.652,0.495,0.967,0.756
		c0.6,0.494,1.207,0.979,1.786,1.498c0.422,0.378,0.749,0.875,1.209,1.191c1.129,0.776,1.871,1.892,2.786,2.851
		c0.793,0.835,1.112,1.866,1.797,2.703c0.613,0.751,1.287,1.472,1.783,2.295c0.344,0.563,0.332,1.229,0.83,1.852
		c0.674,0.85,0.812,2.125,1.203,3.205c0.166,0.465,0.389,0.91,0.601,1.358c0.046,0.099,0.19,0.157,0.21,0.254
		c0.328,1.468,0.844,2.928,0.918,4.411c0.154,3.147,0.125,6.307,0.064,9.457c-0.02,0.891-0.41,1.771-0.606,2.66
		c-0.107,0.479-0.181,0.967-0.243,1.452c-0.101,0.787,0.174,1.677-0.764,2.207c-0.172,0.098-0.137,0.563-0.197,0.856
		c-0.132,0.635,0.299,1.518-0.773,1.739c-0.041,0.011-0.067,0.128-0.094,0.198c-0.353,0.99-0.613,2.028-1.084,2.961
		c-0.432,0.852-1.105,1.58-1.645,2.381c-0.424,0.624-0.771,1.303-1.217,1.912c-0.461,0.627-0.99,1.209-1.514,1.788
		c-0.342,0.378-0.742,0.703-1.084,1.082c-0.773,0.854-1.523,1.73-2.297,2.587c-0.087,0.096-0.273,0.096-0.398,0.169
		c-0.717,0.417-1.52,0.744-2.123,1.286c-0.76,0.679-1.635,1.184-2.394,1.779c-0.825,0.649-2.069,0.468-2.606,1.511
		c-0.068,0.134-0.4,0.141-0.613,0.188c-0.521,0.111-1.182-0.042-1.332,0.741c-0.008,0.055-0.121,0.136-0.167,0.126
		c-1.595-0.361-2.722,1.055-4.241,1.103c-0.803,0.026-1.592,0.459-2.396,0.673c-0.361,0.097-0.747,0.149-1.12,0.151
		c-3.039,0.011-6.081,0.082-9.115-0.03c-1.184-0.045-2.348-0.519-3.522-0.792c-0.776-0.18-1.773,0.253-2.243-0.827
		c-0.045-0.111-0.423-0.066-0.643-0.113c-0.77-0.173-1.797,0.306-2.178-0.861c-0.006-0.023-0.064-0.034-0.102-0.045
		c-1.031-0.351-2.104-0.605-3.077-1.075c-0.832-0.4-1.542-1.044-2.312-1.576c-0.575-0.4-1.168-0.775-1.725-1.198
		c-0.717-0.544-1.346-1.24-2.128-1.65c-0.479-0.251-1.462-0.343-1.7-0.063c-0.335,0.394-0.815,0.574-1.058,0.881
		c-0.706,0.898-1.469,1.486-2.591,1.841c-0.787,0.246-1.396,1.032-2.111,1.542c-0.396,0.281-0.826,0.523-1.268,0.725
		c-1.107,0.499-2.234,0.956-3.345,1.451c-0.431,0.192-0.836,0.444-1.249,0.677c-0.057,0.035-0.085,0.137-0.146,0.154
		c-1.103,0.338-2.212,0.655-3.309,1.012c-0.567,0.185-1.114,0.439-1.671,0.664c-0.104,0.041-0.203,0.105-0.311,0.13
		c-1.982,0.407-3.967,0.791-5.942,1.224c-0.737,0.163-1.438,0.482-2.173,0.635c-0.701,0.144-1.432,0.142-2.141,0.246
		c-1.33,0.197-2.805-0.39-3.97,0.781c-0.187,0.184-0.659,0.097-0.997,0.104c-3.534,0.058-7.066,0.089-10.599,0.184
		c-0.517,0.014-1.022,0.329-1.54,0.474c-0.357,0.103-0.725,0.215-1.088,0.215c-2.624,0.019-5.246,0.027-7.867-0.009
		c-0.408-0.008-0.808-0.286-1.22-0.409c-0.388-0.117-0.782-0.269-1.177-0.275c-3.57-0.072-7.144-0.099-10.713-0.193
		c-0.457-0.014-0.9-0.352-1.357-0.52c-0.271-0.102-0.553-0.225-0.836-0.243c-1.1-0.064-2.211-0.013-3.299-0.154
		c-0.818-0.109-1.595-0.51-2.412-0.676c-0.695-0.141-1.424-0.131-2.138-0.199c-0.687-0.064-1.373,0.074-1.952-0.628
		c-0.274-0.331-1.061-0.248-1.62-0.335c-0.749-0.114-1.612,0.097-2.099-0.757c-0.031-0.05-0.137-0.062-0.209-0.082
		c-1.438-0.378-2.884-0.737-4.313-1.146c-0.311-0.089-0.58-0.339-0.857-0.53c-0.086-0.059-0.154-0.253-0.197-0.242
		c-1.232,0.309-2.035-0.699-2.904-1.17c-0.894-0.485-2.025-0.527-2.758-1.479c-0.463-0.605-1.373-0.871-2.074-1.301
		c-0.453-0.278-0.999-0.499-1.318-0.895c-0.881-1.102-2.441-1.281-3.2-2.647c-0.517-0.933-1.651-1.508-2.412-2.332
		c-0.538-0.587-0.919-1.317-1.36-1.992c-0.521-0.799-1.074-1.583-1.542-2.414c-0.482-0.862-0.899-1.764-1.311-2.665
		c-0.528-1.165-1.048-2.336-1.517-3.522c-0.19-0.482-0.273-1.016-0.352-1.533c-0.129-0.861,0.149-1.815-0.752-2.479
		c-0.191-0.14-0.156-0.642-0.158-0.979c-0.009-4.218-0.019-8.433,0.02-12.65c0.004-0.37,0.359-0.727,0.504-1.108
		c0.139-0.372,0.236-0.763,0.317-1.152c0.206-0.98-0.304-2.154,0.806-2.885c0.045-0.031,0.064-0.147,0.049-0.214
		c-0.326-1.479,0.904-2.463,1.236-3.744c0.234-0.911,1.032-1.673,1.561-2.513c0.096-0.147,0.129-0.345,0.162-0.524
		c0.197-1,0.957-1.563,1.629-2.224c0.721-0.712,1.27-1.596,1.986-2.312c0.881-0.883,1.889-1.64,2.791-2.504
		c0.793-0.758,1.514-1.593,2.279-2.381c0.119-0.121,0.326-0.149,0.476-0.248c0.808-0.532,1.604-1.082,2.419-1.602
		c0.246-0.157,0.532-0.273,0.814-0.347c0.45-0.119,1.039,0.006,1.05-0.737c0-0.056,0.085-0.136,0.146-0.159
		c1.017-0.361,2.056-0.668,3.05-1.086c1.167-0.491,2.293-1.076,3.438-1.622c0.1-0.048,0.203-0.107,0.309-0.121
		c1.048-0.132,1.982-0.521,2.968-0.903c1.828-0.713,3.896-0.79,5.851-1.188c0.459-0.095,0.867-0.432,1.313-0.616
		c0.268-0.112,0.563-0.192,0.852-0.209c0.947-0.048,1.914-0.189,2.842-0.059c1.146,0.161,1.849-0.488,2.59-1.1
		c0.178-0.147,0.18-0.556,0.189-0.848c0.038-1.174-0.078-2.375,0.111-3.526c0.225-1.383-0.531-2.146-1.427-2.876
		c-1.317-1.074-2.546-2.199-3.517-3.632c-0.635-0.935-1.57-1.666-2.369-2.486c-0.053-0.055-0.133-0.092-0.16-0.154
		c-0.393-0.919-0.752-1.853-1.174-2.759c-0.457-0.983-1.046-1.914-1.43-2.923c-0.262-0.688-0.347-1.469-0.381-2.213
		C64.572,97.208,64.612,95.921,64.612,94.564z M196.688,157.661c0.016,0,0.029,0,0.043,0c0-0.226-0.031-0.46,0.006-0.682
		c0.477-2.77-1.016-5.263-1.111-7.954c-0.006-0.136-0.1-0.271-0.158-0.404c-0.533-1.223-1.074-2.44-1.598-3.666
		c-0.389-0.913-0.746-1.84-1.125-2.754c-0.025-0.059-0.125-0.079-0.171-0.132c-0.485-0.563-1.159-1.053-1.41-1.706
		c-0.542-1.401-1.729-2.191-2.667-3.212c-0.703-0.762-1.457-1.482-2.25-2.146c-1.08-0.901-2.225-1.723-3.324-2.6
		c-0.287-0.226-0.465-0.636-0.777-0.772c-0.963-0.424-1.965-0.755-2.957-1.12c-0.171-0.063-0.35-0.109-0.515-0.186
		c-0.537-0.253-1.058-0.545-1.608-0.76c-0.311-0.121-0.848-0.004-0.977-0.196c-0.742-1.107-1.881-0.679-2.86-0.842
		c-0.337-0.054-0.683-0.063-1.011-0.146c-0.84-0.215-1.666-0.571-2.518-0.66c-1.164-0.12-2.369,0.08-3.527-0.08
		c-2.733-0.38-5.209,0.978-7.867,1.043c-0.141,0.004-0.281,0.088-0.419,0.149c-1.207,0.56-2.399,1.15-3.621,1.68
		c-0.921,0.397-1.876,0.721-2.813,1.08c-0.066,0.025-0.129,0.075-0.182,0.127c-0.526,0.507-0.971,1.308-1.588,1.469
		c-1.904,0.501-2.743,2.259-4.191,3.278c-0.916,0.647-1.529,1.729-2.266,2.626c-0.55,0.671-1.09,1.353-1.615,2.043
		c-0.318,0.422-0.672,0.841-0.88,1.317c-0.417,0.961-0.745,1.96-1.112,2.94c-0.025,0.067-0.07,0.163-0.123,0.178
		c-0.863,0.226-0.648,0.987-0.783,1.568c-0.086,0.367-0.02,0.947-0.236,1.079c-0.967,0.589-0.646,1.517-0.765,2.328
		c-0.063,0.449,0.054,1.053-0.196,1.324c-0.78,0.838-0.604,1.831-0.649,2.789c-0.046,1.023,0.085,2.067-0.063,3.072
		c-0.426,2.908,0.916,5.58,1.024,8.408c0.005,0.138,0.071,0.357,0.165,0.394c0.906,0.357,0.527,1.226,0.777,1.844
		c0.25,0.616,0.648,1.172,0.91,1.783c0.404,0.938,0.746,1.902,1.129,2.849c0.032,0.081,0.201,0.096,0.268,0.173
		c0.463,0.532,0.945,1.055,1.365,1.618c0.768,1.036,1.41,2.18,2.267,3.133c0.727,0.804,1.944,1.246,2.474,2.13
		c0.794,1.322,2.354,1.497,3.216,2.633c0.312,0.407,0.836,0.707,1.325,0.919c0.977,0.427,2.338,0.479,2.92,1.192
		c1.014,1.247,2.515,0.635,3.695,1.479c1.112,0.796,2.969,0.818,4.465,1.061c4.189,0.684,8.432,0.203,12.476-1.048
		c0.867-0.268,1.792-0.573,2.694-0.867c0.781-0.255,1.547-0.595,2.267-0.995c0.921-0.512,1.801-1.103,2.672-1.698
		c0.275-0.189,0.421-0.574,0.701-0.747c0.741-0.452,1.614-0.725,2.265-1.274c0.852-0.719,1.533-1.638,2.301-2.46
		c0.388-0.415,0.82-0.787,1.195-1.215c0.582-0.664,1.158-1.34,1.682-2.049c0.407-0.552,0.598-1.449,1.119-1.691
		c1.123-0.522,0.721-1.754,1.496-2.526c0.803-0.8,0.844-2.372,1.217-3.606c0.033-0.108,0.037-0.287,0.104-0.315
		c0.907-0.401,0.646-1.253,0.761-1.952c0.104-0.631,0.125-1.283,0.275-1.903c0.166-0.69,0.563-1.343,0.632-2.036
		C196.768,159.872,196.688,158.764,196.688,157.661z M64.609,73.458c0-2.314,0.051-4.548-0.013-6.776
		c-0.071-2.479,0.125-4.852,1.876-6.818c0.723-0.81,1.301-1.83,2.172-2.408c1.209-0.797,2.582-1.544,3.98-1.807
		c1.729-0.328,3.569-0.295,5.336-0.127c1.737,0.167,3.516,0.512,5.124,1.157c0.692,0.278,1.326,0.689,2.108,0.748
		c0.102,0.008,0.25,0.063,0.283,0.139c0.527,1.164,1.943,0.679,2.754,1.547c0.627,0.67,1.832,0.795,2.771,1.188
		c0.104,0.044,0.12,0.288,0.228,0.352c0.686,0.408,1.363,0.844,2.096,1.142c0.168,0.067,0.551-0.356,0.82-0.572
		c0.402-0.323,0.742-0.764,1.193-0.973c0.932-0.426,2.045-0.558,2.847-1.137c0.78-0.561,1.524-0.885,2.445-0.92
		c0.063-0.002,0.1-0.201,0.185-0.255c0.29-0.185,0.588-0.476,0.898-0.497c2.27-0.162,4.346-1.392,6.681-1.192
		c0.237,0.021,0.486-0.204,0.741-0.237c0.832-0.109,1.682-0.316,2.504-0.237c1.058,0.099,2.111,0.39,3.139,0.69
		c0.988,0.289,1.941,0.692,2.906,1.055c0.053,0.02,0.066,0.13,0.115,0.183c0.434,0.486,0.783,1.158,1.326,1.417
		c1.469,0.693,2.024,2.204,2.348,3.383c0.594,2.151,1.322,4.389,0.939,6.729c-0.096,0.594-0.04,1.213-0.031,1.821
		c0.03,2.557,0.033,2.536,2.605,2.594c0.918,0.021,1.33-0.185,1.318-1.256c-0.057-5.509,0.076-11.022-0.069-16.529
		c-0.079-3.071,0.596-6.177-0.644-9.257c-0.361-0.903-0.775-2.041-1.313-2.515c-1.252-1.105-2.103-2.941-4.152-2.973
		c-0.107-0.002-0.203-0.19-0.32-0.263c-0.307-0.195-0.609-0.497-0.938-0.536c-0.864-0.103-1.746-0.069-2.616-0.127
		c-0.372-0.024-0.767-0.074-1.099-0.229c-1.019-0.481-1.97-1.293-3.029-1.47c-1.527-0.252-2.73-1.582-4.396-1.218
		c-0.034,0.007-0.093-0.003-0.107-0.025c-0.715-1.115-1.888-0.643-2.868-0.83c-0.394-0.074-0.791-0.156-1.166-0.293
		c-0.42-0.155-0.814-0.541-1.219-0.544c-5.586-0.035-11.171-0.023-16.756-0.015c-0.295,0.001-0.795,0.001-0.855,0.144
		c-0.383,0.935-1.19,0.611-1.854,0.71c-0.855,0.126-1.721,0.195-2.566,0.374c-0.559,0.117-1.078,0.416-1.631,0.576
		c-1.421,0.41-3.025,0.515-4.213,1.276c-0.789,0.506-1.498,0.61-2.295,0.771c-0.25,0.051-0.49,0.159-0.729,0.254
		c-0.426,0.17-0.848,0.506-1.27,0.5c-2.141-0.027-4.068,0.367-5.718,1.918c-1.104,1.041-2.597,1.712-2.762,3.481
		c-0.01,0.104-0.065,0.278-0.131,0.293c-1.05,0.245-0.743,1.117-0.747,1.752c-0.042,6.953-0.049,13.907-0.064,20.86
		c-0.002,1.444-0.032,2.89,0.031,4.33c0.012,0.294,0.371,0.813,0.584,0.818C62.406,73.648,63.422,73.533,64.609,73.458z
		 M72.182,125.137c-0.053-0.092-0.107-0.183-0.16-0.275c-2.135,0.354-4.27,0.708-6.404,1.063c-0.032,0.008-0.054,0.058-0.088,0.069
		c-0.59,0.234-1.167,0.53-1.783,0.684c-0.579,0.144-1.58-0.051-1.725,0.236c-0.469,0.95-1.246,0.627-1.924,0.768
		c-0.327,0.067-0.658,0.158-0.965,0.296c-1.118,0.515-2.215,1.082-3.343,1.578c-1.017,0.448-2.104,0.747-3.085,1.261
		c-0.992,0.52-1.596,1.725-2.93,1.687c-0.092-0.002-0.186,0.189-0.282,0.292c-0.44,0.465-0.83,0.995-1.333,1.379
		c-1.075,0.817-2.332,1.431-3.285,2.361c-1.109,1.088-2.138,2.335-2.902,3.683c-0.777,1.373-1.961,2.582-2.107,4.278
		c-0.012,0.098-0.085,0.25-0.162,0.272c-0.85,0.264-0.666,0.984-0.73,1.599c-0.039,0.373,0.011,0.993-0.173,1.075
		c-1.054,0.473-0.652,1.405-0.788,2.158c-0.094,0.521,0.063,1.221-0.226,1.548c-0.729,0.822-0.609,1.762-0.617,2.679
		c-0.028,2.812-0.115,5.628,0.036,8.431c0.095,1.729,0.32,3.548,1,5.103c0.393,0.896,0.754,1.709,0.828,2.674
		c0.012,0.151,0.18,0.29,0.279,0.432c0.191,0.277,0.434,0.529,0.563,0.829c0.388,0.897,0.537,1.983,1.145,2.678
		c0.758,0.867,1.53,1.652,1.971,2.754c0.191,0.479,0.674,0.854,1.057,1.241c0.525,0.531,1.076,1.04,1.631,1.542
		c0.479,0.433,0.953,0.885,1.482,1.248c0.684,0.471,1.52,0.757,2.109,1.313c0.789,0.744,1.41,1.655,2.642,1.683
		c0.119,0.002,0.235,0.14,0.353,0.213c0.365,0.235,0.717,0.501,1.101,0.698c0.226,0.114,0.605,0.03,0.745,0.188
		c0.875,0.975,2.139,1.305,3.255,1.612c1.382,0.382,2.556,1.576,4.146,1.188c0.031-0.007,0.088,0.014,0.105,0.04
		c0.6,1.025,1.646,0.66,2.527,0.81c0.373,0.063,0.96-0.042,1.094,0.163c0.748,1.163,1.895,0.605,2.864,0.767
		c0.595,0.1,1.461-0.119,1.761,0.211c0.998,1.094,2.135,0.547,3.268,0.686c0-0.33,0.063-0.55-0.012-0.7
		c-0.568-1.101-1.225-2.157-1.733-3.284c-0.462-1.034-0.771-2.142-1.149-3.215c-0.037-0.106-0.065-0.229-0.141-0.301
		c-0.967-0.94-1.193-2.242-1.666-3.422c-0.396-0.983-0.727-1.994-1.1-2.988c-0.033-0.083-0.205-0.102-0.266-0.184
		c-0.18-0.238-0.389-0.472-0.488-0.745c-0.373-0.995-0.704-2.003-1.059-3.004c-0.021-0.061-0.115-0.094-0.148-0.155
		c-0.574-1.092-1.207-2.161-1.699-3.29c-0.441-1.012-0.727-2.094-1.082-3.145c-0.014-0.037-0.034-0.087-0.061-0.097
		c-1.294-0.371-0.572-1.861-1.52-2.646c-0.777-0.64-0.816-2.159-1.215-3.275c-0.094-0.263-0.299-0.501-0.493-0.713
		c-0.7-0.763-0.554-2.491,0.252-3.105c0.429-0.327,0.835-0.688,1.21-1.075c0.783-0.811,1.494-1.7,2.32-2.466
		c0.756-0.702,0.779-1.358-0.02-1.984c-0.469-0.365-0.878-0.814-1.289-1.249c-0.497-0.526-1.042-1.029-1.43-1.633
		c-0.458-0.712-1.415-1.046-1.463-2.077c-0.041-0.878,0.088-1.552,0.785-2.238c0.617-0.605,0.841-1.59,1.342-2.338
		c0.502-0.759,1.137-1.43,1.703-2.15c0.303-0.384,0.615-0.772,0.868-1.191c0.458-0.755,0.692-1.794,1.345-2.249
		c1.223-0.854,1.313-2.416,2.488-3.304c0.773-0.584,1.193-1.654,1.742-2.524c0.465-0.735,0.88-1.5,1.334-2.243
		c0.125-0.197,0.313-0.356,0.455-0.547C71.359,126.241,71.77,125.688,72.182,125.137z M90.002,89.23
		c0.025,0.068,0.055,0.138,0.082,0.206c-0.472,0.13-1.2,0.115-1.371,0.418c-0.637,1.118-1.634,0.735-2.502,0.745
		c-3.416,0.04-6.838-0.016-10.257,0.026c-1.934,0.024-3.786,0.098-5.12-1.759c-0.673-0.938-1.511-1.69-1.48-2.991
		c0.053-2.24,0.029-4.483-0.014-6.725c-0.006-0.324-0.291-0.646-0.447-0.969c-0.146,0.3-0.421,0.597-0.423,0.896
		c-0.021,6.384-0.013,12.768-0.002,19.15c0,0.295,0.01,0.623,0.133,0.88c0.53,1.118,1.322,2.164,1.606,3.335
		c0.352,1.446,1.512,2.232,2.227,3.363c0.755,1.196,1.855,2.175,2.808,3.248c0.142,0.159,0.265,0.362,0.44,0.456
		c0.809,0.421,2.634,2.037,3.243,2.685c0.458,0.494,1.073,0.853,1.655,1.21c0.678,0.418,1.693,0.598,2.035,1.187
		c0.6,1.028,1.826,0.743,2.5,1.617c0.463,0.601,1.695,0.595,2.189,1.189c1.002,1.202,2.525,1.188,3.699,1.533
		c2.523,0.737,5.223,0.234,7.623-0.913c1.223-0.582,2.224-1.626,3.643-1.863c0.091-0.017,0.182-0.114,0.25-0.192
		c0.66-0.764,1.316-1.519,2.402-1.683c0.167-0.023,0.336-0.146,0.465-0.264c0.842-0.757,1.634-1.572,2.516-2.275
		c1.016-0.809,2.19-1.429,3.141-2.299c0.824-0.758,1.365-1.817,2.15-2.626c1.204-1.24,2.171-2.624,2.935-4.163
		c0.064-0.132,0.171-0.246,0.233-0.379c0.498-1.02,1.273-2.005,1.419-3.076c0.257-1.868,0.142-3.788,0.146-5.686
		c0.012-4.597,0.018-9.196-0.016-13.792c-0.008-0.492-0.355-1.418-0.439-1.406c-0.976,0.141-0.447,0.942-0.465,1.438
		c-0.066,1.974,0.021,3.954-0.053,5.926c-0.047,1.146,0.377,2.38-1.007,3.283c-0.993,0.647-1.892,1.591-3.071,1.616
		c-4.441,0.095-8.893,0.044-13.336,0.021c-0.439-0.003-1.01-0.043-1.29-0.308c-0.944-0.895-1.979-1.577-2.558-3.004
		c-0.463-1.141-0.522-2.163-0.572-3.25c-0.082-1.629-0.007-3.267-0.018-4.901c-0.01-1.339-0.262-1.599-1.467-1.596
		c-1.527,0.003-2.359,0.603-2.367,1.719c-0.016,2.546-0.014,5.091-0.051,7.637c-0.006,0.344-0.139,0.716-0.307,1.022
		C90.65,88.38,90.309,88.794,90.002,89.23z M127.979,154.535c-0.264,0.739-0.451,1.243-0.619,1.748
		c-0.096,0.282-0.127,0.587-0.246,0.855c-0.534,1.191-1.234,2.335-1.596,3.575c-0.348,1.2-1.417,2.165-1.166,3.554
		c0.01,0.053-0.086,0.117-0.124,0.182c-0.509,0.887-1.118,1.732-1.503,2.671c-0.508,1.241-0.837,2.559-1.244,3.843
		c-0.021,0.07-0.043,0.159-0.093,0.202c-1.086,0.883-0.995,2.32-1.614,3.439c-0.542,0.977-0.74,2.143-1.094,3.227
		c-0.01,0.035-0.027,0.081-0.055,0.098c-1.248,0.61-0.895,2.065-1.58,3.032c-0.695,0.981-0.854,2.341-1.248,3.535
		c-0.014,0.036-0.033,0.071-0.059,0.099c-1.06,1.163-1.07,2.778-1.766,4.099c-0.148,0.283-0.438,0.497-0.556,0.788
		c-0.097,0.229-0.032,0.523-0.042,0.788c1.094-0.037,2.441,0.304,3.211-0.213c0.791-0.534,1.481-0.53,2.252-0.619
		c0.754-0.085,1.795,0.184,2.215-0.216c0.869-0.842,1.838-0.658,2.799-0.804c0.182-0.028,0.48-0.028,0.523-0.129
		c0.381-0.897,1.193-0.612,1.858-0.719c0.335-0.051,0.874,0.035,0.979-0.142c0.766-1.32,2.377-0.698,3.467-1.638
		c0.943-0.813,2.433-1.272,3.676-1.86c1.295-0.615,2.471-1.356,3.676-2.087c0.207-0.127,0.475-0.182,0.643-0.345
		c0.51-0.495,0.908-1.152,1.492-1.511c0.717-0.441,0.604-0.706,0.075-1.144c-0.181-0.147-0.28-0.395-0.415-0.598
		c-0.455-0.704-0.909-1.408-1.361-2.112c-0.539-0.837-1.336-1.615-1.543-2.526c-0.236-1.051-1.482-1.665-1.131-2.891
		c0.008-0.028-0.028-0.092-0.053-0.098c-0.969-0.24-0.592-1.132-0.869-1.708c-0.605-1.27-0.979-2.558-0.951-3.964
		c0-0.091-0.143-0.175-0.183-0.276c-0.204-0.502-0.562-1.005-0.567-1.514c-0.054-3.757-0.041-7.517-0.031-11.275
		c0-0.331,0.014-0.813,0.218-0.967c0.733-0.561,0.534-1.338,0.683-2.057c0.264-1.296,0.401-2.727,1.08-3.785
		c0.43-0.673,0.742-1.24,0.813-1.995c0.01-0.095,0.123-0.177,0.18-0.27c0.523-0.853,1.19-1.652,1.525-2.574
		c0.344-0.945,1.037-1.512,1.627-2.221c0.535-0.64,0.904-1.419,1.326-2.146c0.047-0.08,0.029-0.26-0.033-0.326
		c-0.375-0.405-0.752-0.812-1.163-1.179c-0.798-0.718-2-0.81-2.644-1.837c-0.285-0.454-0.932-0.729-1.468-0.965
		c-0.965-0.419-1.968-0.747-2.952-1.119c-0.067-0.024-0.16-0.088-0.168-0.142c-0.094-0.828-0.793-0.646-1.299-0.79
		c-0.211-0.06-0.584-0.076-0.611-0.186c-0.213-0.837-0.918-0.638-1.471-0.756c-1.309-0.28-2.427-1.245-3.865-1.076
		c-0.081,0.01-0.244-0.105-0.258-0.183c-0.156-0.794-0.805-0.514-1.275-0.594c-0.551-0.09-1.416,0.046-1.598-0.255
		c-0.482-0.783-1.15-0.589-1.787-0.673c-0.936-0.123-1.881-0.179-2.801-0.369c-0.699-0.146-1.362-0.452-2.045-0.688
		c-0.082,0.144-0.167,0.284-0.248,0.426c4.427,5.694,8.854,11.384,13.13,16.88c-0.411,0.999-0.544,1.849-1.025,2.386
		c-1.315,1.464-2.788,2.788-4.17,4.196c-0.146,0.147-0.234,0.566-0.136,0.696c0.324,0.426,0.721,0.806,1.139,1.146
		c0.488,0.396,1.105,0.659,1.534,1.104C126.316,152.549,127.174,153.608,127.979,154.535z M93.13,73.629
		c7.898,0,15.798-0.013,23.698,0.017c0.85,0.003,1.131-0.243,1.115-1.091c-0.048-2.24,0.029-4.482-0.043-6.721
		c-0.037-1.08,0.178-2.157-0.843-3.154c-1.225-1.198-2.18-2.602-4.142-2.556c-2.159,0.049-4.325,0.047-6.488,0.097
		c-0.316,0.007-0.641,0.148-0.941,0.274c-0.43,0.181-0.824,0.466-1.266,0.6c-1.363,0.407-2.852,0.564-4.07,1.224
		c-0.632,0.34-1.174,0.742-1.908,0.815c-0.119,0.012-0.227,0.159-0.344,0.24c-0.315,0.221-0.635,0.438-0.953,0.661
		c-0.299,0.213-0.604,0.422-0.893,0.647c-0.507,0.395-0.941,0.942-1.51,1.174c-1.649,0.668-2.984-0.194-4.299-1.062
		c-0.868-0.574-1.718-1.191-2.645-1.659c-0.9-0.454-1.885-0.739-2.83-1.105c-0.063-0.024-0.091-0.116-0.15-0.155
		c-0.359-0.237-0.709-0.5-1.094-0.688c-0.263-0.129-0.586-0.124-0.863-0.224c-1.518-0.538-2.99-1.326-4.551-1.587
		c-2.697-0.452-5.403-0.19-7.541,1.766c-1.098,1.004-2.117,2.197-2.113,3.882c0.011,2.316-0.004,4.633-0.008,6.949
		c-0.002,1.649-0.002,1.658,1.666,1.658C77.787,73.635,85.459,73.632,93.13,73.629z M95.084,191.296
		c0.908,0.054,1.661,0.144,2.412,0.136c2.926-0.036,5.85-0.111,8.773-0.158c1.95-0.032,1.986-0.058,1.986-1.975
		c0.004-12.499,0.008-24.999,0.012-37.498c0-0.306,0.021-0.614-0.027-0.911c-0.026-0.153-0.166-0.363-0.297-0.399
		c-0.141-0.042-0.41,0.042-0.484,0.159c-0.646,1.04-1.322,2.071-1.869,3.163c-0.482,0.963-0.813,2.001-1.209,3.006
		c-0.014,0.034-0.039,0.066-0.064,0.094c-1.048,1.057-1.498,2.405-1.883,3.821c-0.561,0.327-1.148,0.935-1.75,0.947
		c-0.576,0.012-1.165-0.592-1.787-0.949c-0.014-0.101-0.043-0.246-0.059-0.397c-0.119-1.167-1.061-1.971-1.223-3.209
		c-0.158-1.205-1.041-2.312-1.607-3.465c-0.177-0.361-0.349-0.727-0.525-1.09c-0.135,0.395-0.289,0.786-0.398,1.186
		c-0.049,0.178-0.01,0.379-0.01,0.569c0.004,11.892,0.006,23.783,0.01,35.675C95.084,190.376,95.084,190.75,95.084,191.296z
		 M78.936,117.335c0,3.253-0.004,6.511,0.008,9.765c0,0.169,0.076,0.455,0.177,0.484c0.817,0.242,0.56,0.952,0.715,1.493
		c0.14,0.48,0.364,0.945,0.618,1.376c0.32,0.54,0.902,0.999,1.031,1.568c0.318,1.422,1.785,1.898,2.35,3.113
		c0.211,0.456,0.809,0.795,1.302,1.043c0.911,0.456,2.108,0.581,2.759,1.258c0.753,0.787,1.523,0.608,2.334,0.715
		c0.72,0.093,1.391,0.028,2.082,0.618c0.451,0.384,1.783,0.379,2.227-0.013c0.826-0.729,1.682-0.493,2.531-0.636
		c0.65-0.107,1.495,0.254,1.787-0.756c0.029-0.094,0.338-0.094,0.502-0.173c0.744-0.348,1.582-0.587,2.199-1.094
		c1.023-0.838,1.912-1.841,2.842-2.79c0.373-0.381,0.815-0.753,1.027-1.221c0.437-0.963,0.739-1.987,1.101-2.987
		c0.05-0.138,0.095-0.365,0.18-0.384c0.884-0.196,0.579-0.924,0.674-1.465c0.159-0.912-0.292-1.987,0.769-2.664
		c0.137-0.087,0.039-0.509,0.094-0.764c0.462-2.111-0.688-3.984-0.895-5.996c-0.018-0.164-0.238-0.411-0.389-0.43
		c-0.135-0.016-0.304,0.224-0.453,0.359c-0.486,0.436-0.91,0.985-1.469,1.289c-0.889,0.482-1.865,0.797-2.807,1.188
		c-0.102,0.042-0.207,0.094-0.288,0.167c-0.956,0.877-1.943,1.673-3.353,1.62c-0.217-0.008-0.564,0.019-0.636,0.148
		c-0.452,0.813-1.226,0.621-1.913,0.657c-0.834,0.049-1.682-0.046-2.502,0.077c-2.347,0.35-4.474-0.643-6.7-1.012
		c-0.149-0.023-0.269-0.21-0.409-0.314c-0.236-0.177-0.459-0.392-0.721-0.519c-0.923-0.442-1.879-0.819-2.781-1.298
		c-0.473-0.248-0.848-0.683-1.294-0.991c-0.761-0.533-1.538-1.037-2.321-1.534C79.252,117.197,79.108,117.285,78.936,117.335z
		 M91.25,191.304c0-0.415,0-0.752,0-1.088c0.002-11.961,0.004-23.92,0.002-35.879c0-0.453,0.018-0.921-0.069-1.361
		c-0.046-0.221-0.312-0.401-0.477-0.6c-0.127,0.192-0.304,0.367-0.371,0.579c-0.146,0.444-0.19,0.922-0.357,1.354
		c-0.159,0.411-0.484,0.761-0.626,1.174c-0.377,1.121-0.695,2.259-1.037,3.39c-0.013,0.034-0.034,0.066-0.057,0.098
		c-0.381,0.579-0.761,1.159-1.287,1.965c-0.005,0.002-0.459,0.106-0.572,0.365c-0.367,0.832-1.033,0.513-1.426,0.293
		c-1.216-0.668-1.471-2.087-2.146-3.167c-0.569-0.907-0.821-2.017-1.215-3.038c-0.014-0.032-0.045-0.061-0.072-0.085
		c-0.985-0.857-1.297-2.08-1.742-3.23c-0.105-0.267-0.311-0.493-0.469-0.737c-0.17,0.273-0.393,0.531-0.492,0.83
		c-0.082,0.237-0.02,0.525-0.02,0.792c0,12.186-0.004,24.374,0,36.562c0.002,0.554,0.058,1.107,0.097,1.784
		C83.066,191.304,87.105,191.304,91.25,191.304z M112.363,181.605c0.162-0.002,0.323-0.006,0.484-0.008
		c0.077-0.452,0.146-0.908,0.236-1.357c0.07-0.361,0.047-0.835,0.27-1.055c0.915-0.912,1.057-2.168,1.557-3.255
		c0.504-1.093,0.814-2.271,1.211-3.412c0.012-0.034,0.045-0.061,0.073-0.086c0.981-0.935,1.094-2.285,1.61-3.435
		c0.458-1.021,0.729-2.124,1.09-3.188c0.02-0.057,0.127-0.077,0.166-0.137c0.225-0.339,0.513-0.657,0.642-1.033
		c0.392-1.135,0.719-2.297,1.071-3.447c0.022-0.065,0.08-0.124,0.132-0.176c0.95-0.979,1.155-2.323,1.713-3.497
		c0.223-0.468,0.472-0.919,0.671-1.396c0.09-0.223,0.215-0.598,0.113-0.705c-0.41-0.44-0.898-0.809-1.365-1.196
		c-0.447-0.372-0.934-0.702-1.348-1.108c-0.824-0.805-1.587-1.673-2.421-2.467c-0.46-0.438-0.712-2.371-0.252-2.81
		c0.819-0.78,1.728-1.471,2.501-2.292c0.945-1.004,1.791-2.104,2.648-3.124c-0.352-0.56-0.621-1.051-0.949-1.499
		c-0.523-0.712-1.094-1.387-1.623-2.089c-0.143-0.189-0.169-0.476-0.328-0.634c-0.452-0.441-0.969-0.815-1.413-1.264
		c-0.348-0.353-0.743-0.73-0.908-1.176c-0.378-1.021-0.96-1.826-1.845-2.461c-0.426-0.304-0.793-0.734-1.078-1.175
		c-0.707-1.084-1.343-2.214-2.031-3.31c-0.074-0.117-0.33-0.204-0.475-0.173c-0.139,0.03-0.312,0.213-0.344,0.359
		c-0.068,0.292-0.068,0.601-0.068,0.905c-0.002,16.745-0.004,33.49,0.01,50.239C112.113,180.633,112.277,181.119,112.363,181.605z
		 M69.225,151.963c-0.574,0.703-1.094,1.382-1.666,2.011c-0.25,0.278-0.641,0.42-0.907,0.685c-0.784,0.771-1.483,1.646-2.323,2.344
		c-0.732,0.605-0.986,2.205-0.482,2.979c0.668,1.025,1.239,2.127,1.726,3.25c0.437,1.003,0.704,2.079,1.048,3.124
		c0.021,0.069,0.057,0.174,0.107,0.19c1.326,0.422,0.653,1.919,1.525,2.765c0.781,0.757,0.846,2.251,1.242,3.415
		c0.056,0.164,0.204,0.297,0.293,0.45c0.495,0.873,1.057,1.716,1.458,2.63c0.433,0.978,0.706,2.024,1.062,3.034
		c0.032,0.096,0.166,0.153,0.213,0.246c0.227,0.433,0.496,0.854,0.635,1.313c0.123,0.414,0.096,0.874,0.151,1.46
		c0.577-0.073,1.324,0.006,1.433-0.221c0.191-0.401,0.026-0.992-0.047-1.499c-0.067-0.473-0.298-0.937-0.298-1.403
		c-0.019-15.605-0.019-31.212-0.017-46.821c0-0.338-0.023-0.701,0.086-1.012c0.428-1.256,0.361-1.335-1.106-1.093
		c-0.122,0.495-0.103,1.309-0.397,1.445c-1.445,0.67-1.377,2.462-2.6,3.272c-0.404,0.267-0.665,0.776-0.941,1.209
		c-0.723,1.125-1.391,2.286-2.133,3.4c-0.5,0.748-1.104,1.43-1.631,2.162c-0.381,0.528-0.699,1.102-1.064,1.641
		c-0.205,0.301-0.595,0.545-0.65,0.858c-0.107,0.617-0.292,1.437,0,1.867c0.663,0.969,1.64,1.714,2.404,2.621
		C67.328,149.449,68.228,150.683,69.225,151.963z M73.238,78.58c0,2.05-0.002,4.138,0,6.226c0.002,1.068,0.883,1.951,1.939,1.952
		c3.533,0.002,7.065,0.003,10.598,0.004c1.514,0,1.637-0.098,1.652-1.585c0.023-2.052-0.008-4.102,0.015-6.152
		c0.006-0.572-0.117-0.99-0.767-1.007c-0.554-0.016-1.109,0.026-1.664,0.027c-2.393,0.002-4.785,0.007-7.178-0.013
		c-0.324-0.002-0.645-0.19-0.973-0.215c-0.82-0.061-1.652-0.162-2.462-0.073C74.026,77.785,73.697,78.234,73.238,78.58z
		 M113.096,86.758c0-2.814,0.017-5.494-0.035-8.17c-0.003-0.185-0.514-0.5-0.8-0.514c-1.25-0.06-2.503,0.022-3.751-0.045
		c-1.713-0.092-3.469,0.366-5.139-0.451c-0.361-0.177-0.895-0.035-1.344,0.008c-0.586,0.056-1.165,0.159-1.746,0.242
		c-0.5,0.251-1.158,0.786-1.203,1.365c-0.141,1.885-0.076,3.788-0.051,5.683c0.011,0.933,1.035,1.883,1.942,1.883
		c2.314,0.001,4.628-0.001,6.941-0.001C109.567,86.757,111.227,86.758,113.096,86.758z M96.111,143.271
		c0.305,0.443,0.641,0.769,0.777,1.162c0.42,1.215,0.764,2.461,1.145,3.692c0.032,0.101,0.135,0.177,0.182,0.277
		c0.533,1.12,1.2,2.2,1.542,3.379c0.226,0.78,0.248,1.529,1.03,2.036c0.498,0.322,0.715,0.354,0.834-0.271
		c0.085-0.428,0.127-0.89,0.322-1.266c0.461-0.886,1.059-1.705,1.5-2.602c0.475-0.965,0.777-2.012,1.256-2.975
		c0.455-0.916,1.097-1.74,1.547-2.66c0.466-0.951,0.797-1.971,1.197-2.954c0.037-0.092,0.171-0.145,0.223-0.236
		c0.202-0.354,0.533-0.709,0.56-1.081c0.079-1.095,0.056-2.199,0.022-3.298c-0.012-0.348-0.189-0.688-0.309-1.102
		c-0.777,0.719-1.393,1.294-2.015,1.855c-0.444,0.401-0.949,0.742-1.341,1.184c-0.646,0.725-1.234,1.492-2.297,1.619
		c-0.178,0.021-0.422,0.053-0.504,0.172c-0.748,1.06-2.011,1.371-3.063,1.631C97.639,142.103,96.699,142.273,96.111,143.271z
		 M90.172,142.146c-1.49-0.284-2.814-0.168-4.105-1.031c-0.854-0.567-1.844-1.054-2.709-1.686c-0.624-0.454-1.273-0.864-1.883-1.328
		c-0.55-0.421-1.061-0.892-1.592-1.336c-0.24-0.198-0.494-0.385-0.738-0.575c-0.111,0.284-0.35,0.589-0.311,0.85
		c0.299,2.034-0.74,4.221,0.932,6.126c0.678,0.772,0.818,1.998,1.272,2.987c0.565,1.232,1.201,2.435,1.803,3.652
		c0.065,0.134,0.093,0.291,0.173,0.41c0.683,1.019,1.387,2.015,1.647,3.258c0.042,0.206,0.646,0.5,0.671,0.473
		c0.453-0.516,1.301-0.774,1.136-1.723c-0.044-0.263,0.081-0.583,0.204-0.846c0.553-1.176,1.213-2.308,1.682-3.517
		c0.459-1.184,0.73-2.441,1.092-3.666c0.029-0.099,0.094-0.249,0.169-0.269C90.801,143.629,90.045,142.81,90.172,142.146z
		 M64.606,77.386c-1.837-0.208-2.919,0.385-4.017,1.657c-1.119,1.29-0.506,2.523-0.5,3.761c0.006,0.784,0.461,1.583,0.787,2.343
		c0.353,0.82,1.139,1.46,1.014,2.479c-0.004,0.019,0.054,0.042,0.076,0.067c0.533,0.528,1.051,1.068,1.6,1.577
		c0.19,0.181,0.449,0.289,0.679,0.429c0.123-0.244,0.347-0.486,0.352-0.732c0.03-1.668,0.012-3.338,0.01-5.006
		C64.606,81.804,64.606,79.646,64.606,77.386z M126.26,78.541c-0.66-0.217-1.197-0.38-1.721-0.573
		c-0.549-0.2-1.087-0.429-1.629-0.646c-0.174,0.502-0.484,1.001-0.492,1.505c-0.046,2.886-0.009,5.773-0.031,8.659
		c-0.004,0.62-0.144,1.239-0.24,2.02c0.361,0,1.004,0.175,1.173-0.032c0.504-0.625,0.827-1.397,1.211-2.118
		c0.067-0.126,0.046-0.378,0.128-0.408c1.264-0.47,0.549-2.107,1.602-2.688C126.26,82.373,126.26,80.483,126.26,78.541z"/>
	<path fill-rule="evenodd" clip-rule="evenodd" d="M164.364,172.97c0-1.825-0.093-3.654,0.028-5.471
		c0.094-1.354-0.529-2.122-1.535-2.838c-0.513-0.363-0.904-0.932-1.258-1.471c-0.721-1.11-2.367-1.772-3.402-1.031
		c-0.917,0.659-1.832,0.574-2.77,0.534c-0.592-0.026-1.161-0.347-1.75-0.498c-0.509-0.132-1.047-0.16-1.543-0.324
		c-0.404-0.136-0.765-0.402-1.139-0.618c-0.122-0.071-0.227-0.233-0.347-0.242c-1.786-0.115-2.341-1.802-3.511-2.66
		c-1.327-0.974-1.369-2.582-2.433-3.59c-0.046-0.042-0.05-0.14-0.063-0.213c-0.355-1.853-0.949-3.702-0.988-5.562
		c-0.034-1.633,0.402-3.33,0.906-4.912c0.422-1.311,1.217-2.511,1.906-3.724c0.209-0.368,0.58-0.699,0.956-0.904
		c0.901-0.491,1.825-0.993,2.798-1.309c0.652-0.212,1.359-0.034,1.898-0.755c0.377-0.507,3.264-0.039,3.837,0.341
		c0.373,0.247,0.923,0.416,1.353,0.351c1.183-0.175,1.578,0.894,2.311,1.382c0.627,0.416,1.066,1.132,1.533,1.755
		c0.191,0.255,0.342,0.62,0.332,0.93c-0.051,1.348,0.709,2.833-0.702,3.994c-0.153,0.127,0.109,1.044,0.415,1.391
		c0.865,0.983,1.688,1.945,2.434,3.062c1.263,1.899,0.607,3.817,0.744,5.722c0.05,0.681,0.244,1.486-0.766,1.88
		c-0.434,0.17-0.084,1.468,0.346,1.788c0.494,0.367,1.006,0.771,1.349,1.271c0.575,0.834,1.329,0.844,1.932-0.018
		c0.318-0.458,0.743-0.853,1.16-1.228c0.452-0.412,0.978-0.744,1.419-1.168c0.109-0.103,0.055-0.6-0.002-0.615
		c-0.802-0.201-0.645-0.883-0.666-1.395c-0.057-1.402-0.041-2.808-0.038-4.214c0.004-1.36,0.575-2.388,1.667-3.237
		c0.738-0.571,1.35-1.342,1.895-2.107c0.194-0.268,0.185-1.037-0.008-1.164c-1.253-0.828-0.646-2.047-0.729-3.092
		c-0.104-1.377,0.596-2.352,1.711-3.132c0.508-0.355,0.816-0.984,1.285-1.406c0.242-0.214,0.639-0.283,0.982-0.349
		c0.688-0.129,1.449,0.169,1.963-0.721c0.302-0.519,3.182-0.056,3.779,0.341c0.373,0.246,0.916,0.341,1.379,0.326
		c1.283-0.043,2.085,0.917,2.975,1.517c1.224,0.822,1.646,2.372,2.402,3.621c0.638,1.048,0.314,2.253,0.861,3.118
		c0.773,1.229,0.757,2.494,0.553,3.707c-0.264,1.587-0.892,3.117-1.37,4.668c-0.079,0.25-0.265,0.488-0.276,0.736
		c-0.059,1.238-0.825,1.971-1.689,2.735c-0.819,0.729-1.475,1.646-2.205,2.477c-0.067,0.078-0.148,0.197-0.234,0.207
		c-0.719,0.089-1.521-0.002-1.806,0.929c-2.04,0.042-3.878,1.483-6.002,0.895c-0.806-0.222-1.585-0.543-2.368-0.83
		c-1.257-0.463-2.043,0.435-2.799,1.105c-0.856,0.757-1.551,1.699-2.266,2.601c-0.262,0.33-0.544,0.765-0.551,1.153
		c-0.041,4.066-0.072,8.133-0.004,12.197c0.019,0.979-0.553,1.63-1.152,1.852c-0.697,0.257-1.627,0.024-2.408-0.182
		c-0.201-0.054-0.303-0.796-0.309-1.225c-0.031-2.126-0.014-4.255-0.014-6.382C164.369,172.97,164.367,172.97,164.364,172.97z
		 M175.475,150.037c-1.131,0.561-2.432,2.051-2.523,3.336c-0.113,1.599-0.45,3.324,1.521,4.152c1.094,0.461,2.217,0.863,3.33,1.271
		c0.123,0.045,0.301-0.021,0.443-0.067c0.661-0.205,1.307-0.518,1.981-0.618c1.515-0.228,2.284-1.371,3.175-2.389
		c0.11-0.128,0.148-0.33,0.273-0.441c0.891-0.782,1.524-1.87,1.58-2.923c0.15-2.882,0.813-5.852-0.9-8.572
		c-0.561-0.892-1.066-1.688-2.217-1.879c-0.592-0.098-1.133-0.47-1.723-0.607c-0.455-0.104-1.197-0.235-1.383-0.008
		c-0.731,0.903-2.027,0.438-2.822,1.457c-0.552,0.71-0.445,1.637-0.297,1.721c1.536,0.889,0.639,2.279,0.81,3.426
		c0.032,0.222-0.089,0.505-0.219,0.711C176.186,149.1,175.82,149.562,175.475,150.037z M148.074,149.122
		c0.057,1.05,0.115,2.225,0.192,3.398c0.017,0.257,0.028,0.683,0.163,0.737c1.068,0.442,0.443,1.869,1.574,2.418
		c0.943,0.46,1.496,1.695,2.428,2.217c0.967,0.542,2.172,0.723,3.299,0.877c0.472,0.063,1.004-0.492,1.52-0.52
		c1.334-0.069,2.113-0.917,2.867-1.822c0.215-0.261,0.377-0.631,0.41-0.965c0.145-1.406,0.184-2.811-0.867-3.961
		c-0.309-0.337-0.571-0.813-0.959-0.97c-1.203-0.486-1.604-1.664-1.79-2.611c-0.216-1.084-0.78-2.547,0.692-3.423
		c0.064-0.038,0.048-0.212,0.07-0.323c0.188-0.948-0.634-2.072-1.592-2.243c-0.428-0.076-0.836-0.273-1.256-0.401
		c-0.441-0.133-1.137-0.49-1.288-0.332c-0.993,1.031-2.622,0.339-3.641,1.594c-0.747,0.917-1.276,1.892-1.595,2.921
		C147.985,146.73,148.135,147.895,148.074,149.122z"/>
</g>
</svg>
