<?xml version="1.0" encoding="utf-8"?>
<!-- Generator: Adobe Illustrator 16.0.0, SVG Export Plug-In . SVG Version: 6.00 Build 0)  -->
<!DOCTYPE svg PUBLIC "-//W3C//DTD SVG 1.1//EN" "http://www.w3.org/Graphics/SVG/1.1/DTD/svg11.dtd">
<svg version="1.1" id="Layer_1" xmlns="http://www.w3.org/2000/svg" xmlns:xlink="http://www.w3.org/1999/xlink" x="0px" y="0px"
	 width="225px" height="225px" viewBox="0 0 225 225" enable-background="new 0 0 225 225" xml:space="preserve">
<g>
	<path fill-rule="evenodd" clip-rule="evenodd" d="M61.854,144.955c2.487,2.291,2.534,4.757,1.961,7.326
		c-0.376,1.701-0.902,3.37-1.286,5.07c-0.85,3.768-0.189,5.208,3.274,6.802c4.406,2.026,9.165,2.768,13.893,3.559
		c4.658,0.775,9.343,1.39,14.005,2.137c4.628,0.741,8.188,3.224,10.902,6.971c2.186,3.02,3.785,6.366,5.23,9.782
		c0.921,2.181,0.051,4.439-1.922,5.36c-1.85,0.862-4.033,0.08-5.166-1.99c-1.254-2.291-2.377-4.653-3.58-6.976
		c-1.825-3.524-4.794-5.213-8.691-5.74c-8.275-1.117-16.605-2.015-24.56-4.777c-1.507-0.522-3.009-1.107-4.419-1.839
		c-6.088-3.154-8.281-7.877-6.871-14.626c0.149-0.71,0.329-1.421,0.568-2.104c0.727-2.063,0.453-3.486-1.854-4.493
		c-2.694-1.172-3.147-3.669-1.326-6.1c0.515-0.687,0.579-0.942-0.069-1.518c-1.73-1.535-1.715-3.357-0.766-5.344
		c0.682-1.429,2.098-3.114,1.542-4.354c-0.579-1.285-2.835-0.942-4.349-1.331c-5.621-1.452-8.514-4.522-8.417-9.04
		c0.038-1.817,0.765-3.392,1.64-4.907c3.896-6.73,7.811-13.45,11.727-20.169c1.889-3.239,2.914-6.432,2.484-10.468
		c-1.28-12.076,2.859-22.782,9.898-32.379c10.66-14.54,24.758-24.398,42.542-27.485c25.519-4.428,47.644,2.426,64.242,23.104
		c7.86,9.793,10.904,21.479,10.819,34.036c-0.084,12.498-4.045,23.8-10.004,34.576c-3.055,5.527-5.988,11.108-8.397,16.979
		c-3.197,7.792-2.931,15.358,0.218,23.076c3.174,7.774,7.278,15.023,11.699,22.124c0.5,0.803,1.053,1.575,1.5,2.405
		c1.22,2.277,0.709,4.579-1.231,5.739c-1.892,1.131-4.243,0.486-5.602-1.729c-4.37-7.121-8.776-14.234-12.078-21.941
		c-1.772-4.135-3.292-8.357-4.21-12.804c-1.283-6.208-0.258-12.105,1.756-17.977c2.798-8.162,7.239-15.519,11.188-23.116
		c6.266-12.054,8.871-24.737,6.275-38.186c-2.024-10.482-7.187-19.313-15.396-26.17c-21.882-18.283-54.159-18.022-76.072,0.494
		c-8.505,7.188-15.122,15.65-18.16,26.578c-1.282,4.621-1.659,9.291-0.88,14.027c0.469,2.861-0.34,5.471-1.423,8.039
		c-2.497,5.915-5.994,11.286-9.178,16.829c-1.558,2.709-3.072,5.445-4.706,8.108c-0.828,1.348-0.755,2.045,0.939,2.356
		c2.643,0.488,5.258,1.123,7.896,1.633c4.384,0.85,5.528,2.716,4.162,6.893c-0.136,0.415-0.253,0.833-0.388,1.247
		c-1.307,3.985-1.307,3.989,2.943,4.497c0.865,0.102,1.75,0.093,2.602,0.262c2.282,0.452,3.632,2.22,3.396,4.341
		c-0.227,2.018-1.848,3.448-4.075,3.472C64.854,145.228,63.625,145.07,61.854,144.955z"/>
	<path fill-rule="evenodd" clip-rule="evenodd" d="M159.515,85.684c5.376-5.945,4.722-13.179-1.675-18.333
		c-0.415-0.335-0.72-0.667-0.878-1.184c-1.771-5.736-6.169-9.235-10.853-12.364c-6.043-4.041-13.128-5.354-20.02-7.096
		c-7.701-1.946-15.127-1.568-21.984,2.942c-0.755,0.497-1.643,0.521-2.504,0.67c-7.494,1.3-13.891,4.249-17.285,11.638
		c-0.254,0.548-0.646,0.95-1.123,1.302c-4.311,3.179-5.918,7.707-6.482,12.807c-0.894,8.036,4.572,12.803,9.373,17.698
		c2.85,2.904,6.865,2.206,10.572,1.403c0.695-0.151,1.434-0.873,1.972,0.369c2.495,5.753,7.469,7.552,13.174,8.077
		c3.718,0.343,7.592-1.37,11.187,0.912c0.45,0.287,1.304,0.097,1.919-0.066c1.292-0.346,2.188,0.151,3.108,1.002
		c3.367,3.119,6.346,6.604,9.488,9.936c3.09,3.275,3.773,7.058,3.297,11.263c-0.157,1.369-0.368,2.741-0.656,4.089
		c-1.783,8.392-3.621,16.771-3.637,25.415c-0.122,2.772,0.084,5.53,0.475,8.267c0.754,5.309,2.315,10.349,5.264,14.879
		c1.271,1.952,3.59,2.122,4.631,0.387c0.808-1.345,0.174-2.505-0.53-3.649c-2.358-3.845-3.636-8.047-4.208-12.497
		c-1.148-8.938,0.137-17.689,2.01-26.394c1.285-5.97,2.81-11.922,1.506-18.1c-0.699-3.323-0.63-6.626-0.158-9.972
		c0.167-1.192,0.568-1.753,1.74-2.039c3.561-0.87,6.664-2.709,8.994-5.47c3.607-4.273,6.135-8.94,2.877-14.632
		C158.73,86.284,159.182,86.05,159.515,85.684z M154.4,82.918c-0.508,0.271-1.002,0.556-1.641,0.454
		c-5.842-0.938-11.215,0.885-16.514,2.94c-2.227,0.863-4.356,1.989-6.486,3.082c-1.546,0.793-2.374,2.096-1.465,3.766
		c0.916,1.688,2.459,1.606,3.966,0.789c4.755-2.578,9.716-4.571,15.081-5.453c1.81-0.297,3.623-0.385,5.394,0.201
		c2.405,0.794,3.06,2.063,2.376,4.499c-1.531,5.447-7.188,9.463-13.052,9.259c-0.581-0.02-1.166-0.159-1.737-0.114
		c-1.26,0.097-2.23,0.652-2.539,1.983c-0.301,1.302,0.112,2.499,1.34,2.883c1.833,0.576,1.184,1.574,0.734,2.904
		c-3.34-3.667-6.56-7.014-10.068-10.08c-1.467-1.282-2.879-1.789-4.752-1.03c-1.217,0.493-2.291,0.481-3.051-1.057
		c-1.193-2.417-2.663-2.58-4.875-0.813c-4.087,3.266-12.672,0.337-13.908-4.745c-0.822-3.369,3.394-7.652,6.693-6.658
		c1.643,0.496,2.891,0.304,3.809-1.093c2.455-3.727,6.102-4.967,10.31-5.005c1.31-0.012,2.176-0.51,2.835-1.628
		c2.225-3.77,6.509-5.655,10.979-4.888c0.358,0.061,0.706,0.181,1.065,0.233c2.054,0.302,3.51-0.486,3.655-2.107
		c0.174-1.912-1.028-2.733-2.724-3.028c-6.464-1.125-12.136,0.17-16.446,5.479c-0.567,0.698-1.256,0.919-2.081,0.98
		c-3.938,0.292-7.273,1.851-9.989,4.732c-0.446,0.474-0.884,0.982-1.644,0.913c-5.326-0.488-8.293,2.786-10.684,6.831
		c-1.675,2.837-6.529,4.388-9.439,2.803c-1.386-0.755-2.133-1.788-1.67-3.569c0.8-3.088-0.458-4.438-3.443-3.676
		c-0.965,0.246-1.131-0.182-1.453-0.728c-2.482-4.208-0.482-12.222,3.733-14.829c0.836-0.516,1.506-1.101,1.856-2.037
		c2.188-5.824,6.895-8.408,12.596-9.489c2.669-0.507,5.094-1.296,7.488-2.654c5.311-3.009,11.037-2.725,16.741-1.245
		c3.793,0.985,7.552,2.108,11.303,3.242c5.078,1.534,9.215,4.538,12.792,8.38c0.801,0.86,1.523,1.795,1.908,2.896
		c0.859,2.449,1.879,4.433,4.28,6.117C159.42,74.988,158.445,80.755,154.4,82.918z"/>
</g>
</svg>
