<?xml version="1.0" encoding="utf-8"?>
<!-- Generator: Adobe Illustrator 16.0.0, SVG Export Plug-In . SVG Version: 6.00 Build 0)  -->
<!DOCTYPE svg PUBLIC "-//W3C//DTD SVG 1.1//EN" "http://www.w3.org/Graphics/SVG/1.1/DTD/svg11.dtd">
<svg version="1.1" id="Layer_1" xmlns="http://www.w3.org/2000/svg" xmlns:xlink="http://www.w3.org/1999/xlink" x="0px" y="0px"
	 width="225px" height="225px" viewBox="0 0 225 225" enable-background="new 0 0 225 225" xml:space="preserve">
<g>
	<path fill-rule="evenodd" clip-rule="evenodd" stroke="#000000" stroke-miterlimit="10" d="M186.526,200.816
		c-47.575,0-95.146,0-142.72,0c0-5.197,0-10.395,0-15.591c0.063-0.323,0.157-0.644,0.188-0.97
		c0.812-8.349,1.476-16.717,2.487-25.041c0.498-4.108,1.576-8.153,2.508-12.199c0.666-2.882,2.227-5.244,4.692-6.952
		c1.474-1.021,2.911-2.105,4.431-3.056c9.694-6.057,20.045-10.873,30.27-15.925c1.814-0.896,3.638-1.77,5.321-2.587
		c-0.706-0.779-1.364-1.57-2.087-2.297c-5.338-5.361-8.191-11.841-8.391-19.378c-0.164-6.157-0.042-12.32-0.047-18.482
		c0-0.914,0-1.828,0-2.71c-0.604-0.052-1.064-0.088-1.525-0.133c-1.723-0.171-2.295-0.749-2.303-2.471
		c-0.021-3.959-0.012-7.919,0.011-11.877c0.003-0.417,0.034-0.955,0.281-1.229c0.536-0.592,0.54-1.241,0.528-1.941
		c-0.012-0.9-0.016-1.799-0.001-2.698c0.117-6.874,2.353-12.911,7.174-17.887c5.302-5.471,11.969-8.263,19.308-9.669
		c1.823-0.349,3.677-0.544,5.516-0.809c1.998,0,3.998,0,5.996,0c0.291,0.059,0.576,0.149,0.869,0.173
		c5.492,0.472,10.758,1.773,15.699,4.257c4.6,2.313,8.488,5.466,11.33,9.804c3.279,5.005,4.408,10.559,4.156,16.467
		c-0.028,0.663,0.159,1.342,0.304,2.002c0.111,0.503,0.448,0.986,0.452,1.479c0.037,4.063,0.033,8.127,0.016,12.19
		c-0.008,1.397-0.828,2.217-2.227,2.301c-0.485,0.028-0.976,0.004-1.615,0.004c0,2.201-0.005,4.255,0.001,6.31
		c0.014,4.828,0.102,9.656,0.032,14.483c-0.1,6.913-2.439,13.022-6.965,18.258c-1.135,1.314-2.423,2.497-3.682,3.78
		c0.22,0.111,0.395,0.2,0.57,0.288c9.267,4.662,18.564,9.26,27.784,14.015c4.431,2.283,8.767,4.787,12.579,8.049
		c1.041,0.89,2.105,1.948,2.666,3.158c0.94,2.036,1.63,4.221,2.172,6.404c1.605,6.481,2.204,13.119,2.818,19.747
		c0.479,5.171,0.885,10.35,1.281,15.529c0.055,0.704-0.131,1.428-0.215,2.22c0.066,0.124,0.346,0.408,0.348,0.695
		C186.558,192.625,186.537,196.72,186.526,200.816z M85.923,75.6c0,1.638,0.001,3.097,0,4.554
		C85.92,85.25,85.955,90.346,85.9,95.441c-0.047,4.526,0.882,8.81,3.09,12.76c4.305,7.707,10.819,12.377,19.613,13.428
		c3.684,0.439,7.448,0.227,11.175,0.21c2.96-0.013,5.822-0.693,8.547-1.825c9.895-4.109,16.169-13.528,16.193-24.246
		c0.013-5.397,0.005-10.792,0.007-16.188c0-1.289,0-2.578,0-3.811c-1.732-0.635-2.609,0.308-3.615,1.411
		c-8.48,9.313-23.351,8.867-31.294-0.906c-0.405-0.499-0.794-0.688-1.419-0.686C101.87,75.607,95.542,75.6,89.215,75.6
		C88.156,75.6,87.1,75.6,85.923,75.6z M184.23,187.816c-0.162-0.705-0.4-1.382-0.468-2.076c-0.892-8.975-1.706-17.958-2.653-26.927
		c-0.446-4.205-1.24-8.372-2.79-12.329c-0.47-1.198-1.248-2.351-2.131-3.292c-0.917-0.98-2.097-1.736-3.224-2.497
		c-5.748-3.872-11.9-7.034-18.055-10.188c-0.951-0.488-1.908-0.96-3.094-1.555c0.191,0.485,0.264,0.697,0.355,0.899
		c0.932,2.024,1.881,4.041,2.792,6.075c0.411,0.921,0.156,1.61-0.718,1.955c-1.916,0.756-3.851,1.463-5.77,2.213
		c-1.061,0.415-2.104,0.873-3.25,1.352c3.345,3.184,6.563,6.256,9.793,9.318c1.928,1.827,1.928,1.815,0.389,4.094
		c-5.082,7.519-10.16,15.039-15.238,22.561c-2.328,3.451-4.65,6.908-7.001,10.396C150.264,187.816,167.303,187.816,184.23,187.816z
		 M46.115,187.807c16.939,0,33.975,0,51.098,0c-0.299-0.411-0.559-0.743-0.794-1.092c-7.405-10.965-14.806-21.934-22.209-32.9
		c-0.636-0.943-0.585-1.473,0.253-2.262c2.59-2.439,5.197-4.859,7.769-7.319c0.941-0.901,1.802-1.888,2.738-2.877
		c-2.821-1.104-5.636-2.202-8.447-3.309c-1.464-0.575-1.673-1.155-0.971-2.605c0.868-1.794,1.739-3.588,2.591-5.392
		c0.129-0.274,0.159-0.599,0.283-1.083c-0.842,0.431-1.501,0.745-2.137,1.098c-5.958,3.306-11.911,6.618-17.867,9.927
		c-3.979,2.211-6.745,5.315-7.5,9.971c-0.798,4.914-1.873,9.792-2.443,14.732c-0.814,7.041-1.271,14.124-1.904,21.187
		C46.518,186.51,46.283,187.121,46.115,187.807z M100.741,122.363c0.046,0.641,0.063,1.037,0.106,1.43
		c0.57,5.127,1.153,10.254,1.715,15.382c1.01,9.23,2.004,18.463,3.008,27.695c0.667,6.122,1.331,12.244,2.01,18.364
		c0.099,0.888,0.396,1.784-0.628,2.556c5.562,0,10.89,0,16.007,0c-0.094-0.695-0.314-1.354-0.247-1.981
		c1.05-9.695,2.146-19.387,3.212-29.08c1.133-10.289,2.248-20.579,3.368-30.869c0.12-1.104,0.226-2.208,0.355-3.49
		c-4.743,2.091-9.574,2.243-14.461,2.237C110.303,124.602,105.468,124.467,100.741,122.363z M82.726,58.642
		c0.438,0.073,0.598,0.125,0.759,0.125c6.99,0.003,13.982-0.003,20.974,0.016c0.624,0.001,0.771-0.313,0.892-0.819
		c1.972-8.346,9.152-14.98,17.684-15.912c8.481-0.925,15.138,2.271,20.016,9.207c1.449,2.057,2.416,4.359,2.929,6.831
		c0.124,0.592,0.477,0.839,0.976,0.643c0.254-0.101,0.506-0.525,0.536-0.826c0.077-0.825,0.056-1.663,0.04-2.494
		c-0.166-8.489-3.839-15.067-10.862-19.775c-5.325-3.57-11.29-5.323-17.618-5.824c-8.592-0.679-16.81,0.653-24.296,5.168
		c-6.105,3.683-10.184,8.919-11.438,16.044C82.876,53.521,82.909,56.099,82.726,58.642z M102.086,187.826
		c-4.295-10.191-7.128-20.728-9.131-31.502c-2.01-10.813-3.064-21.723-3.166-32.747c-0.163,0.017-0.27,0.003-0.351,0.041
		c-2.216,1.069-4.433,2.141-6.643,3.225c-0.167,0.081-0.345,0.226-0.421,0.388c-1.346,2.845-2.676,5.695-4.029,8.588
		c0.257,0.129,0.424,0.23,0.603,0.301c2.876,1.13,5.751,2.26,8.632,3.375c1.686,0.653,1.893,1.617,0.572,2.87
		c-2.269,2.148-4.556,4.279-6.829,6.424c-1.467,1.384-2.925,2.776-4.413,4.191c3.723,5.515,7.387,10.94,11.048,16.368
		c3.552,5.265,7.085,10.546,10.667,15.79c0.629,0.92,0.908,1.729-0.013,2.688C99.889,187.826,101.017,187.826,102.086,187.826z
		 M140.62,123.451c-0.332,22.308-4.017,43.787-12.321,64.371c1.021,0,2.148,0,3.48,0c-0.906-0.852-0.784-1.649-0.217-2.489
		c5.945-8.782,11.881-17.571,17.817-26.361c1.336-1.978,2.665-3.961,4.017-5.972c-0.225-0.238-0.395-0.438-0.584-0.616
		c-3.545-3.365-7.094-6.724-10.637-10.091c-1.271-1.209-1.078-2.195,0.545-2.825c2.162-0.84,4.329-1.669,6.491-2.509
		c0.916-0.354,1.827-0.727,2.772-1.103c-1.359-2.919-2.656-5.725-3.973-8.522c-0.088-0.19-0.266-0.387-0.451-0.479
		C145.301,125.733,143.033,124.631,140.62,123.451z M143.83,62.925c-0.001-10.105-8.146-18.436-18.096-18.394
		c-10.145,0.044-18.174,7.999-18.254,18.439c-0.076,10.017,8.291,18.257,18.268,18.241C135.637,81.194,143.83,72.909,143.83,62.925z
		 M105.551,187.821c-0.189-0.465-0.46-0.893-0.534-1.354c-0.188-1.147-0.295-2.309-0.421-3.467
		c-0.943-8.666-1.88-17.333-2.822-25.999c-1.276-11.71-2.557-23.418-3.833-35.128c-0.145-1.329-1.221-1.893-2.411-1.264
		c-0.705,0.373-1.4,0.782-2.144,1.06c-0.681,0.254-0.849,0.651-0.853,1.344c-0.045,7.163,0.464,14.29,1.317,21.398
		c0.886,7.37,2.226,14.658,4.002,21.864c1.571,6.368,3.549,12.609,5.956,18.711c0.383,0.966,0.893,1.874-0.182,2.834
		C104.393,187.821,104.983,187.821,105.551,187.821z M126.74,187.819c-0.964-0.814-0.711-1.652-0.362-2.522
		c3.209-7.984,5.597-16.217,7.381-24.629c2.533-11.947,3.978-24.017,4.105-36.236c0.024-2.344-0.051-2.211-2.091-3.389
		c-2.281-1.318-3.205-0.769-3.479,1.904c-1.007,9.838-2.122,19.664-3.203,29.493c-1.184,10.789-2.368,21.579-3.569,32.366
		c-0.115,1.014-0.361,2.013-0.545,3.013C125.373,187.819,125.963,187.819,126.74,187.819z M107.259,72.832
		c-1.88-3.648-2.614-7.384-2.46-11.295c-7.64,0-15.168,0-22.723,0c0,3.805,0,7.514,0,11.295
		C90.463,72.832,98.766,72.832,107.259,72.832z M148.188,72.833c0-3.856,0-7.596,0-11.291c-0.641,0-1.15,0-1.455,0
		c-0.238,2.009-0.324,3.942-0.727,5.807c-0.4,1.856-1.115,3.643-1.703,5.484C145.576,72.833,146.862,72.833,148.188,72.833z
		 M67.535,193.321c0.061-0.083,0.122-0.168,0.185-0.25c-0.265-0.798-0.888-1.196-1.665-0.987c-0.446,0.121-0.967,0.595-1.123,1.029
		c-0.23,0.643,0.286,1.009,0.918,1.147c0.29,0.064,0.603,0.116,0.849,0.267c0.194,0.118,0.46,0.441,0.413,0.562
		c-0.088,0.224-0.402,0.53-0.586,0.507c-0.38-0.048-0.74-0.279-1.098-0.454c-0.164-0.08-0.307-0.204-0.596-0.402
		c-0.001,1.033,0.49,1.377,1.211,1.459c0.741,0.083,1.426-0.057,1.709-0.862c0.264-0.753-0.201-1.204-1.383-1.53
		c-0.306-0.083-0.58-0.342-0.812-0.578c-0.044-0.046,0.181-0.516,0.292-0.521c0.365-0.013,0.749,0.057,1.102,0.174
		C67.17,192.953,67.342,193.17,67.535,193.321z M54.191,194.781c-0.025-1.186-0.347-1.572-1.195-1.585
		c-0.877-0.015-1.388,0.506-1.413,1.434c-0.026,0.972,0.505,1.581,1.374,1.585c0.717,0.002,1.026-0.278,1.058-0.962
		c-1.362,0.606-1.593,0.555-1.753-0.472C52.893,194.781,53.514,194.781,54.191,194.781z M49.904,195.434
		c-0.266-0.771-0.47-1.401-0.699-2.022c-0.477-1.29-0.482-1.287-1.087-1.246c0.444,1.233,0.871,2.453,1.335,3.657
		c0.064,0.168,0.311,0.357,0.481,0.367c0.161,0.008,0.426-0.173,0.487-0.332c0.477-1.227,0.914-2.468,1.388-3.77
		c-0.226-0.024-0.446-0.078-0.462-0.044C50.877,193.114,50.426,194.192,49.904,195.434z M78.642,196.337
		c0.089-0.088,0.177-0.173,0.265-0.26c-0.355-0.544-0.715-1.088-1.076-1.641c0.354-0.4,0.664-0.749,0.973-1.098
		c-0.067-0.074-0.135-0.148-0.203-0.223c-0.454,0.357-0.908,0.716-1.465,1.154c-0.065-0.829-0.122-1.533-0.195-2.47
		c-0.654,0.981-0.588,3.966-0.021,4.433c0.104-0.444,0.203-0.861,0.33-1.397C77.783,195.412,78.213,195.873,78.642,196.337z
		 M62.516,194.688c-0.005-0.856-0.66-1.509-1.504-1.494c-0.837,0.014-1.391,0.59-1.41,1.463c-0.017,0.903,0.58,1.556,1.428,1.559
		C61.863,196.218,62.519,195.543,62.516,194.688z M71.555,196.215c0.842-0.025,1.447-0.711,1.408-1.596
		c-0.037-0.854-0.627-1.428-1.463-1.424c-0.867,0.002-1.482,0.646-1.468,1.53C70.049,195.597,70.708,196.241,71.555,196.215z
		 M151.463,194.702c-0.393-0.666-1.004-1.05-1.593-0.452c-0.267,0.271-0.292,1.176-0.045,1.471c0.608,0.725,1.214,0.234,1.649-0.393
		c0.871,0.945,1.31,0.965,1.744,0.229c-0.357-0.047-0.769-0.054-1.135-0.188c-0.074-0.028-0.031-0.746,0.045-0.765
		c0.366-0.085,0.764-0.038,1.117-0.038C152.893,193.733,152.351,193.735,151.463,194.702z M57.342,194.22
		c-0.279-0.95-0.928-1.149-1.707-0.976c-0.766,0.171-1.033,0.772-1.021,1.504c0.014,0.746,0.363,1.292,1.119,1.433
		c0.752,0.141,1.338-0.104,1.602-1.009c-0.713,0.025-1.344,1.091-1.935,0.133c-0.185-0.299-0.187-0.894-0.009-1.204
		C56.001,193.032,56.637,194.281,57.342,194.22z M146.188,195.208c0.182,0.77,0.451,0.981,1.031,0.803
		c0.288-0.088,0.656-0.402,0.697-0.66c0.035-0.216-0.336-0.519-0.563-0.746c-0.242-0.242-0.527-0.441-0.793-0.66
		c0.373,0.049,0.746,0.1,1.121,0.143c0.057,0.006,0.117-0.025,0.178-0.039c-0.324-0.702-0.94-0.896-1.521-0.53
		c-0.453,0.288-0.949,0.511-1.47,0.781c0,0.436,0,1.052,0,1.668c0.61-1.63,0.616-1.644,2.05-1.128
		c0.229,0.081,0.388,0.349,0.58,0.53c-0.289,0.063-0.579,0.176-0.865,0.17C146.482,195.536,146.336,195.326,146.188,195.208z
		 M76.018,195.116c-0.756,0.157-1.337,1.075-1.938,0.236c-0.205-0.284-0.239-0.888-0.076-1.203c0.589-1.148,1.285,0.105,2.008,0.092
		c-0.278-0.952-0.895-1.146-1.651-1.009c-0.783,0.144-1.089,0.756-1.102,1.458c-0.013,0.713,0.329,1.31,1.085,1.475
		C75.098,196.329,75.716,196.124,76.018,195.116z M163.379,195.965c0.105-0.007,0.209-0.014,0.314-0.021
		c0-0.424,0.072-0.867-0.026-1.267c-0.063-0.257-0.36-0.616-0.585-0.643c-0.723-0.083-1.461-0.03-2.137-0.03c0,0.76,0,1.356,0,1.952
		c0.255-0.239,0.236-0.504,0.318-0.733c0.107-0.299,0.295-0.571,0.447-0.854c0.129,0.271,0.293,0.534,0.378,0.82
		c0.074,0.251,0.062,0.53,0.087,0.796c0.086,0.001,0.174,0.004,0.262,0.004c0.023-0.337,0.006-0.686,0.085-1.009
		c0.055-0.219,0.247-0.404,0.378-0.604c0.142,0.19,0.357,0.36,0.411,0.573C163.393,195.273,163.363,195.624,163.379,195.965z
		 M69.75,196.031c-0.889-0.932-0.887-1.933-0.025-2.602c-0.307-0.327-0.613-0.653-0.93-0.993c-0.273,0.372-0.523,0.711-0.773,1.051
		c0.096-0.007,0.193-0.014,0.291-0.021c0.074,0.598,0.18,1.192,0.219,1.793C68.597,196.235,68.762,196.353,69.75,196.031z
		 M59.35,196.1c-0.988-0.958-0.987-1.939-0.133-2.686c-0.301-0.32-0.597-0.636-0.912-0.97c-0.24,0.346-0.467,0.675-0.695,1.003
		c0.291,0.587,0.41,1.191,0.438,1.8C58.084,196.079,58.436,196.384,59.35,196.1z M181.523,193.465
		c-0.1-0.048-0.199-0.095-0.299-0.143c-0.455,0.643-0.91,1.283-1.33,1.88c0.621,0.251,1.07,0.433,1.738,0.702
		C181.6,195.138,181.561,194.301,181.523,193.465z M137.618,195.507c0-0.101,0-0.203,0-0.305c0.431-0.063,0.86-0.126,1.292-0.188
		c0.045-0.12,0.09-0.24,0.137-0.361c-0.359-0.215-0.723-0.604-1.074-0.592c-0.284,0.008-0.755,0.484-0.774,0.778
		c-0.026,0.37,0.235,0.889,0.542,1.108c0.204,0.145,0.703-0.121,1.069-0.202c-0.028-0.08-0.057-0.159-0.085-0.238
		C138.357,195.507,137.986,195.507,137.618,195.507z M63.074,193.296c0,0.951,0,1.926,0,2.901c0.132,0.008,0.265,0.016,0.396,0.023
		c0.029-0.531-0.056-1.105,0.12-1.583c0.177-0.476,0.616-0.856,0.988-1.342C64.047,193.296,63.558,193.296,63.074,193.296z
		 M177.423,193.43c-0.722,0-1.279,0-1.836,0c-0.003,0.065-0.008,0.13-0.012,0.192c0.302,0.04,0.606,0.08,1.007,0.133
		c-0.212,0.273-0.361,0.464-0.395,0.507c0.281,0.424,0.495,0.75,0.711,1.074c-0.457,0.055-0.917,0.109-1.395,0.166
		c0.164,0.487,0.654,0.715,1.189,0.487c1.178-0.504,0.634-1.195,0.07-1.811C176.961,193.954,177.129,193.763,177.423,193.43z
		 M168.939,194.054c0.732-0.081,1.141-0.128,1.549-0.173c-0.197,0.401-0.357,0.828-0.604,1.197
		c-0.196,0.295-0.497,0.521-0.841,0.869c0.759,0,1.307,0,1.855,0c0.002-0.056,0.004-0.11,0.007-0.165
		c-0.288-0.067-0.576-0.136-0.669-0.158c0.226-0.653,0.465-1.249,0.601-1.868c0.015-0.065-0.589-0.39-0.888-0.365
		C169.662,193.414,169.4,193.734,168.939,194.054z M175.08,195.962c0.008-0.053,0.014-0.106,0.02-0.159
		c-0.285-0.074-0.57-0.15-0.701-0.184c0.235-0.637,0.485-1.236,0.638-1.858c0.015-0.059-0.591-0.395-0.894-0.372
		c-0.283,0.02-0.547,0.343-0.819,0.533c0.054,0.071,0.106,0.142,0.159,0.213c0.08-0.036,0.158-0.091,0.243-0.104
		c0.315-0.049,0.634-0.083,0.951-0.124c-0.092,0.285-0.106,0.642-0.29,0.839c-0.344,0.37-0.786,0.646-1.187,0.963
		c0.077,0.084,0.153,0.17,0.23,0.254C173.98,195.962,174.529,195.962,175.08,195.962z M172.06,195.563
		c0.273-0.298,0.537-0.544,0.753-0.825c0.533-0.691,0.127-1.494-0.715-1.371c-0.305,0.044-0.572,0.338-0.98,0.596
		c0.685,0,1.102,0,1.518,0c-0.194,0.35-0.359,0.719-0.589,1.04c-0.227,0.315-0.519,0.581-0.868,0.964c0.752,0,1.287,0,1.821,0
		c0.005-0.053,0.011-0.106,0.017-0.159C172.721,195.73,172.426,195.657,172.06,195.563z M135.051,193.384
		c-0.12,0.027-0.24,0.054-0.361,0.082c0.293,0.788,0.57,1.584,0.902,2.355c0.042,0.101,0.52,0.145,0.536,0.106
		c0.339-0.808,0.64-1.629,0.948-2.448c-0.111-0.038-0.225-0.076-0.336-0.114c-0.27,0.657-0.539,1.315-0.868,2.12
		C135.547,194.657,135.3,194.02,135.051,193.384z M165.755,195.366c-0.054,0.063-0.107,0.126-0.161,0.188
		c0.332,0.162,0.664,0.45,0.995,0.449c0.292,0,0.801-0.293,0.831-0.508c0.055-0.419-0.16-0.872-0.305-1.493
		c0.014-0.022,0.162-0.254,0.367-0.573c-0.657,0-1.191,0-1.725,0c-0.002,0.062-0.004,0.122-0.006,0.182
		c0.31,0.044,0.619,0.086,0.971,0.136c-0.166,0.265-0.309,0.494-0.389,0.623c0.314,0.3,0.581,0.505,0.771,0.764
		c0.043,0.061-0.176,0.449-0.262,0.444C166.479,195.557,166.118,195.445,165.755,195.366z M179.621,193.441
		c-0.733,0-1.272,0-1.811,0c0.001,0.062,0.004,0.123,0.006,0.184c0.302,0.041,0.603,0.083,0.951,0.129
		c-0.18,0.297-0.317,0.525-0.331,0.547c0.323,0.418,0.545,0.705,0.767,0.991c-0.443,0.092-0.889,0.182-1.4,0.288
		c0.111,0.428,0.613,0.625,1.127,0.414c1.187-0.485,0.639-1.191,0.113-1.815C179.22,193.954,179.372,193.76,179.621,193.441z
		 M144.681,195.271c0.006-0.143,0.011-0.284,0.019-0.428c-0.373-0.281-0.763-0.802-1.113-0.775
		c-0.361,0.026-0.941,0.579-0.949,0.914c-0.008,0.345,0.522,0.935,0.881,0.99C143.861,196.024,144.289,195.526,144.681,195.271z
		 M155.162,196.064c0.076-0.051,0.153-0.1,0.23-0.149c-0.547-0.59-0.902-1.194-0.264-1.928c-0.287,0.222-0.577,0.443-0.897,0.688
		c-0.071-0.47-0.128-0.852-0.185-1.232c-0.057,0.012-0.113,0.024-0.17,0.036c0,0.83,0,1.66,0,2.489
		c0.043,0.002,0.088,0.004,0.134,0.005c0.102-0.244,0.204-0.488,0.328-0.784C154.657,195.528,154.91,195.797,155.162,196.064z
		 M160.746,195.273c0.002-0.155,0.003-0.313,0.006-0.471c-0.371-0.268-0.748-0.748-1.112-0.74c-0.314,0.007-0.788,0.524-0.886,0.896
		c-0.144,0.555,0.183,1.128,0.841,1.042C160.003,195.948,160.363,195.529,160.746,195.273z M140.861,194.529
		c0.045-0.057,0.091-0.111,0.136-0.168c-0.372-0.11-0.851-0.414-1.096-0.283c-0.321,0.171-0.632,0.688-0.627,1.053
		c0.005,0.303,0.418,0.727,0.747,0.858c0.227,0.092,0.619-0.219,1.047-0.396c-0.616-0.066-1.021-0.039-1.342-0.189
		c-0.103-0.047-0.066-0.788,0.053-0.834C140.098,194.448,140.494,194.529,140.861,194.529z M158.268,194.518
		c0.041-0.057,0.082-0.115,0.124-0.173c-0.382-0.103-0.866-0.396-1.118-0.26c-0.318,0.171-0.616,0.698-0.605,1.064
		c0.008,0.302,0.43,0.715,0.76,0.842c0.229,0.087,0.609-0.23,1.002-0.401c-0.603-0.072-1.003-0.05-1.323-0.199
		c-0.097-0.045-0.052-0.782,0.073-0.832C157.498,194.433,157.9,194.518,158.268,194.518z M142.143,195.949
		c-0.064-0.818-0.129-1.64-0.192-2.459C141.173,194.335,141.523,195.885,142.143,195.949z M148.877,193.244
		c-0.95,0.981-0.286,1.768-0.314,2.511c-0.006,0.103,0.357,0.218,0.479,0.288C148.987,195.118,148.939,194.313,148.877,193.244z
		 M165.35,193.346c-0.096-0.05-0.193-0.102-0.289-0.153c-0.372,1.108-0.744,2.217-1.117,3.325c0.094,0.032,0.188,0.066,0.283,0.099
		C164.601,195.526,164.977,194.437,165.35,193.346z"/>
	<path fill-rule="evenodd" clip-rule="evenodd" stroke="#000000" stroke-miterlimit="10" d="M112.352,62.92
		c-0.133-7.53,6.199-13.557,13.373-13.525c7.357,0.032,13.311,6.081,13.271,13.528c-0.037,7.115-5.73,13.371-13.332,13.36
		C118.303,76.274,112.363,70.312,112.352,62.92z M125.711,73.602c5.82-0.013,10.633-4.892,10.611-10.755
		c-0.021-5.893-4.834-10.776-10.611-10.753c-6.013,0.024-10.684,4.862-10.676,10.842C115.043,68.792,119.869,73.616,125.711,73.602z
		"/>
	<path fill-rule="evenodd" clip-rule="evenodd" stroke="#000000" stroke-miterlimit="10" d="M134.38,62.416
		c0.031,1.186-0.36,1.747-1.246,1.787c-0.882,0.04-1.31-0.45-1.437-1.648c-0.371-3.473-2.479-5.564-5.928-5.83
		c-0.902-0.069-1.342-0.54-1.404-1.37c-0.057-0.773,0.617-1.32,1.525-1.329C130.301,53.979,134.258,57.889,134.38,62.416z"/>
	<rect x="46.801" y="190.96" fill-rule="evenodd" clip-rule="evenodd" width="138.255" height="7.705"/>
</g>
</svg>
