<?xml version="1.0" encoding="utf-8"?>
<!-- Generator: Adobe Illustrator 16.0.0, SVG Export Plug-In . SVG Version: 6.00 Build 0)  -->
<!DOCTYPE svg PUBLIC "-//W3C//DTD SVG 1.1//EN" "http://www.w3.org/Graphics/SVG/1.1/DTD/svg11.dtd">
<svg version="1.1" id="Layer_1" xmlns="http://www.w3.org/2000/svg" xmlns:xlink="http://www.w3.org/1999/xlink" x="0px" y="0px"
	 width="225px" height="225px" viewBox="0 0 225 225" enable-background="new 0 0 225 225" xml:space="preserve">
<g>
	<path fill-rule="evenodd" clip-rule="evenodd" d="M95.74,20.984c0.027,0.377,0.018,0.649,0.559,0.813
		c0.846,0.256,1.611,0.774,2.412,1.182c0.782,0.398,1.34,1.108,2.282,1.345c0.732,0.184,1.323,0.884,2.015,1.292
		c0.647,0.379,1.363,0.637,2.012,1.013c0.691,0.401,1.334,0.884,2.007,1.319c0.566,0.368,1.147,0.711,1.714,1.078
		c0.803,0.518,1.885,0.587,2.436,1.514c0.025,0.041,0.117,0.038,0.174,0.064c0.676,0.295,1.697,0.418,1.953,0.925
		c0.469,0.932,1.629,0.349,2.092,1.352c0.261,0.57,1.488,0.629,2.162,1.093c0.56,0.384,1.365,0.473,1.664,1.249
		c0.053,0.139,0.433,0.167,0.668,0.215c0.219,0.045,0.445,0.049,0.58,0.273c0.318,0.188,0.629,0.388,0.955,0.562
		c0.506,0.271,1.316,0.408,1.477,0.809c0.391,0.979,1.775,0.395,1.998,1.459c0.015,0.075,0.277,0.117,0.43,0.142
		c0.867,0.143,1.438,0.71,1.963,1.35c0.057,0.069,0.132,0.178,0.195,0.176c1.474-0.053,2.012,1.523,3.326,1.886
		c0.797,0.221,1.391,1.166,2.081,1.777c0.135,0.12,0.283,0.253,0.448,0.304c0.836,0.258,1.406,0.807,1.881,1.525
		c0.213,0.321,0.588,0.544,0.909,0.782c0.548,0.403,1.116,0.775,1.664,1.175c0.446,0.326,0.895,0.651,1.309,1.015
		c0.802,0.707,1.618,1.405,2.358,2.174c0.649,0.675,1.16,1.482,1.809,2.156c0.641,0.667,1.406,1.215,2.066,1.866
		c0.387,0.381,0.682,0.856,1.006,1.296c0.619,0.839,1.08,1.89,1.881,2.477c1.137,0.831,1.53,2.104,2.364,3.09
		c0.237,0.281,0.451,0.651,0.761,0.791c0.851,0.383,0.498,1.534,1.412,1.962c0.484,0.225,0.646,1.091,1.012,1.63
		c0.389,0.575,0.861,1.091,1.266,1.656c0.141,0.196,0.156,0.475,0.284,0.684c0.17,0.281,0.393,0.53,0.595,0.793
		c0.07,0.095,0.2,0.179,0.212,0.278c0.114,1.021,0.687,1.759,1.429,2.41c0.098,0.086,0.082,0.297,0.127,0.449
		c0.113,0.385-0.102,0.972,0.613,0.993c0.046,0.001,0.108,0.073,0.128,0.127c0.306,0.835,0.552,1.697,0.92,2.503
		c0.351,0.768,0.825,1.48,1.248,2.215c0.061,0.107,0.175,0.189,0.212,0.302c0.338,1.036,0.436,2.249,1.055,3.064
		c0.651,0.855,0.437,1.838,0.859,2.598c0.754,1.353,1.11,2.779,1.557,4.229c0.318,1.03,0.392,2.242,0.91,3.057
		c0.621,0.973,0.31,2.005,0.729,2.839c0.693,1.376,0.226,3.036,0.861,4.185c0.881,1.59,0.381,3.136,0.658,4.67
		c0.028,0.157-0.027,0.405,0.057,0.463c1.012,0.687,0.646,1.74,0.657,2.635c0.089,8.27,0.133,16.541,0.192,24.81
		c0.004,0.385-0.027,0.788,0.08,1.146c0.063,0.21,0.351,0.448,0.57,0.487c0.214,0.04,0.485-0.133,0.701-0.263
		c0.141-0.085,0.246-0.393,0.334-0.379c1.652,0.254,2.944-1.215,4.636-0.931c0.538,0.091,1.159-0.492,1.749-0.51
		c2.246-0.065,4.495-0.026,6.742-0.026c0.783,0.89,1.859,0.464,2.805,0.628c0.58,0.101,1.322-0.223,1.625,0.648
		c0.035,0.102,0.412,0.079,0.631,0.122c0.654,0.133,1.52-0.276,1.842,0.717c0.007,0.02,0.057,0.029,0.088,0.039
		c0.836,0.285,1.709,0.495,2.498,0.88c0.768,0.374,1.451,0.923,2.168,1.401c0.373,0.249,0.704,0.605,1.111,0.751
		c1.313,0.467,2.117,1.516,3.013,2.471c0.776,0.831,1.502,1.724,2.367,2.451c1.054,0.886,1.783,1.931,2.446,3.136
		c0.549,0.996,1.032,2.104,1.677,2.941c0.579,0.754,0.165,1.985,1.282,2.333c0.018,0.005,0.023,0.058,0.029,0.09
		c0.291,1.418,0.561,2.842,0.879,4.254c0.161,0.714,0.577,1.405,0.596,2.114c0.063,2.498,0.045,5.002-0.038,7.501
		c-0.023,0.718-0.425,1.415-0.563,2.14c-0.155,0.809,0.195,1.726-0.665,2.374c-0.175,0.132-0.08,0.611-0.126,0.927
		c-0.074,0.508,0.102,1.122-0.63,1.354c-0.106,0.034-0.118,0.387-0.163,0.594c-0.091,0.423,0.139,1.024-0.615,1.071
		c-0.041,0.003-0.119,0.103-0.111,0.139c0.256,0.994-0.704,1.481-0.975,2.27c-0.207,0.612-0.852,1.074-1.304,1.603
		c-0.021,0.021-0.083,0.025-0.083,0.038c0.014,1.144-0.922,1.358-1.669,1.846c-0.682,0.444-1.194,0.569-1.827-0.01
		c-0.069-0.063-0.139-0.128-0.218-0.182c-0.396-0.274-1.032-0.474-1.146-0.835c-0.211-0.68-0.322-1.52-0.104-2.168
		c0.251-0.746,0.907-1.354,1.379-2.027c0.1-0.144,0.144-0.327,0.239-0.478c0.436-0.694,0.881-1.386,1.322-2.078
		c0.065-0.102,0.174-0.199,0.188-0.309c0.102-0.767,0.371-1.421,0.729-2.139c0.601-1.206,0.647-2.688,0.921-4.055
		c0.214-1.077,0.434-2.154,0.615-3.237c0.064-0.374,0.077-0.774,0.021-1.149c-0.189-1.247-0.421-2.489-0.638-3.731
		c-0.137-0.773,0.254-1.677-0.664-2.269c-0.186-0.118-0.074-0.671-0.127-1.019c-0.07-0.469,0.131-1.064-0.602-1.246
		c-0.1-0.024-0.117-0.389-0.167-0.598c-0.093-0.398,0.095-0.953-0.589-1.025c-0.072-0.007-0.173-0.195-0.176-0.303
		c-0.039-1.024-0.777-1.593-1.378-2.284c-0.472-0.544-0.724-1.272-1.165-1.851c-0.352-0.464-0.839-0.826-1.268-1.231
		c-0.328-0.309-0.676-0.6-0.985-0.927c-0.638-0.67-1.194-1.428-1.896-2.018c-0.521-0.44-1.234-0.648-1.834-1.005
		c-0.715-0.422-1.402-0.893-2.101-1.344c-0.025-0.018-0.042-0.055-0.069-0.063c-0.961-0.331-1.912-0.698-2.888-0.975
		c-0.632-0.179-1.427,0.157-1.848-0.684c-0.063-0.129-0.479-0.109-0.733-0.109c-3.086-0.006-6.176-0.021-9.263,0.021
		c-0.386,0.004-0.761,0.331-1.153,0.477c-0.314,0.116-0.646,0.194-0.975,0.266c-0.561,0.123-1.334-0.268-1.557,0.664
		c-0.008,0.038-0.105,0.06-0.164,0.08c-0.854,0.288-1.752,0.488-2.55,0.889c-0.729,0.366-1.349,0.957-2.023,1.438
		c-0.858,0.609-1.767,1.154-2.569,1.829c-0.778,0.652-1.549,1.362-2.137,2.182c-0.471,0.657-0.895,1.296-1.504,1.86
		c-0.5,0.462-0.579,1.416-1.102,1.81c-0.816,0.615-0.272,1.91-1.339,2.292c-0.063,0.022-0.134,0.162-0.124,0.236
		c0.22,1.536-1.276,2.686-0.954,4.269c0.059,0.287-0.292,0.648-0.423,0.988c-0.098,0.256-0.207,0.528-0.209,0.795
		c-0.02,2.026-0.039,4.055,0.007,6.081c0.011,0.393,0.363,0.766,0.45,1.17c0.137,0.65,0.168,1.321,0.272,1.979
		c0.074,0.463-0.167,1.084,0.572,1.251c0.05,0.012,0.128,0.098,0.12,0.134c-0.237,1.045,0.621,1.706,0.928,2.556
		c0.285,0.789,0.834,1.482,1.264,2.218c0.076,0.133,0.167,0.261,0.209,0.405c0.25,0.855,0.879,1.399,1.5,1.989
		c0.662,0.63,1.189,1.4,1.789,2.098c0.283,0.329,0.549,0.721,0.912,0.923c0.705,0.391,1.337,0.813,1.703,1.561
		c0.039,0.08,0.221,0.112,0.342,0.13c0.935,0.133,1.574,0.709,2.135,1.405c0.021,0.025,0.039,0.059,0.064,0.068
		c0.8,0.316,1.588,0.663,2.405,0.931c0.503,0.165,1.199-0.131,1.419,0.655c0.01,0.037,0.111,0.056,0.174,0.065
		c1.713,0.302,3.416,0.7,5.143,0.869c1.466,0.145,2.959,0.06,4.438,0.007c0.861-0.031,1.783,0.157,2.515-0.609
		c0.194-0.202,0.673-0.131,1.021-0.189c0.704-0.117,1.558,0.243,2.022-0.67c0.059-0.114,0.438-0.033,0.637-0.117
		c0.338-0.145,0.648-0.349,0.97-0.53c0.022-0.014,0.026-0.078,0.046-0.081c1.389-0.196,2.578-1.602,4.074-0.858
		c0.596,0.296,1.43,0.688,1.432,1.644c0.002,0.353-0.06,0.726,0.033,1.057c0.281,1.009-0.545,1.564-1.08,1.901
		c-0.594,0.374-1.114,0.941-2.031,1.021c-0.986,0.086-1.895,0.912-2.873,1.33c-0.396,0.169-0.902,0.056-1.33,0.175
		c-0.549,0.153-1.063,0.426-1.605,0.615c-0.264,0.093-0.555,0.159-0.834,0.159c-3.603,0.015-7.203,0.034-10.805-0.005
		c-0.441-0.005-0.875-0.354-1.319-0.524c-0.265-0.102-0.538-0.212-0.814-0.242c-0.71-0.079-1.361-0.097-2.026-0.589
		c-0.902-0.671-1.746-0.114-1.746,1.003c-0.006,3.637,0.008,7.272-0.011,10.909c-0.005,0.992-0.104,1.983-0.155,2.89
		c-0.648,0.425-1.206,0.793-1.764,1.159c-0.194,0-0.386,0-0.579,0c-1.474-0.368-2.492-1.661-2.493-3.183
		c-0.002-5.051-0.055-10.104,0.047-15.152c0.02-0.989-0.65-1.345-1.082-1.834c-0.932-1.055-2.089-1.909-3.132-2.867
		c-0.717-0.658-1.436-1.32-2.08-2.046c-0.392-0.441-0.641-1.009-0.962-1.515c-0.352-0.553-0.713-1.1-1.065-1.649
		c-0.207-0.323-0.355-0.704-0.621-0.966c-0.677-0.664-0.456-1.822-1.339-2.36c-0.086-0.053-0.129-0.212-0.148-0.329
		c-0.135-0.794-0.239-1.507-0.706-2.296c-0.643-1.085-0.832-2.546-0.875-3.856c-0.106-3.309-0.042-6.623,0.009-9.934
		c0.006-0.446,0.333-0.885,0.485-1.333c0.091-0.271,0.159-0.554,0.188-0.835c0.073-0.67-0.114-1.391,0.648-1.87
		c0.193-0.122,0.11-0.662,0.178-1.005c0.081-0.42-0.193-1.035,0.578-1.098c0.047-0.004,0.108-0.074,0.129-0.127
		c0.303-0.79,0.541-1.61,0.912-2.367c0.371-0.755,0.85-1.46,1.322-2.16c0.234-0.346,0.596-0.604,0.84-0.944
		c0.39-0.541,0.713-1.131,1.1-1.676c0.334-0.467,0.68-0.936,1.082-1.343c0.756-0.764,1.52-1.533,2.354-2.206
		c0.624-0.504,1.367-0.862,2.074-1.296c0.021-0.259,0.059-0.514,0.058-0.767c-0.021-8.943-0.037-17.886-0.087-26.83
		c-0.002-0.423-0.307-0.84-0.445-1.269c-0.087-0.267-0.17-0.546-0.183-0.823c-0.046-1.028-0.04-2.059-0.093-3.085
		c-0.035-0.737,0.031-1.435-0.541-2.137c-0.369-0.454-0.191-1.355-0.254-2.058c-0.056-0.645,0.039-1.256-0.517-1.854
		c-0.334-0.357-0.145-1.169-0.271-1.761c-0.098-0.459-0.32-0.894-0.49-1.337c-0.032-0.088-0.098-0.169-0.119-0.258
		c-0.359-1.481-0.707-2.965-1.083-4.441c-0.069-0.268-0.29-0.494-0.379-0.76c-0.146-0.446-0.206-0.92-0.366-1.359
		c-0.137-0.372-0.359-0.712-0.551-1.063c-0.027-0.05-0.115-0.078-0.127-0.128c-0.221-0.896-0.123-1.792-0.822-2.661
		c-0.664-0.829-0.723-2.104-1.473-3.024c-0.389-0.479-0.553-1.148-0.805-1.737c-0.355-0.827-0.508-1.851-1.097-2.439
		c-0.626-0.627-0.419-1.669-1.28-2.067c-0.074-0.033-0.135-0.126-0.168-0.206c-0.334-0.789-0.598-1.616-1.008-2.362
		c-0.29-0.529-0.773-0.955-1.174-1.425c-0.094-0.11-0.27-0.206-0.283-0.323c-0.107-0.994-0.664-1.658-1.485-2.162
		c-0.096-0.06-0.116-0.282-0.129-0.433c-0.08-0.892-0.818-1.307-1.337-1.883c-0.342-0.379-0.775-0.745-0.943-1.2
		c-0.326-0.877-0.969-1.429-1.601-2.05c-0.657-0.644-1.146-1.454-1.747-2.157c-0.751-0.879-1.559-1.709-2.313-2.586
		c-0.631-0.731-1.168-1.554-1.844-2.233c-0.65-0.653-1.449-1.155-2.15-1.761c-0.883-0.76-1.717-1.581-2.607-2.332
		c-0.74-0.628-1.524-1.208-2.309-1.785c-0.758-0.559-1.62-1.005-2.275-1.661c-0.347-0.347-0.625-0.697-1.084-0.939
		c-0.77-0.406-1.619-0.805-2.178-1.435c-0.83-0.936-2.103-1.11-2.941-2.059c-0.547-0.618-1.584-0.783-2.367-1.211
		c-0.69-0.377-1.326-0.854-2.002-1.257c-0.643-0.383-1.317-0.713-1.963-1.093c-0.72-0.424-1.432-0.868-2.135-1.322
		c-0.393-0.255-0.737-0.597-1.148-0.819c-0.736-0.394-1.521-0.697-2.256-1.091c-0.732-0.392-1.43-0.854-2.148-1.276
		c-0.625-0.367-1.266-0.711-1.89-1.081c-0.239-0.141-0.458-0.316-0.681-0.483c-0.115-0.086-0.213-0.254-0.335-0.271
		c-0.986-0.124-1.557-0.926-2.337-1.379c-0.785-0.455-1.67-0.731-2.475-1.152c-0.668-0.348-1.281-0.797-1.925-1.191
		c-0.677-0.415-1.533-0.68-1.997-1.26c-0.605-0.756-1.607-0.573-2.223-1.321c-0.486-0.592-1.402-0.831-2.043-1.181
		c-0.34-0.492-0.75-0.923-0.955-1.438c-0.152-0.377-0.193-0.955-0.002-1.277c0.281-0.474,0.84-0.776,1.229-1.201
		c0.166-0.181,0.2-0.484,0.295-0.731C94.195,20.984,94.969,20.984,95.74,20.984z"/>
	<path fill-rule="evenodd" clip-rule="evenodd" d="M136.872,202.118c-1.431-0.376-2.476-1.743-2.476-3.247
		c-0.002-21.241-0.007-42.481,0.018-63.724c0.002-0.892-0.383-1.936,0.599-2.657c0.131-0.098,0.131-0.429,0.12-0.648
		c-0.055-1.1,0.646-1.727,1.393-2.354c0.355-0.3,0.63-0.694,0.971-1.016c0.766-0.721,1.58-1.39,2.314-2.143
		c0.671-0.69,1.248-1.473,1.886-2.196c0.206-0.232,0.466-0.423,0.721-0.607c1.017-0.736,1.036-2.2,2.191-2.893
		c0.448-0.268,0.644-0.997,0.894-1.542c0.373-0.819,0.68-1.669,1.038-2.494c0.444-1.028,0.913-2.046,1.37-3.068
		c0.039-0.086,0.1-0.168,0.111-0.258c0.28-2.041,0.592-4.08,0.814-6.128c0.094-0.857,0.021-1.736-0.018-2.604
		c-0.025-0.605,0.156-1.271-0.559-1.707c-0.176-0.107-0.215-0.626-0.141-0.911c0.303-1.148-0.682-1.842-1.039-2.713
		c-0.317-0.773-1.392-1.248-2.154-1.824c-1.328-1.002-2.83-1.54-4.502-1.443c-0.394,0.023-0.772,0.304-1.156,0.474
		c-0.111,0.05-0.234,0.198-0.317,0.175c-1.071-0.298-1.606,0.771-2.499,1.002c-0.525,0.136-0.918,0.928-1.285,1.48
		c-0.516,0.774-0.951,1.603-1.423,2.407c-0.017,0.026-0.06,0.04-0.067,0.068c-0.293,0.934-0.564,1.876-0.885,2.801
		c-0.14,0.406-0.379,0.776-0.577,1.162c-0.028,0.053-0.097,0.088-0.117,0.144c-0.318,0.861-0.575,1.751-0.964,2.58
		c-0.355,0.754-0.854,1.44-1.277,2.163c-0.107,0.183-0.192,0.385-0.25,0.589c-0.113,0.396,0.045,0.96-0.656,0.969
		c-0.055,0-0.15,0.192-0.157,0.299c-0.054,0.996-0.788,1.509-1.397,2.155c-0.467,0.492-0.697,1.197-1.062,1.791
		c-0.249,0.406-0.47,0.894-0.838,1.148c-0.993,0.687-1.104,2.016-2.208,2.678c-0.75,0.451-1.168,1.431-1.795,2.119
		c-0.367,0.404-0.88,0.675-1.274,1.058c-0.421,0.408-0.74,0.925-1.177,1.313c-0.688,0.614-1.378,1.258-2.171,1.706
		c-0.745,0.422-1.378,0.875-1.868,1.584c-0.203,0.294-0.597,0.47-0.928,0.657c-0.744,0.418-1.51,0.798-2.252,1.218
		c-0.418,0.236-0.937,0.434-1.183,0.8c-0.522,0.775-1.78,0.356-2.085,1.389c-0.013,0.043-0.113,0.103-0.154,0.091
		c-1.041-0.317-1.52,0.738-2.346,1.002c-0.652,0.208-1.432,0.719-1.459,1.675c-0.004,0.158,0.02,0.421-0.061,0.46
		c-1.189,0.603-0.545,1.677-0.639,2.542c-0.029,0.249,0.272,0.537,0.434,0.8c0.061,0.101,0.237,0.205,0.22,0.269
		c-0.257,0.931,0.627,1.273,0.958,1.895c0.031,0.056,0.074,0.146,0.113,0.146c1.037,0.023,1.662,1.035,2.834,0.967
		c2.566-0.148,5.146-0.053,7.721-0.019c0.521,0.008,1.211-0.224,1.438,0.588c0.013,0.046,0.098,0.079,0.154,0.102
		c0.83,0.306,1.691,0.545,2.479,0.937c0.467,0.231,0.801,0.723,1.227,1.055c0.754,0.586,0.711,1.722,1.582,2.234
		c0.117,0.07,0.025,0.438,0.105,0.64c0.125,0.315,0.322,0.604,0.479,0.908c0.094,0.186,0.212,0.379,0.237,0.577
		c0.048,0.414,0.055,0.834,0.055,1.252c0.004,16.381-0.014,32.762,0.048,49.143c0.004,0.966-0.468,1.484-0.977,2.02
		c-0.409,0.433-1.044,0.653-1.579,0.967c-0.193,0-0.385,0-0.579,0c-0.542-0.356-1.083-0.715-1.817-1.198c0-0.643,0-1.475,0-2.307
		c0-15.673,0.006-31.348-0.023-47.02c0-0.548-0.332-1.094-0.507-1.642c-0.065-0.209-0.147-0.418-0.181-0.633
		c-0.168-1.13-0.852-1.841-1.973-2.034c-0.127-0.022-0.334,0.012-0.369-0.053c-0.594-1.11-1.633-0.624-2.479-0.649
		c-2.476-0.074-4.955-0.034-7.433-0.096c-0.525-0.012-1.293,0.293-1.467-0.648c-0.012-0.064-0.283-0.102-0.438-0.113
		c-0.934-0.073-1.428-0.769-2.006-1.365c-0.393-0.403-0.878-0.717-1.271-1.119c-0.365-0.373-0.889-0.778-0.949-1.224
		c-0.219-1.613-1.355-3.016-1.001-4.768c0.155-0.774,0.001-1.606,0.062-2.407c0.037-0.521-0.207-1.214,0.614-1.417
		c0.022-0.006,0.061-0.053,0.056-0.073c-0.226-1.008,0.781-1.497,0.998-2.342c0.125-0.489,0.533-0.971,0.935-1.311
		c0.712-0.603,1.512-1.099,2.282-1.627c0.096-0.066,0.254-0.037,0.363-0.089c0.688-0.32,1.379-0.634,2.051-0.985
		c0.884-0.46,1.757-0.938,2.617-1.435c0.436-0.251,0.847-0.542,1.243-0.847c0.591-0.452,1.14-0.96,1.739-1.398
		c0.883-0.646,1.813-1.226,2.684-1.884c0.456-0.344,0.836-0.791,1.237-1.203c0.347-0.354,0.618-0.825,1.026-1.067
		c0.643-0.379,0.982-1.101,1.508-1.44c1.01-0.65,1.49-1.653,2.129-2.522c0.922-1.259,2.163-2.301,2.714-3.834
		c0.067-0.193,0.438-0.276,0.677-0.412c0.004-1.058,0.633-1.764,1.375-2.404c0.047-0.041,0.111-0.077,0.133-0.13
		c0.329-0.832,0.623-1.681,0.991-2.494c0.138-0.305,0.546-0.492,0.663-0.797c0.354-0.913,0.609-1.863,0.943-2.785
		c0.115-0.316,0.346-0.591,0.532-0.879c0.048-0.076,0.194-0.148,0.183-0.193c-0.312-1.229,0.673-2.078,0.937-3.141
		c0.171-0.691,0.595-1.354,1.032-1.935c0.697-0.924,1.496-1.771,2.261-2.644c0.056-0.063,0.17-0.1,0.259-0.101
		c1.004-0.013,1.514-0.837,2.223-1.336c0.076-0.056,0.154-0.164,0.226-0.16c1.503,0.082,2.634-1.288,4.219-1.009
		c0.906,0.16,1.862,0.02,2.794,0.041c0.652,0.014,1.366-0.13,1.803,0.589c0.054,0.087,0.243,0.161,0.348,0.139
		c1.158-0.248,1.852,0.857,2.902,0.986c0.414,0.051,0.817,0.471,1.157,0.795c0.804,0.768,1.618,1.534,2.323,2.389
		c0.422,0.514,0.65,1.191,0.951,1.803c0.053,0.107-0.002,0.348,0.051,0.366c1.098,0.393,0.604,1.363,0.771,2.087
		c0.02,0.094-0.018,0.243,0.034,0.28c1.196,0.869,0.681,2.158,0.717,3.25c0.085,2.54,0.015,5.085-0.028,7.625
		c-0.01,0.533,0.146,1.138-0.575,1.497c-0.202,0.101-0.136,0.763-0.173,1.169c-0.063,0.71,0.175,1.521-0.672,1.962
		c-0.024,0.013-0.045,0.05-0.053,0.079c-0.289,0.981-0.494,1.998-0.891,2.934c-0.388,0.922-0.967,1.764-1.472,2.636
		c-0.223,0.385-0.491,0.744-0.7,1.137c-0.396,0.744-0.737,1.519-1.151,2.254c-0.266,0.473-0.581,0.931-0.943,1.333
		c-0.71,0.788-1.441,1.558-2.21,2.287c-0.961,0.916-1.973,1.777-2.951,2.676c-0.602,0.551-1.193,1.111-1.758,1.698
		c-0.111,0.114-0.109,0.361-0.117,0.549c-0.053,0.963-0.127,1.927-0.127,2.891c-0.006,20.5,0.005,41.001-0.033,61.501
		c-0.001,1.063-0.411,2.128-0.613,3.098c-0.646,0.408-1.209,0.766-1.772,1.122C137.258,202.118,137.066,202.118,136.872,202.118z"/>
	<path fill-rule="evenodd" clip-rule="evenodd" d="M27.381,26.584c0.41,0.006,0.627-0.078,0.787-0.582
		c0.396-1.247,2.475-1.438,3.355-0.433c0.565,0.644,1.318,1.12,1.929,1.729c0.993,0.993,1.917,2.052,2.907,3.047
		c0.631,0.631,1.361,1.164,1.988,1.798c0.967,0.978,1.871,2.019,2.829,3.005c0.603,0.621,1.276,1.173,1.882,1.79
		c1.002,1.021,1.959,2.089,2.971,3.103c0.609,0.613,1.314,1.13,1.923,1.744c0.987,0.998,1.907,2.063,2.897,3.058
		c0.629,0.632,1.369,1.154,1.996,1.788c0.968,0.979,1.867,2.025,2.818,3.018c0.58,0.603,1.22,1.146,1.807,1.742
		c1.023,1.042,2.014,2.116,3.046,3.152c0.589,0.592,1.255,1.112,1.843,1.705c1.008,1.016,1.967,2.082,2.977,3.095
		c0.609,0.613,1.31,1.136,1.917,1.75c0.986,0.998,1.921,2.048,2.899,3.054c0.584,0.599,1.227,1.141,1.813,1.737
		c1.022,1.039,2.007,2.114,3.036,3.146c0.59,0.593,1.257,1.107,1.847,1.701c1.009,1.019,1.962,2.086,2.974,3.101
		c0.609,0.611,1.299,1.143,1.923,1.743c0.712,0.687,1.378,1.423,2.089,2.114c0.693,0.677,1.434,1.309,2.127,1.987
		c0.646,0.633,1.248,1.311,1.885,1.953c0.701,0.704,1.453,1.362,2.127,2.091c0.628,0.682,1.189,1.425,1.769,2.15
		c0.507,0.633,1.001,1.277,1.487,1.926c0.086,0.115,0.127,0.279,0.151,0.427c0.079,0.481-0.03,1.06,0.662,1.208
		c0.019,0.004,0.036,0.052,0.045,0.083c0.297,1.117,0.784,2.224,0.847,3.354c0.127,2.341,0.044,4.695,0.01,7.043
		c-0.01,0.604,0.145,1.259-0.557,1.731c-0.19,0.126-0.139,1.113,0.04,1.197c0.655,0.309,0.566,0.846,0.521,1.299
		c-0.108,1.066,0.747,1.539,1.25,2.221c0.34,0.459,0.707,0.935,1.166,1.258c0.604,0.426,1.285,0.933,1.978,1.01
		c1.396,0.16,2.823,0.075,4.235,0.04c0.416-0.011,1.037,0.17,1.078-0.602c0.002-0.053,0.138-0.136,0.216-0.141
		c1.291-0.076,1.644-1.156,2.313-1.992c1.443-1.801,1.518-3.837,1.416-5.96c-0.019-0.384-0.064-0.804,0.063-1.149
		c0.16-0.438,0.617-0.793,0.703-1.23c0.131-0.658,0.635-0.694,1.032-1.007c1.736-1.37,3.709-0.571,5.552-0.731
		c1.032-0.088,1.621-0.767,2.435-1.119c0.07-0.031,0.083-0.212,0.148-0.232c1.47-0.422,1.634-1.854,2.348-2.889
		c0.736-1.068,0.602-2.152,0.612-3.271c0.006-0.585-0.225-1.079-0.49-1.632c-0.363-0.756-0.769-1.5-1.156-2.247
		c-0.109-0.214-0.214-0.55-0.383-0.593c-0.938-0.244-1.545-0.945-2.273-1.487c-0.229-0.171-0.611-0.185-0.925-0.187
		c-1.351-0.01-2.702-0.025-4.051,0.039c-0.405,0.019-0.795,0.301-1.2,0.429c-0.33,0.104-0.674,0.208-1.015,0.223
		c-0.804,0.033-1.616,0.077-2.411-0.009c-0.524-0.059-1.015-0.393-1.54-0.504c-0.59-0.125-1.204-0.129-1.808-0.202
		c-0.501-0.063-1.127,0.164-1.348-0.597c-0.027-0.096-0.335-0.145-0.517-0.161c-1.124-0.093-2.003-0.627-2.737-1.454
		c-0.074-0.084-0.225-0.118-0.347-0.143c-0.907-0.181-1.44-0.821-2.019-1.48c-0.592-0.674-1.383-1.173-2.023-1.81
		c-0.675-0.672-1.271-1.423-1.912-2.129c-0.322-0.355-0.632-0.739-1.012-1.022c-0.892-0.667-1.672-1.406-2.32-2.335
		c-0.201-0.291-0.588-0.556-0.871-0.904c-0.76-0.936-0.627-1.472-0.018-2.557c0.336-0.596,0.855-0.824,1.257-1.186
		c0.323-0.292,1.192-0.33,1.606-0.097c0.842,0.474,1.674,1.021,2.248,1.892c0.305,0.458,0.889,0.727,1.324,1.103
		c0.297,0.255,0.577,0.533,0.837,0.829c0.634,0.726,1.224,1.493,1.888,2.189c0.369,0.386,0.885,0.628,1.279,0.995
		c0.396,0.369,0.703,0.829,1.086,1.215c0.366,0.373,0.727,0.815,1.184,1.02c0.518,0.229,1.213,0.097,1.4,0.859
		c1.243-0.095,2.039,1.162,3.398,0.984c1.613-0.21,3.276,0.001,4.91-0.086c0.729-0.039,1.433-0.389,2.16-0.543
		c0.365-0.078,0.769-0.098,1.135-0.033c0.984,0.173,1.957,0.406,2.934,0.611c0.516,0.109,1.2-0.178,1.426,0.618
		c0.016,0.056,0.164,0.102,0.251,0.103c1.089,0.002,1.679,0.816,2.396,1.438c0.387,0.333,0.908,0.528,1.25,0.896
		c0.806,0.874,1.549,1.806,2.294,2.735c0.104,0.13,0.034,0.384,0.106,0.555c0.161,0.382,0.39,0.736,0.536,1.124
		c0.146,0.38,0.31,0.784,0.317,1.179c0.033,1.961,0.046,3.923,0.004,5.883c-0.012,0.587,0.14,1.327-0.688,1.604
		c-0.044,0.015-0.085,0.105-0.087,0.162c-0.058,1.423-1.03,2.441-1.775,3.466c-0.62,0.855-1.984,1.172-2.601,2.027
		c-0.609,0.847-1.846,0.305-2.195,1.338c-0.027,0.08-0.285,0.091-0.439,0.12c-1.643,0.315-3.285,0.627-5.066,0.967
		c0,0.702,0.031,1.432-0.01,2.158c-0.043,0.731,0.219,1.558-0.602,2.089c-0.113,0.075-0.133,0.361-0.125,0.546
		c0.062,1.126-0.731,1.784-1.354,2.543c-0.395,0.486-0.75,1.007-1.131,1.505c-0.314,0.409-0.568,0.92-0.979,1.187
		c-0.729,0.471-1.686,0.646-2.309,1.209c-0.881,0.798-2.004,0.546-2.907,0.987c-1.396,0.685-3.817,0.721-5.292-0.061
		c-0.296-0.155-0.692-0.109-1.035-0.182c-0.48-0.104-1.158,0.178-1.297-0.64c-0.01-0.053-0.15-0.106-0.236-0.122
		c-1.785-0.313-2.689-1.764-3.816-2.933c-0.401-0.418-0.867-0.775-1.252-1.207c-0.145-0.164-0.111-0.474-0.217-0.688
		c-0.15-0.3-0.351-0.576-0.538-0.856c-0.048-0.074-0.175-0.114-0.192-0.188c-0.293-1.194-0.701-2.377-0.822-3.588
		c-0.127-1.271-0.405-2.807,0.146-3.801c0.994-1.78,0.385-3.521,0.55-5.264c0.026-0.289-0.285-0.61-0.444-0.914
		c-0.057-0.107-0.198-0.218-0.182-0.307c0.206-1.17-0.648-1.995-1.005-2.969c-0.212-0.58-0.823-1.016-1.268-1.505
		c-0.283-0.315-0.601-0.598-0.882-0.916c-0.865-0.974-1.686-1.99-2.59-2.927c-0.646-0.67-1.431-1.204-2.093-1.86
		c-0.681-0.676-1.253-1.465-1.938-2.138c-0.668-0.656-1.426-1.22-2.13-1.842c-0.319-0.282-0.614-0.595-0.896-0.917
		c-0.611-0.704-1.164-1.468-1.825-2.122c-0.668-0.658-1.448-1.198-2.16-1.812c-0.301-0.258-0.564-0.561-0.823-0.861
		c-0.613-0.709-1.168-1.474-1.83-2.131c-0.662-0.66-1.435-1.207-2.141-1.825c-0.322-0.283-0.607-0.609-0.891-0.935
		c-0.609-0.704-1.158-1.47-1.822-2.118c-0.674-0.654-1.469-1.18-2.183-1.792c-0.325-0.278-0.575-0.643-0.878-0.948
		c-0.773-0.784-1.578-1.538-2.33-2.34c-0.896-0.953-1.71-1.988-2.637-2.91c-0.941-0.939-2.008-1.752-2.963-2.681
		c-0.655-0.634-1.183-1.396-1.818-2.05c-0.666-0.688-1.407-1.303-2.092-1.973c-0.387-0.38-0.702-0.833-1.094-1.208
		c-0.695-0.667-1.43-1.292-2.141-1.943c-0.356-0.327-0.699-0.669-1.047-1.008c-0.767-0.75-1.562-1.473-2.291-2.258
		c-0.653-0.704-1.224-1.486-1.85-2.218c-0.281-0.33-0.578-0.657-0.918-0.923c-1.146-0.9-2.135-1.945-3.102-3.039
		c-0.877-0.991-1.984-1.771-2.941-2.696c-0.652-0.631-1.194-1.374-1.831-2.021c-0.673-0.687-1.417-1.302-2.097-1.985
		c-0.676-0.68-1.232-1.504-1.984-2.078c-0.553-0.421-0.807-0.86-0.93-1.492c-0.023-0.125-0.424-0.176-0.65-0.261
		C27.381,27.742,27.381,27.164,27.381,26.584z"/>
	<path fill-rule="evenodd" clip-rule="evenodd" d="M27.381,60.378c0.83-0.007,0.98-0.839,1.473-1.254
		c0.393-0.332,2.209-0.471,2.522-0.062c0.196,0.257,0.435,0.479,0.813,0.616c0.031,0.511,0.023,1.026,0.104,1.528
		c0.051,0.317,0.24,0.611,0.355,0.918c0.106,0.289,0.26,0.579,0.28,0.876c0.06,0.865,0.026,1.738,0.099,2.601
		c0.069,0.826-0.236,1.763,0.615,2.394c0.038,0.028,0.045,0.125,0.037,0.184c-0.254,1.802,0.959,3.31,1.021,5.056
		c0.011,0.306,0.341,0.591,0.485,0.904c0.115,0.25,0.196,0.523,0.252,0.795c0.119,0.583-0.141,1.305,0.676,1.625
		c0.106,0.043,0.09,0.409,0.123,0.627c0.064,0.41-0.117,0.952,0.566,1.028c0.047,0.004,0.111,0.072,0.13,0.125
		c0.311,0.88,0.556,1.791,0.94,2.638c0.33,0.726,0.814,1.381,1.234,2.065c0.047,0.076,0.145,0.125,0.179,0.203
		c0.366,0.811,0.669,1.657,1.104,2.428c0.288,0.509,0.766,0.911,1.156,1.362c0.096,0.107,0.26,0.213,0.266,0.328
		c0.068,1.006,0.878,1.444,1.471,2.084c0.733,0.791,1.259,1.772,1.959,2.597c0.65,0.763,1.4,1.441,2.129,2.133
		c0.813,0.772,1.636,1.535,2.485,2.269c0.433,0.375,0.96,0.646,1.396,1.02c0.414,0.355,0.723,0.835,1.15,1.168
		c0.566,0.438,1.204,0.783,1.807,1.176c0.682,0.445,1.349,0.913,2.039,1.346c0.638,0.4,1.299,0.757,1.941,1.148
		c0.709,0.431,1.398,0.896,2.114,1.316c0.606,0.355,1.251,0.647,1.86,1.002c0.771,0.448,1.521,0.931,2.282,1.396
		c0.151,0.093,0.296,0.205,0.46,0.26c0.803,0.268,1.463,0.679,1.984,1.393c0.299,0.407,0.828,0.722,1.318,0.895
		c0.846,0.298,1.386,0.837,1.945,1.521c0.59,0.721,1.494,1.179,2.227,1.791c0.824,0.688,1.623,1.405,2.408,2.138
		c0.707,0.663,1.414,1.334,2.059,2.057c0.498,0.558,0.873,1.225,1.35,1.804c0.357,0.438,0.813,0.794,1.186,1.222
		c0.387,0.444,0.631,1.118,1.105,1.359c0.852,0.43,0.527,1.531,1.42,1.977c0.522,0.262,0.73,1.146,1.094,1.741
		c0.239,0.395,0.42,0.976,0.773,1.12c0.904,0.375,0.35,1.739,1.422,1.914c0.049,0.009,0.104,0.16,0.104,0.244
		c0.004,1.039,0.765,1.628,1.364,2.313c0.04,0.046,0.092,0.09,0.113,0.146c0.338,0.825,0.623,1.677,1.021,2.472
		c0.381,0.761,0.884,1.46,1.319,2.196c0.094,0.155,0.133,0.347,0.177,0.527c0.104,0.434-0.05,1.005,0.655,1.104
		c0.072,0.011,0.1,0.34,0.146,0.522c0.158,0.626-0.186,1.465,0.768,1.767c0.079,0.023,0.021,0.372,0.094,0.541
		c0.158,0.369,0.358,0.722,0.548,1.078c0.026,0.05,0.108,0.077,0.126,0.128c0.305,0.928,0.618,1.854,0.897,2.79
		c0.325,1.088,0.36,2.381,0.995,3.229c0.762,1.019,0.625,2.008,0.617,3.045c-0.002,0.352-0.249,0.854-0.537,1.019
		c-0.764,0.435-1.373,1.255-2.465,0.999c-0.779-0.184-1.662-0.988-1.842-1.776c-0.09-0.397-0.443-0.729-0.57-1.125
		c-0.365-1.129-0.656-2.282-1.016-3.413c-0.125-0.389-0.381-0.736-0.543-1.115c-0.122-0.291-0.211-0.599-0.283-0.908
		c-0.117-0.512,0.168-1.197-0.666-1.393c-0.078-0.021-0.025-0.435-0.113-0.628c-0.152-0.326-0.365-0.622-0.557-0.926
		c-0.031-0.051-0.141-0.086-0.138-0.122c0.069-0.88-0.405-1.53-0.841-2.237c-0.547-0.895-0.963-1.872-1.412-2.824
		c-0.391-0.829-0.564-1.858-1.172-2.459c-0.613-0.606-0.33-1.729-1.332-2c-0.063-0.017-0.131-0.151-0.131-0.231
		c-0.012-1.083-0.883-1.602-1.436-2.354c-0.365-0.495-0.387-1.193-0.99-1.671c-1.008-0.796-1.377-2.11-2.328-3.042
		c-1.324-1.3-2.276-2.968-3.535-4.345c-0.984-1.078-2.199-1.94-3.291-2.922c-0.752-0.673-1.388-1.522-2.232-2.03
		c-0.584-0.351-0.797-1.132-1.666-1.188c-0.496-0.032-0.965-0.571-1.436-0.896c-0.675-0.467-1.338-0.954-2.012-1.422
		c-0.697-0.485-1.393-0.975-2.113-1.428c-0.201-0.127-0.5-0.091-0.721-0.199c-0.297-0.145-0.562-0.352-0.836-0.539
		c-0.096-0.065-0.177-0.209-0.27-0.212c-1.053-0.043-1.652-0.839-2.422-1.376c-0.645-0.451-1.434-0.691-2.101-1.117
		c-0.601-0.385-1.112-0.906-1.681-1.348c-0.422-0.328-0.852-0.651-1.31-0.928c-0.563-0.342-1.183-0.596-1.731-0.958
		c-0.353-0.233-0.607-0.609-0.934-0.89c-0.628-0.536-1.274-1.047-1.913-1.569c-0.333-0.271-0.696-0.513-0.991-0.821
		c-0.64-0.664-1.273-1.337-1.854-2.052c-0.884-1.085-1.588-2.356-2.622-3.265c-0.724-0.636-1.303-1.361-1.913-2.066
		c-0.487-0.563-0.675-1.411-1.206-1.905c-0.902-0.84-1.142-2.058-1.951-2.956c-0.602-0.668-0.695-1.808-1.32-2.435
		c-0.65-0.654-0.347-1.773-1.289-2.177c-0.068-0.03-0.148-0.15-0.142-0.226c0.041-0.79-0.331-1.376-0.76-2.016
		c-0.368-0.547-0.29-1.268-0.719-1.938c-0.643-1.011-0.702-2.386-1.048-3.596c-0.111-0.388-0.342-0.741-0.512-1.114
		c-0.078-0.171-0.198-0.347-0.201-0.523c-0.031-2.248-1.275-4.324-0.93-6.626c0.079-0.52-0.09-0.898-0.73-0.813
		C27.381,63.597,27.381,61.987,27.381,60.378z"/>
	<path fill-rule="evenodd" clip-rule="evenodd" d="M47.465,20.984c-0.07,0.399-0.107,0.685,0.453,0.851
		c0.424,0.125,0.779,0.568,1.104,0.927c0.625,0.694,1.178,1.454,1.813,2.138c0.753,0.811,1.535,1.596,2.352,2.345
		c0.979,0.899,2.041,1.709,3.002,2.626c0.639,0.611,1.158,1.345,1.74,2.015c0.317,0.365,0.631,0.742,0.992,1.06
		c0.695,0.614,1.473,1.141,2.124,1.796c0.641,0.645,1.133,1.434,1.755,2.099c0.385,0.412,0.897,0.702,1.336,1.068
		c0.344,0.288,0.694,0.583,0.988,0.92c0.599,0.686,1.115,1.449,1.751,2.094c0.655,0.663,1.418,1.217,2.122,1.831
		c0.322,0.282,0.637,0.58,0.922,0.899c0.851,0.949,1.66,1.937,2.54,2.858c0.388,0.408,0.922,0.675,1.359,1.041
		c0.322,0.269,0.616,0.579,0.896,0.896c0.617,0.709,1.174,1.477,1.836,2.139c0.658,0.657,1.439,1.19,2.123,1.825
		c0.388,0.36,0.666,0.838,1.037,1.22c0.4,0.413,0.852,0.774,1.278,1.162c0.312,0.281,0.645,0.543,0.923,0.854
		c0.641,0.721,1.221,1.495,1.891,2.19c0.368,0.384,0.84,0.685,1.301,0.962c0.402,0.239-0.014,1.261,1.057,0.745
		c0,0.797,0.004,1.404-0.002,2.01c-0.012,1.546-0.587,2.119-2.154,2.152c-0.16,0.003-0.323-0.021-0.482-0.002
		c-1.111,0.133-1.725-0.512-2.306-1.342c-0.325-0.465-0.867-0.777-1.308-1.164c-0.303-0.265-0.622-0.515-0.891-0.81
		c-0.886-0.979-1.721-2.007-2.64-2.955c-0.646-0.666-1.427-1.2-2.093-1.851c-0.68-0.666-1.277-1.415-1.939-2.101
		c-0.373-0.386-0.828-0.693-1.201-1.079c-0.662-0.685-1.287-1.409-1.938-2.108c-0.345-0.372-0.68-0.76-1.072-1.077
		c-0.838-0.678-1.652-1.357-2.219-2.308c-0.209-0.353-0.619-0.582-0.924-0.881c-0.777-0.764-1.529-1.557-2.326-2.298
		c-0.697-0.65-1.477-1.215-2.158-1.878c-0.386-0.374-0.625-0.895-0.979-1.307c-0.313-0.362-0.677-0.687-1.052-0.987
		c-0.839-0.674-1.651-1.357-2.217-2.309c-0.21-0.351-0.622-0.58-0.928-0.878c-0.777-0.764-1.529-1.554-2.322-2.302
		c-0.943-0.89-1.943-1.723-2.873-2.629c-0.68-0.664-1.271-1.42-1.932-2.107c-0.373-0.386-0.836-0.686-1.209-1.072
		c-0.66-0.687-1.28-1.415-1.93-2.116c-0.361-0.392-0.712-0.802-1.126-1.134c-0.645-0.519-0.696-1.997-0.104-2.542
		c0.481-0.446,0.878-0.986,1.313-1.486C45.918,20.984,46.691,20.984,47.465,20.984z"/>
	<path fill-rule="evenodd" clip-rule="evenodd" d="M101.396,193.586c0,2.125-0.035,4.249,0.014,6.371
		c0.025,1.086-0.756,1.543-1.484,1.871c-0.799,0.358-1.584,0.209-2.461-0.374c-1.082-0.72-0.928-1.595-0.945-2.535
		c-0.041-1.963,0.283-4.01-0.18-5.864c-0.539-2.168-0.375-4.312-0.559-6.459c-0.092-1.087-0.006-2.188-0.066-3.279
		c-0.049-0.892,0.234-1.858-0.578-2.614c-0.159-0.149-0.104-0.553-0.11-0.84c-0.037-1.415-0.037-2.832-0.103-4.245
		c-0.033-0.653,0.244-1.431-0.594-1.869c-0.117-0.062-0.104-0.417-0.113-0.639c-0.036-0.836,0.004-1.68-0.104-2.504
		c-0.08-0.627-0.359-1.227-0.516-1.846c-0.088-0.339-0.094-0.694-0.153-1.041c-0.22-1.286,0.206-2.642-0.688-3.881
		c-0.372-0.516-0.174-1.438-0.259-2.17c-0.065-0.574,0.079-1.175-0.583-1.61c-0.43-0.283-0.113-2.275,0.133-2.753
		c0.676-1.317,1.834-1.164,2.996-1.167c0.854-0.003,1.148,0.698,1.49,1.191c0.836,1.202,0.525,2.818,1.045,4.019
		c0.667,1.535,0.236,3.148,0.805,4.512c0.688,1.649,0.145,3.458,0.791,4.909c0.947,2.126,0.268,4.281,0.748,6.339
		c0.218,0.938,0.736,1.797,0.691,2.832c-0.049,1.123-0.014,2.252,0.029,3.378c0.041,1.067-0.209,2.187,0.551,3.146
		c0.135,0.169,0.086,0.498,0.086,0.754c0.006,2.123,0.004,4.246,0.004,6.368C101.32,193.586,101.359,193.586,101.396,193.586z"/>
	<path fill-rule="evenodd" clip-rule="evenodd" d="M162.646,166.507c-0.171-0.575,0.066-1.344-0.805-1.56
		c-0.078-0.02-0.087-0.414-0.088-0.636c-0.005-3.345,0.003-6.69-0.008-10.036c-0.002-1.002,0.855-1.482,1.24-2.214
		c0.553-1.051,1.87-0.37,2.327-1.351c0.056-0.118,0.481-0.087,0.733-0.088c1.417-0.01,2.832-0.025,4.246-0.002
		c0.777,0.012,1.156-0.19,1.102-1.093c-0.082-1.442,0.018-2.896-0.026-4.341c-0.039-1.236,0.525-1.977,1.398-2.86
		c0.712-0.72,1.345-0.676,2.036-0.684c3.537-0.034,7.076-0.01,10.613,0.031c1.028,0.013,1.668,0.969,2.16,1.802
		c1.229,2.072,0.449,4.26,0.656,6.38c0.059,0.576,0.215,0.79,0.795,0.777c1.48-0.029,2.961-0.046,4.44,0.006
		c0.392,0.014,0.778,0.288,1.165,0.45c0.141,0.061,0.268,0.192,0.408,0.202c0.626,0.046,1.003,0.282,1.486,0.793
		c0.486,0.515,0.479,1.005,0.69,1.526c1.233,3.029,0.362,6.182,0.605,9.266c0.069,0.881-0.659,2.369-1.321,3.092
		c-0.345,0.375-0.593,0.84-0.954,1.194c-0.169,0.167-0.501,0.229-0.761,0.232c-1.769,0.03-3.541,0.112-5.305,0.015
		c-1.048-0.059-1.258,0.359-1.238,1.255c0.033,1.544,0.01,3.088-0.008,4.633c-0.006,0.703-0.692,1.835-1.268,2.259
		c-0.359,0.264-0.82,0.541-0.96,0.916c-0.261,0.696-0.8,0.572-1.259,0.574c-3.41,0.021-6.819,0.01-10.229,0.003
		c-1.069-0.003-1.609-0.795-2.354-1.4c-1.08-0.881-0.715-1.931-0.775-2.932c-0.079-1.282-0.01-2.573-0.018-3.86
		c-0.009-1.203-0.202-1.403-1.395-1.414c-1.606-0.015-3.217,0.011-4.823-0.024c-0.7-0.015-1.499,0.151-1.891-0.747
		C163.213,166.551,162.863,166.56,162.646,166.507z M192.275,162.553c0-2.213,0-4.281,0-6.418c-1.547,0-3.021,0.042-4.494-0.017
		c-0.745-0.029-1.677,0.419-2.16-0.627c-0.04-0.084-0.306-0.108-0.457-0.088c-0.871,0.122-1.349-0.702-1.58-1.119
		c-0.489-0.889-0.697-1.997-0.777-3.034c-0.12-1.555-0.032-3.126-0.032-4.669c-2.247,0-4.323,0-6.499,0
		c0,1.739,0.048,3.406-0.02,5.069c-0.033,0.844,0.117,1.631-0.625,2.495c-1.025,1.193-2.02,2.013-3.611,1.991
		c-0.707-0.009-1.416-0.002-2.121-0.002c-1.049,0-2.098,0-3.232,0c0,1.864,0.051,3.531-0.018,5.194
		c-0.039,0.965,0.399,1.235,1.246,1.227c1.575-0.016,3.152-0.021,4.729-0.003c2.119,0.021,3.604,1.476,3.639,3.578
		c0.028,1.672,0.004,3.346,0.018,5.018c0.003,0.488,0.018,0.998,0.73,0.996c1.857-0.007,3.717-0.003,5.765-0.003
		c0-1.028,0.021-1.986-0.005-2.942c-0.052-1.954-0.061-3.903,1.451-5.414c0.594-0.593,1.131-1.286,2.167-1.251
		C188.311,162.6,190.238,162.553,192.275,162.553z"/>
</g>
</svg>
