<?xml version="1.0" encoding="UTF-8"?>
<svg version="1.1" xmlns="http://www.w3.org/2000/svg" width="512" height="512">
<path d="M0 0 C0.99630684 -0.00744736 0.99630684 -0.00744736 2.01274109 -0.01504517 C4.20048074 -0.0295937 6.38814773 -0.03645881 8.57592773 -0.04199219 C9.32864393 -0.04481956 10.08136013 -0.04764694 10.85688591 -0.05056 C14.84534935 -0.06552807 18.83377689 -0.0747708 22.82226562 -0.07910156 C26.91162631 -0.08456281 31.0006501 -0.10854757 35.08990574 -0.13707352 C38.26009528 -0.1558466 41.43020631 -0.16091336 44.6004467 -0.16243744 C46.10610724 -0.1654348 47.61176738 -0.17336268 49.11737251 -0.18662262 C69.85030172 -0.35609046 86.37207544 5.68659513 101.34155273 20.24707031 C113.77685698 33.4194576 119.39607244 49.18702167 119.38452148 67.03613281 C119.38516602 68.06174316 119.38581055 69.08735352 119.38647461 70.14404297 C119.33729982 77.26432882 118.73512175 84.03267424 117.65405273 91.07128906 C115.88637387 103.02200686 118.79766645 111.25897085 125.38452148 121.16113281 C128.8388492 126.41305838 131.56725042 130.57668689 130.79858398 137.11035156 C129.36617902 141.99355029 126.59535789 145.64779772 122.19702148 148.16113281 C119.88354276 148.89373441 117.55126949 149.57257081 115.19702148 150.16113281 C115.22795898 151.17304688 115.25889648 152.18496094 115.29077148 153.22753906 C114.87766413 170.56083504 105.29566772 188.15627453 93.19702148 200.16113281 C86.43944293 205.73259854 79.08114106 209.07529591 70.19702148 209.16113281 C58.78988924 207.95756669 58.78988924 207.95756669 55.19702148 206.16113281 C65.86777236 222.55931547 80.22800582 234.20483011 96.19702148 245.16113281 C120.35043192 262.10935922 135.5183005 282.43908849 142.50952148 311.22363281 C143.1074904 314.64836389 143.37461702 317.69801986 143.19702148 321.16113281 C144.14577148 321.30550781 145.09452148 321.44988281 146.07202148 321.59863281 C152.88227004 323.55432537 159.12477076 329.71636474 162.69702148 335.72363281 C164.23891173 339.12949705 164.33644579 342.31762349 164.50878906 346.02148438 C164.85406545 352.98658301 164.85406545 352.98658301 168.75170898 358.58691406 C171.58517782 360.22787983 174.45255696 361.72205404 177.38598633 363.17431641 C195.37949814 372.97881556 207.36617384 392.9810374 213.57202148 411.84863281 C220.74170008 437.73561394 218.21643666 465.51687769 205.06884766 489.05639648 C200.82694222 496.30594673 194.89861053 506.31033829 187.19702148 510.16113281 C180.14488878 510.72985319 180.14488878 510.72985319 176.69702148 508.66113281 C175.00682269 505.84413483 174.448639 503.58964385 174.61889648 500.29394531 C175.55492276 496.8407673 177.7503529 494.81381662 180.19311523 492.28222656 C191.26323088 480.56473573 198.51797852 463.28840324 199.19702148 447.16113281 C199.24858398 446.07574219 199.30014648 444.99035156 199.35327148 443.87207031 C199.88247933 422.57145453 193.25293068 403.19001222 178.62280273 387.55175781 C172.45481273 381.47315897 166.11501257 376.68023996 158.19702148 373.16113281 C157.86831055 373.66902344 157.53959961 374.17691406 157.20092773 374.70019531 C152.09685128 382.08658238 145.91519392 386.77259242 137.19702148 389.16113281 C127.13220895 390.19774823 118.17352573 389.20762711 109.69311523 383.46582031 C102.08839878 377.2768089 98.29512099 370.39532741 97.19702148 360.66113281 C96.67666935 347.2265868 103.28241218 337.7980163 112.04077148 328.18066406 C116.02481486 324.44923213 120.62305784 321.16113281 126.19702148 321.16113281 C121.42447937 297.83219339 110.90544939 279.42448971 92.53686523 263.91503906 C87.94922353 261.50585646 84.0524247 261.61457474 78.94702148 261.59863281 C71.8043944 261.41605093 64.8163589 261.06558878 57.75952148 259.91113281 C56.46143555 259.69972656 55.16334961 259.48832031 53.82592773 259.27050781 C49.57974501 258.3814427 45.5104865 256.98141604 41.40771484 255.59179688 C40.71316948 255.3583255 40.01862411 255.12485413 39.30303192 254.88430786 C37.60042907 254.31169528 35.89864222 253.73665737 34.19702148 253.16113281 C34.28180086 266.81868899 34.37682635 280.47613312 34.48454857 294.13352871 C34.53426695 300.47677406 34.58059708 306.82000469 34.61889648 313.16333008 C34.6560608 319.29721654 34.70250063 325.430972 34.75508499 331.56474495 C34.77346493 333.89239237 34.78863174 336.22006769 34.80036545 338.5477581 C34.95632819 368.44677568 38.06290079 392.94840039 58.19702148 416.16113281 C60.40239681 418.83418773 62.58062903 421.52897444 64.75952148 424.22363281 C65.88575988 425.61040329 67.01206041 426.99712331 68.13842773 428.38378906 C71.12377072 432.06622642 74.08550535 435.76702782 77.04077148 439.47363281 C79.90979005 443.04951103 82.8035727 446.60501208 85.69702148 450.16113281 C89.8380582 455.25057022 93.96027195 460.35339869 98.04858398 465.48535156 C99.76330419 467.62095764 101.48794732 469.7470367 103.22045898 471.86816406 C124.86291663 498.36900232 124.86291663 498.36900232 124.19702148 505.16113281 C122.67404202 508.20709174 121.51926208 509.71421549 118.24389648 510.82128906 C115.54437979 511.15636893 113.79353283 511.00426493 111.19702148 510.16113281 C107.60765163 507.29856254 104.97704219 503.79338937 102.19702148 500.16113281 C101.30068397 499.02795815 100.40217223 497.89650054 99.50170898 496.76660156 C97.61259378 494.38668682 95.73922681 491.99550685 93.87670898 489.59472656 C90.86611831 485.72198306 87.76270385 481.92947566 84.64624023 478.14160156 C77.48600621 469.42827052 70.38395874 460.66678293 63.35327148 451.84863281 C60.48425047 448.27275155 57.5901331 444.71753118 54.69702148 441.16113281 C53.56544725 439.76795548 52.4339354 438.37472747 51.30249023 436.98144531 C49.51829939 434.78461003 47.72996677 432.59163259 45.93530273 430.40332031 C43.99024355 428.01243621 42.08276967 425.59908216 40.19702148 423.16113281 C39.80417969 422.65437012 39.41133789 422.14760742 39.0065918 421.62548828 C25.57587068 404.12219262 18.07892804 385.24756365 18.0234375 362.97436523 C18.01675049 361.85653152 18.01006348 360.73869781 18.00317383 359.58699036 C17.98914861 357.16437546 17.97724656 354.74174755 17.96722603 352.31911278 C17.95077492 348.48094832 17.92753506 344.64288015 17.90232849 340.80476379 C17.83166712 329.89357305 17.771432 318.98234392 17.72021484 308.07104492 C17.68878221 301.39212834 17.64707308 294.71333697 17.60001945 288.03450966 C17.58403883 285.49370651 17.57169916 282.9528777 17.56311226 280.4120388 C17.55091142 276.85327236 17.5267413 273.29476674 17.5 269.73608398 C17.49941086 268.69318207 17.49882172 267.65028015 17.49821472 266.57577515 C17.40526061 257.20469995 16.76563322 248.68372296 9.77905273 241.75488281 C3.70310292 236.38180637 -1.67721372 235.64840799 -9.57250977 235.78222656 C-15.74360572 236.50604314 -19.62756807 239.64246682 -23.67797852 244.16113281 C-28.43055927 250.87065858 -28.95631397 257.67743806 -28.93237305 265.73266602 C-28.93412537 266.4670137 -28.93587769 267.20136139 -28.93768311 267.95796204 C-28.9420679 270.37597043 -28.93917215 272.79390497 -28.93579102 275.21191406 C-28.93646581 276.91139235 -28.9374373 278.61087055 -28.93869019 280.31034851 C-28.94016327 283.87528399 -28.93802803 287.4401944 -28.93334961 291.00512695 C-28.92770037 295.5254257 -28.930903 300.04566442 -28.93692207 304.56596088 C-28.94057931 308.0811964 -28.93936492 311.5964183 -28.93679428 315.11165428 C-28.93613668 316.77504674 -28.93691156 318.43844052 -28.93927383 320.10183144 C-28.98704132 363.24992971 -20.1329646 403.84694537 10.20483398 436.30957031 C11.32978685 437.42443392 12.46585904 438.52823869 13.61499023 439.61816406 C15.27903068 441.24111709 16.75961858 442.9483135 18.25952148 444.72363281 C21.71094152 448.73855 25.43642574 452.43979173 29.19702148 456.16113281 C33.40714724 460.32758507 37.4694338 464.51398708 41.29467773 469.04003906 C44.51651525 472.63235482 47.99137056 475.9747957 51.421875 479.36645508 C55.0382176 482.95759303 58.48900705 486.62596138 61.76733398 490.53222656 C63.35077698 492.40319906 63.35077698 492.40319906 66.07202148 494.72363281 C68.84847147 497.90838426 69.19702148 499.96815669 69.19702148 504.16113281 C67.85139749 507.10869013 67.11147604 508.70390553 64.19702148 510.16113281 C60.86167539 510.85931675 59.39852769 511.07715003 56.19702148 510.16113281 C52.07072287 507.08867026 48.64051823 503.40007237 45.13452148 499.66113281 C44.17216317 498.66716597 43.20798225 497.67496038 42.24194336 496.68457031 C37.61264745 491.91044472 33.15119024 487.01085465 28.80859375 481.97558594 C26.07596105 478.89894207 23.13631068 476.03854224 20.19702148 473.16113281 C15.92960951 468.94290003 11.80423913 464.69858813 7.92749023 460.11425781 C4.22482489 455.93517729 0.17943153 452.07142678 -3.80297852 448.16113281 C-3.9929541 448.78866455 -4.18292969 449.41619629 -4.37866211 450.06274414 C-10.58859507 470.29385808 -18.17501799 487.85539759 -31.80297852 504.16113281 C-32.51711914 505.08152344 -33.23125977 506.00191406 -33.96704102 506.95019531 C-35.80297852 509.16113281 -35.80297852 509.16113281 -37.80297852 510.16113281 C-44.85511122 510.72985319 -44.85511122 510.72985319 -48.30297852 508.66113281 C-50.3703256 505.21555433 -50.41968559 502.0429207 -49.80297852 498.16113281 C-47.89672852 494.99316406 -47.89672852 494.99316406 -45.30297852 491.97363281 C-44.3763647 490.84730638 -43.45458124 489.71699093 -42.53735352 488.58300781 C-42.07522461 488.01517578 -41.6130957 487.44734375 -41.13696289 486.86230469 C-28.48799885 470.73163459 -20.1723815 448.61355811 -20.39672852 427.97363281 C-20.98472372 423.9028968 -22.78470585 421.22319212 -25.03344727 417.83691406 C-30.82953474 409.07241092 -34.58565931 399.55025876 -37.99047852 389.66113281 C-38.31129395 388.7560498 -38.63210937 387.8509668 -38.96264648 386.91845703 C-45.11493073 368.3726709 -46.41543945 349.61568952 -46.33422852 330.21191406 C-46.33693272 327.8931614 -46.34082278 325.57440985 -46.3458252 323.25566101 C-46.35166368 318.44287101 -46.34333341 313.63038155 -46.32446289 308.81762695 C-46.3015346 302.67376569 -46.31492011 296.53059833 -46.33875275 290.38676167 C-46.35324388 285.6175976 -46.34859188 280.84859684 -46.33824158 276.07942772 C-46.33559081 273.81378278 -46.33878532 271.54812259 -46.34815979 269.2824955 C-46.35839623 266.11835222 -46.34273118 262.95532083 -46.32055664 259.79125977 C-46.32865356 258.8741925 -46.33675049 257.95712524 -46.34509277 257.01226807 C-46.26766869 251.0044703 -45.02404638 246.23674415 -42.72637272 240.68459511 C-41.20589427 236.52941413 -41.0423274 232.3961695 -40.86157227 228.00878906 C-40.80871063 227.07780899 -40.755849 226.14682892 -40.7013855 225.18763733 C-40.59054877 223.21379302 -40.48689287 221.23953373 -40.39004517 219.26495361 C-40.13768095 214.13332471 -39.83189708 209.00486325 -39.52954102 203.87597656 C-39.47125626 202.86708374 -39.4129715 201.85819092 -39.35292053 200.81872559 C-38.62397925 188.54884969 -37.31267965 176.35848242 -35.80297852 164.16113281 C-36.47844727 164.43828125 -37.15391602 164.71542969 -37.84985352 165.00097656 C-38.74188477 165.36320313 -39.63391602 165.72542969 -40.55297852 166.09863281 C-41.43469727 166.45828125 -42.31641602 166.81792969 -43.22485352 167.18847656 C-54.13371094 171.30409096 -69.46337483 170.83212576 -80.17016602 166.48535156 C-93.76381087 159.64819191 -104.15583997 150.4475313 -109.65234375 135.91552734 C-111.66964564 129.81152749 -112.31579349 124.19442914 -112.24047852 117.78613281 C-112.23218018 116.86783691 -112.22388184 115.94954102 -112.21533203 115.00341797 C-111.87265062 101.1961621 -106.47685195 90.03153652 -97.11547852 79.91113281 C-89.0372225 72.3016344 -78.01255662 66.06449115 -66.67797852 65.97363281 C-65.72922852 66.03550781 -64.78047852 66.09738281 -63.80297852 66.16113281 C-63.80040039 65.57589844 -63.79782227 64.99066406 -63.79516602 64.38769531 C-63.18268634 50.79064648 -58.15786306 36.88406846 -49.80297852 26.16113281 C-49.0849707 25.23945313 -48.36696289 24.31777344 -47.62719727 23.36816406 C-35.79899644 9.33306489 -18.55985154 0.1059371 0 0 Z M-28.80297852 29.16113281 C-29.69243164 29.91136719 -29.69243164 29.91136719 -30.59985352 30.67675781 C-42.31389818 41.35416135 -47.09396983 57.16252421 -48.00610352 72.59863281 C-48.34239006 98.15641056 -36.86522108 117.2476487 -23.80297852 138.16113281 C-19.74273531 136.12311146 -19.74273531 136.12311146 -17.80297852 132.16113281 C-18.09172852 131.29488281 -18.38047852 130.42863281 -18.67797852 129.53613281 C-21.73238724 120.37290665 -20.9753659 111.77170337 -17.17797852 102.91113281 C-14.76414395 98.42829718 -11.07923182 95.78367878 -6.80297852 93.16113281 C-6.19969727 92.7834375 -5.59641602 92.40574219 -4.97485352 92.01660156 C1.259433 89.56101029 9.88393201 90.32119217 16.07202148 92.66113281 C17.10327148 93.15613281 18.13452148 93.65113281 19.19702148 94.16113281 C27.20244963 84.24965034 33.24860514 74.22392435 37.32202148 62.03613281 C38.80579564 57.75456417 40.08167606 55.41477436 44.19702148 53.16113281 C48.56046736 51.4642372 52.2813591 50.92335818 56.94702148 50.78613281 C65.94465381 50.23622483 74.60425223 47.60953486 81.19702148 41.16113281 C83.39202545 38.27015197 85.3421947 35.27968774 87.19702148 32.16113281 C83.67307315 27.45366976 80.73150349 24.99158594 75.32202148 22.41113281 C73.56245117 21.55261719 73.56245117 21.55261719 71.76733398 20.67675781 C61.77236203 16.43381567 51.98750596 16.0055468 41.27514648 15.99316406 C39.74238068 15.98817146 39.74238068 15.98817146 38.1786499 15.983078 C36.02722622 15.97804153 33.87579481 15.97566866 31.72436523 15.97583008 C28.47032493 15.97364844 25.21662679 15.95547054 21.96264648 15.93652344 C3.4242559 15.88480749 -14.12744467 16.2721857 -28.80297852 29.16113281 Z M97.19702148 47.16113281 C96.81932617 47.65742187 96.44163086 48.15371094 96.05249023 48.66503906 C87.43821622 59.29670746 76.00479181 64.9441855 62.48217773 66.62207031 C59.38507607 66.87091453 56.30209577 67.05949372 53.19702148 67.16113281 C52.91729492 67.8765625 52.63756836 68.59199219 52.34936523 69.32910156 C46.62305945 83.56200951 38.7662898 102.87649865 24.19702148 110.16113281 C17.64231497 110.71806866 13.0079386 110.40443539 7.19702148 107.16113281 C4.15393858 106.41098086 4.15393858 106.41098086 1.19702148 107.16113281 C-2.01403227 109.81374243 -3.42477001 111.45492902 -4.32250977 115.50488281 C-4.71411234 121.40624252 -3.35143008 125.03565729 0.50952148 129.47753906 C5.61374702 134.56994926 10.57695746 135.95254123 17.48999023 137.35253906 C20.32917837 138.20060825 21.51208658 138.75003067 23.19702148 141.16113281 C23.59545898 143.09863281 23.59545898 143.09863281 23.57202148 145.16113281 C23.58362305 146.18207031 23.58362305 146.18207031 23.59545898 147.22363281 C23.06814934 149.78780519 22.32167393 150.64418663 20.19702148 152.16113281 C10.88497313 153.90714188 2.33485115 150.35277593 -5.80297852 146.16113281 C-6.33407227 146.57105469 -6.86516602 146.98097656 -7.41235352 147.40332031 C-8.11875977 147.94214844 -8.82516602 148.48097656 -9.55297852 149.03613281 C-10.24907227 149.56980469 -10.94516602 150.10347656 -11.66235352 150.65332031 C-13.80297852 152.16113281 -13.80297852 152.16113281 -15.87792969 152.93017578 C-18.02910814 154.01039325 -18.02910814 154.01039325 -18.48486328 156.44726562 C-18.57050537 157.40987305 -18.65614746 158.37248047 -18.74438477 159.36425781 C-18.85161865 160.47260986 -18.95885254 161.58096191 -19.06933594 162.72290039 C-19.21592651 164.54857544 -19.21592651 164.54857544 -19.36547852 166.41113281 C-19.48060791 167.66627686 -19.5957373 168.9214209 -19.71435547 170.21459961 C-20.03512543 173.74290667 -20.32814337 177.27300348 -20.61291504 180.80438232 C-20.81323176 183.28827113 -21.01735756 185.77182884 -21.22192383 188.25537109 C-22.12164911 199.22099933 -22.97766398 210.18966849 -23.80297852 221.16113281 C-23.25625488 221.0211084 -22.70953125 220.88108398 -22.14624023 220.73681641 C-10.28579075 217.87482188 3.21875955 217.13106971 14.19702148 223.16113281 C16.63136588 224.8140322 18.9894779 226.55106511 21.35717773 228.29785156 C29.66778533 233.75061611 39.406814 237.07302238 48.82202148 240.09863281 C49.47251465 240.3102002 50.12300781 240.52176758 50.79321289 240.73974609 C54.69738247 241.93096896 58.12375212 242.36792956 62.19702148 242.16113281 C58.2557631 237.50421206 58.2557631 237.50421206 54.14624023 232.99707031 C49.58203549 228.14912282 45.63037695 223.1291656 41.94702148 217.59863281 C41.30144287 216.63123169 41.30144287 216.63123169 40.64282227 215.64428711 C38.37763929 212.17929128 36.50998858 208.76218119 34.82202148 204.97363281 C32.73446069 200.92041258 30.20746768 200.10702475 25.94702148 198.72363281 C24.88999023 198.45679688 23.83295898 198.18996094 22.74389648 197.91503906 C21.90342773 197.66625 21.06295898 197.41746094 20.19702148 197.16113281 C18.63927213 194.04563409 18.63221527 190.55669401 19.19702148 187.16113281 C20.70072941 185.27064969 21.64873755 184.29266817 24.02270508 183.72314453 C34.00405876 183.68988074 43.69470633 186.56178237 53.3347168 188.89404297 C55.77760081 189.48062197 58.22491258 190.04459553 60.67358398 190.60644531 C61.77858749 190.88441452 61.77858749 190.88441452 62.90591431 191.16799927 C68.9542527 192.53778344 73.94677081 192.04582678 79.44702148 188.85644531 C91.48068516 178.05838104 96.91839718 164.85435038 98.98339844 149.17407227 C99.69763733 144.30601511 100.99050262 141.05393899 104.19702148 137.16113281 C106.33764648 135.70019531 106.33764648 135.70019531 108.44702148 134.78613281 C109.15342773 134.46902344 109.85983398 134.15191406 110.58764648 133.82519531 C111.11874023 133.60605469 111.64983398 133.38691406 112.19702148 133.16113281 C111.65432617 132.24332031 111.11163086 131.32550781 110.55249023 130.37988281 C101.74098513 115.32954487 98.70872014 103.1932175 101.19702148 85.59863281 C102.80043758 73.99080359 104.8676128 58.93005393 99.19702148 48.16113281 C98.20702148 47.66613281 98.20702148 47.66613281 97.19702148 47.16113281 Z M-84.76000977 92.10253906 C-91.67047333 99.06585512 -95.07627637 107.68840741 -95.17797852 117.41113281 C-94.99877221 128.18459426 -91.49951934 136.52300976 -83.80297852 144.16113281 C-74.93238286 150.72621708 -65.40697873 154.17076832 -54.36547852 152.53613281 C-48.87529041 151.4319609 -44.47757264 149.18519123 -39.80297852 146.16113281 C-40.46136735 142.65176245 -41.88861156 140.11185294 -43.75219727 137.08300781 C-44.64974731 135.60102905 -44.64974731 135.60102905 -45.56542969 134.08911133 C-46.2006958 133.04037842 -46.83596191 131.99164551 -47.49047852 130.91113281 C-55.67602378 117.089199 -60.89989824 104.45340036 -63.26000977 88.51269531 C-63.60950936 85.29938656 -63.60950936 85.29938656 -64.80297852 83.16113281 C-72.23873579 83.16113281 -79.16623061 87.49880931 -84.76000977 92.10253906 Z M121.19702148 344.16113281 C120.6053418 344.80953125 120.01366211 345.45792969 119.40405273 346.12597656 C116.28812034 349.86361519 114.22308674 353.20955015 113.97045898 358.14550781 C114.48371299 362.71169861 116.32292606 366.43715873 119.70874023 369.55175781 C124.23717252 372.5496011 128.89580251 373.08350608 134.19702148 372.16113281 C140.76644987 369.19844942 144.48420045 363.00041533 147.34545898 356.58691406 C148.70933156 352.70175411 148.96078341 349.16755602 147.47436523 345.26269531 C145.38657615 341.25616889 143.43746822 338.72825443 139.19702148 337.16113281 C130.9018253 335.6281691 126.64069591 338.01805696 121.19702148 344.16113281 Z " fill="#000000" transform="translate(201.802978515625,0.8388671875)"/>
</svg>
