<?xml version="1.0" encoding="utf-8"?>
<!-- Generator: Adobe Illustrator 16.0.0, SVG Export Plug-In . SVG Version: 6.00 Build 0)  -->
<!DOCTYPE svg PUBLIC "-//W3C//DTD SVG 1.1//EN" "http://www.w3.org/Graphics/SVG/1.1/DTD/svg11.dtd">
<svg version="1.1" id="Layer_1" xmlns="http://www.w3.org/2000/svg" xmlns:xlink="http://www.w3.org/1999/xlink" x="0px" y="0px"
	 width="225px" height="225px" viewBox="0 0 225 225" enable-background="new 0 0 225 225" xml:space="preserve">
<path fill-rule="evenodd" clip-rule="evenodd" d="M118.607,23.564c0.346,0.222,0.672,0.587,1.038,0.635
	c0.868,0.114,1.757,0.1,2.636,0.096c2.864-0.012,5.595,0.741,8.346,1.409c1.518,0.369,3.078,0.563,4.6,0.926
	c1.234,0.293,2.445,0.696,3.651,1.093c1.129,0.371,2.251,0.767,3.353,1.208c1.666,0.669,3.316,1.378,4.965,2.089
	c1.41,0.607,2.826,1.205,4.207,1.874c1.625,0.787,3.248,1.586,4.81,2.488c1.532,0.885,3.034,1.841,4.466,2.881
	c2.285,1.66,4.484,3.441,6.754,5.125c3.436,2.548,6.441,5.548,9.24,8.757c2.098,2.406,4.182,4.835,6.106,7.379
	c1.868,2.469,3.588,5.058,5.25,7.672c0.763,1.199,1.21,2.595,1.841,3.882c0.559,1.141,1.17,2.256,1.764,3.38
	c0.356,0.674,0.808,1.311,1.07,2.019c0.89,2.4,1.735,4.818,2.559,7.242c0.73,2.146,1.408,4.31,2.111,6.466
	c0.013,0.039,0.045,0.074,0.052,0.113c0.313,1.806,0.456,3.661,0.97,5.407c0.826,2.803,0.246,5.755,0.896,8.477
	c0.92,3.835,0.66,7.648,0.408,11.42c-0.179,2.66-0.516,5.341-0.721,8.021c-0.107,1.414-0.408,2.821-0.719,4.21
	c-0.469,2.105-0.941,4.216-1.562,6.278c-0.601,1.99-1.39,3.922-2.097,5.88c-0.6,1.665-1.086,3.383-1.827,4.982
	c-1.091,2.35-2.321,4.638-3.569,6.911c-1.299,2.366-2.569,4.766-4.074,7c-1.78,2.643-3.748,5.167-5.73,7.664
	c-1.342,1.687-2.797,3.293-4.298,4.84c-2.84,2.927-5.796,5.739-9.116,8.13c-2.806,2.021-5.592,4.076-8.484,5.968
	c-1.606,1.05-3.412,1.793-5.125,2.681c-1.812,0.938-3.563,2.012-5.439,2.796c-2.346,0.98-4.793,1.716-7.19,2.574
	c-1.185,0.424-2.342,0.924-3.535,1.317c-0.97,0.319-1.965,0.573-2.965,0.782c-1.724,0.36-3.499,0.531-5.183,1.021
	c-2.753,0.801-5.658,0.267-8.339,0.899c-4.251,1.004-8.499,0.699-12.679,0.347c-2.365-0.198-4.77-0.333-7.141-0.618
	c-1.417-0.169-2.825-0.435-4.217-0.745c-2.097-0.469-4.205-0.913-6.252-1.552c-2.676-0.839-5.313-1.817-7.937-2.812
	c-2.101-0.798-4.183-1.655-6.226-2.592c-1.281-0.589-2.467-1.386-3.709-2.066c-1.557-0.854-3.179-1.6-4.677-2.544
	c-1.778-1.122-3.458-2.4-5.173-3.623c-1.594-1.136-3.213-2.24-4.752-3.447c-1.279-1.004-2.521-2.074-3.666-3.225
	c-1.932-1.937-3.83-3.909-5.64-5.958c-1.843-2.088-3.653-4.217-5.306-6.456c-1.86-2.521-3.602-5.139-5.253-7.802
	c-0.985-1.589-1.703-3.344-2.535-5.025c-0.972-1.962-2.032-3.887-2.876-5.901c-0.73-1.745-1.192-3.601-1.81-5.396
	c-0.427-1.239-0.958-2.442-1.365-3.688c-0.342-1.045-0.596-2.121-0.847-3.193c-0.265-1.122-0.563-2.247-0.703-3.387
	c-0.374-3.064-0.65-6.141-1.025-9.206c-0.053-0.446-0.422-0.855-0.645-1.282c0-4.36,0-8.72,0-13.08
	c0.221-0.234,0.623-0.459,0.637-0.705c0.141-2.592,0.043-5.18,0.822-7.735c0.537-1.754,0.613-3.646,0.957-5.464
	c0.188-1.005,0.447-2.007,0.775-2.976c0.68-2.002,1.426-3.982,2.148-5.97c0.615-1.696,1.139-3.435,1.879-5.075
	c0.811-1.795,1.818-3.501,2.75-5.24c1.072-2.001,2.096-4.032,3.254-5.983c0.928-1.561,1.992-3.043,3.055-4.52
	c0.97-1.348,2.004-2.649,3.035-3.952c1.363-1.721,2.611-3.562,4.156-5.105c2.656-2.656,5.462-5.167,8.282-7.65
	c1.634-1.438,3.394-2.738,5.147-4.033c1.46-1.078,2.969-2.097,4.503-3.065c1.032-0.652,2.146-1.177,3.229-1.75
	c1.069-0.566,2.152-1.105,3.214-1.686c1.207-0.662,2.357-1.444,3.605-2.014c1.453-0.664,2.981-1.167,4.484-1.72
	c2.718-1.001,5.411-2.082,8.17-2.951c2.062-0.649,4.192-1.136,6.325-1.483c2.634-0.43,5.302-0.648,7.956-0.941
	c0.498-0.055,1.023,0.046,1.5-0.074c0.318-0.08,0.57-0.421,0.852-0.646C110.224,23.564,114.417,23.564,118.607,23.564z
	 M115.694,27.473c-49.609,0.293-87.282,37.451-86.442,85.145c0.783,44.456,37.063,83.378,86.953,81.489
	c27.604-1.045,49.732-13.694,65.475-36.448c10.268-14.842,15.151-31.71,14.242-49.79c-1.4-27.828-13.587-50.111-36.475-66.07
	C145.381,31.991,129.428,27.482,115.694,27.473z"/>
<path fill-rule="evenodd" clip-rule="evenodd" d="M152.078,121.325c-0.489-1.034-0.781-1.794-1.189-2.487
	c-1.701-2.89-3.471-5.743-5.149-8.647c-0.915-1.58-1.515-3.377-2.61-4.805c-0.669-0.872-0.54-1.634-0.572-2.479
	c-0.068-1.758,0.069-3.54-0.166-5.272c-0.219-1.604-0.752-3.179-1.264-4.728c-0.492-1.499-1.088-2.969-1.727-4.414
	c-0.522-1.181-1.055-2.39-1.795-3.435c-1.105-1.557-2.332-3.042-3.627-4.445c-1.529-1.653-3.109-3.279-5.167-4.322
	c-2.077-1.053-4.173-2.078-6.212-3.203c-1.636-0.901-3.453-1.077-5.184-1.591c-3.605-1.073-7.213-0.54-10.807-0.493
	c-1.666,0.021-3.343,0.713-4.977,1.219c-1.74,0.538-3.506,1.074-5.133,1.87c-1.686,0.825-3.3,1.854-4.797,2.99
	c-1.614,1.227-3.194,2.558-4.541,4.065c-1.57,1.756-3,3.672-4.24,5.674c-0.836,1.348-1.238,2.964-1.833,4.462
	c-0.435,1.093-0.868,2.186-1.298,3.281c-0.045,0.116-0.084,0.239-0.098,0.362c-0.367,3.535-1.232,7.038-0.787,10.627
	c0.207,1.662,0.428,3.333,0.819,4.957c0.356,1.47,0.759,2.986,1.478,4.298c1.897,3.464,3.47,7.163,6.712,9.736
	c0.546,0.434,0.948,1.393,0.954,2.112c0.065,9.431,0.048,18.862,0.049,28.293c0,0.123-0.041,0.245-0.096,0.558
	c-1.049,0-2.133,0.079-3.188-0.057c-0.255-0.032-0.595-0.772-0.597-1.188c-0.031-7.629-0.135-15.26,0.049-22.885
	c0.068-2.787-0.523-4.988-2.481-7.035c-1.274-1.331-2.079-3.126-3.021-4.756c-0.766-1.324-1.521-2.672-2.097-4.083
	c-0.487-1.192-0.765-2.481-1.042-3.747c-0.457-2.087-1.024-4.175-1.203-6.291c-0.168-2.015,0.086-4.067,0.184-6.102
	c0.027-0.582,0.147-1.161,0.247-1.737c0.296-1.71,0.446-3.465,0.945-5.115c0.601-1.983,1.316-3.978,2.317-5.781
	c1.369-2.462,2.8-4.978,4.67-7.05c2.146-2.379,4.736-4.38,7.26-6.387c1.475-1.172,3.154-2.114,4.824-3.004
	c0.923-0.492,2.025-0.636,3.029-0.988c1.127-0.396,2.234-0.849,3.352-1.277c0.152-0.058,0.303-0.135,0.461-0.166
	c4.285-0.851,8.615-1.104,12.95-0.665c1.578,0.159,3.103,0.851,4.652,1.299c0.915,0.265,1.821,0.565,2.747,0.788
	c2.78,0.669,5.195,2.045,7.434,3.776c1.746,1.351,3.631,2.555,5.212,4.076c1.648,1.584,3.096,3.405,4.468,5.245
	c1.17,1.57,2.266,3.237,3.105,5c0.767,1.607,1.148,3.399,1.693,5.112c0.437,1.37,0.871,2.741,1.288,4.116
	c0.097,0.315,0.168,0.649,0.179,0.977c0.045,1.172,0.189,2.36,0.055,3.515c-0.252,2.159,0.742,3.8,1.828,5.508
	c1.311,2.063,2.441,4.244,3.648,6.374c0.533,0.939,1.051,1.888,1.596,2.819c0.982,1.681,1.986,3.347,2.967,5.027
	c0.781,1.334,1.538,2.682,2.465,4.308c-3.269,0-6.213,0-9.287,0c-0.031,0.621-0.07,1.062-0.072,1.502
	c-0.016,3.646,0.027,7.294-0.051,10.938c-0.04,1.826-0.983,3.326-1.885,4.901c-1.228,2.142-3.174,3.23-5.188,4.193
	c-1.228,0.587-2.722,0.792-4.108,0.841c-3.348,0.117-6.705,0.038-10.058,0.049c-0.62,0.002-1.241,0.058-1.976,0.094
	c-0.024,0.517-0.064,0.961-0.065,1.405c-0.004,5.7-0.026,11.4,0.018,17.101c0.009,1.079-0.202,1.572-1.424,1.589
	c-2.489,0.034-2.485,0.105-2.487-2.413c-0.004-6.665-0.011-13.328-0.012-19.993c0-0.488,0.045-0.978,0.074-1.558
	c3.017,0,5.904-0.001,8.789,0c2.139,0,4.279-0.059,6.412,0.021c1.979,0.073,3.801-0.423,5.366-1.534
	c0.817-0.581,1.297-1.625,1.972-2.423c1.215-1.431,0.744-3.138,0.768-4.737c0.061-4.147,0.059-8.299-0.004-12.446
	c-0.018-1.082,0.358-1.388,1.363-1.354C148.504,121.365,150.049,121.325,152.078,121.325z"/>
<path fill-rule="evenodd" clip-rule="evenodd" d="M112.898,79.38c-1.58,0-2.959,0.037-4.336-0.008
	c-2.524-0.082-4.881,0.788-7.083,1.726c-3.618,1.542-6.665,4.06-9.213,7.077c-0.782,0.927-1.284,2.105-1.838,3.208
	c-0.762,1.521-1.451,3.077-2.171,4.619c-0.018,0.037-0.014,0.082-0.023,0.123c-0.84,3.407-1.318,6.925-0.663,10.33
	c0.403,2.095,0.913,4.257,1.845,6.327c1.252,2.782,3.068,5.037,4.978,7.285c0.646,0.76,1.466,1.394,2.276,1.99
	c1.011,0.743,2.077,1.412,3.15,2.064c0.633,0.385,1.297,0.748,1.993,0.993c3.462,1.212,7.002,2.019,10.702,1.617
	c2.007-0.218,4.047-0.376,5.981-0.897c1.46-0.394,2.727-1.444,4.161-1.985c2.537-0.955,4.426-2.705,6.175-4.655
	c1.467-1.637,2.806-3.341,3.686-5.418c0.598-1.414,1.056-2.865,1.61-4.265c0.909-2.293,0.512-4.573,0.646-6.851
	c0.066-1.094,0.424-1.5,1.475-1.505c2.781-0.015,2.471-0.457,2.473,2.409c0,0.795-0.08,1.591-0.081,2.387
	c-0.001,2.213-0.696,4.248-1.536,6.255c-0.577,1.377-0.941,2.884-1.728,4.126c-1.265,1.995-2.606,4.017-4.272,5.664
	c-2.004,1.981-4.309,3.689-6.631,5.304c-1.176,0.816-2.654,1.237-4.04,1.706c-1.663,0.563-3.356,1.062-5.067,1.44
	c-1.007,0.222-2.084,0.104-3.117,0.234c-2.787,0.349-5.545-0.196-8.123-0.942c-3.064-0.887-6.146-2.092-8.631-4.268
	c-2.174-1.906-4.486-3.734-6.297-5.956c-1.467-1.802-2.15-4.219-3.419-6.212c-1.449-2.281-1.513-4.915-2.069-7.382
	c-0.488-2.167-0.689-4.552,0.284-6.776c0.147-0.335,0.179-0.733,0.209-1.106c0.144-1.771,0.612-3.418,1.511-4.978
	c0.605-1.052,0.842-2.328,1.504-3.333c1.264-1.92,2.532-3.895,4.13-5.522c1.94-1.975,4.124-3.758,6.396-5.344
	c1.294-0.903,3.002-1.193,4.481-1.854c2.996-1.339,6.15-1.511,9.362-1.487c1.097,0.008,1.677,0.185,1.446,1.444
	C112.903,77.691,112.944,78.451,112.898,79.38z"/>
<path fill-rule="evenodd" clip-rule="evenodd" d="M109.088,121.99c0.059-0.787,0.023-1.546,0.19-2.258
	c0.221-0.94,0.689-1.633,1.897-1.504c2.707,0.287,5.283-0.381,7.621-1.642c2.108-1.139,3.878-2.708,5.239-4.811
	c1.339-2.066,2.224-4.15,2.241-6.624c0.004-0.601,0.663-1.245,0.566-1.789c-0.367-2.089-0.611-4.186-1.295-6.245
	c-0.939-2.829-2.88-4.784-4.984-6.595c-1.02-0.879-2.456-1.325-3.762-1.812c-1.446-0.541-2.938-1.021-4.45-1.297
	c-0.827-0.151-1.741,0.168-2.614,0.292c-0.241,0.035-0.477,0.19-0.712,0.184c-3.263-0.09-5.772,1.625-8.157,3.512
	c-1.592,1.26-2.535,3.017-3.508,4.82c-1.242,2.309-1.517,4.659-1.436,7.145c0.041,1.203-0.374,1.809-1.662,1.685
	c-0.696-0.067-1.404-0.012-2.09-0.012c-1.19-6.884,3.208-14.216,8.08-17.76c4.563-3.319,9.785-3.873,15.128-3.007
	c3.53,0.573,6.62,2.497,9.134,5.004c6.914,6.893,6.91,15.041,4.509,21.032c-1.594,3.974-4.605,7.05-8.243,9.301
	C117.275,121.78,113.381,122.629,109.088,121.99z"/>
<path fill-rule="evenodd" clip-rule="evenodd" d="M111.135,113.621c-5.498,0.6-11.106-5.485-10.648-11.208
	c0.475-5.938,5.145-10.253,11.197-10.187c5.389,0.059,10.541,4.966,10.379,11.253C121.936,108.419,117.156,114.029,111.135,113.621z
	 M104.434,102.944c-0.505,3.897,2.888,6.921,6.586,6.992c4.797,0.092,7.304-3.17,7.266-6.83c-0.05-4.603-2.715-7.099-7.178-7.204
	C108.086,95.833,104.129,98.035,104.434,102.944z"/>
<path fill-rule="evenodd" clip-rule="evenodd" d="M114.555,61.478c-1.408,0-2.566,0-3.909,0c0-1.77-0.03-3.471,0.032-5.167
	c0.01-0.252,0.455-0.489,0.703-0.728c0.023-0.022,0.082-0.006,0.122-0.013c2.843-0.464,3.093-0.246,3.054,2.611
	C114.543,59.255,114.555,60.331,114.555,61.478z"/>
<path fill-rule="evenodd" clip-rule="evenodd" d="M83.848,63.545c1.139,1.241,2.25,2.373,3.246,3.597
	c0.234,0.286,0.279,1.048,0.066,1.312c-0.465,0.573-1.139,0.984-1.75,1.429c-1.076,0.782-1.4-0.457-1.871-0.864
	c-0.868-0.751-1.526-1.755-2.213-2.696c-0.139-0.19-0.137-0.717,0.01-0.843C82.145,64.788,83.02,64.17,83.848,63.545z"/>
<path fill-rule="evenodd" clip-rule="evenodd" d="M142.821,69.566c-0.771,1.003-1.389,1.976-2.173,2.79
	c-1.263,1.313-2.375,1.189-3.547-0.252c-0.563-0.694-0.279-1.346,0.182-1.919c0.725-0.902,1.494-1.77,2.266-2.634
	c0.43-0.48,0.871-0.731,1.389-0.039c0.299,0.399,0.734,0.693,1.084,1.059C142.271,68.834,142.48,69.138,142.821,69.566z"/>
<path fill-rule="evenodd" clip-rule="evenodd" d="M126.421,58.706c1.251,0.468,2.413,0.903,3.519,1.317
	c-0.563,1.705-1.1,3.161-1.515,4.65c-0.251,0.898-0.774,0.689-1.34,0.503c-0.493-0.162-0.963-0.464-1.462-0.521
	c-0.845-0.095-1.133-0.586-0.93-1.27c0.28-0.939,0.749-1.821,1.102-2.742C126.027,60.04,126.197,59.411,126.421,58.706z"/>
<path fill-rule="evenodd" clip-rule="evenodd" d="M70.328,107.848c-2.125,0.337-4.055,0.642-6.133,0.971
	c-0.075-1.296-0.141-2.445-0.209-3.637c1.848-0.384,3.578-0.742,5.264-1.092C69.656,105.508,69.986,106.654,70.328,107.848z"/>
<path fill-rule="evenodd" clip-rule="evenodd" d="M147.086,85.594c-0.616-1.167-1.201-2.274-1.713-3.246
	c1.565-1.064,2.813-1.972,4.121-2.78c0.924-0.57,0.971,0.587,1.42,0.915c0.379,0.277,0.673,0.871,0.712,1.349
	c0.036,0.448-0.174,1.124-0.512,1.358C149.943,84.004,148.67,84.669,147.086,85.594z"/>
<path fill-rule="evenodd" clip-rule="evenodd" d="M70.137,93.764c-1.558-0.314-3.127-0.582-4.67-0.958
	c-1.219-0.297-0.62-1.322-0.535-1.977c0.064-0.494,0.64-1.325,0.965-1.315c1.475,0.044,2.947,0.289,4.406,0.551
	c1.133,0.204,0.785,1.077,0.596,1.757c-0.146,0.527-0.459,1.008-0.697,1.51C70.18,93.477,70.158,93.62,70.137,93.764z"/>
<path fill-rule="evenodd" clip-rule="evenodd" d="M72.035,118.025c1.631,0.239,1.639,1.498,2.08,2.361
	c0.553,1.078-0.637,1.228-1.117,1.672c-0.586,0.543-1.352,0.895-2.052,1.307c-0.589,0.348-1.185,0.653-1.69-0.158
	c-0.358-0.576-0.795-1.107-1.123-1.699c-0.121-0.221-0.158-0.722-0.031-0.813C69.443,119.736,70.826,118.834,72.035,118.025z"/>
<path fill-rule="evenodd" clip-rule="evenodd" d="M83.342,131.804c-1.058,1.379-1.976,2.677-3.021,3.862
	c-0.248,0.281-1.026,0.395-1.376,0.219c-0.577-0.292-1.117-0.813-1.455-1.369c-0.225-0.373-0.276-1.113-0.051-1.447
	c0.635-0.943,1.52-1.714,2.18-2.642c0.513-0.722,0.994-0.711,1.606-0.255C81.903,130.678,82.566,131.204,83.342,131.804z"/>
<path fill-rule="evenodd" clip-rule="evenodd" d="M77.523,77.308c-0.752,1.251-1.425,2.372-2.09,3.476
	c-1.73-1.033-3.416-2.04-5.041-3.009c0.645-1.007,1.193-1.864,1.895-2.959C74.092,74.972,75.331,76.911,77.523,77.308z"/>
<path fill-rule="evenodd" clip-rule="evenodd" d="M96.887,63.41c-0.711-2.016-1.305-3.697-1.906-5.404
	c1.473-0.425,2.609-0.754,3.611-1.042c0.67,1.863,1.252,3.478,1.908,5.303C99.334,62.636,98.158,63.008,96.887,63.41z"/>
<path fill-rule="evenodd" clip-rule="evenodd" d="M155.531,94.922c0.045,0.603,0.037,1.145,0.137,1.666
	c0.254,1.33,0.093,1.908-1.913,2.165c-1.066,0.137-2.151,0.122-3.313,0.179c-0.203-0.916-0.41-1.846-0.641-2.893
	C150.865,94.926,151.984,94.676,155.531,94.922z"/>
<path fill-rule="evenodd" clip-rule="evenodd" d="M102.607,115.825c0.588,0.304,1.468,0.751,2.338,1.218
	c0.094,0.049,0.213,0.238,0.184,0.309c-0.426,1.052-0.848,2.106-1.355,3.12c-0.049,0.097-0.696,0.002-0.99-0.15
	c-0.811-0.423-1.588-0.91-2.361-1.403c-0.209-0.133-0.471-0.36-0.5-0.573C99.824,117.603,101.522,115.803,102.607,115.825z"/>
<path fill-rule="evenodd" clip-rule="evenodd" d="M97.051,108.707c0.662,1.473,1.144,2.548,1.616,3.6
	c-0.673,0.619-1.33,1.328-2.104,1.875c-0.245,0.174-1.012,0.06-1.174-0.176c-0.633-0.922-1.139-1.934-1.645-2.936
	c-0.082-0.163,0.002-0.577,0.135-0.654C94.928,109.812,96.006,109.261,97.051,108.707z"/>
<path fill-rule="evenodd" clip-rule="evenodd" d="M134.672,88.446c-0.782,0.568-1.543,1.243-2.422,1.691
	c-0.297,0.152-1.028-0.142-1.314-0.457c-0.561-0.619-0.95-1.396-1.437-2.148c0.452-0.381,0.919-0.755,1.366-1.153
	c1.356-1.212,2.371-0.96,3.042,0.733C134.072,87.529,134.354,87.901,134.672,88.446z"/>
<path fill-rule="evenodd" clip-rule="evenodd" d="M121.605,77.29c-0.373,1.133-0.679,2.211-1.106,3.238
	c-0.084,0.202-0.675,0.36-0.96,0.28c-0.84-0.235-1.642-0.601-2.671-0.996c0.272-1.013,0.584-2.176,0.968-3.606
	C118.984,76.536,120.159,76.874,121.605,77.29z"/>
<path fill-rule="evenodd" clip-rule="evenodd" d="M126.621,84.827c-0.813-0.578-1.588-1.039-2.238-1.637
	c-0.252-0.233-0.426-0.885-0.281-1.157c0.465-0.873,1.096-1.656,1.666-2.478C128.715,81.572,129.971,81.215,126.621,84.827z"/>
<path fill-rule="evenodd" clip-rule="evenodd" d="M138.012,96.344c-1.457,0.416-2.585,0.737-3.715,1.059
	c-0.3-1.132-0.588-1.981-0.721-2.854c-0.045-0.289,0.228-0.795,0.492-0.93c0.816-0.414,1.698-0.696,2.725-1.097
	C137.191,93.772,137.586,95.007,138.012,96.344z"/>
</svg>
