<?xml version="1.0" encoding="utf-8"?>
<!-- Generator: Adobe Illustrator 16.0.0, SVG Export Plug-In . SVG Version: 6.00 Build 0)  -->
<!DOCTYPE svg PUBLIC "-//W3C//DTD SVG 1.1//EN" "http://www.w3.org/Graphics/SVG/1.1/DTD/svg11.dtd">
<svg version="1.1" id="Layer_1" xmlns="http://www.w3.org/2000/svg" xmlns:xlink="http://www.w3.org/1999/xlink" x="0px" y="0px"
	 width="225px" height="225px" viewBox="0 0 225 225" enable-background="new 0 0 225 225" xml:space="preserve">
<g>
	<path fill-rule="evenodd" clip-rule="evenodd" d="M56.85,136.539c-1.647-0.217-2.975-0.472-4.311-0.55
		c-5.898-0.348-9.067-5.063-6.894-10.56c1.313-3.32,2.946-6.516,4.425-9.771c1.367-3.012,2.623-6.066,2.845-9.419
		c0.05-0.741,0.032-1.552-0.212-2.238c-3.369-9.387-2.974-18.766,0.009-28.137c2.513-7.899,5.519-15.589,10.201-22.502
		c6.194-9.143,14.535-15.582,24.853-19.469c11.396-4.294,23.203-5.086,35.22-4.083c8.681,0.725,17.093,2.591,25.142,5.961
		c9.842,4.122,18.264,10.116,24.486,18.916c4.704,6.648,7.48,14.076,8.6,22.12c1.574,11.3,0.538,22.442-2.658,33.324
		c-1.785,6.083-4.136,12.012-6.437,17.929c-1.585,4.073-2.483,8.253-2.747,12.569c-0.504,8.248-0.021,16.474,0.938,24.668
		c0.804,6.834,1.735,13.651,2.575,20.48c0.275,2.232-0.673,3.232-2.953,3.23c-24.479-0.013-48.957-0.028-73.436-0.045
		c-2.123,0-3.11-0.958-2.962-3.083c0.16-2.285,0.487-4.56,0.72-6.84c0.055-0.517,0.1-1.05,0.021-1.558
		c-0.26-1.688-0.734-1.982-2.403-1.688c-6.622,1.168-13.275,1.959-20.017,1.649c-2.684-0.123-5.352-0.443-7.832-1.553
		c-2.899-1.297-4.573-3.685-5.022-6.724c-0.394-2.664-0.439-5.396-0.439-8.095c-0.001-1.612-0.377-2.827-1.642-3.921
		c-2.289-1.979-2.65-4.167-1.096-7.02c0.699-1.282,0.682-2.198-0.303-3.19c-0.244-0.243-0.408-0.563-0.621-0.834
		c-0.732-0.924-0.867-1.873-0.415-3.013C55.307,141.041,55.996,138.934,56.85,136.539z M167.52,183.938
		c-0.068-0.709-0.108-1.297-0.184-1.88c-0.653-5.206-1.396-10.403-1.959-15.622c-0.913-8.473-1.579-16.963-1.05-25.497
		c0.331-5.343,1.358-10.508,3.439-15.487c3.554-8.502,6.761-17.125,8.132-26.312c1.168-7.819,1.452-15.643,0.084-23.462
		c-1.395-7.962-4.525-15.15-9.809-21.323c-7.409-8.659-17.073-13.598-27.823-16.683c-7.086-2.034-14.338-3.021-21.705-3.204
		c-9.533-0.235-18.877,0.768-27.829,4.291C78.475,42.828,70.539,49.712,65.07,59.37c-3.629,6.403-6.307,13.217-8.219,20.324
		c-1.87,6.946-2.277,13.904,0.081,20.842c0.811,2.383,1.32,4.745,0.884,7.337c-0.553,3.296-1.625,6.385-2.979,9.4
		c-1.505,3.359-3.097,6.676-4.55,10.056c-0.878,2.043,0.169,3.42,2.384,3.656c1.957,0.207,3.94,0.486,5.82,1.046
		c2.604,0.774,3.625,2.579,3.057,5.231c-0.433,2.027-1.156,3.992-1.688,6.002c-0.104,0.39-0.042,0.926,0.159,1.273
		c0.464,0.807,1.07,1.532,1.602,2.307c0.715,1.039,0.708,2.053,0.054,3.104c-0.46,0.735-0.846,1.517-1.311,2.248
		c-0.447,0.696-0.267,1.183,0.338,1.684c2.04,1.69,2.955,3.877,2.828,6.527c-0.061,1.284-0.09,2.577-0.023,3.859
		c0.074,1.417,0.161,2.851,0.448,4.233c0.331,1.602,1.325,2.779,2.998,3.119c1.696,0.348,3.409,0.721,5.131,0.811
		c6.531,0.346,12.97-0.527,19.384-1.66c1.01-0.179,2.104-0.42,3.068-0.213c2.361,0.512,3.418,2.447,4.242,4.493
		c0.917,2.272,0.478,4.588,0.148,6.896c-0.09,0.634-0.135,1.274-0.209,1.991C121.728,183.938,144.555,183.938,167.52,183.938z"/>
	<path fill-rule="evenodd" clip-rule="evenodd" d="M104.957,103.342c-1.66,0.254-3.34,0.484-5.004,0.792
		c-0.244,0.046-0.467,0.429-0.621,0.699c-1.189,2.107-2.109,4.419-3.582,6.301c-3.53,4.505-8.201,4.727-12.461,0.868
		c-3.029-2.744-4.623-6.278-5.592-10.156c-0.084-0.337-0.222-0.684-0.205-1.019c0.113-2.368-1.311-3.777-2.92-5.246
		c-3.793-3.461-6.3-7.749-7.376-12.793c-1.899-8.895,0.86-17.7,8.796-22.764c1.951-1.246,4.268-1.976,6.496-2.697
		c1.059-0.343,1.801-0.745,2.422-1.684c2.274-3.434,5.418-5.967,8.943-7.982c6.773-3.873,14.07-6.195,21.896-6.354
		c9.173-0.187,18.182,0.995,26.806,4.31c7.724,2.968,14.526,7.312,19.519,14.045c3.893,5.251,5.467,11.166,4.422,17.708
		c-0.081,0.509,0.165,1.149,0.438,1.624c2.275,3.963,3.352,8.229,3.176,12.776c-0.129,3.393-0.911,6.627-3.164,9.301
		c-2.818,3.343-7.014,4.125-11.258,2.173c-4.773-2.196-7.417-6.115-8.841-10.996c-0.685-2.352-0.653-2.309-3.021-2.576
		c-2.481-0.281-4.948-0.681-7.521-1.043c0.064,1.478,0.133,2.954,0.199,4.428c0.031,0.728-0.187,1.628,0.166,2.131
		c0.299,0.425,1.25,0.402,1.916,0.56c5.793,1.372,8.587,7.162,7.13,13.215c-1.015,4.221-3.815,7.047-7.427,9.091
		c-5.539,3.137-11.505,4.794-17.898,4.101c-5.958-0.646-10.85-3.158-13.499-8.916c-1.286-2.798-1.702-5.783-1.8-8.828
		c-0.01-0.278-0.01-0.556-0.027-0.833C105.061,103.513,105.01,103.453,104.957,103.342z M88.971,56.488
		c5.238,0.104,10.092,1.101,14.924,2.235c0.242,0.057,0.708-0.278,0.873-0.55c1.096-1.804,1.965-3.772,3.23-5.443
		c2.873-3.789,6.77-5.022,11.379-3.935c3.061,0.722,5.74,2.258,8.261,4.076c0.616,0.444,1.122,0.559,1.886,0.295
		c2.543-0.88,5.162-1.403,7.877-1.283c1.654,0.073,3.237,0.418,4.648,1.333c2.727,1.77,3.549,4.41,3.361,7.484
		c-0.061,1.029-0.199,2.052-0.317,3.202c7.424,0.415,12.917,4.418,17.899,9.659c0-0.657,0.04-1.073-0.008-1.479
		c-0.463-3.952-1.823-7.564-4.299-10.689c-3.874-4.892-8.839-8.384-14.461-10.988c-6.479-3.003-13.357-4.347-20.423-5.088
		c-8.899-0.936-17.396,0.27-25.46,4.213C94.887,51.219,91.715,53.307,88.971,56.488z M136.506,99.248
		c-0.123,1.057-0.201,2.059-0.365,3.048c-0.637,3.835-1.991,7.288-5.222,9.747c-4.659,3.544-10.642,2.48-13.702-2.496
		c-1.403-2.282-2.207-4.776-2.393-7.463c-0.035-0.522-0.199-1.034-0.3-1.526c-1.757,0.555-3.337,1.074-4.931,1.548
		c-0.557,0.165-0.807,0.438-0.758,1.035c0.102,1.281,0.107,2.571,0.254,3.845c0.371,3.184,1.348,6.117,3.877,8.281
		c2.926,2.505,6.448,3.358,10.18,3.274c4.693-0.108,9.129-1.359,13.201-3.713c2.838-1.642,5.122-3.775,5.809-7.217
		C143.031,103.21,140.738,99.688,136.506,99.248z M100.629,75.934c0.852-4.582,1.672-9,2.504-13.48
		c-0.652-0.161-1.286-0.334-1.928-0.472c-4.248-0.913-8.498-1.812-12.878-1.696c-1.955,0.052-2.045,0.075-2.478,2.011
		c-0.98,4.401-0.854,8.825-0.066,13.242c0.08,0.454,0.25,0.892,0.402,1.419C90.921,74.71,95.709,74.788,100.629,75.934z
		 M76.922,92.707c0.111-0.327,0.146-0.391,0.154-0.458c0.593-4.814,1.954-9.297,5.502-12.854c0.16-0.161,0.192-0.581,0.115-0.826
		c-1.09-3.422-1.357-6.941-1.214-10.499c0.092-2.238,0.301-4.47,0.461-6.792c-6.126,2.22-10.045,6.433-11.21,12.938
		C69.445,81.395,71.876,87.403,76.922,92.707z M84.732,82.788c-0.189,0.139-0.317,0.204-0.406,0.304
		c-0.186,0.207-0.366,0.42-0.517,0.653c-2.253,3.502-3.12,7.386-3.097,11.498c0.002,0.296,0.305,0.721,0.581,0.864
		c1.846,0.955,3.677,1.958,5.601,2.736c2.881,1.169,5.893,1.848,9.038,1.78c0.614-0.012,0.924-0.18,1.063-0.832
		c0.436-2.036,0.904-4.067,1.441-6.078c0.229-0.859,0.006-1.232-0.824-1.529c-1.434-0.512-2.863-1.079-4.217-1.771
		C89.904,88.628,87.055,86.075,84.732,82.788z M144.992,67.521c-0.445,0.159-1.012,0.198-1.306,0.502
		c-0.531,0.547,0.007,1.056,0.286,1.567c1.016,1.848,2.295,3.62,2.926,5.595c1.031,3.221,1.633,6.58,2.406,9.882
		c0.104,0.445-0.034,1.024,0.762,0.945c4.844-0.483,8.844-2.43,11.63-6.568c0.399-0.592,0.442-1.037-0.062-1.55
		c-1.741-1.78-3.361-3.7-5.234-5.329C153.166,69.749,149.426,67.929,144.992,67.521z M164.399,82.201
		c-1.821,2.382-3.806,4.328-6.356,5.401c-2.496,1.05-5.16,1.7-7.793,2.538c0.41,3.457,2.816,7.249,5.912,9.14
		c3.992,2.44,7.629,1.313,9.236-3.006C167.156,91.545,166.45,86.926,164.399,82.201z M132.664,98.938
		c-0.19-0.092-0.249-0.143-0.311-0.147c-4.146-0.356-8.296-0.727-12.445-1.046c-0.734-0.057-1.211,0.352-1.298,1.169
		c-0.308,2.952,0.198,5.742,1.62,8.351c1.514,2.773,4.174,3.827,6.936,2.57c1.068-0.484,2.1-1.28,2.854-2.18
		C132.107,105.16,132.507,102.088,132.664,98.938z M118.752,64.046c2.389,1.697,4.661,3.336,6.973,4.917
		c0.234,0.159,0.762,0.072,1.061-0.08c2.033-1.03,4.029-2.137,6.067-3.158c0.755-0.378,1.593-0.592,2.302-0.847
		c-1.779-1.843-3.449-3.699-5.258-5.41c-1.924-1.824-1.985-1.777-4.41-0.688C122.788,59.994,120.478,61.704,118.752,64.046z
		 M124.307,54.91c-1.9-0.831-3.653-1.745-5.504-2.368c-1.894-0.639-3.871-0.601-5.633,0.514c-2.548,1.612-3.846,4.149-4.971,6.836
		c2.381,0.874,4.651,1.707,6.377,2.34c1.653-1.433,3.059-2.788,4.605-3.953C120.719,57.12,122.398,56.151,124.307,54.91z
		 M116.604,67.277c-2.086,3.842-3.391,7.668-4.645,11.697c2.135,0.571,4.199,1.142,6.277,1.645c0.175,0.042,0.549-0.317,0.676-0.569
		c0.436-0.867,0.745-1.799,1.207-2.65c1.002-1.845,2.067-3.655,3.209-5.658C121.166,70.307,118.956,68.838,116.604,67.277z
		 M100.256,79.682c-4.279-0.926-8.404-1.336-12.51,0.763c2.854,4.238,6.713,6.771,11.473,8.312
		C99.563,85.741,99.9,82.787,100.256,79.682z M145.641,86.17c-0.643-4.821-1.51-9.265-4.063-13.354
		c-2.084,3.666-4.086,7.172-6.066,10.692c-0.293,0.521-0.135,0.946,0.505,1.083c0.949,0.202,1.893,0.436,2.849,0.586
		C141.047,85.519,143.233,85.819,145.641,86.17z M95.334,104.469c-5.011-0.264-9.56-1.706-14.198-4.019
		c0.551,1.588,0.905,2.892,1.45,4.112c1.074,2.411,2.514,4.558,4.973,5.804c1.717,0.87,3.092,0.704,4.477-0.622
		C93.539,108.309,94.512,106.527,95.334,104.469z M112.916,65.621c-1.906-0.685-3.9-1.402-6.145-2.21
		c-0.844,4.606-1.639,8.955-2.441,13.337c1.494,0.416,2.742,0.764,3.845,1.07C109.763,73.733,111.295,69.793,112.916,65.621z
		 M117.275,84.333c-2.07-0.558-4.131-1.112-6.396-1.721c-0.543,3.128-1.063,6.116-1.596,9.2c2.203,0.47,4.186,0.893,6.14,1.31
		C116.055,90.122,116.654,87.277,117.275,84.333z M129.08,71.916c1.588,2.391,3.109,4.68,4.655,7.005
		c0.219-0.355,0.452-0.695,0.646-1.055c1.456-2.683,2.925-5.358,4.331-8.067c0.156-0.303,0.07-0.882-0.132-1.177
		c-0.175-0.254-0.714-0.464-1.022-0.395C134.492,68.933,131.62,70.104,129.08,71.916z M132.09,56.317
		c0.656,0.603,1.178,1.046,1.657,1.534c1.845,1.875,3.678,3.764,5.514,5.649c0.704,0.725,1.835,0.652,1.954-0.193
		c0.211-1.496,0.396-3.025,0.302-4.523c-0.096-1.525-1.144-2.455-2.628-2.871C136.654,55.287,134.493,55.77,132.09,56.317z
		 M125.999,74.479c-1.297,2.423-2.475,4.625-3.702,6.923c3.09,0.699,5.932,1.342,8.955,2.024
		C130.08,80.055,128.494,77.215,125.999,74.479z M121.01,85.015c-0.601,2.765-1.174,5.396-1.744,8.025
		c0.103,0.044,0.205,0.088,0.309,0.132c2.953-1.962,5.965-3.852,8.684-6.579C125.75,86.047,123.527,85.563,121.01,85.015z
		 M104.151,80.619c-0.135,0.141-0.177,0.164-0.18,0.191c-0.359,2.922-0.722,5.843-1.054,8.769c-0.02,0.174,0.168,0.493,0.324,0.544
		c0.77,0.25,1.56,0.43,2.359,0.639c0.574-3.167,1.118-6.16,1.68-9.248C106.253,81.221,105.197,80.919,104.151,80.619z M124.6,94.596
		c2.841,0.151,5.473,0.291,8.235,0.438c-0.143-2.448-0.272-4.671-0.403-6.955C129.787,90.279,127.299,92.35,124.6,94.596z
		 M100.853,100.218c1.532-0.291,2.903-0.552,4.345-0.826c0-1.618,0-3.161,0-4.772c-0.943-0.267-1.895-0.538-2.887-0.819
		C101.83,95.916,101.373,97.927,100.853,100.218z M109.078,98.404c1.542-0.548,2.995-1.063,4.448-1.58
		c-0.026-0.085-0.054-0.171-0.079-0.256c-1.416-0.306-2.83-0.612-4.369-0.944C109.078,96.533,109.078,97.344,109.078,98.404z"/>
</g>
</svg>
