<?xml version="1.0" encoding="utf-8"?>
<!-- Generator: Adobe Illustrator 16.0.0, SVG Export Plug-In . SVG Version: 6.00 Build 0)  -->
<!DOCTYPE svg PUBLIC "-//W3C//DTD SVG 1.1//EN" "http://www.w3.org/Graphics/SVG/1.1/DTD/svg11.dtd">
<svg version="1.1" id="Layer_1" xmlns="http://www.w3.org/2000/svg" xmlns:xlink="http://www.w3.org/1999/xlink" x="0px" y="0px"
	 width="225px" height="225px" viewBox="0 0 225 225" enable-background="new 0 0 225 225" xml:space="preserve">
<g>
	<path fill-rule="evenodd" clip-rule="evenodd" d="M114.322,192.271c-10.824,0-21.646,0.006-32.471-0.006
		c-2.434-0.002-3.264-0.857-3.262-3.252c0.002-2.523-0.027-5.047,0.029-7.566c0.025-1.195-0.338-1.803-1.637-1.695
		c-0.91,0.072-1.838-0.057-2.75,0.01c-1.699,0.123-2.605-0.84-3.797-1.936c-1.305-1.197-0.998-2.408-1.037-3.635
		c-0.092-2.838-0.023-5.684,0.057-8.525c0.023-0.783-0.246-1.811,0.947-2.141c0.084-0.023,0.129-0.227,0.174-0.355
		c0.416-1.182,0.48-2.873,1.314-3.443c1.625-1.111,0.352-3.16,1.98-4.285c0.85-0.588,0.867-2.361,1.307-3.582
		c0.115-0.318,0.396-0.582,0.623-0.852c0.078-0.096,0.289-0.113,0.324-0.209c0.486-1.309,0.895-2.65,1.441-3.934
		c0.568-1.336,1.264-2.617,1.908-3.92c0.037-0.078,0.143-0.129,0.17-0.209c0.436-1.309,0.787-2.654,1.314-3.926
		c0.533-1.281,1.168-2.535,1.9-3.715c0.502-0.805,0.447-1.932-0.221-2.594c-0.648-0.641-1.143-1.432-1.73-2.137
		c-0.631-0.756-1.307-1.477-1.938-2.234c-0.402-0.482-0.818-0.973-1.123-1.52c-0.561-1.002-1.023-2.061-1.572-3.072
		c-0.639-1.18-1.334-2.332-1.99-3.504c-0.105-0.189-0.164-0.418-0.197-0.635c-0.117-0.732,0.064-1.596-0.916-1.92
		c-0.061-0.02-0.104-0.148-0.123-0.232c-0.439-2.033-0.854-4.07-1.318-6.095c-0.217-0.943-0.551-1.859-0.799-2.795
		c-0.104-0.392-0.17-0.805-0.174-1.209c-0.023-2.842-0.059-5.686-0.012-8.528c0.01-0.582,0.424-1.146,0.525-1.741
		c0.203-1.162,0.313-2.339,0.473-3.507c0.115-0.815-0.021-1.598,0.791-2.333c0.484-0.438,0.215-1.652,0.418-2.484
		c0.143-0.586,0.506-1.119,0.777-1.672c0.037-0.076,0.145-0.121,0.172-0.198c0.422-1.218,0.738-2.487,1.283-3.647
		c0.504-1.072,1.248-2.029,1.889-3.035c0.137-0.214,0.369-0.406,0.408-0.634c0.223-1.292,1.148-2.049,2-2.92
		c0.895-0.914,1.543-2.065,2.406-3.012c0.918-1.004,1.977-1.88,2.951-2.833c0.617-0.604,1.139-1.324,1.809-1.857
		c1.141-0.906,2.361-1.712,3.557-2.55c0.59-0.413,1.184-0.827,1.799-1.199c1.064-0.646,2.139-1.281,3.234-1.876
		c0.35-0.19,0.793-0.199,1.164-0.361c0.58-0.253,1.129-0.578,1.703-0.845c0.273-0.128,0.568-0.208,0.859-0.287
		c0.598-0.16,1.412,0.189,1.639-0.841c0.039-0.178,0.814-0.212,1.254-0.281c1.176-0.186,2.494,0.186,3.422-0.964
		c0.121-0.151,0.525-0.102,0.797-0.104c5.361-0.008,10.734-0.233,16.072,0.118c1.699,0.111,3.514,0.757,5.293,1.117
		c1.131,0.229,2.111,1.193,3.166,1.814c0.152,0.089,0.352,0.092,0.518,0.163c1.918,0.824,3.875,1.573,5.734,2.513
		c1.191,0.603,2.295,1.421,3.334,2.269c1.004,0.819,1.881,1.794,2.805,2.708c0.123,0.123,0.178,0.356,0.316,0.419
		c2.039,0.919,2.869,2.996,4.344,4.426c1.141,1.106,1.92,2.387,2.795,3.633c0.648,0.93,1.141,1.97,1.729,2.944
		c0.609,1.013,1.266,1.999,1.875,3.012c0.133,0.221,0.164,0.505,0.223,0.764c0.152,0.662-0.141,1.534,0.877,1.785
		c0.084,0.021,0.152,0.222,0.178,0.348c0.445,2.256,0.859,4.518,1.342,6.765c0.148,0.693,0.502,1.34,0.721,2.021
		c0.109,0.339,0.18,0.708,0.182,1.063c0.021,3.118,0.145,6.242-0.016,9.35c-0.094,1.817-0.652,3.608-1.002,5.412
		c-0.17,0.876,0.313,1.983-0.928,2.493c-0.129,0.054-0.088,0.512-0.137,0.779c-0.168,0.92,0.279,2.078-0.994,2.578
		c-0.055,0.021-0.068,0.16-0.096,0.246c-0.408,1.275-0.693,2.609-1.262,3.811c-0.473,1.004-1.309,1.828-1.924,2.773
		c-0.543,0.83-0.982,1.727-1.508,2.572c-0.334,0.541-0.729,1.047-1.115,1.555c-0.912,1.201-1.639,2.668-2.811,3.51
		c-1.084,0.779-0.73,1.594-0.498,2.236c0.402,1.107,1.27,2.037,1.748,3.127c0.629,1.426,1.02,2.955,1.607,4.402
		c0.475,1.164,1.092,2.273,1.656,3.4c0.076,0.156,0.271,0.258,0.328,0.416c0.51,1.412,0.984,2.836,1.506,4.24
		c0.107,0.291,0.348,0.541,0.561,0.779c0.107,0.123,0.379,0.15,0.42,0.275c0.424,1.207,0.795,2.434,1.223,3.641
		c0.117,0.334,0.361,0.629,0.568,0.928c0.1,0.143,0.34,0.232,0.365,0.373c0.221,1.277,0.387,2.48,1.207,3.656
		c0.846,1.207,0.977,2.863,2.127,4.004c0.293,0.289,0.299,0.947,0.303,1.438c0.025,3.576,0.029,7.152,0.01,10.729
		c-0.008,1.234-1.041,1.797-1.748,2.609c-1.551,1.775-3.553,0.93-5.361,1.086c-1.783,0.152-2.041,0.301-2.045,2.125
		c-0.008,2.568,0.021,5.137,0.002,7.703c-0.014,1.592-1.1,2.68-2.699,2.684c-9.678,0.021-19.355,0.023-29.031,0.029
		c-1.238,0.002-2.477,0.002-3.713,0.002C114.322,192.277,114.322,192.273,114.322,192.271z M151.846,161.08
		c-0.006-0.156-0.014-0.314-0.021-0.473c-0.283-0.203-0.707-0.346-0.824-0.621c-0.484-1.133-0.883-2.303-1.301-3.463
		c-0.074-0.211-0.063-0.609-0.16-0.635c-1.191-0.303-0.881-1.281-0.988-2.074c-0.021-0.174-0.039-0.414-0.152-0.498
		c-1.43-1.078-1.141-2.939-1.979-4.309c-0.695-1.135-1.027-2.486-1.584-3.711c-0.619-1.359-1.371-2.656-1.951-4.029
		c-0.512-1.213-0.863-2.494-1.301-3.738c-0.037-0.104-0.219-0.15-0.289-0.252c-0.23-0.328-0.504-0.646-0.646-1.012
		c-0.525-1.357-0.984-2.742-1.512-4.1c-0.348-0.898-0.676-1.828-1.184-2.635c-0.633-1.008-1.92-3.613-2.025-4.506
		c-0.195-1.652-1.207-2.563-2.865-2.563c-11.281,0.002-22.564,0.004-33.846,0.006c-1.824,0-3.648,0-5.465,0
		c-0.547,1.484-1.043,2.826-1.541,4.166c-0.031,0.082-0.115,0.143-0.156,0.223c-0.666,1.26-1.395,2.492-1.979,3.789
		c-0.559,1.248-0.725,2.75-1.52,3.793c-0.643,0.846-0.447,2.1-1.02,2.492c-1.328,0.906-0.844,2.492-1.82,3.572
		c-0.908,1.004-1.078,2.674-1.578,4.049c-0.061,0.168-0.145,0.33-0.234,0.488c-0.596,1.041-1.311,2.033-1.766,3.133
		c-0.557,1.342-0.893,2.773-1.334,4.166c-0.066,0.213-0.166,0.42-0.275,0.615c-0.615,1.102-1.309,2.162-1.844,3.299
		c-0.715,1.523-1.311,3.102-2.047,4.871c0.561,0.113,1.234,0.324,1.92,0.367c0.912,0.061,1.832-0.018,2.75-0.018
		c22.838,0.004,45.676,0.016,68.516,0C150.498,161.475,151.172,161.219,151.846,161.08z M114.201,117.77c0,0.006,0,0.014,0,0.02
		c4.496,0,8.99,0.004,13.486,0c2.248-0.004,4.496,0.012,6.742-0.057c0.469-0.012,1.141-0.225,1.354-0.568
		c0.844-1.371,1.809-2.758,2.223-4.277c0.484-1.768,1.973-3.232,1.572-5.289c-0.098-0.494,0.434-1.079,0.467-1.635
		c0.127-2.085,0.262-4.179,0.201-6.265c-0.031-1.036-0.5-2.055-0.734-3.091c-0.189-0.838-0.184-1.749-0.514-2.521
		c-0.506-1.185-1.268-2.258-1.844-3.417c-0.523-1.057-0.945-2.166-1.414-3.251c-0.037-0.081-0.092-0.16-0.156-0.222
		c-0.988-0.955-2.006-1.879-2.965-2.863c-1.268-1.3-2.252-2.892-4.156-3.479c-0.844-0.261-1.594-0.829-2.371-1.285
		c-1.045-0.616-2.016-1.417-3.129-1.848c-1.357-0.524-2.814-0.929-4.26-1.064c-4.488-0.42-8.965-0.257-13.32,1.054
		c-0.869,0.261-1.668,0.765-2.482,1.188c-0.846,0.439-1.707,0.862-2.496,1.391c-0.898,0.6-1.732,1.296-2.574,1.978
		c-0.438,0.354-0.836,0.76-1.24,1.153c-0.643,0.623-1.227,1.32-1.928,1.866c-0.766,0.596-0.949,1.541-1.473,2.199
		c-0.857,1.076-1.881,1.973-2,3.456c-0.01,0.117-0.117,0.236-0.201,0.335c-1.102,1.268-1.688,2.791-2.029,4.389
		c-0.221,1.021,0.131,2.297-0.359,3.099c-0.912,1.488-0.779,2.99-0.631,4.5c0.17,1.729,0.508,3.452,0.918,5.142
		c0.383,1.569,0.953,3.092,1.445,4.634c0.01,0.038,0.074,0.057,0.098,0.094c0.623,1.006,1.59,1.953,1.783,3.037
		c0.279,1.568,1.176,1.596,2.311,1.596C101.082,117.768,107.643,117.77,114.201,117.77z M114.146,71.663
		c2.105,0.105,4.215,0.197,6.316,0.328c0.494,0.03,0.992,0.15,1.463,0.307c0.725,0.241,1.42,0.568,2.143,0.824
		c1.215,0.434,2.438,0.84,3.658,1.26c0.043,0.015,0.104,0.041,0.113,0.074c0.42,1.39,1.973,1.104,2.896,1.858
		c0.949,0.775,2.229,1.203,3.037,2.299c0.383,0.52,0.986,0.872,1.459,1.33c0.992,0.962,2.035,1.885,2.922,2.938
		c0.639,0.759,1.014,1.732,1.58,2.56c0.951,1.386,2.131,2.642,2.891,4.119c0.654,1.271,0.932,2.758,1.24,4.18
		c0.357,1.66,0.539,3.347,0.916,5.016c0.566,2.521,0.201,5.276,0.055,7.923c-0.064,1.133-0.594,2.239-0.881,3.365
		c-0.424,1.678-0.818,3.364-1.234,5.045c-0.029,0.117-0.148,0.297-0.23,0.301c-0.926,0.045-0.637,0.813-0.832,1.311
		c-0.154,0.393-0.463,0.723-0.697,1.082c-0.482,0.746-1.1,1.441-1.418,2.252c-0.695,1.777,1.375,2.881,1.252,4.557
		c1.082,0.133,0.783,1.01,0.943,1.67c0.08,0.326,0.346,0.816,0.584,0.854c0.502,0.074,1.281,0.092,1.523-0.209
		c1.256-1.549,2.457-3.156,3.521-4.844c0.883-1.404,1.654-2.902,2.283-4.438c0.83-2.023,1.676-4.078,2.143-6.201
		c0.586-2.681,1.063-5.442,1.094-8.173c0.029-2.732-0.545-5.472-0.859-8.208c-0.088-0.769-0.061-1.583-0.314-2.298
		c-0.559-1.585-1.277-3.113-1.904-4.677c-0.465-1.163-0.66-2.513-1.383-3.473c-0.957-1.267-1.705-2.584-2.258-4.044
		c-0.047-0.124-0.111-0.257-0.205-0.344c-0.592-0.541-1.254-1.018-1.783-1.613c-1.273-1.422-2.301-3.133-3.773-4.29
		c-1.672-1.316-3.121-2.881-5.053-3.99c-1.434-0.823-2.992-1.709-4.383-2.761c-1.078-0.816-2.688-0.934-4.064-1.354
		c-0.264-0.08-0.67-0.029-0.783-0.195c-0.818-1.205-2.107-0.801-3.215-1.002c-0.494-0.091-1.205,0.047-1.459-0.239
		c-1.061-1.195-2.43-0.816-3.691-0.879c-1.646-0.082-3.328,0.149-4.945-0.085c-3.35-0.487-6.295,1.4-9.537,1.408
		c-0.129,0-0.314,0.035-0.377,0.123c-1.105,1.542-3.17,0.701-4.521,1.878c-0.873,0.761-2.234,0.96-3.369,1.428
		c-0.104,0.043-0.139,0.233-0.234,0.32c-0.584,0.535-1.109,1.392-1.777,1.524c-1.861,0.369-2.73,1.99-4.08,2.961
		c-1.428,1.025-2.441,2.628-3.646,3.969c-0.412,0.457-0.857,0.885-1.289,1.325c-0.832,0.847-1.922,1.503-2.051,2.862
		c-0.02,0.197-0.16,0.393-0.275,0.569c-0.617,0.931-1.352,1.802-1.834,2.795c-0.6,1.229-0.713,2.786-1.537,3.79
		c-1.121,1.363-0.451,3.293-1.793,4.455c-0.367,3.381-0.986,6.759-1.02,10.142c-0.027,2.667,0.666,5.34,1.049,8.008
		c0.025,0.174,0.119,0.338,0.189,0.504c0.252,0.598,0.561,1.181,0.75,1.799c0.479,1.567,0.902,3.149,1.354,4.726
		c0.023,0.082,0.078,0.162,0.133,0.23c0.592,0.746,1.42,1.402,1.729,2.25c0.568,1.568,1.383,2.922,2.479,4.148
		c0.398,0.445,0.912,0.893,1.072,1.428c0.303,1,1.035,0.879,1.635,0.684c0.348-0.113,0.584-0.703,0.775-1.121
		c0.164-0.355,0.082-1.018,0.305-1.123c1.387-0.652,1.035-2.229,1.803-3.264c0.998-1.342-0.326-3.01-1.256-3.68
		c-1.166-0.84-0.549-2.297-1.797-3.105c-0.639-0.414-0.475-2.222-1.094-3.4c-0.725-1.381-0.99-3.091-1.107-4.684
		c-0.188-2.551-0.189-5.129-0.064-7.687c0.061-1.217,0.617-2.406,0.904-3.619c0.459-1.944,0.881-3.897,1.32-5.845
		c0.02-0.086,0.043-0.213,0.104-0.242c1.295-0.636,0.99-2.284,2.049-3.157c0.721-0.595,0.973-1.724,1.602-2.475
		c0.871-1.042,1.893-1.96,2.861-2.921c0.4-0.4,0.832-0.769,1.244-1.158c0.709-0.669,1.359-1.414,2.135-1.994
		c0.768-0.576,1.676-0.963,2.494-1.477c0.959-0.601,1.813-1.564,2.846-1.802c1.57-0.363,2.828-1.774,4.613-1.357
		c0.139,0.032,0.322-0.135,0.486-0.203c0.674-0.282,1.33-0.738,2.023-0.807C110.109,71.808,112.131,71.766,114.146,71.663z
		 M114.143,175.082c0-0.01,0-0.018,0-0.027c9.307,0,18.611-0.002,27.918,0.002c3.484,0,6.967-0.01,10.451,0.037
		c1.195,0.016,1.777-0.4,1.752-1.656c-0.041-1.832,0.014-3.668-0.006-5.5c-0.008-0.809-1.344-1.518-2.098-1.383
		c-0.824,0.146-1.701,0.008-2.555-0.014c-0.293-0.008-0.596-0.092-0.877-0.045c-0.656,0.107-1.305,0.396-1.953,0.396
		c-22.371,0.023-44.744,0.02-67.113,0.021c-1.512,0-3.027-0.02-4.533,0.08c-0.363,0.025-0.992,0.484-1,0.758
		c-0.061,2.104-0.049,4.215,0.07,6.318c0.018,0.34,0.621,0.811,1.037,0.928c0.598,0.17,1.27,0.082,1.912,0.082
		C89.48,175.082,101.811,175.082,114.143,175.082z M114.029,179.748c0,0.004,0,0.006,0,0.008c-8.346,0-16.689,0-25.033,0
		c-1.512,0.002-3.025,0.023-4.537,0.012c-0.799-0.008-1.182,0.352-1.18,1.146c0.006,1.604-0.033,3.209,0.021,4.811
		c0.031,0.912,1.111,1.543,2.014,1.328c0.336-0.082,0.717-0.049,1.064,0.01c0.785,0.137,1.563,0.461,2.344,0.463
		c15.68,0.025,31.357,0.018,47.037,0.018c1.559,0,3.119,0.064,4.676-0.01c0.68-0.033,1.385-0.582,2.016-0.484
		c2.045,0.316,2.682-0.141,2.676-2.238c-0.002-0.916-0.045-1.834-0.031-2.75c0.031-2.17-0.098-2.311-2.32-2.313
		C133.193,179.748,123.611,179.748,114.029,179.748z"/>
	<path fill-rule="evenodd" clip-rule="evenodd" d="M162.539,177.32c-0.072-0.195-0.137-0.316-0.158-0.443
		c-0.605-3.613-0.232-4.057,3.408-4.061c3.715-0.004,7.436-0.123,11.143,0.049c1.309,0.061,2.008-0.715,2.555-1.381
		c0.621-0.758,0.93-1.963,0.957-2.988c0.205-7.15,0.264-14.307,0.469-21.459c0.037-1.264,0.686-2.5,0.811-3.773
		c0.164-1.684,0.092-3.389,0.115-5.088c0.012-0.824,0.055-1.654-0.016-2.473c-0.023-0.26-0.371-0.49-0.57-0.732
		c-0.164,0.225-0.348,0.439-0.488,0.68c-0.74,1.283-1.471,2.572-2.201,3.861c-0.297,0.523-0.744,1.021-0.85,1.582
		c-0.252,1.344-1.697,2.033-1.752,3.512c-0.018,0.475-0.725,0.922-1.109,1.385c-1.033,1.246-2.07,2.488-3.096,3.74
		c-0.879,1.072-1.664,2.236-2.633,3.217c-1.346,1.363-2.826,2.594-4.246,3.881c-0.48,0.436-0.953,0.881-1.438,1.314
		c-1.547,1.393-2.68,1.166-3.537-0.693c-0.229-0.496-0.719-1.014-0.658-1.461c0.07-0.514,0.553-1.035,0.977-1.42
		c0.951-0.863,2.084-1.543,2.947-2.479c1.4-1.518,2.631-3.189,3.959-4.775c0.572-0.682,1.252-1.273,1.803-1.969
		c0.523-0.662,0.939-1.406,1.404-2.113c0.459-0.701,0.861-1.449,1.391-2.094c0.9-1.104,1.721-2.172,2.348-3.525
		c0.707-1.52,1.834-2.852,2.109-4.592c1.582-0.27,0.525-2.391,1.947-2.777c0.033-0.008,0.057-0.07,0.07-0.113
		c0.465-1.416,0.678-2.986,1.443-4.213c1.193-1.908,0.568-4.326,2.01-6.117c0.262-0.326,0.086-0.982,0.172-1.477
		c0.186-1.098-0.35-2.396,0.965-3.203c0.217-0.133,0.146-0.779,0.16-1.189c0.049-1.512,0.006-3.032,0.143-4.535
		c0.063-0.7,0.479-1.362,0.691-2.054c0.117-0.384,0.197-0.796,0.203-1.197c0.027-2.063,0.084-4.129,0.004-6.19
		c-0.025-0.648-0.459-1.275-0.674-1.924c-0.113-0.337-0.205-0.695-0.217-1.048c-0.059-1.649-0.076-3.301-0.135-4.951
		c-0.029-0.782,0.207-1.681-0.791-2.124c-0.088-0.039-0.15-0.239-0.15-0.365c-0.014-2.474-0.422-4.878-1.27-7.204
		c-0.283-0.78-0.604-1.547-0.891-2.327c-0.107-0.291-0.137-0.613-0.252-0.901c-0.256-0.635-0.545-1.256-0.818-1.885
		c-0.094-0.209-0.197-0.415-0.273-0.629c-0.473-1.342-0.67-2.876-1.459-3.99c-1.539-2.171-2.082-4.854-3.973-6.869
		c-1.242-1.324-1.887-3.197-2.846-4.798c-0.309-0.515-0.734-0.97-1.156-1.405c-1.287-1.332-2.646-2.598-3.889-3.971
		c-1.061-1.174-1.967-2.486-3.004-3.684c-0.482-0.559-1.055-1.087-1.686-1.462c-1.572-0.935-2.891-2.116-4.119-3.475
		c-0.609-0.674-1.67-0.926-2.482-1.437c-0.488-0.306-0.873-0.772-1.346-1.113c-0.967-0.696-1.957-1.359-2.947-2.026
		c-0.143-0.096-0.324-0.177-0.492-0.186c-1.355-0.075-2.084-1.175-3.064-1.858c-0.145-0.101-0.254-0.276-0.41-0.33
		c-1.338-0.467-2.709-0.853-4.021-1.383c-1.523-0.615-2.998-1.352-4.492-2.037c-0.039-0.018-0.066-0.072-0.107-0.084
		c-1.379-0.409-2.754-0.839-4.143-1.213c-1.018-0.274-2.301,0.349-3.016-1.012c-0.117-0.222-0.863-0.091-1.313-0.164
		c-1.471-0.242-3.137,0.463-4.377-0.945c-0.154-0.175-0.617-0.102-0.936-0.103c-6.053-0.004-12.105-0.015-18.16,0.023
		c-0.479,0.003-0.939,0.411-1.436,0.534c-0.777,0.194-1.58,0.284-2.365,0.456c-1.152,0.253-2.602-0.536-3.416,0.962
		c-0.041,0.076-0.254,0.057-0.387,0.086c-1.889,0.415-3.822,0.702-5.654,1.291c-1.484,0.476-2.84,1.341-4.271,1.991
		c-1.047,0.476-2.123,0.887-3.189,1.319c-1.063,0.432-2.334,0.622-3.15,1.333c-1.736,1.505-3.986,2.034-5.768,3.401
		c-1.094,0.84-2.313,1.526-3.363,2.411c-1.033,0.869-1.887,1.945-2.895,2.848c-0.719,0.646-1.619,1.092-2.334,1.742
		c-1.051,0.957-2.023,2.001-3,3.038c-1.145,1.216-2.461,2.337-3.328,3.732c-0.846,1.367-2.539,2.128-2.736,3.965
		c-0.045,0.411-0.643,0.747-0.938,1.152c-1.018,1.4-2.104,2.763-2.99,4.242c-0.676,1.127-1.055,2.428-1.633,3.621
		c-0.508,1.053-1.1,2.065-1.67,3.085c-0.08,0.143-0.332,0.208-0.379,0.352c-0.494,1.506-0.67,3.222-1.518,4.486
		c-1.17,1.745-0.59,3.921-1.859,5.611c-0.467,0.619-0.203,1.773-0.314,2.679c-0.088,0.712,0.221,1.583-0.816,1.961
		c-0.176,0.064-0.205,0.661-0.221,1.015c-0.066,1.603-0.063,3.211-0.17,4.812c-0.078,1.172,0.379,2.479-0.811,3.436
		c-0.199,0.158-0.115,0.699-0.117,1.064c-0.008,1.88-0.02,3.76,0.01,5.641c0.016,0.879-0.223,1.834,0.75,2.481
		c0.201,0.134,0.162,0.683,0.174,1.043c0.049,1.466,0.059,2.934,0.115,4.4c0.031,0.84-0.131,1.701,0.799,2.326
		c0.305,0.205,0.207,1.014,0.287,1.549c0.178,1.17-0.285,2.512,0.908,3.418c0.057,0.045,0.047,0.172,0.068,0.26
		c0.482,2.031,0.688,4.188,1.543,6.047c0.566,1.232,0.627,2.795,1.867,3.744c0.244,0.188,0.131,0.793,0.277,1.168
		c0.127,0.322,0.379,0.602,0.602,0.877c0.104,0.129,0.377,0.188,0.396,0.305c0.152,0.932,0.227,1.74,1.078,2.533
		c0.793,0.74,0.889,2.178,1.488,3.189c0.709,1.193,1.631,2.262,2.465,3.383c0.236,0.32,0.607,0.6,0.701,0.955
		c0.295,1.111,1.223,1.674,1.918,2.447c0.521,0.576,0.934,1.252,1.438,1.848c0.73,0.867,1.504,1.699,2.252,2.557
		c0.881,1.006,1.719,2.051,2.633,3.027c0.908,0.971,1.898,1.863,2.826,2.818c0.191,0.197,0.316,0.504,0.369,0.781
		c0.236,1.229-0.83,1.996-1.502,2.359c-0.783,0.422-1.994,0.521-2.914-0.604c-0.865-1.055-2.197-1.713-3.205-2.668
		c-0.934-0.885-1.689-1.953-2.559-2.906c-0.547-0.596-1.162-1.129-1.742-1.691c-0.146-0.141-0.396-0.287-0.402-0.441
		c-0.072-1.486-1.633-1.918-2.131-3.008c-0.697-1.525-2.705-2.066-2.744-4.119c-0.014-0.781-0.961-1.531-1.438-2.324
		c-0.664-1.102-1.189-2.301-1.955-3.324c-0.586-0.785-1.223-1.467-1.219-2.523c0-0.084-0.371-0.262-0.539-0.23
		s-0.381,0.252-0.424,0.428c-0.076,0.303-0.047,0.635-0.043,0.957c0.025,2.018-0.027,4.041,0.117,6.051
		c0.084,1.186,0.496,2.346,0.732,3.523c0.088,0.445,0.129,0.906,0.137,1.361c0.141,7.244,0.27,14.488,0.412,21.734
		c0.039,2.047,1.773,3.721,3.84,3.729c3.945,0.014,7.889-0.002,11.834,0.033c1.518,0.016,2.521,1.162,2.383,2.6
		c-0.066,0.688-1.342,2-2.037,2c-5.045,0.006-10.096,0.131-15.127-0.129c-1.273-0.066-2.912-0.695-3.555-2.406
		c-0.436-1.162-1.234-2.182-1.785-3.307c-0.205-0.422-0.221-0.963-0.23-1.451c-0.109-5.686,0.34-11.449-0.455-17.035
		c-0.709-4.969-0.078-10.041-1.176-14.836c-1.271-5.553-0.174-11.127-1.074-16.576c-0.82-4.955-0.76-9.896-0.816-14.854
		c-0.041-3.803-0.004-7.616,0.195-11.413c0.139-2.605,0.238-5.322,1.072-7.741c0.576-1.673,0.5-3.516,1.287-4.951
		c0.602-1.098,0.709-2.146,0.982-3.246c0.307-1.239,0.396-2.88,1.227-3.556c1.219-0.993,0.371-2.803,1.834-3.462
		c0.1-0.046,0.104-0.337,0.131-0.518c0.359-2.36,1.686-4.221,3.059-6.076c0.564-0.76,1.146-1.589,1.406-2.478
		c0.559-1.923,2.109-3.032,3.236-4.497c0.568-0.739,0.652-1.823,1.512-2.482c1.381-1.061,1.744-2.903,3.291-3.987
		c1.527-1.071,2.518-2.878,3.893-4.205c1.086-1.047,2.408-1.847,3.607-2.776c0.467-0.361,0.939-0.732,1.326-1.174
		c1.359-1.557,3.365-2.219,4.863-3.482c1.07-0.901,2.299-1.363,3.373-2.14c0.943-0.683,1.852-1.415,2.779-2.122
		c0.07-0.053,0.156-0.105,0.24-0.118c1.715-0.257,3.17-1.021,4.453-2.179c0.191-0.175,0.646-0.023,0.932-0.144
		c0.439-0.186,0.838-0.47,1.248-0.725c0.109-0.067,0.178-0.226,0.287-0.259c1.514-0.436,3.027-0.86,4.545-1.276
		c0.219-0.06,0.586,0.018,0.656-0.102c0.82-1.399,2.268-0.851,3.438-1.145c2.436-0.614,5.043-0.802,7.352-1.5
		c2.795-0.845,5.488-0.686,8.209-0.774c4.535-0.146,9.086-0.083,13.617,0.14c2.406,0.119,4.928,0.402,7.129,1.284
		c1.629,0.653,3.236,0.702,4.842,1.07c0.439,0.101,0.826,0.429,1.229,0.667c0.109,0.066,0.172,0.239,0.281,0.271
		c1.377,0.408,2.77,0.761,4.131,1.211c0.533,0.177,0.996,0.562,1.488,0.856c0.072,0.045,0.121,0.144,0.197,0.171
		c1.203,0.44,2.449,0.79,3.607,1.329c1.125,0.524,2.156,1.241,3.232,1.868c0.152,0.087,0.332,0.129,0.486,0.214
		c0.967,0.523,1.932,1.049,2.893,1.583c0.529,0.293,1.063,0.583,1.57,0.911c0.527,0.339,1.039,0.705,1.533,1.094
		c1.305,1.031,2.586,2.093,3.893,3.122c1.127,0.887,2.311,1.702,3.4,2.632c1.084,0.924,2.102,1.931,3.113,2.938
		c1.336,1.334,2.639,2.704,3.955,4.059c0.184,0.188,0.469,0.352,0.525,0.574c0.332,1.286,1.248,2.066,2.256,2.796
		c0.158,0.113,0.199,0.379,0.309,0.566c0.5,0.857,0.895,1.806,1.533,2.54c0.783,0.898,1.576,1.705,2.004,2.891
		c0.383,1.064,1.135,2,1.754,2.973c0.373,0.586,0.902,1.09,1.186,1.71c0.592,1.298,1.055,2.654,1.594,3.977
		c0.164,0.4,0.412,0.763,0.604,1.151c0.168,0.34,0.357,0.68,0.457,1.042c0.164,0.603-0.168,1.449,0.854,1.601
		c0.059,0.009,0.121,0.135,0.146,0.217c0.42,1.402,0.867,2.796,1.238,4.211c0.232,0.879-0.109,1.908,0.91,2.572
		c0.262,0.171,0.168,0.86,0.277,1.301c0.279,1.125-0.246,2.497,1.066,3.322c0.166,0.104,0.082,0.606,0.117,0.924
		c0.25,2.139-0.248,4.348,0.826,6.425c0.367,0.712,0.238,1.712,0.236,2.581c-0.035,6.924,0.424,13.904-0.303,20.757
		c-0.623,5.881,0.039,11.828-1,17.574c-0.887,4.904-0.176,9.887-1.191,14.629c-1.438,6.717-0.445,13.434-1.023,20.117
		c-0.129,1.488-0.656,2.965-1.746,4.131c-0.174,0.184-0.236,0.477-0.326,0.729c-0.094,0.256-0.08,0.668-0.25,0.762
		c-1.053,0.574-2.133,1.5-3.227,1.533c-5.361,0.166-10.729,0.086-16.094,0.086C163.152,177.422,162.842,177.355,162.539,177.32z"/>
	<path fill-rule="evenodd" clip-rule="evenodd" d="M114.189,53.586c-3.113,0-6.227,0.051-9.336-0.04
		c-0.67-0.021-1.77-0.424-1.893-0.868c-0.289-1.042-0.174-2.222-0.053-3.327c0.02-0.189,0.871-0.383,1.348-0.409
		c1.324-0.072,2.652-0.072,3.98-0.071c4.988,0.005,9.977,0.017,14.965,0.036c2.342,0.01,3.361,1.508,2.293,3.623
		c-0.273,0.544-1.281,0.986-1.969,1.01C120.416,53.648,117.303,53.588,114.189,53.586z"/>
	<path fill-rule="evenodd" clip-rule="evenodd" d="M114.178,39.755c3.072-0.001,6.146-0.005,9.219,0.001
		c1.742,0.003,2.322,0.538,2.352,2.121c0.035,1.953-0.357,2.484-2.211,2.496c-6.234,0.042-12.467,0.042-18.701,0.006
		c-1.842-0.011-2.27-0.577-2.227-2.493c0.033-1.588,0.611-2.122,2.352-2.128C108.033,39.751,111.105,39.757,114.178,39.755z"/>
	<path fill-rule="evenodd" clip-rule="evenodd" d="M63.154,100.323c-0.988-0.564-2.117-0.915-2.754-1.678
		c-0.391-0.47-0.23-1.643,0.043-2.365c0.375-0.991,2.723-1.783,3.072-1.159c0.49,0.87,1.564,1.305,1.475,2.685
		C64.896,99.219,63.674,99.36,63.154,100.323z"/>
	<path fill-rule="evenodd" clip-rule="evenodd" d="M52.627,100.248c-0.619-0.483-1.393-0.923-1.953-1.553
		c-0.947-1.07-0.734-1.623,0.232-2.753c0.445-0.521,0.666-1.067,1.477-1.038c0.822,0.028,2.064,1.031,2.189,1.849
		C54.814,98.326,54.574,99.653,52.627,100.248z"/>
	<path fill-rule="evenodd" clip-rule="evenodd" d="M54.256,105.022c0.877,4.41,0.219,5.205-2.805,4.674
		c-1.064-1.402-2.322-2.912-0.35-4.261C51.893,104.896,53.213,105.134,54.256,105.022z"/>
	<path fill-rule="evenodd" clip-rule="evenodd" d="M62.568,105.061c1.881,0.003,2.318,0.413,2.326,2.181
		c0.008,1.402-1.014,2.537-2.277,2.528c-1.365-0.009-2.348-1.043-2.355-2.479C60.25,105.554,60.764,105.058,62.568,105.061z"/>
</g>
</svg>
