<?xml version="1.0" encoding="utf-8"?>
<!-- Generator: Adobe Illustrator 16.0.0, SVG Export Plug-In . SVG Version: 6.00 Build 0)  -->
<!DOCTYPE svg PUBLIC "-//W3C//DTD SVG 1.1//EN" "http://www.w3.org/Graphics/SVG/1.1/DTD/svg11.dtd">
<svg version="1.1" id="Layer_1" xmlns="http://www.w3.org/2000/svg" xmlns:xlink="http://www.w3.org/1999/xlink" x="0px" y="0px"
	 width="225px" height="225px" viewBox="0 0 225 225" enable-background="new 0 0 225 225" xml:space="preserve">
<g>
	<path fill-rule="evenodd" clip-rule="evenodd" d="M23.908,47.493c1.429-0.477,2.493,0.11,3.693,0.917
		c6.574,4.421,13.611,6.329,21.58,4.293c4.044-1.033,8.183-0.601,11.961,1.527c3.038,1.709,4.343,5.59,3.493,8.91
		c-1.147,4.482-3.925,7.86-6.943,11.067c-2.128,2.259-2.228,4.802-1.867,7.564c0.345,2.64,0.791,5.272,0.995,7.923
		c0.205,2.726-1.063,4.684-3.585,5.837c-2.771,1.266-5.701,1.961-8.419,0.393c-1.646-0.95-3.105-2.576-4.104-4.227
		c-3.048-5.033-6.795-9.221-12.307-11.56c-1.454-0.618-2.996-1.033-4.497-1.542C23.908,68.228,23.908,57.861,23.908,47.493z"/>
	<path fill-rule="evenodd" clip-rule="evenodd" d="M75.409,98.85c-0.784-1.731-1.771-2.521-3.717-2.291
		c-5.592,0.666-9.418-3.256-9.909-8.499c-0.294-3.14,0.102-6.151,1.082-9.152c1.446-4.432,4.556-6.807,8.995-7.564
		c1.238-0.212,1.75-0.625,1.725-1.926c-0.104-5.373,0.758-10.632,2.499-15.689c2.318-6.731,5.818-12.655,12.27-16.341
		c2.789-1.594,5.799-2.076,8.928-1.908c1.08,0.058,1.845-0.18,2.507-1.013c3.722-4.684,8.721-6.672,14.567-6.905
		c10.723-0.428,19.46,3.942,26.848,11.306c2.112,2.104,3.707,4.725,5.537,7.109c0.382,0.5,0.757,1.003,0.95,1.262
		c2.356-1.11,4.484-2.192,6.679-3.111c0.96-0.402,2.063-0.45,3.094-0.691c3.906-0.908,6.186-3.705,7.566-7.146
		c1.491-3.717,2.604-7.592,3.771-11.431c0.598-1.961,0.754-2.215,2.813-2.216c8.436-0.003,16.872-0.006,25.31,0.001
		c2.413,0.001,2.747,0.596,1.823,2.833c-1.622,3.934-3.422,7.816-4.694,11.862c-1.562,4.956-2.837,10.059-2.189,15.333
		c0.286,2.316,1.071,4.575,1.662,6.852c0.849,3.267,2.212,6.58,1.279,9.935c-0.818,2.938-2.132,5.812-3.668,8.458
		c-1.915,3.298-4.65,5.947-7.901,8.045c-3.499,2.26-7.157,2.561-10.853,0.811c-1.794-0.85-3.458-2.09-4.969-3.399
		c-2.376-2.06-4.419-4.646-7.496-5.625c-2.464-0.784-5.092-1.103-7.673-1.449c-1.095-0.146-2.624,2.438-2.04,3.387
		c0.236,0.385,1,0.572,1.544,0.617c4.585,0.381,8.783,1.763,12.423,4.646c1.905,1.513,3.37,3.355,3.928,5.77
		c0.25,1.074,0.993,0.984,1.757,0.963c3.209-0.089,6.027,0.966,8.475,2.99c3.372,2.786,4.989,6.463,5.239,10.768
		c0.253,4.356,0.447,8.715,0.667,13.074c0.127,2.527,0.328,5.039-0.851,7.447c-1.316,2.695-3.585,4.283-6.11,5.613
		c-2.557,1.344-5.164,2.594-7.7,3.975c-3.426,1.867-5.247,5.098-6.931,8.424c-3.213,6.344-5.192,13.117-6.824,19.998
		c-0.182,0.764-0.015,1.742,0.314,2.475c2.506,5.541,4.294,11.328,5.775,17.199c0.688,2.727,0.94,5.563,1.367,8.354
		c0.213,1.395,0.407,2.793,0.547,4.197c0.127,1.266-0.522,1.883-1.78,1.879c-0.354,0-0.711,0.004-1.067,0.004
		c-32.882,0-65.765,0-98.646,0c-2.761,0-3.104-0.535-2.771-3.26c0.762-6.26,1.963-12.422,3.851-18.443
		c2.587-8.248,6.286-15.969,11.141-23.121c0.739-1.088,0.932-2.168,0.767-3.432c-0.807-6.137-1.459-12.297-2.39-18.414
		c-0.618-4.061-1.517-8.088-2.476-12.086c-0.562-2.344-2.483-3.725-4.418-4.945c-2.214-1.396-4.547-2.611-6.708-4.081
		c-3.649-2.483-4.34-6.349-3.588-10.018c0.759-3.698,4.799-5.191,8.44-3.462c1.957,0.929,3.925,1.866,5.967,2.572
		C71.883,99.991,73.722,100.157,75.409,98.85z M101.299,50.506c-0.223,0.336-0.371,0.537-0.495,0.753
		c-0.126,0.213-0.237,0.437-0.34,0.664c-1.673,3.679-3.824,7.034-6.428,10.142c-3.211,3.834-6.438,7.679-9.321,11.758
		c-2.369,3.349-3.556,7.215-2.936,11.442c0.834,5.69,1.839,11.354,3.871,16.749c1.028,2.732,2.26,5.382,4.91,7.168
		c5.791,3.9,11.873,7.213,18.34,9.834c1.882,0.762,3.703,0.676,5.588-0.092c5.767-2.35,11.31-5.114,16.493-8.58
		c2.254-1.506,4.354-3.091,5.524-5.688c2.375-5.265,3.43-10.865,4.581-16.47c0.722-3.516,0.506-6.751-0.841-10.087
		c-2.048-5.066-5.04-9.244-9.797-12.076c-4.147-2.469-8.835-3.405-13.354-4.815c-4.56-1.423-8.901-3.246-12.331-6.71
		C103.584,53.305,102.556,51.962,101.299,50.506z M149.535,64.943c-0.115-0.84-0.365-2.28-0.505-3.732
		c-0.442-4.625-1.938-8.917-4.185-12.941c-3.544-6.349-8.625-11.135-15.113-14.399c-5.493-2.763-11.166-4.273-17.457-3.295
		c-4.556,0.707-8.124,2.705-10.806,6.325c-0.907,1.224-1.853,1.573-3.329,1.407c-4.968-0.56-9.177,1.202-12.606,4.709
		c-4.486,4.588-6.795,10.334-8.05,16.495c-1.455,7.134-1.559,14.318-0.082,21.483c0.089,0.434,0.409,0.82,0.623,1.228
		c0.26-0.375,0.68-0.719,0.758-1.129c1.297-6.755,5.284-11.946,9.727-16.883c3.546-3.941,6.977-7.974,9.149-12.881
		c0.77-1.734,1.278-3.586,2.064-5.312c0.599-1.315,1.695-1.325,2.499-0.145c0.253,0.371,0.438,0.788,0.633,1.194
		c2.274,4.717,5.948,7.992,10.761,9.842c4.176,1.607,8.48,2.893,12.753,4.242c6.911,2.185,12.06,6.431,15.163,12.996
		c1.03,2.179,1.677,4.537,2.582,6.778c0.22,0.547,0.769,0.96,1.167,1.436c0.391-0.329,0.987-0.581,1.144-0.997
		C148.329,76.277,149.212,70.984,149.535,64.943z M90.507,139.697c-0.166-0.035-0.329-0.07-0.496-0.104
		c-1.206,1.166-2.441,2.303-3.613,3.504c-8.022,8.227-14.07,17.742-18.294,28.404c-2.787,7.037-4.604,14.344-5.475,21.875
		c-0.188,1.643,0.016,1.912,1.638,1.918c3.656,0.012,7.314-0.049,10.971,0.02c1.498,0.029,2.043-0.479,2.083-2.012
		c0.207-7.92,0.509-15.836,0.781-23.754c0.016-0.455-0.084-1.006,0.133-1.34c0.318-0.492,0.867-1.133,1.332-1.143
		c0.427-0.01,1.039,0.652,1.263,1.154c0.226,0.514,0.109,1.193,0.086,1.799c-0.313,7.66-0.645,15.318-0.949,22.977
		c-0.088,2.189,0.034,2.311,2.295,2.316c6.502,0.014,13.004,0.01,19.506,0.01c4.927,0,9.854,0.021,14.78-0.053
		c0.538-0.008,1.565-0.662,1.529-0.867c-0.473-2.656-0.555-5.582-1.807-7.85c-2.147-3.895-4.753-7.635-7.706-10.957
		c-3.98-4.477-8.468-8.504-12.749-12.713c-2.833-2.787-2.955-5.199-0.453-8.262c1.209-1.477,2.319-3.035,3.482-4.549
		c0.672-0.873,0.509-1.617-0.382-2.178c-1.458-0.916-2.907-1.861-4.431-2.662C91.817,144.07,89.793,142.852,90.507,139.697z
		 M133.881,139.982c-1.298,1.434-2.35,2.543-3.346,3.703c-1.613,1.875-3.193,3.781-4.779,5.68c-0.758,0.908-0.779,1.77,0.051,2.705
		c0.798,0.9,1.482,1.9,2.192,2.877c2.393,3.287,2.264,5.092-0.556,7.971c-0.214,0.215-0.434,0.424-0.651,0.635
		c-2.823,2.711-5.6,5.473-8.496,8.105c-0.987,0.898-1.29,1.828-1.072,3.047c0.24,1.336,0.462,2.672,0.723,4.006
		c0.958,4.891,1.99,9.768,2.858,14.676c0.241,1.352,0.673,1.943,2.107,1.934c6.146-0.045,12.291,0,18.437,0.002
		c1.89,0,2.051-0.143,1.981-1.99c-0.295-7.967-0.616-15.932-0.928-23.898c-0.012-0.303-0.129-0.693,0.015-0.895
		c0.397-0.555,0.907-1.027,1.372-1.535c0.459,0.525,1.009,0.996,1.343,1.59c0.198,0.352,0.058,0.895,0.07,1.352
		c0.246,7.863,0.503,15.729,0.727,23.596c0.034,1.201,0.521,1.758,1.742,1.756c3.809-0.012,7.618-0.014,11.428,0.037
		c1.382,0.02,1.86-0.596,1.596-1.875c-0.994-4.793-1.79-9.639-3.05-14.361c-3.182-11.92-9.078-22.451-17.031-31.836
		C138.511,144.779,136.198,142.477,133.881,139.982z M132.099,113.191c-3.09,1.701-5.797,3.286-8.594,4.688
		c-1.188,0.596-1.673,1.246-1.445,2.58c0.918,5.418-0.697,10.363-2.687,15.322c-1.248,3.113-2.159,6.424-2.741,9.73
		c-0.739,4.201,0.347,8.279,1.911,12.197c0.155,0.387,0.535,0.686,1.071,1.35c0.166-5.25,2.136-9.303,5.05-12.918
		c1.825-2.268,3.856-4.369,5.77-6.564c3.728-4.277,5.797-9.139,4.936-14.912c-0.354-2.379-0.854-4.75-1.481-7.074
		C133.482,116.092,132.722,114.688,132.099,113.191z M101.332,128.113c-0.235,0.119-0.636,0.229-0.903,0.477
		c-3.133,2.889-5.589,6.236-6.769,10.391c-0.636,2.234-0.543,2.473,1.448,3.689c1.71,1.045,3.559,1.879,5.212,3.002
		c2.389,1.621,2.632,3.602,0.906,5.922c-0.982,1.322-2.023,2.602-3.009,3.922c-2.7,3.617-1.886,3.92,0.317,6.074
		c0.36,0.352,0.737,0.686,1.092,1.039c3.801,3.818,7.616,7.617,11.383,11.463c1.206,1.23,2.279,2.588,3.414,3.889
		c0.153-0.068,0.308-0.137,0.463-0.205C111.417,160.984,106.883,144.473,101.332,128.113z M149.308,97.027
		c4.165,1.892,10.118,2.002,13.724-0.543c2.568-1.813,2.985-5.434,1.215-7.431c-3.867-4.361-8.905-6.119-14.616-6.083
		c-1.257,0.009-1.6,1.171-0.753,2.309c1.715,2.309,2.362,4.901,1.834,7.693C150.446,94.364,149.785,95.682,149.308,97.027z
		 M118.673,120.096c-4.442,2.861-9.042,2.977-13.889,0.094c0,3.369-0.022,6.24,0.032,9.107c0.006,0.316,0.419,0.66,0.702,0.93
		c2.825,2.686,8.825,2.848,11.808,0.281c0.628-0.541,1.458-1.225,1.556-1.932C119.254,125.879,120.383,123.141,118.673,120.096z
		 M94.354,130.811c1.595-1.676,2.854-3.607,4.628-4.713c2.353-1.465,3.1-3.229,2.782-5.813c-0.119-0.963-0.405-1.564-1.279-2.016
		c-2.242-1.16-4.448-2.395-6.656-3.619c-1.033-0.574-2.038-1.197-3.077-1.81C89.337,116.349,92.391,127.398,94.354,130.811z
		 M144.539,85.434c-0.192,0.777-0.365,1.375-0.488,1.983c-0.594,2.964-1.189,5.928-1.753,8.897
		c-0.144,0.753-0.175,1.527-0.258,2.292c0.807-0.281,1.749-0.38,2.395-0.87C148.913,94.324,149.54,88.474,144.539,85.434z
		 M78.758,85.562c-2.955,1.576-4.152,4.665-3.229,7.685c0.879,2.873,3.648,5.385,5.848,5.163
		C80.508,94.147,79.643,89.901,78.758,85.562z M114.348,154.572c-0.266,0.027-0.532,0.055-0.799,0.08
		c-0.046,1.223-0.214,2.453-0.103,3.662c0.105,1.148,0.483,2.273,0.773,3.4c0.658,2.555,1.334,5.105,2.036,7.787
		c1.048-0.994,1.947-1.893,2.896-2.732c0.69-0.615,0.708-1.109,0.202-1.936c-1.06-1.738-1.971-3.574-2.861-5.408
		C115.72,157.838,115.059,156.193,114.348,154.572z M123.82,154.346c-1.297,1.49-1.718,6.746-0.725,8.502
		C127.083,160.914,127.375,157.92,123.82,154.346z"/>
	<path fill-rule="evenodd" clip-rule="evenodd" d="M123.197,84.291c-0.863-0.246-2.085-0.363-3.06-0.914
		c-2.328-1.316-2.117-3.127-0.546-5.34c1.578-2.226,4.137-2.654,6.646-2.997c0.65-0.089,1.326-0.108,1.978-0.039
		c1.187,0.128,2.064-0.261,2.692-1.284c0.479-0.783,1.271-1.308,1.968-0.568c0.402,0.424,0.509,1.53,0.248,2.101
		c-0.764,1.679-1.844,3.211-2.68,4.86C128.986,82.983,126.408,83.842,123.197,84.291z"/>
	<path fill-rule="evenodd" clip-rule="evenodd" d="M99.979,84.221c-3.683-0.47-6.43-1.731-7.588-5.05
		c-0.479-1.375-1.446-2.583-2.231-3.844c-0.481-0.773-0.695-1.539,0.124-2.149c0.825-0.617,1.613-0.267,2.06,0.526
		c0.727,1.284,1.819,1.366,3.115,1.339c2.749-0.058,5.442,0.262,7.551,2.3c0.591,0.571,1.097,1.288,1.456,2.027
		c0.745,1.53,0.328,2.947-1.206,3.716C102.11,83.665,100.81,83.942,99.979,84.221z"/>
	<path fill-rule="evenodd" clip-rule="evenodd" d="M110.718,91.779c-1.689-0.063-4.143-0.866-6.053-3.002
		c-0.746-0.834-1.011-1.761-0.153-2.53c0.88-0.788,1.549,0.016,2.167,0.648c2.71,2.771,7.024,2.814,9.802,0.106
		c0.072-0.069,0.114-0.171,0.188-0.238c0.601-0.536,1.269-1.324,2.059-0.527c0.764,0.771,0.584,1.689-0.151,2.542
		C116.941,90.681,114.621,91.741,110.718,91.779z"/>
	<path fill-rule="evenodd" clip-rule="evenodd" d="M99.833,66.739c0.757,0.613,1.7,0.992,1.833,1.562
		c0.296,1.267-0.78,1.431-1.791,1.669c-1.513,0.357-3.002,0.86-4.444,1.44c-0.895,0.36-1.739,0.408-2.045-0.486
		c-0.169-0.491,0.247-1.586,0.697-1.812C95.854,68.226,97.743,67.574,99.833,66.739z"/>
	<path fill-rule="evenodd" clip-rule="evenodd" d="M123.73,66.863c1.8,0.707,3.644,1.328,5.37,2.18
		c0.481,0.237,0.995,1.293,0.839,1.75c-0.321,0.944-1.188,0.941-2.147,0.563c-1.442-0.569-2.939-1.035-4.451-1.371
		c-1.022-0.227-1.995-0.415-1.868-1.679C121.602,67.023,122.696,67.21,123.73,66.863z"/>
</g>
</svg>
