<?xml version="1.0" encoding="utf-8"?>
<!-- Generator: Adobe Illustrator 16.0.0, SVG Export Plug-In . SVG Version: 6.00 Build 0)  -->
<!DOCTYPE svg PUBLIC "-//W3C//DTD SVG 1.1//EN" "http://www.w3.org/Graphics/SVG/1.1/DTD/svg11.dtd">
<svg version="1.1" id="Layer_1" xmlns="http://www.w3.org/2000/svg" xmlns:xlink="http://www.w3.org/1999/xlink" x="0px" y="0px"
	 width="225px" height="225px" viewBox="0 0 225 225" enable-background="new 0 0 225 225" xml:space="preserve">
<g>
	<path fill-rule="evenodd" clip-rule="evenodd" d="M119.482,180.674c-0.82-0.121-1.533-0.182-2.223-0.341
		c-1.118-0.254-2.232-0.534-3.324-0.873c-2.012-0.623-3.819-1.662-5.576-2.802c-0.197-0.129-0.482-0.126-0.748-0.189
		c-0.291,1.226-0.49,2.357-0.83,3.445c-0.773,2.459-1.541,4.928-2.788,7.203c-0.856,1.561-1.943,2.966-3.352,4.047
		c-0.831,0.639-1.823,1.098-2.794,1.52c-1.298,0.563-2.668,0.887-4.078,1.112c-1.642,0.264-3.291,0.458-4.938,0.681
		c-2.412,0.325-4.834,0.688-7.178,1.38c-1.455,0.431-2.865,1.023-4.293,1.551c-0.507,0.188-1.048,0.276-1.498-0.017
		c-0.483-0.316-0.829-0.784-0.736-1.452c0.078-0.582,0.445-0.997,0.911-1.18c1.329-0.523,2.711-0.908,4.046-1.417
		c1.676-0.637,3.441-0.865,5.174-1.239c1.124-0.243,2.279-0.327,3.422-0.489c1.384-0.197,2.767-0.39,4.148-0.606
		c0.779-0.123,1.567-0.235,2.324-0.447c2.367-0.663,4.408-1.82,5.732-3.988c0.895-1.463,1.637-3,2.139-4.645
		c0.54-1.771,1.086-3.54,1.613-5.314c0.148-0.499,0.229-1.018,0.361-1.522c0.121-0.459-0.131-0.723-0.461-0.957
		c-0.788-0.558-1.604-1.083-2.362-1.681c-1.725-1.358-3.479-2.688-5.116-4.146c-2.295-2.048-4.467-4.229-6.449-6.595
		c-1.293-1.54-2.523-3.127-3.615-4.806c-1.033-1.584-1.975-3.234-2.844-4.914c-0.735-1.421-1.367-2.904-1.939-4.398
		c-0.486-1.267-0.854-2.581-1.216-3.89c-0.298-1.076-0.532-2.172-0.759-3.267c-0.453-2.185-0.711-4.393-0.662-6.628
		c0.005-0.248-0.018-0.496-0.002-0.743c0.025-0.409-0.186-0.69-0.509-0.864c-2.224-1.187-4.007-2.887-5.48-4.886
		c-1.134-1.537-2.035-3.232-2.616-5.07c-0.328-1.038-0.723-2.066-0.923-3.129c-0.372-1.973-0.612-3.988-0.346-5.983
		c0.302-2.247,1.587-3.906,4.024-4.668c0.512-0.16,1.088-0.122,1.635-0.167c0.54-0.045,0.619-0.119,0.521-0.647
		c-0.127-0.671-0.29-1.334-0.434-2.003c-0.185-0.857-0.385-1.71-0.542-2.572c-0.16-0.891-0.357-1.785-0.4-2.684
		c-0.134-2.771-0.557-5.53-0.334-8.316c0.113-1.423,0.145-2.857,0.334-4.27c0.234-1.762,0.572-3.512,0.906-5.259
		c0.228-1.183,0.463-2.373,0.808-3.525c0.476-1.585,1.073-3.133,1.593-4.706c0.563-1.71,1.345-3.32,2.165-4.917
		c1.106-2.151,2.397-4.178,3.892-6.082c2.106-2.689,4.604-4.953,7.33-6.996c2.332-1.745,4.797-3.261,7.36-4.629
		c0.072-0.039,0.138-0.088,0.292-0.189c0-0.6,0.016-1.253-0.004-1.906c-0.037-1.424,0.352-2.761,0.896-4.046
		c1.037-2.443,2.671-4.412,4.793-6.015c1.655-1.252,3.439-2.224,5.354-3.028c1.804-0.759,3.686-1.207,5.574-1.627
		c1.041-0.231,2.123-0.275,3.188-0.399c0.24-0.028,0.48-0.045,0.834-0.078c0-0.366,0-0.686,0-1.008
		c0.002-4.621,0.014-9.243-0.008-13.865c-0.004-0.73,0.236-1.074,0.969-1.436c0.736-0.363,1.938,0.439,1.879,1.167
		c-0.021,0.273,0.008,0.55,0.008,0.825c0.002,63.904,0.002,127.81,0,191.715c0,0.22-0.017,0.44,0,0.659
		c0.057,0.696-0.293,1.119-0.889,1.409c-0.842,0.411-1.903-0.205-1.952-1.148c-0.013-0.246-0.007-0.494-0.007-0.742
		c0-10.068,0-20.137,0-30.205C119.482,181.448,119.482,181.121,119.482,180.674z M119.432,88.911
		c-0.228,0.044-0.416,0.045-0.574,0.115c-1.918,0.867-3.817,1.779-5.752,2.607c-2.177,0.932-4.369,1.833-6.584,2.67
		c-2.02,0.765-4.082,1.42-6.12,2.136c-2.597,0.912-5.017,2.182-7.316,3.681c-2.966,1.935-5.673,4.19-8.155,6.711
		c-1.732,1.761-3.324,3.648-4.767,5.654c-0.712,0.99-1.845,1.03-2.579,0.053c-0.207-0.277-0.453-0.53-0.699-0.776
		c-0.729-0.729-1.674-0.754-2.512-0.448c-1.229,0.447-1.836,1.471-1.881,2.795c-0.036,1.102,0.017,2.19,0.27,3.271
		c0.191,0.823,0.195,1.697,0.451,2.496c0.426,1.339,0.932,2.652,1.611,3.899c1.516,2.784,3.656,4.906,6.487,6.332
		c0.146,0.074,0.287,0.16,0.433,0.235c0.486,0.251,0.703,0.631,0.68,1.196c-0.033,0.851-0.055,1.707-0.004,2.557
		c0.096,1.561,0.126,3.14,0.402,4.671c0.322,1.8,0.699,3.596,1.266,5.354c0.65,2.021,1.416,3.982,2.334,5.895
		c1.26,2.626,2.81,5.064,4.539,7.406c1.62,2.192,3.416,4.225,5.344,6.14c1.58,1.568,3.187,3.113,4.982,4.445
		c1.717,1.274,3.387,2.615,5.127,3.856c1.402,1.001,2.862,1.926,4.328,2.833c1.205,0.747,2.438,1.46,3.805,1.889
		c0.98,0.309,1.947,0.675,2.949,0.889c0.615,0.131,1.289,0.222,1.99-0.011c0-0.321,0-0.62,0-0.918c0-3.989,0-7.978,0-11.966
		c0-0.688,0.008-1.376-0.002-2.063c-0.012-0.718-0.042-0.726-0.729-0.809c-0.896-0.109-1.805-0.185-2.682-0.385
		c-1.024-0.234-2.012-0.619-3.03-0.885c-1.195-0.313-2.271-0.888-3.354-1.445c-0.417-0.215-0.769-0.534-0.82-1.059
		c-0.06-0.607,0.058-1.118,0.632-1.476c0.527-0.326,1.001-0.263,1.535-0.024c0.953,0.427,1.939,0.784,2.896,1.202
		c1.576,0.687,3.256,0.908,4.932,1.15c0.433,0.063,0.581-0.086,0.615-0.545c0.013-0.165,0.004-0.331,0.004-0.496
		c0-4.621,0-9.241,0-13.863c0-0.302,0-0.603,0-0.987c-0.305-0.118-0.604-0.229-0.896-0.349c-0.63-0.257-1.283-0.469-1.875-0.791
		c-0.522-0.284-0.725-0.813-0.631-1.408c0.084-0.548,0.394-0.9,0.921-1.138c0.64-0.287,1.109,0.088,1.636,0.273
		c0.233,0.081,0.468,0.163,0.795,0.277C119.432,122.741,119.432,105.866,119.432,88.911z M79.436,108.518
		c0.437-0.492,0.85-0.946,1.251-1.409c3.69-4.24,7.927-7.827,12.781-10.671c1.851-1.084,3.806-1.958,5.798-2.731
		c1.984-0.771,4.021-1.401,6.021-2.127c1.777-0.645,3.541-1.321,5.3-2.016c2.749-1.085,5.417-2.344,8.032-3.728
		c0.674-0.357,0.878-0.739,0.876-1.45c-0.019-8.004-0.011-16.01-0.011-24.014c0-3.494,0.002-6.987-0.002-10.481
		c0-0.806-0.179-0.961-0.986-0.855c-0.461,0.06-0.917,0.165-1.379,0.216c-0.92,0.103-1.839,0.126-2.764,0.302
		c-1.202,0.229-2.416,0.403-3.602,0.716c-1.161,0.307-2.341,0.56-3.471,0.956c-1.592,0.556-3.141,1.232-4.715,1.837
		c-2.414,0.929-4.625,2.241-6.781,3.641c-1.265,0.82-2.484,1.719-3.672,2.65c-1.156,0.906-2.297,1.846-3.354,2.864
		c-1.946,1.875-3.561,4.026-4.958,6.337c-0.943,1.559-1.806,3.16-2.481,4.853c-0.613,1.541-1.208,3.089-1.754,4.654
		c-0.578,1.652-1.038,3.34-1.332,5.069c-0.123,0.728-0.256,1.454-0.381,2.182c-0.188,1.104-0.49,2.203-0.536,3.313
		c-0.121,2.935-0.396,5.862-0.123,8.814c0.173,1.855,0.294,3.706,0.688,5.531c0.27,1.253,0.486,2.518,0.758,3.771
		c0.109,0.506,0.294,0.996,0.47,1.483C79.148,108.329,79.294,108.396,79.436,108.518z M119.396,46.042
		c0.03-0.095,0.063-0.146,0.063-0.198c0.01-2.637,0.023-5.272,0.016-7.91c-0.002-0.521-0.313-0.7-0.838-0.594
		c-0.506,0.103-1.018,0.185-1.529,0.265c-0.861,0.135-1.75,0.173-2.582,0.411c-1.281,0.368-2.533,0.844-3.779,1.319
		c-2.169,0.828-4.068,2.065-5.746,3.689c-1.65,1.601-2.731,3.492-3.23,5.719c-0.084,0.378-0.012,0.792-0.012,1.24
		c0.289-0.027,0.52-0.003,0.715-0.076c0.675-0.257,1.327-0.581,2.008-0.82c1.154-0.406,2.313-0.814,3.49-1.136
		c1.397-0.381,2.813-0.694,4.23-0.993c0.909-0.191,1.831-0.338,2.754-0.441c1.414-0.159,2.834-0.263,4.253-0.393
		C119.258,46.119,119.306,46.083,119.396,46.042z"/>
	<path fill-rule="evenodd" clip-rule="evenodd" d="M171.553,108.247c0.458,0.036,0.864,0.061,1.269,0.102
		c2.745,0.271,4.198,1.938,4.735,3.972c0.281,1.063,0.16,2.237,0.189,3.362c0.014,0.465-0.02,0.938-0.092,1.397
		c-0.163,1.024-0.354,2.045-0.55,3.063c-0.224,1.179-0.663,2.287-1.12,3.39c-0.521,1.257-1.177,2.438-1.965,3.547
		c-1.154,1.626-2.506,3.059-4.166,4.184c-0.441,0.3-0.85,0.681-1.332,0.881c-0.475,0.196-0.611,0.5-0.63,0.941
		c-0.062,1.399-0.066,2.806-0.194,4.199c-0.105,1.166-0.342,2.32-0.544,3.477c-0.106,0.62-0.263,1.232-0.399,1.847
		c-0.613,2.749-1.598,5.361-2.763,7.927c-1.385,3.052-3.12,5.877-5.103,8.567c-2.479,3.367-5.331,6.392-8.455,9.16
		c-2.105,1.868-4.275,3.662-6.625,5.224c-0.508,0.338-0.971,0.745-1.438,1.108c0.323,1.386,0.584,2.697,0.945,3.98
		c0.354,1.248,0.766,2.485,1.234,3.696c0.461,1.193,0.972,2.373,1.553,3.513c0.923,1.813,2.314,3.205,4.168,4.058
		c0.773,0.355,1.642,0.495,2.454,0.771c1.623,0.551,3.333,0.61,5.002,0.896c1.243,0.214,2.514,0.271,3.755,0.49
		c1.507,0.269,3.002,0.616,4.494,0.965c0.924,0.218,1.843,0.47,2.746,0.768c0.917,0.303,1.821,0.653,2.708,1.038
		c0.696,0.304,1.015,1.372,0.681,2.064c-0.281,0.583-1.273,0.931-1.939,0.613c-1.731-0.829-3.559-1.371-5.402-1.857
		c-0.846-0.222-1.717-0.348-2.578-0.507c-1.102-0.204-2.203-0.396-3.307-0.594c-0.08-0.014-0.162-0.025-0.244-0.033
		c-1.305-0.138-2.617-0.234-3.914-0.424c-0.885-0.128-1.742-0.43-2.624-0.569c-1.121-0.178-2.144-0.604-3.161-1.063
		c-2.09-0.943-3.738-2.388-4.923-4.357c-1.073-1.783-1.911-3.67-2.53-5.653c-0.439-1.404-0.891-2.806-1.309-4.216
		c-0.161-0.543-0.246-1.108-0.395-1.795c-0.352,0.166-0.619,0.265-0.859,0.407c-1.418,0.841-2.833,1.688-4.369,2.3
		c-1.605,0.64-3.243,1.161-4.982,1.302c-1.008,0.081-2.014,0.227-3.024,0.28c-0.581,0.031-1.013-0.27-1.296-0.816
		c-0.297-0.571-0.182-1.063,0.154-1.543c0.193-0.278,0.455-0.433,0.824-0.46c1.173-0.089,2.346-0.195,3.514-0.338
		c0.534-0.064,1.07-0.192,1.582-0.358c1.399-0.45,2.789-0.936,4.064-1.681c3.09-1.804,6.063-3.782,8.905-5.957
		c3.096-2.369,6.032-4.916,8.646-7.815c1.726-1.915,3.323-3.928,4.798-6.055c1.92-2.768,3.439-5.729,4.709-8.825
		c0.485-1.183,0.816-2.43,1.163-3.663c0.339-1.206,0.69-2.418,0.892-3.649c0.281-1.73,0.482-3.479,0.438-5.242
		c-0.02-0.77,0.018-1.542-0.023-2.311c-0.048-0.876,0.337-1.462,1.103-1.818c2.964-1.386,5.118-3.643,6.671-6.447
		c0.951-1.716,1.525-3.598,1.898-5.551c0.267-1.396,0.286-2.782,0.32-4.182c0.037-1.539-1.397-3.178-3.455-2.712
		c-0.691,0.156-1.223,0.658-1.615,1.287c-0.534,0.857-1.521,0.979-2.221,0.283c-0.162-0.162-0.287-0.403-0.34-0.628
		c-0.117-0.508-0.183-1.028-0.26-1.544c-0.496-3.311-1.586-6.397-3.563-9.124c-1.505-2.075-3.326-3.834-5.549-5.127
		c-1.422-0.825-2.891-1.569-4.343-2.342c-2.558-1.36-5.059-2.812-7.446-4.463c-2.077-1.437-3.936-3.108-5.6-4.989
		c-1.315-1.488-2.35-3.18-3.117-5.021c-0.051-0.12-0.114-0.235-0.199-0.41c-0.166,0.118-0.326,0.18-0.408,0.296
		c-1.587,2.305-3.656,4.112-5.917,5.712c-1.054,0.746-2.146,1.444-3.253,2.106c-0.449,0.268-0.926,0.508-1.543,0.272
		c-0.568-0.218-0.854-0.597-0.965-1.117c-0.119-0.557,0.129-1.041,0.588-1.354c0.898-0.615,1.84-1.167,2.739-1.78
		c2.249-1.535,4.388-3.196,5.952-5.476c0.891-1.298,1.584-2.668,1.617-4.292c0.016-0.618,0.385-1.016,0.922-1.242
		c0.546-0.229,1.313-0.053,1.656,0.349c0.1,0.117,0.205,0.261,0.228,0.406c0.13,0.786,0.177,1.589,0.358,2.361
		c0.222,0.947,0.484,1.894,0.838,2.798c1.153,2.946,3.164,5.241,5.566,7.242c2.406,2.003,5.023,3.671,7.782,5.137
		c1.912,1.017,3.847,2,5.72,3.085c3.28,1.899,5.907,4.491,7.795,7.784c0.738,1.287,1.33,2.657,2.014,4.039
		c0.246-0.105,0.355-0.355,0.404-0.612c0.153-0.805,0.294-1.612,0.418-2.423c0.176-1.167,0.383-2.332,0.486-3.504
		c0.129-1.478,0.213-2.963,0.23-4.446c0.021-1.731,0.01-3.469-0.104-5.195c-0.095-1.418-0.352-2.828-0.552-4.238
		c-0.129-0.893-0.271-1.784-0.434-2.671c-0.111-0.617-0.238-1.234-0.408-1.836c-0.271-0.965-0.615-1.91-0.872-2.878
		c-0.44-1.667-1.087-3.254-1.782-4.824c-0.834-1.881-1.795-3.692-2.909-5.426c-1.941-3.02-4.37-5.578-7.169-7.809
		c-2.383-1.9-4.914-3.579-7.586-5.037c-1.795-0.979-3.654-1.835-5.585-2.524c-1.238-0.442-2.472-0.906-3.732-1.274
		c-1.148-0.336-2.329-0.563-3.497-0.821c-0.98-0.216-1.967-0.408-2.953-0.609c-0.106-0.021-0.217-0.03-0.326-0.037
		c-2.001-0.113-4-0.232-6.003-0.336c-0.734-0.039-1.132-0.324-1.366-1.044c-0.17-0.523,0.028-1.151,0.539-1.515
		c0.206-0.147,0.486-0.269,0.731-0.271c1.32-0.009,2.646-0.043,3.96,0.061c1.306,0.103,2.604,0.339,3.897,0.555
		c1.379,0.231,2.759,0.467,4.12,0.776c1.063,0.243,2.104,0.589,3.146,0.915c0.776,0.242,1.544,0.513,2.306,0.794
		c0.502,0.184,0.984,0.417,1.482,0.607c0.144,0.056,0.316,0.036,0.572,0.059c0-0.328,0.046-0.625-0.007-0.902
		c-0.56-2.954-2.168-5.235-4.511-7.061c-1.796-1.4-3.785-2.432-5.919-3.179c-1.079-0.377-2.203-0.638-3.323-0.877
		c-1.147-0.245-2.311-0.436-3.475-0.581c-0.706-0.087-1.429-0.041-2.144-0.058c-0.84-0.021-1.407-0.551-1.439-1.341
		c-0.034-0.819,0.558-1.452,1.438-1.46c1.318-0.013,2.635-0.046,3.945,0.23c0.988,0.209,2.018,0.256,2.998,0.498
		c1.273,0.311,2.539,0.68,3.764,1.14c1.051,0.395,2.039,0.955,3.057,1.438c1.342,0.636,2.494,1.546,3.631,2.482
		c1.792,1.476,3.139,3.3,4.033,5.425c0.485,1.152,0.855,2.369,0.823,3.657c-0.011,0.467,0.026,0.938-0.008,1.403
		c-0.032,0.444,0.136,0.713,0.519,0.925c1.233,0.683,2.467,1.367,3.674,2.094c1.947,1.175,3.768,2.53,5.535,3.963
		c1.188,0.96,2.314,1.977,3.377,3.071c1.844,1.901,3.383,4.037,4.734,6.302c1.623,2.718,2.918,5.596,3.884,8.613
		c0.383,1.194,0.722,2.403,1.044,3.614c0.328,1.235,0.656,2.474,0.902,3.727c0.205,1.045,0.236,2.125,0.443,3.169
		c0.365,1.85,0.289,3.724,0.406,5.585c0.075,1.202,0.027,2.414,0.012,3.621c-0.008,0.576-0.053,1.154-0.1,1.729
		c-0.124,1.56-0.186,3.128-0.411,4.674c-0.206,1.425-0.587,2.825-0.898,4.235c-0.1,0.451-0.248,0.89-0.333,1.342
		C171.514,107.666,171.553,107.937,171.553,108.247z"/>
	<path fill-rule="evenodd" clip-rule="evenodd" d="M49.302,101.061c-0.022-0.624,0.177-1.042,0.762-1.32
		c0.747-0.357,1.454-0.802,2.157-1.243c1.875-1.177,3.17-2.849,4.089-4.843c0.292-0.632,0.638-1.204,1.493-1.16
		c0.604,0.029,1.025,0.244,1.314,0.798c0.398,0.767,0.824,1.522,1.293,2.247c1.184,1.827,2.818,3.117,4.805,3.995
		c1.055,0.468,1.248,1.036,1.049,2.01c-0.122,0.601-0.623,0.817-1.077,1.02c-2.008,0.892-3.667,2.18-4.816,4.074
		c-0.364,0.599-0.702,1.213-1.058,1.817c-0.273,0.466-0.472,0.997-1.127,1.087c-0.904,0.125-1.404-0.075-1.773-0.928
		c-0.695-1.598-1.699-2.959-2.971-4.135c-0.838-0.773-1.793-1.37-2.818-1.858c-0.268-0.127-0.553-0.23-0.796-0.394
		C49.406,101.95,49.251,101.526,49.302,101.061z M61.668,101.14c-1.359-1.352-2.636-2.621-3.986-3.965
		c-0.955,1.55-2.326,2.714-3.835,3.896c1.616,1.1,2.862,2.396,3.995,3.975C58.92,103.413,60.208,102.18,61.668,101.14z"/>
	<path fill-rule="evenodd" clip-rule="evenodd" d="M62.665,172.353c-0.001-0.724,0.257-1.142,0.917-1.437
		c2.315-1.034,4.051-2.688,5.086-5.038c0.232-0.528,0.536-1,1.209-1.058c0.795-0.07,1.15,0.108,1.563,0.895
		c0.605,1.158,1.252,2.284,2.199,3.206c0.885,0.861,1.914,1.506,3.026,2.019c0.644,0.295,0.97,0.753,0.938,1.474
		c-0.02,0.473-0.184,0.832-0.615,1.053c-0.289,0.147-0.572,0.305-0.859,0.453c-2.138,1.099-3.67,2.774-4.645,4.952
		c-0.272,0.614-0.695,0.87-1.323,0.907c-0.699,0.042-1.185-0.329-1.434-0.909c-0.831-1.94-2.152-3.439-3.934-4.545
		c-0.456-0.282-0.935-0.531-1.417-0.763C62.832,173.299,62.643,172.861,62.665,172.353z M72.973,172.322
		c-0.984-0.983-1.906-1.904-2.871-2.869c-0.906,0.918-1.846,1.87-2.813,2.851c0.957,0.952,1.901,1.892,2.835,2.822
		C71.1,174.165,72.033,173.245,72.973,172.322z"/>
	<path fill-rule="evenodd" clip-rule="evenodd" d="M47.885,135.6c0.582-0.021,1.01,0.196,1.273,0.779
		c0.474,1.051,1.101,1.988,1.949,2.802c0.697,0.668,1.485,1.162,2.34,1.543c0.583,0.262,0.842,0.66,0.887,1.238
		c0.045,0.589-0.148,1.081-0.697,1.384c-0.283,0.156-0.555,0.334-0.845,0.478c-1.591,0.792-2.684,2.05-3.464,3.623
		c-0.173,0.349-0.303,0.724-0.727,0.938c-0.865,0.44-1.502,0.319-2.007-0.509c-0.355-0.582-0.657-1.198-1.04-1.761
		c-0.793-1.164-1.885-1.976-3.154-2.575c-0.58-0.274-1.045-0.658-1.024-1.423c0.019-0.677,0.265-1.1,0.906-1.395
		c1.798-0.83,3.191-2.103,4.026-3.934c0.066-0.148,0.176-0.276,0.244-0.423C46.816,135.805,47.257,135.561,47.885,135.6z
		 M47.826,144.118c0.634-0.603,1.229-1.143,1.782-1.725c0.099-0.103,0.097-0.458-0.001-0.561c-0.564-0.59-1.173-1.139-1.73-1.669
		c-0.654,0.636-1.303,1.264-2.016,1.958C46.503,142.774,47.142,143.422,47.826,144.118z"/>
	<path fill-rule="evenodd" clip-rule="evenodd" d="M147.251,107.348c1.597-0.129,3.042,0.406,4.503,0.954
		c1.617,0.605,3.146,1.375,4.658,2.192c0.81,0.438,1.095,1.187,0.775,1.899c-0.363,0.803-1.166,1.126-1.975,0.748
		c-0.938-0.439-1.852-0.926-2.781-1.378c-1.043-0.508-2.124-0.906-3.226-1.273c-1.313-0.438-2.588-0.34-3.886-0.04
		c-0.081,0.018-0.162,0.035-0.244,0.044c-1.139,0.136-2.285,0.238-3.42,0.411c-0.912,0.14-1.805,0.396-2.717,0.536
		c-0.756,0.115-1.528,0.191-2.291,0.178c-0.646-0.011-1.124-0.516-1.234-1.109c-0.089-0.483,0.258-1.19,0.762-1.439
		c0.291-0.144,0.617-0.224,0.934-0.297c0.48-0.109,0.967-0.196,1.452-0.278c0.889-0.151,1.778-0.299,2.667-0.438
		c1.295-0.203,2.584-0.421,3.882-0.586C145.816,107.381,146.535,107.386,147.251,107.348z"/>
	<path fill-rule="evenodd" clip-rule="evenodd" d="M145.152,123.926c-1.123-0.309-2.318-0.191-3.438-0.608
		c-0.452-0.17-0.947-0.237-1.391-0.43c-0.482-0.21-0.938-1.076-0.523-1.924c0.301-0.613,1.064-0.933,1.709-0.69
		c1.299,0.489,2.65,0.597,4.023,0.583c1.072-0.009,2.127-0.159,3.149-0.456c0.668-0.195,1.321-0.473,1.944-0.791
		c0.551-0.28,1.107-0.324,1.666-0.175c0.889,0.237,1.094,1.693,0.322,2.35c-0.345,0.293-0.754,0.55-1.176,0.703
		c-1.43,0.518-2.846,1.087-4.404,1.14C146.416,123.647,145.801,123.819,145.152,123.926z"/>
	<path fill-rule="evenodd" clip-rule="evenodd" d="M127.74,161.741c-0.467,0-0.936,0.022-1.4-0.005
		c-0.688-0.043-1.224-0.655-1.242-1.378c-0.018-0.718,0.515-1.354,1.203-1.422c1.229-0.116,2.47-0.161,3.686-0.357
		c1.102-0.177,2.201-0.438,3.254-0.804c1.113-0.387,2.17-0.938,3.252-1.418c0.7-0.311,1.604-0.036,1.934,0.585
		c0.34,0.643,0.092,1.687-0.574,2.003c-1.121,0.536-2.266,1.03-3.431,1.46c-1.01,0.374-2.044,0.711-3.097,0.925
		c-1.174,0.239-2.382,0.32-3.574,0.471C127.746,161.781,127.744,161.761,127.74,161.741z"/>
	<path fill-rule="evenodd" clip-rule="evenodd" d="M126.875,142.882c-0.721,0.03-1.283-0.188-1.609-0.879
		c-0.449-0.956,0.094-1.868,1.152-1.989c1.002-0.113,1.986-0.316,2.918-0.733c0.678-0.302,1.557-0.031,1.861,0.531
		c0.346,0.636,0.027,1.708-0.63,2.06C129.414,142.487,128.153,142.725,126.875,142.882z"/>
	<path fill-rule="evenodd" clip-rule="evenodd" d="M144.982,102.614c0.114,1.207-0.955,1.886-1.882,1.906
		c-0.851,0.018-1.98-0.685-1.956-1.973c0.019-1,0.85-1.901,1.937-1.924C143.949,100.602,145.125,101.358,144.982,102.614z"/>
	<path fill-rule="evenodd" clip-rule="evenodd" d="M136.879,94.019c1.066-0.077,1.887,0.858,1.831,1.785
		c-0.065,1.068-0.561,1.761-1.843,1.771c-1.223,0.009-1.801-0.838-1.829-1.782C135.01,94.829,135.879,94.013,136.879,94.019z"/>
	<path fill-rule="evenodd" clip-rule="evenodd" d="M136.398,170.439c0.104,0.938-0.631,1.739-1.627,1.711
		c-1.12-0.031-1.791-0.619-1.83-1.649c-0.031-0.821,0.799-1.804,1.743-1.816C135.457,168.675,136.507,169.302,136.398,170.439z"/>
	<path fill-rule="evenodd" clip-rule="evenodd" d="M150.35,152.112c0.951,0.004,1.506,0.551,1.508,1.487
		c0.003,1.026-0.55,1.639-1.48,1.645c-1.059,0.006-1.654-0.563-1.66-1.579C148.713,152.624,149.255,152.109,150.35,152.112z"/>
	<path fill-rule="evenodd" clip-rule="evenodd" d="M142.265,164.298c-0.005,0.951-0.634,1.547-1.608,1.53
		c-0.939-0.015-1.518-0.642-1.51-1.632c0.009-0.89,0.66-1.518,1.564-1.507C141.682,162.699,142.273,163.313,142.265,164.298z"/>
	<path fill-rule="evenodd" clip-rule="evenodd" d="M155.997,142.157c-0.021,0.828-0.613,1.37-1.479,1.354
		c-0.77-0.016-1.304-0.626-1.282-1.467c0.025-0.946,0.502-1.341,1.572-1.301C155.654,140.775,156.022,141.214,155.997,142.157z"/>
	<path fill-rule="evenodd" clip-rule="evenodd" d="M145.069,141.096c-0.856,0.053-1.178-0.403-1.17-1.281
		c0.007-0.989,0.585-1.173,1.329-1.187c0.776-0.014,1.146,0.454,1.153,1.277C146.39,140.558,146.012,141.191,145.069,141.096z"/>
	<path fill-rule="evenodd" clip-rule="evenodd" d="M155.997,134.386c0,0.804-0.419,1.231-1.194,1.221
		c-0.6-0.01-1.19-0.619-1.186-1.223c0.004-0.6,0.61-1.186,1.225-1.185C155.551,133.201,155.997,133.659,155.997,134.386z"/>
	<path fill-rule="evenodd" clip-rule="evenodd" d="M131.794,105.752c-0.668-0.034-1.216-0.609-1.158-1.216
		c0.05-0.523,0.747-1.187,1.246-1.186c0.646,0.001,1.142,0.62,1.095,1.371C132.933,105.452,132.545,105.79,131.794,105.752z"/>
	<path fill-rule="evenodd" clip-rule="evenodd" d="M147.222,94.668c0.74,0.004,1.165,0.431,1.161,1.167
		c-0.004,0.614-0.617,1.218-1.219,1.196c-0.625-0.022-1.152-0.611-1.139-1.271C146.043,94.992,146.402,94.664,147.222,94.668z"/>
	<path fill-rule="evenodd" clip-rule="evenodd" d="M152.559,101.108c-0.01-0.565,0.584-1.23,1.093-1.223
		c0.565,0.008,1.022,0.515,1.03,1.138c0.008,0.674-0.396,1.102-1.033,1.097C153.145,102.117,152.566,101.58,152.559,101.108z"/>
	<path fill-rule="evenodd" clip-rule="evenodd" d="M149.248,145.59c0.564,0.001,0.913,0.348,0.919,0.911
		c0.005,0.574-0.329,0.916-0.905,0.927c-0.605,0.01-0.896-0.284-0.887-0.896C148.383,145.907,148.679,145.588,149.248,145.59z"/>
	<path fill-rule="evenodd" clip-rule="evenodd" d="M132.148,164.799c-0.414,0-0.779,0-1.156,0c-0.145-0.466-0.242-0.887,0.197-1.14
		c0.199-0.114,0.553-0.145,0.747-0.042C132.392,163.855,132.267,164.299,132.148,164.799z"/>
	<path fill-rule="evenodd" clip-rule="evenodd" d="M100.358,107.342c1.675,0.02,3.31,0.321,4.944,0.646
		c0.133,0.027,0.271,0.027,0.407,0.048c1.646,0.259,3.296,0.49,4.934,0.791c1.12,0.207,1.376,0.824,1.349,1.639
		c-0.031,0.923-0.97,1.338-1.662,1.239c-1.048-0.149-2.092-0.331-3.136-0.511c-1.046-0.181-2.089-0.377-3.132-0.566
		c-0.055-0.01-0.107-0.027-0.162-0.034c-1.113-0.128-2.229-0.257-3.344-0.383c-1.089-0.123-2.09,0.188-3.107,0.544
		c-1.741,0.611-3.383,1.421-5,2.291c-0.519,0.278-1.029,0.305-1.57,0.068c-0.858-0.376-0.911-2.146,0.086-2.594
		c1.24-0.558,2.428-1.24,3.678-1.775c1.165-0.499,2.364-0.944,3.584-1.278C98.898,107.282,99.645,107.374,100.358,107.342z"/>
	<path fill-rule="evenodd" clip-rule="evenodd" d="M101.924,123.902c-0.939-0.17-2.082-0.414-3.238-0.574
		c-1.18-0.162-2.223-0.686-3.291-1.146c-0.858-0.372-1.116-0.908-0.995-1.836c0.075-0.582,0.362-0.835,0.933-0.957
		c0.787-0.168,1.424,0.245,2.111,0.469c0.61,0.197,1.221,0.398,1.824,0.61c1.381,0.485,2.807,0.338,4.227,0.33
		c0.842-0.006,1.607-0.285,2.387-0.512c0.77-0.226,1.547,0.062,1.875,0.799c0.283,0.64-0.002,1.508-0.678,1.809
		c-0.615,0.273-1.264,0.509-1.922,0.628C104.164,123.701,103.152,123.765,101.924,123.902z"/>
</g>
</svg>
