<?xml version="1.0" encoding="utf-8"?>
<!-- Generator: Adobe Illustrator 16.0.0, SVG Export Plug-In . SVG Version: 6.00 Build 0)  -->
<!DOCTYPE svg PUBLIC "-//W3C//DTD SVG 1.1//EN" "http://www.w3.org/Graphics/SVG/1.1/DTD/svg11.dtd">
<svg version="1.1" id="Layer_1" xmlns="http://www.w3.org/2000/svg" xmlns:xlink="http://www.w3.org/1999/xlink" x="0px" y="0px"
	 width="225px" height="225px" viewBox="0 0 225 225" enable-background="new 0 0 225 225" xml:space="preserve">
<path fill-rule="evenodd" clip-rule="evenodd" d="M41.381,113.317c0.949-0.652,1.627-2.279,1.7-3.537
	c0.718-12.248,5.341-22.55,15.365-29.855c13.774-10.039,29.11-11.596,45.15-6.962c13.381,3.866,23.179,12.392,27.386,25.655
	c4.349,13.711,2,26.765-7.862,37.897c-1.362,1.537-2.603,3.183-3.993,4.689c-8.422,9.128-12.499,19.837-12.301,32.3
	c0.082,5.195-1.561,10.087-5.244,13.905c-7.09,7.348-15.773,8.948-25.273,6.016c-8.926-2.755-15.225-11.02-15.791-20.124
	c-0.123-1.985-0.039-4.372-2.645-4.316c-2.921,0.063-2.645,2.62-2.463,4.678c0.646,7.407,3.438,13.99,9.258,18.601
	c4.07,3.227,8.98,5.393,12.877,7.651c4.86-0.312,9.717-0.665,14.57-1.069c1.393-0.482,2.785-0.879,4.098-1.451
	c10.586-4.608,15.618-13.174,15.684-24.316c0.064-10.983,3.64-20.264,10.888-28.32c1.776-1.976,3.486-4.012,5.156-6.077
	c17.532-21.692,11.437-52.973-12.976-66.484c-12.027-6.656-24.978-8.229-38.23-5.605C58.625,70.176,45.485,80.066,39.863,98.35
	c-0.874,2.842-1.254,5.833-1.863,8.756v5.077C39.163,112.612,40.793,113.722,41.381,113.317z"/>
<path fill-rule="evenodd" clip-rule="evenodd" d="M185.234,91.148c-4.277,0.295-8.557,0.82-12.836,0.839
	c-10.383,0.044-9.467,1.418-9.474-9.428c-0.011-15.563-0.011-31.127,0.003-46.69c0.004-4.409,0.746-5.02,5.033-4.92
	c4.33,0.101,8.669-0.109,12.993,0.068c1.443,0.061,2.854,0.899,4.28,1.383C185.234,51.983,185.234,71.565,185.234,91.148z
	 M168.191,36.209c0,17.003,0,33.717,0,50.515c4.041,0,7.842,0,11.729,0c0-16.937,0-33.651,0-50.515
	C175.99,36.209,172.277,36.209,168.191,36.209z"/>
<path fill-rule="evenodd" clip-rule="evenodd" d="M185.234,117.984c-2.961,6.363-7.388,9.339-12.632,8.494
	c-5.43-0.875-9.327-5.146-9.64-10.567c-0.296-5.148,3.094-9.731,8.319-11.246c4.974-1.441,10.171,0.857,12.74,5.659
	c0.448,0.837,0.811,1.722,1.212,2.583C185.234,114.6,185.234,116.292,185.234,117.984z M174.275,121.51
	c3.209-0.081,5.893-2.907,5.857-6.166c-0.035-3.285-2.74-6.004-5.984-6.016c-3.287-0.012-6.314,3.104-6.141,6.319
	C168.178,118.812,171.146,121.589,174.275,121.51z"/>
<path fill-rule="evenodd" clip-rule="evenodd" d="M59.652,114.944c0.124-19.485,18.885-32.418,38.633-26.264
	c4.237,1.321,8.047,4.143,11.887,6.541c1.497,0.934,2.871,2.677,1.149,4.549c-1.749,1.9-3.14,0.478-4.548-0.829
	c-9.649-8.953-30.346-11.247-39.436,5.764c-5.24,9.806-2.484,20.786,6.789,28.403c1.613,1.326,4.971,2.468,2.838,5.173
	c-2.392,3.032-4.521-0.077-6.284-1.543C63.885,131.088,59.687,124.044,59.652,114.944z"/>
<path fill-rule="evenodd" clip-rule="evenodd" d="M83.754,174.484c-8.164-0.617-15.107-7.086-15.412-14.687
	c-0.072-1.835,0.115-3.8,2.334-3.61c0.992,0.085,2.439,1.866,2.625,3.043c0.566,3.611,2.146,6.377,5.268,8.214
	c5.053,2.973,10.928,1.393,12.896-4.098c1.477-4.114,2.229-8.64,2.43-13.022c0.328-7.181,2.984-12.827,8.897-16.896
	c4.864-3.348,8.745-7.213,8.612-13.767c-0.017-0.782,1.652-1.599,2.541-2.399c0.803,1.006,2.268,1.991,2.3,3.021
	c0.208,6.851-2.96,12.145-8.58,15.787c-6.146,3.983-9.139,9.299-8.724,16.688c0.139,2.485-0.354,5.063-0.912,7.519
	c-1.011,4.43-2.729,8.666-6.719,11.198C89.062,172.903,86.29,173.509,83.754,174.484z"/>
<path fill-rule="evenodd" clip-rule="evenodd" d="M103.359,119.709c-0.369,0.43-1.268,1.476-2.166,2.521
	c-0.977-0.989-2.57-1.84-2.827-2.989c-1.446-6.479-3.593-8.649-10.03-10.019c-1.063-0.227-1.866-1.66-2.789-2.535
	c1.106-0.825,2.197-2.336,3.322-2.363C96.158,104.149,103.273,111.333,103.359,119.709z"/>
</svg>
