<?xml version="1.0" encoding="utf-8"?>
<!-- Generator: Adobe Illustrator 16.0.0, SVG Export Plug-In . SVG Version: 6.00 Build 0)  -->
<!DOCTYPE svg PUBLIC "-//W3C//DTD SVG 1.1//EN" "http://www.w3.org/Graphics/SVG/1.1/DTD/svg11.dtd">
<svg version="1.1" id="Layer_1" xmlns="http://www.w3.org/2000/svg" xmlns:xlink="http://www.w3.org/1999/xlink" x="0px" y="0px"
	 width="225px" height="225px" viewBox="0 0 225 225" enable-background="new 0 0 225 225" xml:space="preserve">
<g>
	<path fill-rule="evenodd" clip-rule="evenodd" d="M111.389,20.908c9.429-0.002,18.435,1.517,26.372,7.111
		c2.99,2.107,5.185,4.779,6.5,8.174c4.097,10.563,5.246,21.596,5.09,32.812c-0.019,1.405-0.863,2.795-0.9,4.205
		c-0.094,3.335,0.345,6.456,1.805,9.705c2.541,5.657-0.328,12.386-5.727,15.755c-0.684,0.427-1.191,1.289-1.559,2.056
		c-4.373,9.1-10.621,16.534-19.129,22.064c-8.453,5.491-16.725,5.427-25.082-0.246c-8.233-5.59-14.504-12.811-18.951-21.691
		c-0.49-0.978-1.395-1.935-2.347-2.466c-5.589-3.111-7.761-12.61-4.108-17.96c0.618-0.904,1.041-2.174,1.008-3.259
		c-0.15-4.954-0.82-9.91-0.698-14.852c0.194-7.765,1.603-15.361,3.722-22.879c1.994-7.076,6.551-11.447,12.898-14.454
		C96.976,21.812,104.097,20.946,111.389,20.908z M142.256,88.515c1.314-9.816,1.243-15.661-0.454-21.38
		c-0.426-1.428-1.068-2.428-2.613-2.705c-6.861-1.241-13.675-2.963-20.589-3.646c-11.704-1.157-23.274,0.127-34.59,3.505
		c-1.743,0.521-2.713,1.435-2.967,3.184c-0.415,2.895-1.162,5.789-1.167,8.686c-0.01,4.067,0.535,8.138,0.877,12.672
		c-0.932-2.146-1.707-3.93-2.506-5.776c-2.984,2.555-0.972,8.964,1.139,10.337c0.462,0.302,1.158,0.529,1.665,0.422
		c1.327-0.282,1.651,0.483,2.067,1.471c0.912,2.166,1.949,4.279,2.935,6.416c0.213-0.055,0.427-0.108,0.64-0.163
		c0-1.541,0.063-3.084-0.015-4.621c-0.117-2.392,0.905-3.835,3.247-4.418c14.371-3.575,28.732-3.594,43.102,0.017
		c2.242,0.563,3.271,1.945,3.218,4.229c-0.034,1.504-0.005,3.009-0.005,4.513c0.228,0.029,0.457,0.06,0.688,0.089
		c0.896-2.047,1.739-4.118,2.722-6.122c0.272-0.556,0.978-1.306,1.454-1.283c2.434,0.104,3.269-1.564,3.979-3.342
		c0.959-2.401,1.316-4.818-0.422-7.459C143.76,85.146,143.008,86.83,142.256,88.515z M88.957,104.501c14.993,0,29.987,0,44.982,0
		C118.935,101.369,103.931,101.439,88.957,104.501z M98.199,115.299c4.007,4.739,23.392,4.572,26.646-0.148
		C115.97,116.82,107.19,116.76,98.199,115.299z"/>
	<path fill-rule="evenodd" clip-rule="evenodd" d="M89.767,122.069c2.165,5.175,3.907,10.25,6.357,14.956
		c2.662,5.118,5.994,9.884,9.002,14.826c0.703,1.149,1.588,1.723,2.966,1.517c0.587-0.09,1.22-0.118,1.802,0
		c5.352,1.074,8.483-1.406,11.162-5.913c4.447-7.471,8.416-15.103,11.111-23.376c0.206-0.633,0.429-1.26,0.637-1.865
		c14.973,2.213,29.776,11.046,34.253,25.2c1.173,3.711,1.302,7.847,1.364,11.797c0.174,10.839,0.08,21.684,0.052,32.525
		c-0.019,7.044-4.362,11.386-11.427,11.398c-15.136,0.026-30.271,0.008-45.403,0.008c-15.06,0-30.122-0.147-45.175,0.069
		c-6.721,0.098-12.311-4.373-12.101-11.996c0.306-11.21,0.254-22.438,0.027-33.653c-0.218-10.855,4.474-19.146,12.653-25.716
		C73.706,126.499,81.532,123.701,89.767,122.069z M111.383,197.937c15.212,0,30.421,0.007,45.631-0.006
		c4.206-0.004,6.358-2.049,6.372-6.163c0.029-11.144-0.035-22.286,0.012-33.431c0.025-6.279-1.34-12.054-5.348-17.078
		c-5.036-6.31-11.758-9.92-19.229-12.462c-1.844-0.626-2.696-0.451-3.439,1.581c-3.57,9.751-8.6,18.723-15.215,26.753
		c-0.604,0.733-1.821,1.297-2.785,1.345c-3.303,0.163-6.637-0.127-9.931,0.122c-2.701,0.206-4.384-0.728-5.991-2.887
		c-5.797-7.782-10.532-16.128-13.862-25.232c-0.757-2.065-1.681-2.492-3.589-1.644c-1.784,0.792-3.701,1.294-5.463,2.127
		c-12.259,5.789-19.683,14.605-19.094,29.047c0.422,10.374,0.075,20.778,0.077,31.169c0.001,4.775,1.94,6.751,6.677,6.753
		C81.266,197.939,96.325,197.934,111.383,197.937z"/>
</g>
</svg>
