<?xml version="1.0" encoding="utf-8"?>
<!-- Generator: Adobe Illustrator 16.0.0, SVG Export Plug-In . SVG Version: 6.00 Build 0)  -->
<!DOCTYPE svg PUBLIC "-//W3C//DTD SVG 1.1//EN" "http://www.w3.org/Graphics/SVG/1.1/DTD/svg11.dtd">
<svg version="1.1" id="Layer_1" xmlns="http://www.w3.org/2000/svg" xmlns:xlink="http://www.w3.org/1999/xlink" x="0px" y="0px"
	 width="225px" height="225px" viewBox="0 0 225 225" enable-background="new 0 0 225 225" xml:space="preserve">
<g>
	<path fill-rule="evenodd" clip-rule="evenodd" stroke="#000000" stroke-width="2" stroke-miterlimit="10" d="M187.785,188.433
		c-35.064,0-69.964,0-105.002,0c-0.025-0.501-0.068-0.963-0.068-1.425c-0.001-15.518,0-31.035,0.01-46.553
		c0-0.958-0.076-1.957,0.158-2.865c0.404-1.571,1.033-3.082,1.547-4.626c0.137-0.41,0.197-0.847,0.285-1.272
		c0.109-0.54-0.137-1.273,0.766-1.376c0.057-0.006,0.146-0.104,0.147-0.161c0.023-0.852,0.747-1.495,0.91-2.099
		c0.466-1.731,1.811-2.633,2.774-3.886c0.509-0.662,0.945-1.386,1.504-2.003c0.55-0.608,1.202-1.128,1.827-1.666
		c0.669-0.577,1.36-1.128,2.039-1.694c0.442-0.369,0.833-0.831,1.329-1.099c0.896-0.483,1.861-0.836,2.781-1.276
		c0.34-0.162,0.612-0.465,0.953-0.621c0.369-0.17,0.775-0.286,1.178-0.351c0.672-0.108,1.489,0.168,1.803-0.781
		c0.026-0.079,0.189-0.144,0.299-0.161c2.08-0.343,4.152-0.868,6.245-0.972c3.352-0.166,6.717-0.052,10.076-0.056
		c0.43,0,0.858,0,1.442,0c0-1.963,0.033-3.791-0.035-5.615c-0.011-0.281-0.459-0.588-0.759-0.811
		c-0.808-0.603-1.667-1.138-2.464-1.754c-0.623-0.483-1.191-1.04-1.769-1.581c-0.429-0.4-0.784-0.895-1.257-1.229
		c-0.86-0.609-1.465-1.374-1.963-2.304c-0.352-0.658-0.976-1.168-1.451-1.765c-0.154-0.193-0.207-0.464-0.337-0.681
		c-0.253-0.42-0.525-0.828-0.794-1.239c-0.06-0.093-0.189-0.173-0.193-0.263c-0.04-0.817-0.539-1.408-0.862-2.09
		c-0.692-1.459-0.728-3.213-1.192-4.799c-0.821-2.802-0.953-5.647-0.863-8.534c0.052-1.678,0.015-3.359,0.002-5.039
		c-0.006-0.754-0.072-1.492-1.07-1.391c0-1.814-0.502-3.774,0.123-5.261c0.846-2.016,0.266-4.17,1.042-5.97
		c0.881-2.044,0.274-4.251,1.034-6.08c0.81-1.951,0.15-4.047,0.941-5.729c0.988-2.099,0.181-4.39,1.025-6.218
		c0.784-1.698,0.541-3.327,0.879-4.961c0.058-0.279,0.438-0.585,0.738-0.698c0.355-0.136,0.786-0.097,1.184-0.097
		c15.078-0.004,30.156-0.004,45.234-0.005c0.513,0,1.026,0,1.656,0c0.035,0.694-0.016,1.296,0.113,1.855
		c0.18,0.775,0.504,1.516,0.746,2.277c0.084,0.261,0.131,0.539,0.149,0.812c0.087,1.236,0.106,2.479,0.257,3.706
		c0.061,0.494,0.405,0.951,0.598,1.434c0.1,0.248,0.195,0.513,0.213,0.776c0.053,0.797-0.001,1.607,0.117,2.394
		c0.111,0.743,0.463,1.451,0.576,2.195c0.178,1.178,0.223,2.375,0.367,3.56c0.098,0.81-0.305,1.787,0.758,2.32
		c0.145,0.072,0.131,0.517,0.143,0.791c0.045,1.158,0.006,2.325,0.132,3.474c0.062,0.559,0.429,1.08,0.63,1.627
		c0.107,0.291,0.205,0.599,0.225,0.904c0.061,1.037,0.012,2.087,0.15,3.111c0.089,0.657,0.48,1.267,0.646,1.92
		c0.132,0.523,0.129,1.081,0.197,1.738c-0.624,0.11-1.161,0.206-1.918,0.34c0,0.536,0.002,1.116,0,1.696
		c-0.016,3.799-0.005,7.599-0.08,11.396c-0.012,0.589-0.423,1.17-0.654,1.753c-0.043,0.107-0.18,0.219-0.16,0.302
		c0.404,1.739-0.816,3.097-1.174,4.655c-0.242,1.06-0.774,2.224-1.693,3.083c-0.474,0.442-0.738,1.113-1.08,1.69
		c-0.439,0.739-0.83,1.509-1.305,2.224c-0.22,0.331-0.579,0.574-0.893,0.836c-0.908,0.758-1.809,1.523-2.74,2.25
		c-1.309,1.021-2.65,2.001-3.955,3.026c-0.146,0.114-0.206,0.413-0.208,0.628c-0.017,1.717-0.009,3.434-0.009,5.336
		c0.549,0,1.012-0.002,1.475,0.001c3.92,0.021,7.839,0.016,11.756,0.093c0.602,0.012,1.182,0.461,1.796,0.601
		c0.688,0.157,1.423,0.126,2.104,0.301c0.602,0.154,1.158,0.482,1.736,0.73c0.174,0.074,0.347,0.177,0.529,0.203
		c0.691,0.1,1.559-0.203,1.814,0.843c0.012,0.044,0.139,0.06,0.213,0.086c1.044,0.378,2.107,0.709,3.121,1.154
		c0.396,0.175,0.701,0.585,1.008,0.925c0.998,1.102,2.666,1.33,3.45,2.758c0.296,0.537,1.007,0.829,1.461,1.299
		c0.528,0.547,0.986,1.161,1.465,1.755c0.593,0.734,1.194,1.464,1.756,2.222c0.388,0.522,0.729,1.081,1.063,1.641
		c0.346,0.581,0.742,1.152,0.967,1.781c0.472,1.316,0.878,2.658,1.244,4.008c0.166,0.608-0.143,1.375,0.761,1.69
		c0.147,0.052,0.175,0.576,0.183,0.885c0.044,1.839,0.09,3.678,0.092,5.517c0.007,14.877,0.004,29.755,0.004,44.633
		C187.785,187.169,187.785,187.726,187.785,188.433z M133.647,186.367c0-2.477,0.001-4.829-0.003-7.183
		c0-0.116-0.001-0.298-0.068-0.34c-1.204-0.745-0.697-1.974-0.868-3.009c-0.077-0.463-0.108-0.939-0.245-1.384
		c-0.18-0.573-0.51-1.104-0.66-1.682c-0.433-1.667-0.805-3.351-1.211-5.024c-0.025-0.101-0.166-0.168-0.213-0.27
		c-0.236-0.512-0.518-1.013-0.676-1.549c-0.398-1.345-0.739-2.706-1.107-4.06c-0.02-0.073-0.072-0.188-0.121-0.194
		c-0.985-0.121-0.636-0.922-0.766-1.479c-0.059-0.258-0.096-0.71-0.213-0.733c-0.858-0.176-0.648-0.877-0.781-1.415
		c-0.104-0.421-0.156-0.876-0.357-1.246c-0.494-0.902-1.141-1.728-1.577-2.652c-0.491-1.039-0.604-2.326-1.288-3.18
		c-0.516-0.644-0.693-1.283-0.973-1.968c-0.242-0.589-0.688-1.094-1.041-1.637c-0.553-0.851-1.119-1.693-1.654-2.555
		c-0.504-0.807-0.892-1.7-1.484-2.432c-0.564-0.695-1.08-3.289-0.407-3.849c0.842-0.7,0.64-1.563,0.787-2.39
		c0.097-0.543,0.124-1.114,0.315-1.622c0.226-0.6,0.596-1.144,0.811-1.541c-0.717-0.597-1.113-1.089-1.627-1.321
		c-1.053-0.476-2.17-0.812-3.26-1.21c-0.109-0.04-0.205-0.113-0.311-0.167c-1.171-0.603-2.316-1.265-3.522-1.787
		c-1.038-0.449-1.874-2.113-1.119-2.628c0.827-0.565,0.636-1.243,0.729-1.941c0.047-0.354,0.006-0.863,0.219-1.03
		c1.322-1.036,0.291-2.923,1.574-4.063c0.461-0.41,0.203-1.604,0.316-2.436c0.095-0.688-0.159-0.942-0.849-0.918
		c-1.398,0.05-2.799,0.04-4.198,0.081c-0.262,0.008-0.531,0.116-0.781,0.22c-0.511,0.211-0.994,0.584-1.519,0.651
		c-1.706,0.217-1.718,0.176-1.718,1.812c-0.003,8.999-0.002,17.998,0.001,26.997c0,0.351,0.036,0.7,0.042,0.807
		c1.324,0.479,2.486,0.918,3.662,1.314c0.518,0.174,1.143-0.046,1.355,0.835c0.117,0.485,0.775,0.873,1.243,1.234
		c0.905,0.699,1.62,1.468,1.626,2.715c0.031,6.237,0.063,12.476,0.143,18.712c0.014,1.027-0.313,1.895-1.077,2.432
		c-0.841,0.591-1.503,1.913-3.021,1.021c0.184-0.603-0.148-1.245,0.724-1.856c0.718-0.503,1.431-1.292,1.345-2.563
		c-0.172-2.548-0.045-5.116-0.054-7.676c-0.011-3.199-0.022-6.398-0.063-9.598c-0.004-0.356-0.094-0.8-0.316-1.047
		c-0.459-0.512-1.087-0.871-1.552-1.378c-0.872-0.951-2.067-1.55-3.192-1.573c-1.785-0.037-3.592-0.522-5.428,0.713
		c-1.15,0.773-2.396,1.103-2.533,2.705c-0.01,0.112-0.045,0.296-0.113,0.32c-1.069,0.379-0.738,1.302-0.742,2.03
		c-0.029,5.079,0.037,10.16-0.053,15.237c-0.025,1.4,0.736,2.068,1.606,2.878c0.339,0.316,0.333,1.046,0.386,1.597
		c0.014,0.144-0.364,0.48-0.521,0.457c-0.503-0.075-1.084-0.157-1.459-0.457c-0.71-0.568-1.298-1.29-2.082-2.098
		c0-6.146-0.006-12.545,0.014-18.942c0.001-0.422,0.108-0.898,0.324-1.254c0.537-0.88,1.109-1.753,1.775-2.538
		c0.563-0.663,1.188-1.381,1.943-1.749c1.224-0.597,2.576-0.927,4.021-1.419c0-0.18,0-0.533,0-0.887
		c0.002-8.719,0.008-17.438-0.012-26.156c-0.001-0.518-0.21-1.034-0.322-1.551c-0.336,0.252-0.671,0.508-1.012,0.754
		c-0.061,0.044-0.152,0.041-0.225,0.071c-1.055,0.428-2.109,0.858-3.164,1.289c-0.035,0.015-0.076,0.032-0.1,0.062
		c-1.053,1.264-2.27,2.314-3.752,3.067c-0.496,0.252-1.093,0.623-1.291,1.089c-0.823,1.935-2.613,3.189-3.446,5.165
		c-0.271,0.642-0.499,1.568-0.989,2.008c-0.714,0.642-0.715,1.327-0.795,2.093c-0.014,0.131-0.133,0.349-0.223,0.358
		c-0.871,0.102-0.627,0.796-0.683,1.293c-0.093,0.83,0.204,2.051-0.239,2.428c-1.064,0.904-0.735,1.96-0.738,2.94
		c-0.039,14.998-0.033,29.997-0.035,44.995c0,0.392,0.037,0.782,0.061,1.255C101.146,186.367,117.402,186.367,133.647,186.367z
		 M166.619,153.15c0-12.11,0-24.321,0-36.585c-1.239-0.216-2.355-0.478-3.471-0.869c-1.59-0.559-3.521-0.142-5.458-0.142
		c0.075,0.933-0.183,2.189,0.282,2.572c0.873,0.721,0.645,1.524,0.795,2.324c0.059,0.307,0.018,0.809,0.186,0.891
		c0.906,0.444,0.644,1.267,0.758,1.974c0.088,0.545,0.018,1.263,0.339,1.596c1.038,1.08,0.703,2.228,0.53,3.326
		c-1.305,0.46-2.494,0.878-3.683,1.299c-0.034,0.012-0.063,0.048-0.083,0.08c-0.693,1.137-2.113,1.014-3.064,1.776
		c-0.824,0.66-1.931,0.966-2.578,1.271c0.226,0.995,0.43,1.753,0.563,2.523c0.1,0.587-0.123,1.467,0.201,1.738
		c1.371,1.152,0.868,2.693,0.828,3.996c-0.033,1.121-0.813,2.222-1.266,3.329c-0.012,0.029-0.072,0.033-0.1,0.061
		c-0.73,0.703-1.521,1.361-1.634,2.48c-0.021,0.213-0.128,0.435-0.249,0.618c-0.582,0.889-1.274,1.72-1.754,2.66
		c-0.494,0.969-0.784,2.04-1.17,3.064c-0.025,0.065-0.104,0.154-0.161,0.158c-0.88,0.061-0.56,0.787-0.733,1.256
		c-0.127,0.346-0.398,0.639-0.597,0.961c-0.114,0.184-0.241,0.368-0.311,0.57c-0.368,1.075-0.716,2.157-1.084,3.232
		c-0.034,0.1-0.19,0.152-0.249,0.25c-0.234,0.387-0.524,0.759-0.662,1.18c-0.453,1.39-0.848,2.799-1.273,4.197
		c-0.031,0.105-0.145,0.184-0.195,0.287c-0.193,0.394-0.518,0.785-0.539,1.19c-0.084,1.632-1.557,2.912-1.152,4.654
		c0.014,0.057-0.057,0.186-0.108,0.197c-1.056,0.238-0.661,1.112-0.765,1.755c-0.1,0.628,0.076,1.443-0.261,1.861
		c-0.899,1.118-0.604,2.381-0.755,3.595c-0.059,0.472-0.025,1.024-0.262,1.395c-1.322,2.064-0.436,4.31-0.842,6.469
		c16.51,0,32.794,0,49.156,0c0-0.547,0-0.983,0-1.421c0-13.957,0.002-27.915-0.003-41.872c-0.001-1.8-0.03-3.6-0.065-5.398
		c-0.008-0.353,0.025-0.882-0.177-1.024c-0.957-0.676-0.698-1.685-0.888-2.586c-0.111-0.525-0.467-0.998-0.698-1.5
		c-0.11-0.237-0.187-0.491-0.28-0.736c-0.381-0.999-0.76-1.999-1.148-2.995c-0.024-0.063-0.118-0.097-0.178-0.147
		c-0.764-0.651-1.392-1.398-1.704-2.375c-0.06-0.188-0.112-0.41-0.245-0.537c-1.186-1.13-2.689-2.062-3.504-3.41
		c-0.866-1.431-2.441-1.607-3.463-2.706c-0.689-0.742-1.984-0.916-3-1.364c-0.232-0.103-0.422-0.299-0.645-0.429
		c-0.217-0.126-0.5-0.354-0.665-0.295c-0.171,0.063-0.284,0.408-0.332,0.648c-0.062,0.31-0.04,0.637-0.04,0.956
		c-0.002,10.879-0.001,21.757-0.001,32.635c0,0.504,0,1.008,0,1.512c0.103-0.078,0.204-0.156,0.306-0.234
		c1.186,0.487,2.41,0.898,3.543,1.488c0.719,0.374,1.611,0.892,1.869,1.56c0.373,0.969,1.592,1.477,1.402,2.708
		c-0.018,0.122,0.254,0.274,0.359,0.434c0.175,0.266,0.453,0.545,0.462,0.824c0.042,1.438,0.021,2.878-0.001,4.316
		c-0.004,0.273-0.037,0.745-0.164,0.785c-1.129,0.358-0.66,1.366-0.794,1.742c-0.897,0.939-1.575,1.648-2.342,2.451
		c-0.319,0.089-0.944,0.082-1.279,0.391c-1.288,1.185-3.056,0.836-4.484,1.526c-0.125,0.061-0.403,0.05-0.46-0.032
		c-0.918-1.328-3.049,0.015-3.775-1.717c-0.016-0.036-0.151-0.03-0.23-0.027c-1.272,0.04-1.737-1.056-2.244-1.84
		c-0.58-0.899-1.63-1.681-1.334-3.001c0.012-0.058-0.076-0.132-0.102-0.204c-0.237-0.677-0.69-1.366-0.652-2.027
		c0.053-0.928,0.48-1.832,0.73-2.75c0.238-0.869-0.045-1.813,1.032-2.507c0.94-0.606,1.39-1.961,2.321-2.597
		C163.938,153.896,165.256,153.653,166.619,153.15z M135.504,74.493c-8.197,0-16.395,0-24.592,0c-1.211,0-2.047,0.844-2.047,2.068
		c0,2.799-0.002,5.599,0.012,8.397c0.002,0.392-0.053,0.988,0.163,1.138c0.789,0.544,0.757,1.331,0.628,2.025
		c-0.377,2.032,0.945,3.63,1.293,5.474c0.162,0.868,0.731,1.675,1.186,2.469c0.536,0.936,1.586,1.537,1.767,2.714
		c0.022,0.143,0.13,0.288,0.233,0.4c0.906,0.994,1.797,2.004,2.741,2.962c0.462,0.468,0.993,0.885,1.551,1.233
		c0.728,0.457,1.774,0.642,2.212,1.271c0.715,1.028,1.895,1.139,2.779,1.596c1.446,0.747,3.033,1.663,4.857,1.371
		c0.124-0.02,0.27,0.131,0.411,0.183c0.569,0.206,1.14,0.57,1.714,0.581c3.238,0.056,6.477,0.033,9.716,0.018
		c0.435-0.002,1.055,0.048,1.267-0.201c0.69-0.809,1.604-0.506,2.413-0.714c1.265-0.326,2.496-0.778,3.741-1.179
		c0.035-0.012,0.063-0.046,0.096-0.068c0.858-0.576,1.651-1.461,2.59-1.659c1.564-0.331,2.257-1.645,3.366-2.451
		c0.943-0.687,1.503-1.877,2.388-2.67c0.846-0.758,1.747-1.382,1.789-2.655c0.004-0.125,0.242-0.236,0.362-0.363
		c0.188-0.201,0.445-0.382,0.536-0.623c0.394-1.04,0.736-2.1,1.1-3.152c0.013-0.037,0.027-0.092,0.056-0.104
		c1.112-0.473,0.769-1.511,0.913-2.356c0.095-0.547,0.127-1.107,0.259-1.645c0.21-0.854,0.666-1.687,0.69-2.538
		c0.087-3.156,0.04-6.317,0.044-9.477c0.002-1.941-0.1-2.045-2.001-2.046C151.659,74.491,143.582,74.491,135.504,74.493z
		 M157.33,41.589c-14.635,0-29.529,0-44.494,0c-0.055,0.832-0.094,1.584-0.158,2.333c-0.033,0.397,0.035,0.948-0.191,1.157
		c-0.976,0.896-0.682,2.048-0.772,3.122c-0.077,0.915,0.198,2.059-0.252,2.7c-0.888,1.265-0.58,2.58-0.726,3.884
		c-0.063,0.55,0.066,1.362-0.241,1.598c-0.849,0.648-0.658,1.482-0.712,2.281c-0.069,0.996-0.063,1.997-0.105,2.996
		c-0.012,0.27,0.002,0.688-0.152,0.782c-0.967,0.592-0.664,1.546-0.744,2.38c-0.107,1.111,0.21,2.48-0.331,3.284
		c-0.958,1.425-0.415,2.803-0.668,4.267c18.388,0,36.634,0,55.044,0c-0.089-1.549,0.23-3.207-0.358-4.427
		c-0.733-1.517-0.541-2.983-0.722-4.477c-0.066-0.554,0.068-1.283-0.236-1.629c-0.9-1.023-0.645-2.229-0.783-3.373
		c-0.082-0.673-0.076-1.355-0.121-2.033c-0.016-0.238,0.025-0.577-0.111-0.694c-1.039-0.895-0.701-2.114-0.804-3.222
		c-0.077-0.835,0.226-1.888-0.177-2.475c-1.207-1.757-0.574-3.688-0.871-5.517c-0.044-0.271-0.062-0.564-0.178-0.805
		C158.15,43.07,157.788,42.441,157.33,41.589z M133.205,133.512c-0.299-0.402-0.838-1.094-1.336-1.814
		c-0.553-0.799-1.068-1.622-1.598-2.436c-0.508-0.784-1.044-1.553-1.51-2.36c-0.439-0.763-0.611-1.95-1.245-2.269
		c-1.081-0.545-0.653-1.898-1.702-2.368c-0.438-0.196-0.697-0.843-0.975-1.321c-0.458-0.789-0.813-1.64-1.305-2.404
		c-0.66-1.023-1.408-1.989-2.144-3.014c-1.787,0-3.66,0-5.807,0c-0.321,1.34-0.421,2.793-1.03,3.986
		c-0.524,1.027-0.762,2.019-0.865,3.108c-0.02,0.192-0.066,0.433-0.193,0.557c-1.278,1.261-0.758,2.717-0.613,4.055
		c0.735,0.191,1.341,0.297,1.903,0.513c0.41,0.157,0.749,0.488,1.147,0.689c0.266,0.134,0.598,0.135,0.866,0.266
		c1.167,0.567,2.318,1.163,3.479,1.742c0.438,0.22,1.23,0.37,1.27,0.639c0.16,1.089,0.544,2.596,0.003,3.233
		c-0.904,1.066-0.627,2.136-0.854,3.206c-0.082,0.384-0.422,0.718-0.482,1.101c-0.136,0.864-0.543,1.995-0.162,2.563
		c0.635,0.947,1.602,1.661,1.741,2.921c0.013,0.12,0.187,0.218,0.272,0.336c0.219,0.3,0.473,0.585,0.639,0.914
		c0.465,0.918,0.875,1.865,1.342,2.783c0.338,0.662,0.656,1.355,1.113,1.93c0.79,0.993,1.512,1.979,1.654,3.299
		c0.032,0.306,0.332,0.582,0.504,0.874c0.145,0.246,0.32,0.482,0.418,0.747c0.398,1.076,0.772,2.163,1.162,3.243
		c0.023,0.063,0.129,0.093,0.167,0.156c0.216,0.362,0.46,0.714,0.619,1.101c0.116,0.284,0.015,0.809,0.184,0.896
		c1.452,0.759,0.49,2.603,1.738,3.616c0.603,0.489,0.72,1.996,0.892,2.92c0.264,1.411,0.953,2.578,1.33,3.889
		c0.053,0.184,0.259,0.323,0.394,0.482c0.13-0.165,0.316-0.313,0.377-0.502c0.07-0.22,0.04-0.475,0.04-0.714
		c-0.003-11.193-0.006-22.387-0.014-33.58c-0.001-0.274,0.022-0.59-0.098-0.815C134.187,135.039,133.777,134.437,133.205,133.512z
		 M149.109,115.485c-0.321,0.701-0.526,1.287-0.842,1.806c-0.482,0.791-1.053,1.527-1.561,2.305
		c-0.121,0.187-0.068,0.53-0.217,0.646c-0.926,0.726-1.697,1.531-1.863,2.767c-0.018,0.122-0.192,0.22-0.285,0.336
		c-0.49,0.611-1.016,1.198-1.454,1.845c-0.509,0.748-0.927,1.556-1.407,2.323c-0.565,0.907-1.174,1.789-1.727,2.704
		c-0.422,0.698-0.66,1.551-1.201,2.127c-1.297,1.384-1.961,2.88-1.949,4.838c0.063,10.434,0.027,20.869,0.027,31.305
		c0,0.239-0.059,0.502,0.02,0.715c0.156,0.429,0.389,0.831,0.589,1.244c0.172-0.396,0.409-0.776,0.5-1.19
		c0.118-0.539-0.087-1.386,0.211-1.604c0.851-0.625,0.683-1.455,0.794-2.251c0.038-0.274,0.006-0.745,0.131-0.792
		c1.191-0.451,0.707-1.511,0.904-2.315c0.055-0.225,0.088-0.622,0.188-0.641c0.954-0.175,0.661-0.939,0.767-1.514
		c0.042-0.23,0.015-0.591,0.148-0.669c1.362-0.798,0.657-2.538,1.737-3.591c0.745-0.726,0.861-2.096,1.264-3.176
		c0.025-0.068,0.101-0.118,0.143-0.183c0.557-0.848,1.186-1.659,1.646-2.556c0.518-1.003,0.768-2.152,1.346-3.109
		c0.607-1.005,1.636-1.755,1.75-3.054c0.011-0.117,0.197-0.214,0.285-0.332c0.25-0.338,0.525-0.663,0.725-1.029
		c0.125-0.233,0.069-0.725,0.204-0.769c1.123-0.371,0.821-1.321,0.712-2c-0.297-1.855-0.76-3.686-1.172-5.522
		c-0.041-0.183-0.217-0.333-0.266-0.517c-0.173-0.639-0.572-1.368-0.398-1.906c0.166-0.519,0.882-0.956,1.452-1.229
		c1.013-0.484,2.098-0.817,3.152-1.214c0.037-0.015,0.097-0.036,0.101-0.06c0.125-0.947,0.912-0.677,1.479-0.809
		c0.19-0.044,0.53-0.056,0.547-0.135c0.257-1.233,1.322-0.659,1.676-0.797c0.53-0.528,0.866-0.798,1.11-1.134
		c0.121-0.167,0.115-0.657,0.092-0.662c-1.079-0.244-0.598-1.136-0.736-1.754c-0.103-0.456-0.03-1.256-0.24-1.331
		c-0.928-0.33-0.646-1.076-0.756-1.685c-0.078-0.428,0.055-1.088-0.184-1.259c-0.929-0.668-0.555-1.671-0.858-2.471
		c-0.249-0.655-0.891-1.558-1.446-1.626C152.518,115.352,150.748,115.485,149.109,115.485z M147.65,108.422
		c-0.708,0.181-1.523,0.171-1.656,0.467c-0.305,0.688-0.783,0.526-1.262,0.583c-0.658,0.078-1.329,0.113-1.965,0.278
		c-0.564,0.146-1.084,0.635-1.629,0.645c-3.714,0.067-7.43,0.052-11.144,0.054c-0.356,0-0.903,0.07-1.04-0.121
		c-0.903-1.265-2.243-0.653-3.377-0.9c-0.334-0.073-0.629-0.314-0.953-0.457c-0.322-0.142-0.697-0.412-0.974-0.339
		c-0.278,0.073-0.637,0.485-0.661,0.774c-0.092,1.111-0.186,2.248-0.042,3.345c0.119,0.913,0.448,1.852,0.907,2.65
		c0.489,0.852,1.486,1.458,1.82,2.339c0.58,1.525,2.012,2.575,2.232,4.259c0.005,0.036,0.033,0.072,0.058,0.103
		c0.911,1.175,1.972,2.268,2.68,3.554c0.427,0.774,1.528,1.238,1.265,2.379c-0.014,0.06,0.042,0.163,0.097,0.206
		c0.926,0.74,1.688,1.526,1.858,2.827c0.064,0.491,0.736,0.913,1.161,1.337c0.081,0.08,0.376,0.089,0.448,0.013
		c0.426-0.445,0.88-0.884,1.199-1.401c0.469-0.757,0.631-1.917,1.281-2.304c1.431-0.85,1.431-2.589,2.664-3.554
		c0.91-0.713,1.439-2.048,1.838-3.028c0.63-1.552,2.265-2.418,2.451-4.189c0.055-0.53,0.563-1.249,1.043-1.451
		c1.17-0.492,1.381-1.797,1.563-2.512C147.941,112.299,147.65,110.438,147.65,108.422z M167.977,169.021
		c0.822-0.215,1.513-0.354,2.174-0.582c0.512-0.176,1.031-0.399,1.467-0.714c0.484-0.35,0.844-0.87,1.317-1.238
		c1.116-0.868,1.542-2.111,1.758-3.394c0.418-2.479-0.572-4.571-2.319-6.2c-0.761-0.71-1.941-1.103-2.997-1.326
		c-1.031-0.22-2.148-0.071-3.226-0.023c-0.373,0.018-0.846,0.108-1.086,0.351c-0.831,0.838-1.855,1.408-2.595,2.431
		c-0.796,1.099-1.306,2.289-1.505,3.483c-0.255,1.524,0.871,2.795,1.516,4.149c0.869,1.82,2.365,2.369,4.168,2.599
		C167.189,168.624,167.701,168.92,167.977,169.021z"/>
	<path fill-rule="evenodd" clip-rule="evenodd" stroke="#000000" stroke-width="2" stroke-miterlimit="10" d="M50.818,126.555
		c2.064-0.268,2.064-0.268,2.066-2.339c0.006-4.359,0.014-8.719,0.01-13.078c0-0.511-0.06-1.021-0.094-1.553
		c-1.587-0.416-3.422-0.422-4.518-1.325c-0.951-0.785-2.238-0.361-3.041-1.521c-0.533-0.77-1.955-0.904-2.949-1.382
		c-0.504-0.241-1.25-0.533-1.355-0.941c-0.324-1.237-1.824-0.615-2.332-1.776c-0.398-0.908-1.695-1.389-2.488-2.166
		c-0.877-0.859-1.559-1.925-2.467-2.744c-0.954-0.861-1.217-2.183-2.051-2.997c-1.076-1.05-1.453-2.364-2.088-3.598
		c-0.506-0.984-1.17-1.886-1.688-2.864c-0.173-0.327-0.095-0.782-0.157-1.174c-0.101-0.622,0.123-1.313-0.689-1.754
		c-0.27-0.147-0.186-0.95-0.256-1.454c-0.125-0.905,0.23-1.945-0.813-2.592c-0.147-0.091-0.111-0.522-0.111-0.797
		c-0.004-3.318-0.019-6.637,0.029-9.955c0.006-0.392,0.396-0.765,0.549-1.17c0.148-0.392,0.248-0.807,0.314-1.221
		c0.16-1.004-0.284-2.153,0.85-2.923c0.211-0.143,0.033-0.78,0.156-1.148c0.186-0.558,0.479-1.078,0.723-1.616
		c0.094-0.204,0.204-0.408,0.253-0.625c0.139-0.616-0.021-1.389,0.891-1.572c0.05-0.01,0.1-0.126,0.112-0.199
		c0.246-1.441,1.141-2.505,1.939-3.676c1.075-1.577,2.15-3.195,3.424-4.563c0.861-0.923,1.563-2.243,3.094-2.563
		c0.572-0.12,0.979-0.937,1.514-1.369c0.633-0.513,1.306-0.982,1.996-1.417c0.994-0.627,2.018-1.212,3.037-1.801
		c0.193-0.111,0.435-0.139,0.635-0.242c0.424-0.221,0.823-0.491,1.256-0.692c0.301-0.141,0.635-0.227,0.963-0.291
		c0.51-0.1,1.173,0.127,1.309-0.693c0.013-0.077,0.167-0.166,0.27-0.188c1.617-0.365,3.229-0.979,4.857-1.027
		c4.469-0.136,8.943-0.053,13.415,0.004c0.511,0.006,1.013,0.405,1.529,0.593c0.333,0.121,0.681,0.217,1.03,0.27
		c0.806,0.122,1.743-0.213,2.256,0.845c0.096,0.198,0.75,0.103,1.137,0.189c0.552,0.123,1.369-0.23,1.469,0.771
		c0.005,0.052,0.113,0.108,0.184,0.136c0.998,0.388,2.039,0.688,2.98,1.182c0.68,0.358,1.229,0.97,1.83,1.475
		c0.137,0.114,0.238,0.356,0.375,0.373c1.255,0.152,1.923,1.027,2.694,1.905c0.74,0.842,1.808,1.388,2.644,2.157
		c0.504,0.464,0.824,1.121,1.262,1.664c0.264,0.328,0.623,0.579,0.889,0.905c0.653,0.806,1.299,1.619,1.902,2.461
		c0.193,0.27,0.193,0.674,0.375,0.956c0.752,1.169,1.74,2.217,1.84,3.709c1.605,0.585,0.346,2.671,1.758,3.36
		c0.029,0.015,0.064,0.07,0.059,0.101c-0.288,1.675,1.045,2.989,1.08,4.542c0.096,4.315,0.072,8.633,0.025,12.949
		c-0.006,0.55-0.429,1.095-0.659,1.643c-0.046,0.108-0.112,0.212-0.142,0.325c-0.398,1.552-0.777,3.11-1.205,4.655
		c-0.088,0.316-0.352,0.588-0.551,0.869c-0.083,0.119-0.281,0.2-0.298,0.316c-0.108,0.765-0.206,1.379-0.917,2.019
		c-0.717,0.646-0.818,1.93-1.355,2.837c-0.398,0.673-1.068,1.185-1.606,1.777c-0.377,0.415-0.724,0.856-1.107,1.265
		c-1.204,1.282-2.405,2.567-3.635,3.826c-0.831,0.851-1.704,1.662-2.565,2.483c-0.129,0.121-0.305,0.191-0.458,0.287
		c-0.896,0.561-1.791,1.121-2.687,1.684c-0.031,0.021-0.048,0.07-0.08,0.083c-1.152,0.457-2.311,0.897-3.455,1.373
		c-0.403,0.168-0.775,0.415-1.156,0.637c-0.096,0.057-0.156,0.201-0.254,0.226c-1.545,0.396-3.094,0.779-4.734,1.188
		c0,5.532,0,11.107,0,16.762c0.605,0.053,1.188,0.104,1.896,0.165c0.079,0.838,0.225,1.658,0.226,2.479
		c0.014,12.397,0.018,24.795-0.002,37.192c-0.002,1.234-0.052,2.492-0.303,3.692c-0.131,0.623-0.706,1.185-1.162,1.701
		c-0.557,0.632-1.18,1.213-1.82,1.761c-0.18,0.155-0.521,0.164-0.789,0.165c-3.598,0.012-7.195-0.004-10.793,0.019
		c-1.13,0.007-1.674-0.917-2.342-1.518c-0.773-0.695-1.278-1.696-1.857-2.592c-0.135-0.209-0.14-0.527-0.141-0.795
		c-0.008-13.877-0.01-27.754-0.009-41.631C50.737,126.871,50.779,126.756,50.818,126.555z M60.418,43.468c0,0.009,0,0.017,0,0.024
		c-2.118,0-4.236-0.006-6.354,0.006c-0.354,0.002-0.927-0.038-1.028,0.146c-0.573,1.044-1.557,0.726-2.408,0.853
		c-0.27,0.041-0.72,0.023-0.775,0.16c-0.365,0.892-1.152,0.659-1.814,0.786c-0.346,0.066-0.707,0.157-1.008,0.329
		c-0.972,0.557-1.908,1.176-2.879,1.732c-0.749,0.43-1.586,0.726-2.28,1.224c-0.609,0.437-0.985,1.237-1.623,1.589
		c-2.005,1.105-3.601,2.56-4.698,4.584c-0.305,0.563-0.84,0.995-1.233,1.514c-0.549,0.723-1.212,1.408-1.554,2.224
		c-0.373,0.888-1.432,1.471-1.199,2.623c0.005,0.022-0.045,0.073-0.078,0.082c-1.316,0.366-0.626,1.884-1.545,2.672
		c-0.537,0.461-0.67,1.814-0.946,2.733c-0.495,1.648-0.849,3.412-1.124,5.115c-0.398,2.454-0.102,5.021-0.09,7.538
		c0,0.276-0.022,0.652,0.137,0.813c1.033,1.041,0.664,2.392,0.877,3.613c0.086,0.498,0.178,1.004,0.349,1.477
		c0.144,0.395,0.47,0.725,0.606,1.12c0.412,1.184,0.764,2.388,1.16,3.577c0.041,0.12,0.271,0.165,0.354,0.286
		c0.18,0.262,0.32,0.55,0.479,0.827c0.234,0.41,0.461,0.825,0.708,1.229c0.409,0.67,0.821,1.339,1.251,1.995
		c0.438,0.671,0.822,1.4,1.369,1.973c0.786,0.82,1.709,1.508,2.549,2.279c0.406,0.373,0.769,0.797,1.129,1.216
		c0.445,0.516,0.765,1.302,1.318,1.527c1.477,0.601,2.467,2.063,4.142,2.26c0.073,0.009,0.159,0.053,0.208,0.107
		c0.897,1.017,1.936,1.752,3.361,1.794c0.217,0.006,0.421,0.213,0.642,0.301c1.399,0.56,2.776,1.197,4.214,1.634
		c0.779,0.236,1.682,0.04,2.498,0.195c0.773,0.147,1.498,0.685,2.263,0.726c1.993,0.108,3.995,0.057,5.994,0.027
		c0.593-0.008,1.191-0.122,1.776-0.243c0.939-0.196,1.875-0.42,2.804-0.666c1.472-0.391,3.062-0.586,4.353-1.309
		c0.677-0.38,1.497-0.474,1.973-0.883c0.665-0.572,1.31-0.826,2.105-0.945c0.099-0.016,0.141-0.272,0.252-0.36
		c0.244-0.19,0.506-0.365,0.781-0.506c0.309-0.157,0.697-0.201,0.947-0.415c0.539-0.459,0.986-1.025,1.518-1.493
		c1.018-0.895,2.107-1.709,3.09-2.638c0.748-0.708,1.352-1.565,2.064-2.313c0.818-0.86,1.811-1.585,2.498-2.534
		c0.619-0.854,0.928-1.934,1.377-2.912c0.08-0.174,0.182-0.337,0.268-0.508c0.513-1.02,1.018-2.042,1.537-3.057
		c0.208-0.406,0.457-0.792,0.667-1.196c0.117-0.226,0.241-0.464,0.282-0.71c0.203-1.19-0.326-2.572,0.947-3.482
		c0.084-0.061,0.045-0.306,0.048-0.465c0.041-2.358,0.24-4.728,0.071-7.07c-0.162-2.274,0.58-4.627-0.859-6.849
		c-0.637-0.983-0.191-2.418-0.991-3.694c-0.742-1.186-1.239-2.632-1.907-3.953c-0.592-1.168-1.612-2.085-1.986-3.222
		c-0.479-1.454-1.828-2.075-2.441-3.325c-0.221-0.448-0.731-0.755-1.115-1.121c-0.607-0.58-1.183-1.203-1.841-1.72
		c-0.667-0.523-1.423-0.933-2.131-1.407c-0.229-0.154-0.423-0.362-0.644-0.532c-0.562-0.433-1.082-0.953-1.705-1.263
		c-1.021-0.507-2.113-0.872-3.172-1.304c-0.064-0.026-0.093-0.131-0.156-0.17c-0.38-0.234-0.75-0.495-1.154-0.677
		c-0.242-0.108-0.693,0.01-0.791-0.142c-0.65-1.003-1.678-0.744-2.593-0.865c-0.396-0.053-1.022,0.01-1.142-0.204
		c-0.599-1.072-1.58-0.713-2.422-0.739C63.937,43.43,62.177,43.468,60.418,43.468z M67.804,128.479
		c-4.527,0-8.839-0.001-13.149,0.001c-1.885,0.001-1.892,0.004-1.893,1.871c-0.002,11.954-0.016,23.909,0.021,35.863
		c0.004,1.197-0.302,2.403,0.905,3.532c0.876,0.82,1.45,1.711,2.8,1.692c2.597-0.037,5.195,0.035,7.793,0.003
		c1.811-0.022,3.429-1.677,3.496-3.474c0.018-0.439,0.025-0.879,0.025-1.318c0.001-12.154,0.001-24.309,0.001-36.464
		C67.804,129.672,67.804,129.157,67.804,128.479z M65.752,118.391c0.002,0,0.004,0,0.006,0c0-2.354-0.021-4.709,0.014-7.063
		c0.011-0.735-0.248-0.966-0.972-0.959c-2.791,0.027-5.583-0.016-8.375,0.011c-0.845,0.009-1.555,0.242-1.548,1.355
		c0.023,4.271,0,8.541,0.017,12.812c0.003,0.929,0.856,1.892,1.637,1.894c2.714,0.008,5.429-0.027,8.142,0.008
		c0.838,0.011,1.105-0.298,1.093-1.112C65.727,123.021,65.752,120.706,65.752,118.391z"/>
	<path fill-rule="evenodd" clip-rule="evenodd" stroke="#000000" stroke-width="2" stroke-miterlimit="10" d="M134.67,55.551
		c0-2.561,0-4.746,0-7c0.664,0,1.236,0,1.963,0c0,1.949,0.057,3.814-0.021,5.674c-0.043,1.05,0.277,1.409,1.346,1.349
		c1.552-0.088,3.115,0.032,4.669-0.043c1.118-0.054,1.116,0.714,1.146,1.4c0.03,0.748-0.109,1.414-1.176,1.367
		c-1.595-0.07-3.195,0.013-4.791-0.043c-0.898-0.032-1.204,0.316-1.182,1.188c0.041,1.676-0.035,3.355,0.033,5.03
		c0.039,0.976-0.554,0.967-1.215,1.027c-0.776,0.071-0.82-0.403-0.815-0.977c0.011-1.518,0.003-3.035,0.003-4.552
		c0.001-1.43-0.244-1.684-1.741-1.702c-1.397-0.018-2.802,0.076-4.189-0.038c-0.61-0.05-1.231-0.434-1.76-0.793
		c-0.167-0.113-0.175-0.869-0.038-0.947c0.676-0.384,1.41-0.848,2.151-0.898C130.861,55.466,132.687,55.551,134.67,55.551z"/>
	<path fill-rule="evenodd" clip-rule="evenodd" stroke="#000000" stroke-width="2" stroke-miterlimit="10" d="M169.625,160.502
		c0.373,1.619,0.303,3.033-1.169,3.872c-0.38,0.216-1.232,0.119-1.556-0.177c-1.188-1.084-1.617-2.428-0.967-3.166
		C166.942,159.883,168.32,160.338,169.625,160.502z"/>
	<path fill-rule="evenodd" clip-rule="evenodd" stroke="#000000" stroke-width="2" stroke-miterlimit="10" d="M31.736,75.716
		c0-1.519-0.028-3.038,0.011-4.557c0.019-0.742-0.169-1.516,0.696-2.104c0.328-0.224,0.139-1.135,0.298-1.701
		c0.18-0.638,0.485-1.239,0.741-1.855c0.029-0.068,0.133-0.142,0.119-0.189c-0.402-1.396,1.002-2.116,1.254-3.315
		c0.186-0.888,1.018-1.643,1.572-2.45c0.418-0.608,0.805-1.249,1.293-1.798c1.024-1.154,2.08-2.285,3.173-3.374
		c0.927-0.923,1.924-1.772,2.89-2.656c0.082-0.075,0.154-0.216,0.242-0.225c1.354-0.137,2.238-1.046,3.217-1.843
		c0.292-0.237,0.865-0.094,1.271-0.234c0.402-0.139,0.763-0.409,1.131-0.638c0.092-0.056,0.127-0.23,0.215-0.255
		c1.241-0.35,2.474-0.752,3.736-0.999c1.174-0.229,2.33-0.116,3.529-0.735c1.029-0.532,2.502-0.252,3.779-0.246
		c1.21,0.005,2.426-0.103,3.559,0.644c0.479,0.315,1.24,0.198,1.873,0.28c0.971,0.125,2.039-0.226,2.824,0.774
		c0.195,0.248,0.836,0.128,1.264,0.216c0.535,0.11,1.261-0.118,1.409,0.762c0.017,0.094,0.319,0.161,0.497,0.201
		c0.592,0.13,1.416-0.189,1.539,0.84c0.008,0.069,0.351,0.125,0.541,0.144c1.122,0.104,1.754,0.956,2.51,1.621
		c0.137,0.121,0.298,0.243,0.469,0.295c1.068,0.321,1.713,1.12,2.424,1.919c0.773,0.869,1.816,1.493,2.627,2.336
		c0.563,0.585,0.91,1.373,1.393,2.042c0.477,0.662,0.999,1.29,1.508,1.929c0.09,0.113,0.282,0.192,0.299,0.307
		c0.111,0.742,0.399,1.281,0.898,1.928c0.729,0.945,0.805,2.385,1.2,3.601c0.131,0.401,0.419,0.75,0.577,1.146
		c0.17,0.423,0.326,0.865,0.393,1.313c0.209,1.421,0.259,2.819,0.698,4.26c0.542,1.775,0.651,3.784-0.331,5.691
		c-0.439,0.852-0.226,2.035-0.326,3.066c-0.071,0.721,0.113,1.54-0.725,1.994c-0.078,0.043-0.094,0.213-0.128,0.328
		c-0.389,1.303-0.46,2.869-1.259,3.83c-0.684,0.819-0.407,2.172-1.611,2.58c-0.104,0.035-0.192,0.247-0.208,0.385
		c-0.137,1.199-0.921,1.884-1.802,2.609c-0.828,0.683-1.404,1.664-2.156,2.452c-0.526,0.552-1.168,0.992-1.75,1.492
		c-0.396,0.34-0.873,0.635-1.151,1.057c-0.712,1.079-2.317,1.059-2.844,1.995c-0.669,1.189-2.153,0.512-2.72,1.636
		c-0.12,0.237-0.828,0.139-1.236,0.279c-0.452,0.156-0.876,0.4-1.303,0.623c-0.132,0.068-0.258,0.298-0.346,0.277
		c-1.803-0.406-3.165,1.119-4.905,1.075c-2.916-0.073-5.835-0.004-8.752-0.065c-0.476-0.01-0.929-0.442-1.421-0.57
		c-0.676-0.177-1.381-0.24-2.07-0.369c-0.633-0.118-1.513,0.306-1.726-0.771c-0.011-0.054-0.116-0.106-0.187-0.13
		c-1.109-0.356-2.51-0.413-3.254-1.141c-0.794-0.777-2.176-0.478-2.613-1.745c-0.135-0.39-0.807-0.605-1.248-0.876
		c-0.765-0.469-1.585-0.859-2.299-1.395c-0.521-0.392-0.905-0.964-1.359-1.448c-0.5-0.536-1.015-1.06-1.516-1.595
		c-0.389-0.415-0.847-0.793-1.131-1.272c-0.494-0.83-0.852-1.74-1.316-2.589c-0.414-0.755-0.916-1.462-1.344-2.21
		c-0.262-0.459-0.512-0.938-0.67-1.439c-0.173-0.549,0.176-1.334-0.762-1.505c-0.063-0.011-0.117-0.198-0.131-0.309
		c-0.342-2.712-1.598-5.297-1.117-8.126c0.066-0.389,0.01-0.798,0.01-1.198C31.711,75.716,31.723,75.716,31.736,75.716z
		 M60.383,102.428c0-0.007,0-0.014,0-0.021c1.319,0,2.639,0.02,3.958-0.012c0.429-0.01,0.864-0.117,1.278-0.243
		c0.607-0.186,1.191-0.454,1.799-0.64c1.369-0.418,2.748-0.804,4.119-1.216c0.091-0.027,0.131-0.192,0.222-0.254
		c0.323-0.217,0.641-0.453,0.992-0.611c0.244-0.109,0.6-0.02,0.803-0.163c0.802-0.569,1.571-1.186,2.337-1.805
		c0.671-0.543,1.35-1.081,1.971-1.679c0.74-0.714,1.373-1.544,2.142-2.225c1.172-1.039,2.496-1.928,2.902-3.583
		c0.032-0.133,0.187-0.23,0.265-0.356c0.52-0.843,1.336-1.641,1.479-2.545c0.199-1.26,1.58-2.079,1.156-3.49
		c-0.006-0.021,0.039-0.076,0.071-0.091c1.128-0.503,0.739-1.545,0.845-2.402c0.135-1.105,0.202-2.22,0.363-3.321
		c0.102-0.683,0.518-1.365,0.457-2.017c-0.218-2.298-0.266-4.693-1.023-6.822c-0.362-1.021-0.723-2-0.857-3.074
		c-0.012-0.099-0.111-0.261-0.182-0.268c-0.846-0.079-0.643-0.765-0.754-1.268c-0.059-0.268-0.064-0.743-0.18-0.771
		c-0.87-0.211-0.621-0.969-0.855-1.503c-0.213-0.489-0.651-0.877-0.965-1.328c-0.475-0.685-0.848-1.457-1.406-2.061
		c-0.779-0.841-1.863-1.44-2.495-2.363c-0.647-0.944-1.394-1.592-2.399-2.05c-0.549-0.249-1.371-0.492-1.516-0.924
		c-0.436-1.295-1.82-0.966-2.623-1.749c-0.856-0.835-2.502-0.86-3.804-1.237c-0.114-0.033-0.302-0.015-0.339-0.084
		c-0.71-1.3-1.96-0.621-2.965-0.806c-0.736-0.135-1.691,0.096-2.202-0.293c-1.595-1.214-3.524-0.911-4.849-0.352
		c-1.338,0.566-2.566,0.457-3.838,0.671c-0.43,0.073-1.068-0.066-1.269,0.176c-1.069,1.287-2.851,0.74-4.062,1.722
		c-0.864,0.7-2.006,1.051-2.995,1.607c-0.438,0.246-0.813,0.611-1.208,0.934c-0.607,0.496-1.219,0.989-1.807,1.51
		c-0.742,0.658-1.514,1.296-2.174,2.031c-0.51,0.567-0.725,1.573-1.32,1.856c-1.508,0.716-1.542,2.401-2.581,3.435
		c-0.704,0.7-0.798,2.016-1.163,3.057c-0.051,0.147-0.047,0.399-0.137,0.438c-1.023,0.429-0.717,1.362-0.852,2.132
		c-0.066,0.385-0.154,0.77-0.273,1.142c-0.223,0.692-0.661,1.369-0.681,2.063c-0.079,2.757-0.041,5.517-0.022,8.275
		c0.003,0.433,0.057,0.891,0.207,1.292c0.582,1.55,1.229,3.074,1.817,4.622c0.405,1.068,0.752,2.158,1.127,3.239
		c0.013,0.036,0.037,0.072,0.065,0.099c0.893,0.818,1.639,1.717,2.043,2.903c0.167,0.492,0.609,0.914,0.99,1.306
		c0.93,0.955,1.882,1.89,2.855,2.8c0.49,0.459,1.018,0.894,1.582,1.254c0.783,0.499,1.623,0.91,2.429,1.374
		c0.911,0.523,1.757,1.35,2.728,1.532c1.658,0.312,3.003,1.722,4.831,1.323c0.068-0.015,0.151,0.039,0.228,0.063
		c0.832,0.257,1.648,0.637,2.499,0.74C58.211,102.525,59.303,102.428,60.383,102.428z"/>
	<path fill-rule="evenodd" clip-rule="evenodd" stroke="#000000" stroke-width="2" stroke-miterlimit="10" d="M79.709,72.316
		c1.663,0.272,2.439,1.18,3.25,2.452c0.769,1.206,0.674,2.344,0.872,3.562c0.226,1.395-0.677,2.207-1.317,3.131
		c-0.498,0.719-1.241,1.274-1.91,1.864c-0.152,0.133-0.445,0.135-0.676,0.141c-0.879,0.025-1.762,0.077-2.637,0.025
		c-1.182-0.07-1.754-1.205-2.631-1.659c-1.641-0.851-0.258-2.877-1.752-3.656c-0.164-0.086-0.123-1.158,0.116-1.309
		c0.779-0.492,0.524-1.237,0.747-1.864c0.201-0.563,0.645-1.106,1.119-1.489c0.623-0.502,1.423-0.784,2.066-1.269
		c0.333-0.251,0.684-0.728,0.697-1.114c0.074-1.997,0.209-4.018-0.025-5.988c-0.117-0.978-0.943-1.894-1.524-2.787
		c-0.386-0.592-0.907-1.096-1.368-1.64c-0.049-0.057-0.086-0.136-0.148-0.168c-1.975-1.039-4.082-1.203-6.253-0.925
		c-0.411,1.219-1.896,0.608-2.669,1.635c-0.49,0.651-0.899,1.145-1.061,2.028c0.396,0.05,0.72,0.178,0.994,0.111
		c1.807-0.44,3.207,0.841,4.84,1.15c0.506,0.097,1.112,0.841,1.243,1.391c0.122,0.511-0.329,1.158-0.53,1.744
		c-0.077,0.223-0.23,0.439-0.237,0.661c-0.044,1.465-0.96,2.434-1.767,3.538c-0.697,0.956-1.164,2.062-2.276,2.651
		c-0.054,0.028-0.067,0.139-0.092,0.213c-0.347,1.058-0.454,2.293-1.084,3.14c-1.819,2.439-0.46,5.141-0.884,7.675
		c-0.098,0.583,0.064,1.21-0.029,1.794c-0.283,1.733,0.465,3.036,1.492,4.337c0.58,0.734,0.594,1.717,0.018,2.57
		c-0.455,0.672-0.98,1.299-1.402,1.99c-0.658,1.077-1.474,1.834-2.675,2.399c-0.673,0.316-1.212,0.745-2.042,0.833
		c-1.194,0.126-1.717-0.828-2.521-1.291c-0.529-0.306-0.775-1.071-1.281-1.459c-0.967-0.743-1.754-1.527-1.868-2.832
		c-0.027-0.306-0.358-0.585-0.461-0.741c0.25-0.83,0.468-1.556,0.687-2.281c0.033-0.111,0.048-0.309,0.104-0.321
		c1.469-0.323,0.841-1.502,0.865-2.31c0.075-2.558,0.033-5.118,0.023-7.677c-0.002-0.518,0.024-0.917-0.562-1.375
		c-0.646-0.505-1.28-1.57-1.216-2.333c0.186-2.255-1.332-3.638-2.471-5.068c-0.934-1.172-1.875-2.136-1.834-3.728
		c0.006-0.215-0.441-0.419-0.484-0.662c-0.105-0.593-0.219-1.236-0.086-1.803c0.082-0.35,0.61-0.594,0.793-1.072
		c1.944-0.482,3.889-0.966,5.939-1.475c-0.033-0.354-0.086-0.897-0.107-1.119c-0.495-0.492-0.787-0.778-1.072-1.07
		c-0.078-0.081-0.142-0.265-0.203-0.261c-1.432,0.087-2.414-1.128-3.92-1.179c-1.711-0.057-2.986,0.909-4.518,1.175
		c-0.491,0.085-0.774,1.052-1.301,1.302c-1.324,0.626-0.539,2.324-1.669,3.014c-0.151,0.092-0.13,0.521-0.132,0.795
		c-0.012,1.84-0.043,3.68,0.022,5.518c0.013,0.364,0.334,0.882,0.656,1.045c2.351,1.186,3.639,2.962,3.39,5.68
		c-0.07,0.755-0.061,1.527-0.223,2.263c-0.248,1.116-0.949,1.938-2.057,2.279c-0.906,0.279-1.455,1.377-2.65,1.017
		c-1.307-0.395-2.537-0.767-3.428-1.963c-0.849-1.141-1.841-2.79-1.742-3.712c0.051-0.481,0.376-0.935,0.58-1.399
		c0.074-0.172,0.229-0.343,0.223-0.51c-0.05-1.331,0.939-1.836,1.789-2.582c0.791-0.693,1.813-1.448,1.454-2.894
		c-0.188-0.753,0.09-1.614-0.058-2.386c-0.427-2.216,0.755-4.145,1.026-6.231c0.063-0.481,0.553-1.101,1.003-1.3
		c1.315-0.581,1.898-2.354,3.632-2.201c1.421-1.543,3.329-1.046,4.938-0.82c1.505,0.211,3.068,0.727,4.391,1.832
		c0.922,0.77,1.724,1.405,2.111,2.612c0.348,1.082,2.43,1.851,3.459,1.371c0.488-0.229,0.914-0.716,1.219-1.184
		c0.46-0.703,0.783-1.495,1.178-2.242c0.066-0.126,0.184-0.259,0.31-0.313c1.049-0.448,2.321-0.641,3.112-1.363
		c1.477-1.349,3.117-0.643,4.68-0.777c0.695-0.06,1.557-0.187,1.941,0.757c0.038,0.092,0.28,0.12,0.433,0.144
		c1.723,0.264,2.45,1.85,3.681,2.689c1.093,0.745,0.305,2.284,1.646,2.661c0.145,0.04,0.107,0.818,0.109,1.255
		C79.714,67.393,79.709,69.828,79.709,72.316z M58.752,65.604c0,2.721,0,5.255,0,7.779c-1.139,0.028-1.988-0.811-1.992-1.817
		c-0.008-1.981-0.002-3.963-0.002-5.972c-1.252,0-2.348-0.142-3.381,0.052c-0.641,0.12-1.523,0.643-1.689,1.175
		c-0.223,0.713-0.041,1.698,0.302,2.404c0.381,0.786,1.174,1.363,1.72,2.083c0.475,0.626,0.719,1.687,1.309,1.909
		c0.987,0.372,0.648,1.019,0.739,1.6c0.055,0.353-0.106,0.809,0.063,1.059c0.398,0.589,0.904,1.497,1.429,1.541
		c2.092,0.178,4.208,0.073,6.041,0.073c0.55-1.01,1.304-1.776,1.312-2.551c0.012-1.31,1.061-1.766,1.574-2.637
		c0.494-0.836,1.688-1.202,1.621-2.428c-0.008-0.134,0.217-0.273,0.318-0.421c0.209-0.307,0.421-0.614,0.609-0.936
		c0.229-0.392,0.482-0.78,0.631-1.204c0.071-0.2,0.008-0.61-0.135-0.7c-1.655-1.032-3.453-1.349-5.584-0.942
		c0,2.525,0,5.056,0,7.669c-0.743,0-1.271,0-1.934,0c0-2.607,0-5.146,0-7.736C60.715,65.604,59.861,65.604,58.752,65.604z
		 M62.73,79.576c-1.768,0-3.303,0-4.876,0c-0.04,0.265-0.094,0.458-0.095,0.651c-0.02,3.037,0.009,6.075-0.076,9.109
		c-0.022,0.798,0.627,1.968-0.832,2.306c-0.054,0.013-0.064,0.214-0.096,0.326c-0.402,1.47,0.125,2.793,1.391,3.652
		c0.565,0.384,1.219,0.767,1.563,1.318c0.477,0.764,0.705,0.688,1.118,0.018c0.118-0.191,0.412-0.269,0.613-0.415
		c0.423-0.31,0.917-0.565,1.239-0.959c0.681-0.834,1.27-1.743,1.908-2.64c-1.257-1.107-2.202-2.29-1.869-4.065
		c0.08-0.425,0.012-0.877,0.012-1.317C62.73,84.93,62.73,82.299,62.73,79.576z M75.219,77.772c0.18,0.655,0.348,1.119,0.43,1.598
		c0.15,0.87,1.281,1.988,2.174,1.994c0.792,0.006,1.438-0.007,2.253-0.641c1.333-1.036,1.874-2.168,1.534-3.626
		c-0.207-0.892-0.777-2.021-1.512-2.386c-0.867-0.433-2.24-0.482-3.102-0.077c-0.636,0.298-1.658,1.084-1.441,2.315
		C75.605,77.231,75.306,77.573,75.219,77.772z M44.624,80.015c0.05-0.45,0.159-1.117,0.187-1.787
		c0.023-0.595-0.104-1.198-0.059-1.79c0.084-1.085-0.93-1.537-1.469-1.829c-1.449-0.784-3.374,0.419-3.684,2.017
		c-0.063,0.326-0.279,0.619-0.396,0.938c-0.074,0.202-0.206,0.516-0.119,0.624c0.717,0.89,0.62,2.354,1.886,2.819
		c0.539,0.197,1.218,0.317,1.745,0.166C43.347,80.992,43.884,80.483,44.624,80.015z"/>
</g>
</svg>
