<?xml version="1.0" encoding="utf-8"?>
<!-- Generator: Adobe Illustrator 16.0.0, SVG Export Plug-In . SVG Version: 6.00 Build 0)  -->
<!DOCTYPE svg PUBLIC "-//W3C//DTD SVG 1.1//EN" "http://www.w3.org/Graphics/SVG/1.1/DTD/svg11.dtd">
<svg version="1.1" id="Layer_1" xmlns="http://www.w3.org/2000/svg" xmlns:xlink="http://www.w3.org/1999/xlink" x="0px" y="0px"
	 width="225px" height="225px" viewBox="0 0 225 225" enable-background="new 0 0 225 225" xml:space="preserve">
<g>
	<path fill-rule="evenodd" clip-rule="evenodd" d="M208.739,110.775c0,0.761,0.045,1.523-0.01,2.279
		c-0.13,1.797,0.014,3.563-0.547,5.392c-0.557,1.814-0.254,3.883-0.422,5.832c-0.053,0.608-0.415,1.188-0.619,1.786
		c-0.102,0.296-0.188,0.601-0.245,0.907c-0.269,1.438,0.484,3.063-0.875,4.321c-0.238,0.222-0.079,0.849-0.146,1.283
		c-0.136,0.896,0.174,1.881-0.737,2.635c-0.208,0.172,0.119,1.01,0.233,1.534c0.029,0.131,0.247,0.219,0.279,0.351
		c0.418,1.691,0.832,3.384,1.213,5.084c0.131,0.587-0.118,1.278,0.695,1.623c0.186,0.078,0.206,0.642,0.229,0.986
		c0.084,1.276-0.188,2.687,0.268,3.805c1.077,2.646,0.703,5.348,0.625,8.006c-0.083,2.865-0.273,5.817-1.082,8.533
		c-0.397,1.331-0.193,3.023-0.948,3.875c-1.048,1.183-0.217,2.944-1.631,3.783c-0.05,0.029-0.048,0.146-0.075,0.221
		c-0.393,1.126-0.691,2.297-1.207,3.364c-0.434,0.897-1.127,1.669-1.684,2.511c-0.104,0.155-0.062,0.405-0.16,0.565
		c-0.523,0.841-1.074,1.665-1.604,2.502c-0.164,0.258-0.255,0.564-0.435,0.809c-0.502,0.68-1.034,1.337-1.552,2.005
		c-0.438,0.563-0.926,1.095-1.297,1.698c-0.797,1.298-1.771,2.379-3.008,3.305c-0.914,0.684-1.518,1.769-2.373,2.55
		c-0.657,0.601-1.505,0.988-2.244,1.504c-0.397,0.277-0.732,0.641-1.119,0.935c-0.768,0.587-1.525,1.192-2.336,1.714
		c-0.748,0.48-1.568,0.846-2.34,1.29c-0.897,0.516-1.778,1.061-2.663,1.599c-0.061,0.036-0.079,0.157-0.14,0.18
		c-1.109,0.42-2.422,0.589-3.287,1.302c-1.211,0.998-2.932,0.359-4.026,1.618c-0.326,0.375-1.288,0.191-1.956,0.276
		c-0.664,0.084-1.475-0.224-1.824,0.727c-0.045,0.121-0.431,0.146-0.662,0.163c-0.637,0.045-1.288-0.003-1.914,0.103
		c-1.227,0.208-2.439,0.494-3.657,0.749c-0.039,0.008-0.077,0.027-0.116,0.027c-2.998,0.002-6.063,0.377-8.969-0.14
		c-1.707-0.304-3.41-0.511-5.127-0.69c-0.119-0.013-0.256,0.022-0.355-0.025c-0.391-0.184-0.773-0.387-1.152-0.595
		c-0.1-0.054-0.167-0.209-0.262-0.222c-1.498-0.194-3.028-0.022-4.411-1.022c-0.636-0.46-1.815,0.062-2.419-0.908
		c-0.072-0.117-0.639-0.117-0.77,0.022c-0.998,1.064-2.318,0.653-3.506,0.837c-0.591,0.091-1.311-0.145-1.598,0.715
		c-0.043,0.131-0.488,0.165-0.75,0.18c-0.878,0.048-1.758,0.063-2.637,0.101c-0.279,0.012-0.654-0.059-0.819,0.092
		c-1.487,1.354-3.325,0.618-4.989,0.892c-1.385,0.228-2.764,0.504-4.147,0.741c-0.353,0.061-0.716,0.074-1.074,0.078
		c-2.239,0.021-4.481,0.108-6.718,0.026c-2.155-0.08-4.28,0.078-6.473-0.535c-2.138-0.599-4.523-0.288-6.793-0.46
		c-0.52-0.039-1.008-0.432-1.521-0.636c-0.243-0.097-0.509-0.149-0.769-0.197c-1.295-0.237-2.799,0.438-3.848-0.884
		c-0.019-0.023-0.075-0.019-0.114-0.026c-1.985-0.373-3.976-0.721-5.952-1.138c-0.487-0.104-0.924-0.44-1.387-0.663
		c-0.172-0.082-0.346-0.172-0.529-0.212c-1-0.216-1.953-0.271-2.918-0.941c-1.056-0.733-2.546-0.834-3.836-1.244
		c-0.252-0.08-0.463-0.305-0.678-0.482c-0.114-0.095-0.194-0.333-0.289-0.332c-0.961,0.003-1.674-0.482-2.477-0.957
		c-1.029-0.61-2.301-0.795-3.398-1.31c-0.949-0.445-1.788-1.12-2.701-1.649c-0.767-0.445-1.586-0.8-2.354-1.244
		c-0.914-0.529-1.798-1.112-2.695-1.671c-0.67-0.417-1.342-0.831-2.012-1.25c-0.655-0.41-1.332-0.793-1.957-1.245
		c-0.809-0.583-1.594-1.204-2.357-1.846c-0.622-0.523-1.188-1.113-1.798-1.653c-0.437-0.388-0.849-0.881-1.366-1.083
		c-1.603-0.625-2.554-1.947-3.696-3.101c-1.146-1.157-2.521-2.085-3.689-3.223c-0.837-0.815-1.46-1.847-2.253-2.715
		c-0.777-0.853-1.682-1.589-2.463-2.439c-0.555-0.604-1.002-1.309-1.488-1.976c-0.421-0.58-0.758-1.241-1.258-1.739
		c-0.76-0.756-1.613-1.375-1.822-2.558c-0.072-0.413-0.609-0.731-0.898-1.12c-0.863-1.162-1.706-2.337-2.559-3.506
		c-0.068-0.094-0.17-0.172-0.215-0.274c-0.449-1.023-0.821-2.088-1.354-3.064c-0.477-0.873-1.182-1.619-1.687-2.479
		c-0.455-0.771-0.756-1.63-1.158-2.435c-0.599-1.203-1.226-2.392-1.844-3.585c-0.035-0.065-0.127-0.106-0.148-0.174
		c-0.361-1.103-0.703-2.212-1.084-3.308c-0.089-0.256-0.303-0.473-0.475-0.694c-0.094-0.119-0.288-0.192-0.324-0.319
		c-0.398-1.4-0.754-2.813-1.17-4.208c-0.156-0.525-0.438-1.013-0.664-1.516c-0.047-0.106-0.125-0.204-0.149-0.314
		c-0.415-1.928-0.833-3.855-1.23-5.787c-0.137-0.665,0.112-1.455-0.758-1.853c-0.146-0.066-0.126-0.513-0.167-0.786
		c-0.221-1.5,0.227-3.104-0.809-4.486c-0.226-0.3-0.137-0.854-0.15-1.291c-0.056-1.679-0.063-3.359-0.152-5.036
		c-0.045-0.834,0.209-1.771-0.695-2.407c-0.172-0.121-0.121-0.601-0.121-0.915c-0.008-3.279-0.021-6.559,0.016-9.838
		c0.004-0.427,0.285-0.848,0.428-1.274c0.123-0.366,0.311-0.733,0.33-1.106c0.078-1.558,0.064-3.12,0.159-4.676
		c0.07-1.152-0.05-2.272,0.692-3.409c0.494-0.756,0.145-2.03,0.297-3.054c0.092-0.614,0.424-1.192,0.649-1.787
		c0.042-0.11,0.11-0.214,0.134-0.327c0.434-2.096,0.843-4.197,1.305-6.286c0.091-0.408,0.396-0.764,0.571-1.157
		c0.122-0.275,0.22-0.568,0.28-0.863c0.166-0.805-0.164-1.784,0.888-2.275c0.138-0.064,0.078-0.521,0.137-0.789
		c0.164-0.756-0.249-1.761,0.892-2.106c0.024-0.008,0.035-0.069,0.047-0.107c0.357-1.098,0.676-2.211,1.084-3.29
		c0.328-0.871,0.761-1.703,1.156-2.547c0.303-0.648,0.584-1.311,0.942-1.928c0.46-0.793,0.985-1.549,1.488-2.317
		c0.041-0.063,0.148-0.087,0.179-0.151c0.423-0.914,0.811-1.847,1.263-2.747c0.448-0.893,0.933-1.769,1.448-2.624
		c0.547-0.904,1.441-1.537,1.744-2.67c0.161-0.606,0.925-1.045,1.393-1.58c0.4-0.458,0.813-0.917,1.138-1.428
		c0.453-0.712,0.798-1.493,1.252-2.205c0.257-0.404,0.645-0.724,0.962-1.09c0.932-1.073,1.863-2.145,2.781-3.228
		c0.764-0.901,1.496-1.828,2.267-2.722c0.323-0.375,0.716-0.688,1.065-1.041c1.036-1.049,2.036-2.135,3.106-3.146
		c1.014-0.958,2.071-1.874,3.162-2.741c0.697-0.554,1.503-0.97,2.237-1.478c0.426-0.294,0.81-0.646,1.207-0.979
		c0.701-0.586,1.311-1.404,2.117-1.714c1.385-0.531,1.984-2.194,3.64-2.307c0.401-0.027,0.753-0.611,1.151-0.909
		c0.827-0.619,1.661-1.231,2.513-1.816c0.184-0.126,0.481-0.079,0.68-0.194c0.388-0.224,0.739-0.508,1.109-0.762
		c0.12-0.082,0.253-0.207,0.379-0.207c1.296,0.002,1.985-1.059,2.949-1.641c0.706-0.426,1.444-0.818,2.208-1.123
		c1.256-0.502,2.566-0.865,3.811-1.391c0.99-0.419,1.916-0.99,2.867-1.498c0.104-0.055,0.182-0.172,0.287-0.201
		c1.486-0.407,2.98-0.786,4.461-1.216c0.407-0.119,0.775-0.377,1.158-0.579c0.1-0.053,0.176-0.17,0.279-0.193
		c1.702-0.404,3.404-0.812,5.113-1.188c0.924-0.203,1.894,0.051,2.742-0.803c0.407-0.41,1.448-0.182,2.201-0.262
		c0.99-0.105,2.053,0.172,2.904-0.692c0.222-0.225,0.762-0.169,1.158-0.183c1.518-0.057,3.041-0.036,4.556-0.146
		c1.135-0.084,2.403,0.36,3.345-0.754c0.143-0.168,0.613-0.075,0.932-0.076c2.68-0.012,5.359-0.055,8.038-0.006
		c1.054,0.02,2.237-0.385,3.097,0.692c0.123,0.153,0.533,0.095,0.812,0.104c1.599,0.05,3.199,0.062,4.796,0.145
		c1.123,0.058,2.195,0.039,3.305,0.679c0.837,0.482,2.113,0.156,3.178,0.311c0.56,0.08,1.066,0.479,1.626,0.623
		c0.687,0.177,1.401,0.246,2.106,0.347c0.959,0.138,2.011-0.106,2.746,0.861c0.154,0.204,0.67,0.142,1.021,0.189
		c0.746,0.102,1.566-0.133,2.109,0.74c0.15,0.243,0.82,0.158,1.25,0.232c0.615,0.106,1.424-0.193,1.646,0.769
		c0.013,0.056,0.127,0.139,0.176,0.127c1.517-0.357,2.568,0.853,3.889,1.185c1.055,0.266,2.002,0.959,2.995,1.467
		c0.136,0.069,0.249,0.188,0.389,0.24c1.218,0.454,2.47,0.83,3.647,1.371c0.711,0.327,1.309,0.902,1.951,1.374
		c0.092,0.068,0.131,0.225,0.227,0.265c0.99,0.42,2.02,0.759,2.969,1.253c0.917,0.476,1.748,1.118,2.628,1.667
		c0.769,0.479,1.567,0.912,2.33,1.401c0.394,0.252,0.73,0.593,1.108,0.873c0.852,0.634,1.717,1.251,2.57,1.884
		c0.947,0.701,2.08,1.262,2.783,2.158c0.939,1.197,2.549,1.435,3.372,2.84c0.544,0.929,1.824,1.397,2.653,2.197
		c0.841,0.81,1.486,1.819,2.303,2.657c0.817,0.838,1.816,1.504,2.598,2.369c0.898,0.993,1.625,2.14,2.466,3.187
		c0.485,0.604,1.091,1.113,1.575,1.72c0.762,0.956,1.475,1.953,2.195,2.941c0.51,0.698,0.991,1.415,1.498,2.114
		c0.147,0.203,0.441,0.35,0.495,0.564c0.271,1.093,0.944,1.882,1.786,2.564c0.06,0.049,0.165,0.119,0.157,0.162
		c-0.237,1.262,1.126,1.789,1.315,2.886c0.094,0.54,0.504,1.037,0.813,1.525c0.544,0.86,1.151,1.68,1.674,2.552
		c0.387,0.645,0.724,1.327,1.005,2.025c0.492,1.223,0.908,2.476,1.391,3.703c0.139,0.352,0.388,0.662,0.6,0.982
		c0.06,0.091,0.234,0.148,0.239,0.228c0.052,0.894,0.442,1.6,0.894,2.379c0.48,0.831,0.416,1.882,0.975,2.862
		c0.803,1.411,0.686,3.326,1.404,4.811c0.801,1.652,0.354,3.582,1.125,4.976c0.77,1.394,0.556,2.688,0.771,4.026
		c0.019,0.117-0.039,0.281,0.022,0.353c1.587,1.848,0.604,4.097,0.972,6.132c0.222,1.229,0.514,2.446,0.721,3.679
		c0.098,0.587,0.094,1.194,0.098,1.793c0.013,1.6,0.005,3.199,0.005,4.799C208.719,110.775,208.729,110.775,208.739,110.775z
		 M110.984,140.501c0.289-1.032,0.627-2.239,0.968-3.444c0.021-0.075,0.046-0.166,0.101-0.212c1.064-0.897,1.019-2.356,1.748-3.437
		c0.6-0.888,0.99-1.913,1.563-2.822c0.485-0.77,0.604-1.69,1.375-2.38c0.636-0.568,0.767-1.665,1.308-2.39
		c0.861-1.156,1.894-2.184,2.82-3.293c0.744-0.893,1.42-1.842,2.167-2.733c0.331-0.395,0.763-0.705,1.146-1.058
		c0.588-0.54,1.158-1.101,1.762-1.621c0.519-0.446,1.061-0.868,1.617-1.268c1.111-0.8,2.241-1.575,3.361-2.364
		c0.809-0.571,1.57-1.229,2.434-1.701c0.914-0.498,1.924-0.817,2.89-1.223c0.142-0.06,0.261-0.17,0.396-0.248
		c0.92-0.539,1.803-1.164,2.771-1.59c1.045-0.46,2.175-0.727,3.26-1.098c0.13-0.044,0.197-0.246,0.324-0.324
		c0.317-0.193,0.635-0.447,0.982-0.516c1.41-0.277,2.779-0.145,4.258-0.83c1.736-0.805,3.954-0.621,5.961-0.966
		c2.913-0.501,5.979-0.213,8.974-0.095c1.294,0.051,2.569,0.519,3.854,0.792c1.089,0.231,2.414-0.442,3.235,0.868
		c0.081,0.129,0.454,0.091,0.692,0.104c0.678,0.038,1.387-0.052,2.029,0.115c1.245,0.325,2.482,0.722,3.666,1.222
		c1.101,0.465,2.111,1.138,3.191,1.654c0.941,0.45,1.926,0.809,2.889,1.215c0.059,0.024,0.074,0.138,0.133,0.179
		c0.779,0.549,1.513,1.44,2.357,1.563c1.583,0.229,2.383,1.516,3.502,2.274c0.899,0.61,1.907,1.2,2.731,1.976
		c0.773,0.727,1.585,1.415,2.326,2.174c0.483,0.494,0.847,1.104,1.304,1.626c0.531,0.607,1.146,1.144,1.648,1.771
		c0.537,0.671,0.878,1.531,1.498,2.095c0.833,0.758,1.58,1.493,1.797,2.646c0.025,0.135,0.256,0.231,0.334,0.297
		c1.434-0.856,1.449-2.179,1.467-3.542c0.018-1.438,0.082-2.881,0.245-4.308c0.108-0.948,0.606-1.869,0.622-2.807
		c0.065-4.198,0.107-8.401-0.023-12.597c-0.059-1.9-0.568-3.785-0.813-5.684c-0.111-0.869-0.059-1.758-0.111-2.636
		c-0.02-0.311-0.039-0.811-0.211-0.89c-0.902-0.412-0.599-1.191-0.664-1.854c-0.078-0.792,0.176-1.955-0.249-2.302
		c-0.839-0.685-0.612-1.474-0.781-2.24c-0.338-1.534-0.689-3.066-1.038-4.598c-0.018-0.075-0.051-0.158-0.104-0.212
		c-1.178-1.208-1.024-2.969-1.822-4.365c-0.6-1.048-0.77-2.342-1.132-3.525c-0.012-0.038-0.021-0.095-0.047-0.107
		c-1.296-0.62-0.901-2.169-1.735-3.119c-0.805-0.916-1.209-2.183-1.787-3.297c-0.447-0.86-0.879-1.729-1.342-2.58
		c-0.396-0.731-0.793-1.467-1.248-2.161c-0.525-0.8-1.3-1.486-1.633-2.351c-0.422-1.093-0.904-2.004-1.87-2.725
		c-0.524-0.393-0.81-1.112-1.184-1.697c-0.432-0.675-0.812-1.385-1.271-2.039c-0.298-0.424-0.7-0.774-1.054-1.16
		c-0.923-1.008-1.859-2.004-2.762-3.03c-0.485-0.554-0.875-1.193-1.375-1.731c-0.916-0.987-1.875-1.938-2.834-2.886
		c-0.418-0.415-0.859-0.813-1.324-1.177c-1.456-1.136-3.007-2.166-4.365-3.408c-0.779-0.712-1.303-1.684-2.496-1.821
		c-0.156-0.018-0.297-0.211-0.435-0.334c-0.881-0.784-1.691-1.669-2.657-2.327c-0.903-0.615-1.972-0.988-2.963-1.477
		c-0.102-0.05-0.17-0.167-0.268-0.228c-0.912-0.556-1.469-1.724-2.775-1.607c-0.106,0.01-0.308-0.053-0.319-0.111
		c-0.264-1.305-1.718-0.833-2.454-1.658c-0.699-0.784-2.12-0.926-3.223-1.354c-0.107-0.042-0.202-0.114-0.305-0.17
		c-0.98-0.533-1.908-1.25-2.956-1.551c-1.28-0.367-2.302-1.579-3.812-1.203c-0.063,0.017-0.159-0.152-0.254-0.211
		c-0.359-0.22-0.698-0.521-1.09-0.629c-1.524-0.42-3.066-0.777-4.6-1.16c-0.076-0.02-0.187-0.045-0.211-0.1
		c-0.414-0.892-1.257-0.66-1.971-0.765c-0.707-0.104-1.428-0.149-2.117-0.325c-0.637-0.163-1.221-0.572-1.861-0.682
		c-0.979-0.167-2.205,0.157-2.927-0.325c-0.905-0.604-1.763-0.597-2.681-0.655c-1.236-0.08-2.479-0.07-3.717-0.139
		c-0.332-0.019-0.662-0.165-0.982-0.279c-0.456-0.162-0.902-0.498-1.354-0.503c-4.198-0.043-8.399-0.033-12.599-0.029
		c-0.313,0.001-0.786-0.042-0.91,0.132c-0.641,0.892-1.566,0.659-2.41,0.702c-1.438,0.075-2.878,0.077-4.316,0.146
		c-0.43,0.021-0.861,0.132-1.278,0.25c-0.62,0.177-1.216,0.481-1.845,0.579c-0.983,0.153-2.229-0.158-2.924,0.339
		c-1.024,0.733-2.061,0.646-3.118,0.816c-0.315,0.051-0.806,0.006-0.913,0.185c-0.623,1.052-1.668,0.687-2.551,0.855
		c-0.233,0.045-0.599-0.006-0.685,0.128c-0.845,1.313-2.622,0.394-3.659,1.635c-0.463,0.554-1.801,0.444-2.776,0.973
		c-1.313,0.712-2.821,1.123-4.151,1.953c-1.289,0.806-2.709,1.413-4.104,2.036c-1.274,0.569-2.54,1.083-3.589,2.084
		c-0.877,0.839-2.193,0.999-3.113,1.943c-0.801,0.819-2.031,1.158-2.936,1.995c-0.35,0.324-0.822,0.951-1.013,0.96
		c-0.995,0.041-1.503,0.76-2.171,1.253c-0.549,0.405-1.105,0.808-1.607,1.268c-0.551,0.506-1.001,1.127-1.572,1.605
		c-0.687,0.573-1.488,1.007-2.178,1.577c-0.616,0.51-1.147,1.12-1.715,1.688c-1.111,1.112-2.293,2.164-3.314,3.354
		c-1.199,1.399-2.197,2.972-3.403,4.364c-0.731,0.844-1.843,1.378-1.895,2.694c-0.004,0.097-0.093,0.232-0.181,0.277
		c-1.443,0.747-1.714,2.419-2.749,3.493c-0.411,0.427-0.677,0.994-1.011,1.497c-0.242,0.367-0.488,0.732-0.732,1.099
		c-0.394,0.589-0.847,1.148-1.166,1.775c-0.499,0.979-0.895,2.009-1.357,3.006c-0.313,0.675-0.629,1.354-1.01,1.991
		c-0.525,0.882-1.228,1.675-1.646,2.6c-0.487,1.079-0.751,2.259-1.113,3.395c-0.023,0.074-0.043,0.19-0.093,0.209
		c-1.07,0.394-0.755,1.354-0.876,2.132c-0.037,0.235,0.006,0.647-0.097,0.685c-1.187,0.437-0.583,1.604-0.992,2.306
		c-0.649,1.113-0.917,2.276-0.995,3.522c-0.006,0.108-0.105,0.208-0.152,0.316c-0.23,0.544-0.53,1.073-0.668,1.641
		c-0.179,0.729,0.037,1.766-0.391,2.178c-0.709,0.684-0.613,1.402-0.688,2.161c-0.089,0.913,0.151,2.038-0.3,2.694
		c-0.671,0.976-0.602,1.939-0.659,2.943c-0.078,1.356-0.063,2.719-0.145,4.075c-0.025,0.41-0.229,0.812-0.367,1.212
		c-0.135,0.388-0.412,0.768-0.416,1.152c-0.031,3.999-0.024,7.999-0.017,11.998c0.001,0.312-0.021,0.791,0.155,0.905
		c0.859,0.558,0.655,1.405,0.674,2.168c0.041,1.622,0.013,3.247,0.013,5.033c1.456-0.106,2.816,0.177,3.599-0.368
		c0.828-0.577,1.57-0.529,2.385-0.681c1.869-0.346,3.729-0.733,5.59-1.114c0.146-0.029,0.275-0.143,0.414-0.214
		c0.422-0.22,0.824-0.494,1.27-0.644c1.247-0.421,2.512-0.788,3.767-1.185c0.062-0.021,0.085-0.147,0.149-0.179
		c1.133-0.556,2.267-1.107,3.404-1.653c0.824-0.396,1.689-0.722,2.474-1.185c0.913-0.54,1.749-1.209,2.636-1.797
		c0.692-0.458,1.475-0.802,2.103-1.331c1.069-0.902,2.059-1.901,3.063-2.879c0.387-0.377,0.809-0.759,1.065-1.221
		c0.774-1.396,1.779-2.641,2.479-4.113c0.317-0.669,0.538-1.434,0.911-2.099c0.534-0.954,1.264-1.844,1.581-2.863
		c0.338-1.086,0.434-2.2,0.895-3.321c0.693-1.688,0.602-3.635,1.14-5.476c0.657-2.248,0.168-4.737,0.938-7.11
		c0.498-1.539,0.225-3.329,0.302-5.006c0.015-0.319-0.075-0.759,0.097-0.937c1.318-1.364,0.596-3.082,0.869-4.62
		c0.055-0.309,0-0.811,0.166-0.896c0.883-0.458,0.621-1.275,0.766-1.982c0.332-1.619,0.721-3.227,1.094-4.836
		c0.025-0.107,0.127-0.195,0.182-0.298c0.255-0.483,0.545-0.953,0.751-1.457c0.441-1.086,0.753-2.234,1.28-3.274
		c0.43-0.846,1.33-1.505,1.579-2.374c0.2-0.699,0.907-0.845,1.01-1.308c0.45-2.03,2.351-2.956,3.319-4.576
		c0.246-0.411,0.654-0.74,1.031-1.056c0.556-0.465,1.322-0.771,1.691-1.344c0.855-1.331,2.408-1.688,3.453-2.728
		c0.369-0.365,0.844-0.638,1.3-0.898c0.761-0.434,1.755-0.65,2.274-1.272c0.861-1.031,2.166-0.938,3.168-1.623
		c1.027-0.702,2.416-0.878,3.645-1.289c0.07-0.023,0.121-0.099,0.19-0.133c0.528-0.261,1.042-0.563,1.593-0.765
		c1.057-0.39,2.135-0.72,3.201-1.081c0.063-0.021,0.145-0.1,0.152-0.159c0.094-0.869,0.787-0.82,1.231-0.579
		c0.401,0.217,0.683,0.767,0.871,1.229c0.175,0.429-0.015,1.188,0.251,1.366c1.287,0.87,0.618,2.052,0.779,3.109
		c-0.727,0.141-1.527,0.057-1.903,0.417c-1.005,0.96-2.339,1.09-3.492,1.643c-1.135,0.545-2.392,0.836-3.593,1.239
		c-0.037,0.013-0.064,0.047-0.1,0.067c-0.972,0.567-1.885,1.337-2.934,1.645c-1.018,0.299-1.561,1.599-2.824,1.243
		c-0.033-0.01-0.113,0.1-0.152,0.166c-0.541,0.929-1.361,1.488-2.361,1.832c-0.202,0.07-0.393,0.225-0.545,0.383
		c-0.793,0.828-1.433,1.919-2.387,2.449c-1.408,0.784-1.666,2.336-2.723,3.331c-0.66,0.622-0.951,1.628-1.449,2.435
		c-0.648,1.047-1.604,1.928-1.656,3.282c-0.011,0.264-0.107,0.566-0.266,0.775c-0.912,1.208-1.235,2.646-1.614,4.06
		c-0.229,0.855,0.269,1.943-0.865,2.521c-0.14,0.071-0.103,0.523-0.114,0.801c-0.043,0.958-0.064,1.918-0.112,2.876
		c-0.014,0.271-0.017,0.72-0.155,0.779c-0.909,0.389-0.668,1.178-0.711,1.853c-0.103,1.554,0.199,3.254-0.336,4.633
		c-0.866,2.226-0.51,4.463-0.754,6.685c-0.039,0.355,0.041,0.8-0.142,1.053c-1.043,1.442-0.714,3.127-0.927,4.715
		c-0.051,0.388-0.138,0.776-0.261,1.146c-0.2,0.603-0.489,1.177-0.659,1.786c-0.389,1.394-0.725,2.803-1.096,4.202
		c-0.025,0.095-0.172,0.15-0.234,0.243c-0.219,0.331-0.628,0.688-0.601,1.004c0.129,1.498-1.239,2.311-1.544,3.601
		c-0.107,0.455-0.384,0.898-0.674,1.278c-0.602,0.789-1.275,1.522-1.898,2.296c-0.725,0.899-1.354,1.888-2.156,2.707
		c-0.788,0.805-1.756,1.431-2.617,2.167c-0.447,0.382-0.821,0.85-1.253,1.251c-0.526,0.491-1.048,0.997-1.628,1.417
		c-0.793,0.574-1.62,1.107-2.467,1.598c-0.988,0.572-1.994,1.121-3.027,1.603c-0.869,0.405-1.551,1.287-2.668,1.101
		c-0.021-0.004-0.049,0.159-0.105,0.196c-0.352,0.228-0.691,0.493-1.074,0.646c-0.396,0.157-0.868,0.133-1.254,0.306
		c-1.088,0.487-2.106,1.164-3.23,1.523c-1.13,0.361-2.295,0.443-3.424,1.033c-1.174,0.615-2.691,0.193-4.011,0.984
		c-0.79,0.473-2.03,0.185-3.065,0.265c-0.303,0.023-0.61,0.107-0.893,0.222c-0.473,0.19-0.912,0.55-1.395,0.615
		c-0.593,0.08-0.896,0.24-0.822,0.872c0.098,0.833,0.064,1.705,0.312,2.489c0.248,0.788,0.555,1.719,1.604,1.838
		c2.971,0.338,5.69-1.105,8.598-1.261c0.19-0.01,0.355-0.336,0.555-0.369c0.978-0.159,2.183-0.67,2.885-0.286
		c0.752,0.413,1.445,1.295,2.082,2.004c0.71,0.789,1.383,1.506,2.32,2.002c0.576,0.306,1.195,0.617,1.629,1.082
		c0.744,0.796,1.359,1.707,2.568,1.84c0.145,0.017,0.296,0.094,0.42,0.178c0.813,0.56,1.615,1.137,2.432,1.691
		c0.467,0.315,0.923,0.68,1.438,0.881c1.202,0.47,2.439,0.852,3.659,1.275c0.146,0.052,0.274,0.154,0.415,0.225
		c1.093,0.543,2.146,1.212,3.292,1.596c1.476,0.493,3.027,0.759,4.547,1.122c0.039,0.009,0.104-0.003,0.115,0.018
		c0.807,1.45,2.244,0.644,3.37,0.946c0.289,0.077,0.582,0.156,0.854,0.279c0.42,0.189,0.804,0.535,1.236,0.604
		c0.941,0.148,2.063-0.127,2.824,0.293c1.656,0.911,3.392,0.604,5.096,0.799c0.547,0.063,1.089,0.202,1.621,0.349
		c0.516,0.142,1.015,0.479,1.524,0.486c7.638,0.107,15.276,0.171,22.915,0.256c0.633,0.007,0.898-0.194,0.977-0.879
		c0.099-0.866,0.451-1.701,0.602-2.565c0.09-0.514,0.2-1.379-0.043-1.53c-0.721-0.448-1.391-0.967-2.428-0.97
		c-7.559-0.026-15.116-0.176-22.674-0.294c-0.438-0.007-1.053,0.084-1.279-0.158c-0.877-0.939-1.988-0.644-3.021-0.747
		c-0.873-0.089-1.955,0.175-2.584-0.251c-1.215-0.823-2.492-0.625-3.76-0.789c-0.27-0.035-0.721-0.05-0.768-0.187
		c-0.343-0.976-1.178-0.583-1.82-0.744c-1.618-0.404-3.233-0.826-4.839-1.281c-0.685-0.193-1.342-0.482-2.009-0.734
		c-0.178-0.066-0.35-0.149-0.52-0.235c-1.169-0.593-2.33-1.202-3.507-1.777c-0.839-0.41-1.734-0.718-2.544-1.178
		c-0.89-0.507-1.688-1.173-2.568-1.702c-0.753-0.453-1.615-0.735-2.336-1.23c-1.016-0.696-1.945-1.518-2.967-2.331
		c0-0.375,0-0.911,0-1.455c0.891-0.133,1.54-0.397,2.278-0.876c1.189-0.771,2.644-1.147,3.864-2.066
		c1.253-0.943,2.775-1.523,4.157-2.303c0.544-0.308,1.065-0.68,1.529-1.099c0.937-0.847,1.853-1.72,2.729-2.628
		c1.178-1.223,2.31-2.49,3.462-3.736c0.404-0.438,0.84-0.849,1.213-1.31c0.582-0.717,1.129-1.462,1.676-2.206
		c0.176-0.24,0.275-0.535,0.451-0.774c0.455-0.614,1.053-1.153,1.373-1.827c0.525-1.104,0.871-2.292,1.303-3.441
		c0.066-0.179,0.192-0.335,0.277-0.509c0.208-0.422,0.439-0.837,0.6-1.276c0.107-0.291,0.047-0.862,0.168-0.894
		c1.143-0.294,0.625-1.323,1.061-2.225c1.418,0,2.979,0.119,4.512-0.029c2.098-0.202,4.178-0.596,6.263-0.931
		c2.153-0.345,4.301-0.718,6.45-1.08c0.078-0.014,0.201-0.015,0.224-0.061c0.548-1.128,1.622-0.701,2.497-0.854
		c0.231-0.04,0.578,0.001,0.676-0.135c0.965-1.354,2.732-0.782,3.933-1.701c0.853-0.653,2.042-0.867,3.08-1.279
		c0.033-0.014,0.075-0.055,0.079-0.087c0.117-0.93,0.899-0.697,1.465-0.849c0.181-0.048,0.375-0.091,0.525-0.192
		c0.828-0.56,1.649-1.131,2.465-1.711c0.42-0.299,0.78-0.739,1.244-0.913c1.002-0.378,1.793-0.956,2.432-1.815
		c0.34-0.458,0.799-0.837,1.24-1.21c0.914-0.773,1.91-1.46,2.764-2.293c0.817-0.796,1.492-1.738,2.24-2.605
		c0.352-0.405,0.732-0.785,1.098-1.177c0.527-0.564,1.009-1.183,1.594-1.68c0.543-0.463,0.748-1.577,1.752-1.205
		c0.468,0.174,0.788,0.744,1.176,1.135c0.85,0.854,1.559,1.994,2.582,2.495c1.397,0.683,2.76,1.761,4.54,1.426
		c0.364-0.069,0.789,0.307,1.2,0.354c0.853,0.101,1.721,0.205,2.57,0.144c0.678-0.05,1.357-0.548,2.003-0.489
		c2.108,0.188,3.941-0.749,5.884-1.235c0.174-0.043,0.305-0.243,0.478-0.322c0.487-0.225,0.98-0.442,1.483-0.63
		c1.041-0.39,2.344-0.504,3.055-1.215c0.574-0.575,1.053-0.741,1.724-0.848c0.157-0.024,0.284-0.215,0.434-0.317
		c0.769-0.534,1.532-1.077,2.317-1.586c0.187-0.12,0.641-0.087,0.655-0.176c0.23-1.41,1.228-0.69,1.929-0.788
		c0.505,0.979,0.756,2.297,1.515,2.738c1.079,0.628,0.636,1.333,0.758,2.005c-0.382,0.182-0.718,0.287-0.993,0.481
		c-0.813,0.573-1.6,1.185-2.399,1.776c-0.395,0.293-0.79,0.813-1.194,0.82c-1.236,0.025-1.834,1.591-3.179,1.226
		c-0.049-0.013-0.151,0.063-0.187,0.123c-0.646,1.142-1.977,1.13-2.967,1.603c-1.473,0.703-3.174,0.93-4.777,1.361
		c-0.075,0.021-0.142,0.069-0.215,0.098c-0.616,0.243-1.23,0.688-1.85,0.694c-4.586,0.053-9.246,0.94-13.671-1.056
		c-0.253-0.114-0.44-0.436-0.692-0.483c-0.945-0.181-2.279-0.744-2.781-0.33c-1.109,0.912-2.227,1.979-3.103,3.082
		c-0.972,1.225-2.434,1.624-3.366,2.765c-0.346,0.422-0.864,0.715-1.334,1.02c-0.72,0.466-1.551,0.795-2.18,1.356
		c-0.813,0.727-1.457,1.649-2.682,1.715c-0.114,0.006-0.314,0.052-0.324,0.106c-0.256,1.439-1.889,0.656-2.635,1.679
		c-0.576,0.79-2.117,0.854-3.202,1.306c-0.536,0.224-0.976,0.705-1.52,0.881c-1.38,0.444-2.796,0.782-4.197,1.163
		c-0.038,0.011-0.093,0.021-0.107,0.048c-0.547,1.034-1.541,0.708-2.401,0.798c-0.313,0.033-0.828-0.003-0.904,0.157
		c-0.51,1.075-1.489,0.684-2.293,0.816c-0.823,0.137-1.66,0.206-2.476,0.374c-0.592,0.122-1.155,0.499-1.739,0.52
		c-2.576,0.093-5.174-0.019-7.6,1.365c-0.082,0.352-0.116,0.892-0.33,1.349c-0.598,1.279-1.269,2.524-1.911,3.783
		c-0.069,0.136-0.134,0.276-0.216,0.405c-0.564,0.89-1.135,1.775-1.701,2.664c-0.097,0.152-0.156,0.336-0.274,0.467
		c-0.526,0.581-1.104,1.117-1.594,1.727c-0.551,0.686-0.948,1.506-1.55,2.136c-1.111,1.16-2.317,2.231-3.496,3.327
		c-1.047,0.974-1.979,2.176-3.201,2.822c-1.234,0.652-1.834,2.261-3.537,2.216c-0.369-0.011-0.791,0.679-1.109,1.105
		c-0.067,0.091,0.158,0.547,0.35,0.65c0.376,0.202,0.864,0.202,1.23,0.416c0.879,0.513,1.654,1.252,2.582,1.622
		c1.291,0.515,2.885,0.48,3.978,1.226c1.151,0.785,2.274,0.762,3.469,0.891c0.101,0.011,0.188,0.123,0.288,0.173
		c0.488,0.242,0.956,0.592,1.473,0.695c1.214,0.244,2.521-0.094,3.625,0.879c0.306,0.27,1.354,0.191,1.655-0.12
		c0.87-0.899,1.507-2.021,2.286-3.016c0.693-0.887,1.393-1.785,2.199-2.563c0.836-0.806,1.816-1.461,2.713-2.207
		c1.113-0.927,2.104-2.054,3.336-2.771c1.378-0.804,2.537-2.089,4.268-2.237c0.094-0.008,0.248-0.123,0.256-0.2
		c0.084-0.865,0.785-0.601,1.277-0.712c0.268-0.061,0.746-0.047,0.776-0.16c0.285-1.08,1.171-0.705,1.851-0.833
		c0.42-0.079,0.843-0.166,1.247-0.3c0.534-0.177,1.038-0.521,1.579-0.583c1.029-0.115,2.076-0.095,3.115-0.105
		c1.42-0.014,2.84-0.003,4.351-0.003c0,1.697,0.064,3.214-0.042,4.719c-0.029,0.404-0.557,1.084-0.895,1.108
		c-2.879,0.208-5.817-0.212-8.566,1.129c-1.045,0.509-2.196,0.796-3.296,1.191c-0.06,0.022-0.082,0.132-0.14,0.18
		c-0.607,0.508-1.189,1.056-1.84,1.506c-0.7,0.486-1.554,0.779-2.184,1.335c-1.346,1.187-2.715,2.39-3.813,3.791
		c-0.434,0.556-1.768,0.775-1.211,2.008c0.178,0.031,0.332,0.071,0.488,0.085c4.227,0.374,8.465-0.058,12.723,0.63
		C103.524,140.938,107.073,140.501,110.984,140.501z M178.612,134.501c-0.758-0.267-1.191-0.54-1.634-0.554
		c-1.759-0.053-3.519-0.046-5.278-0.016c-0.932,0.017-1.797,0.988-1.854,1.931c-0.068,1.154-0.116,2.314-0.276,3.458
		c-0.149,1.067-0.505,2.106-0.641,3.175c-0.159,1.265,0.179,2.731-0.354,3.775c-0.629,1.229-0.594,2.413-0.712,3.641
		c-0.093,0.954-0.079,1.918-0.161,2.874c-0.109,1.276-0.852,1.927-2.112,1.922c-1.222-0.004-2.442-0.001-3.788-0.001
		c0,0.73,0,1.284,0,1.837c0.003,3.64,0.006,7.279,0.008,10.918c0.002,2.106,0,2.108-2.145,2.108c-0.6,0.001-1.199,0.002-1.799,0.001
		c-2.021-0.004-2.023-0.01-2.021-2.104c0.004-3.64,0.008-7.278,0-10.918c-0.001-0.585-0.055-1.169-0.089-1.834
		c-1.382,0-2.661-0.06-3.933,0.018c-1.188,0.072-1.696-0.745-1.813-1.581c-0.327-2.334-0.279-4.67-1.03-7.004
		c-0.666-2.076,0.037-4.447-0.917-6.629c-0.42-0.961-0.196-2.207-0.243-3.325c-0.063-1.479-0.875-2.27-2.365-2.27
		c-1.279,0-2.561-0.037-3.839,0.017c-0.757,0.031-1.509,0.206-2.448,0.343c-1.018-0.604-1.268-1.723-1.144-3.062
		c0.093-0.991,0.021-1.998,0.021-2.997c0-3.479-0.02-6.959,0.008-10.438c0.008-0.958-0.314-1.427-1.27-1.032
		c-0.912,0.377-1.787,0.852-2.65,1.333c-0.434,0.241-0.82,0.574-1.2,0.898c-0.616,0.524-1.184,1.109-1.819,1.608
		c-0.686,0.538-1.504,0.925-2.123,1.524c-0.811,0.785-1.465,1.729-2.217,2.578c-1.277,1.444-2.699,2.781-3.831,4.33
		c-0.917,1.255-1.495,2.756-2.229,4.145c-0.072,0.135-0.193,0.241-0.271,0.373c-0.538,0.914-1.156,1.794-1.582,2.759
		c-0.463,1.052-0.743,2.185-1.108,3.28c-0.023,0.07-0.077,0.164-0.137,0.185c-0.879,0.296-0.685,1.057-0.751,1.706
		c-0.065,0.633,0.1,1.591-0.245,1.839c-1.055,0.758-0.642,1.782-0.796,2.696c-0.113,0.667,0.047,1.472-0.273,1.994
		c-0.867,1.406-0.596,2.912-0.625,4.383c-0.049,2.358,0.014,4.719,0.035,7.078c0.002,0.318-0.086,0.748,0.082,0.938
		c1.047,1.187,0.652,2.641,0.832,3.986c0.051,0.391-0.002,1.033,0.199,1.128c0.99,0.471,0.649,1.335,0.758,2.067
		c0.053,0.352,0.018,0.74,0.158,1.05c0.55,1.21,1.19,2.379,1.727,3.594c0.466,1.054,0.834,2.15,1.25,3.226
		c0.027,0.07,0.093,0.124,0.137,0.188c0.572,0.832,1.141,1.667,1.715,2.497c0.307,0.442,0.643,0.866,0.93,1.32
		c0.456,0.725,0.802,1.533,1.34,2.187c0.766,0.929,1.94,1.612,2.446,2.644c0.999,2.036,3.089,2.836,4.538,4.341
		c0.84,0.873,1.77,2.348,3.459,2.21c0.063-0.006,0.125,0.184,0.213,0.248c0.736,0.542,1.469,1.088,2.225,1.601
		c0.184,0.124,0.486,0.072,0.67,0.195c0.869,0.582,1.648,1.352,2.587,1.766c1.617,0.714,3.378,1.001,4.968,1.923
		c0.923,0.535,2.182,0.458,3.318,0.905c1.949,0.767,4.186,0.949,6.318,1.068c2.869,0.161,5.755,0.033,8.634,0.016
		c0.354-0.002,0.718-0.047,1.063-0.131c0.893-0.22,1.77-0.509,2.666-0.704c1.773-0.386,3.558-0.727,5.336-1.09
		c0.072-0.015,0.183-0.056,0.195-0.104c0.252-1,1.104-0.688,1.758-0.818c0.388-0.076,0.801-0.123,1.145-0.298
		c1.025-0.517,2.005-1.124,3.033-1.633c0.959-0.475,2.099-0.693,2.902-1.343c0.895-0.721,1.533-1.746,2.835-1.819
		c0.096-0.005,0.194-0.108,0.274-0.185c0.927-0.869,1.821-1.775,2.783-2.603c0.654-0.563,1.654-0.868,2.059-1.55
		c0.871-1.469,2.129-2.507,3.275-3.696c1.158-1.201,1.887-2.768,2.994-4.049c0.802-0.927,1.032-2.201,1.873-3.192
		c0.703-0.829,0.881-2.104,1.287-3.183c0.042-0.11,0.018-0.304,0.086-0.338c1.466-0.744,0.408-2.601,1.674-3.634
		c0.604-0.492,0.531-1.987,0.881-3.029c0.588-1.751,0.875-3.765,0.98-5.591c0.223-3.86,0.906-7.813-0.553-11.652
		c-0.57-1.503,0.182-3.258-1.011-4.802c-0.563-0.729-0.151-2.066-0.962-3.073c-0.546-0.678-0.244-1.845-0.998-2.748
		c-0.719-0.862-0.891-2.18-1.306-3.297c-0.026-0.071-0.079-0.135-0.124-0.199c-0.576-0.829-1.139-1.667-1.734-2.482
		c-0.269-0.367-0.844-0.678-0.861-1.034c-0.078-1.636-1.584-2.304-2.277-3.521c-0.761-1.336-1.98-2.419-3.049-3.566
		c-0.465-0.501-1.053-0.889-1.582-1.329c-0.755-0.626-1.497-1.268-2.265-1.877c-0.551-0.437-1.117-0.858-1.707-1.239
		c-0.751-0.485-1.693-0.778-2.262-1.415c-0.687-0.769-1.444-0.836-2.169-0.514c-0.358,0.159-0.625,0.927-0.629,1.422
		c-0.045,4.719-0.008,9.438-0.041,14.157C179.026,133.072,178.771,133.743,178.612,134.501z M32.771,141.824
		c0.141,0.677,0.192,1.223,0.375,1.722c0.167,0.456,0.496,0.85,0.713,1.291c0.117,0.238,0.102,0.544,0.225,0.777
		c0.559,1.056,1.183,2.078,1.711,3.148c0.469,0.95,0.827,1.954,1.262,2.923c0.291,0.648,0.467,1.521,0.979,1.86
		c1.083,0.714,0.913,2.053,1.761,2.873c0.535,0.52,0.657,1.441,1.12,2.068c0.852,1.151,1.831,2.208,2.731,3.325
		c0.408,0.508,0.766,1.061,1.125,1.605c0.482,0.731,0.932,1.484,1.422,2.21c0.254,0.376,0.547,0.731,0.859,1.061
		c0.569,0.602,1.2,1.147,1.741,1.771c0.556,0.641,0.976,1.404,1.561,2.013c1.147,1.193,2.354,2.332,3.563,3.467
		c1.045,0.981,2.104,1.949,3.195,2.878c0.857,0.73,1.786,1.376,2.66,2.088c1.136,0.926,2.249,1.879,3.368,2.823
		c0.379,0.319,0.697,0.766,1.129,0.95c1.46,0.623,2.534,1.957,4.176,2.232c0.09,0.015,0.153,0.17,0.238,0.25
		c0.709,0.669,1.342,1.452,2.413,1.575c0.187,0.021,0.39,0.091,0.541,0.199c0.806,0.578,1.543,1.281,2.411,1.737
		c0.951,0.5,2.02,0.776,3.036,1.151c0.147,0.055,0.302,0.1,0.434,0.179c0.907,0.544,1.761,1.214,2.727,1.616
		c1.207,0.503,2.505,0.789,3.763,1.17c0.152,0.047,0.309,0.091,0.453,0.155c1.304,0.581,2.572,1.263,3.92,1.716
		c0.953,0.321,1.932,0.27,2.934,0.844c1.133,0.651,2.674,0.273,4.05,1.04c1.188,0.662,2.823,0.455,4.296,0.882
		c2.715,0.789,5.758,0.002,8.515,1.146c5.253-0.231,10.542,0.748,15.771-0.65c1.47-0.394,3.103-0.234,4.659-0.23
		c1.066,0.002,2.005-0.172,2.719-1.022c0.116-0.138,0.32-0.356,0.281-0.438c-0.086-0.174-0.285-0.321-0.473-0.409
		c-0.407-0.19-0.902-0.254-1.241-0.522c-0.515-0.407-0.841-1.177-1.399-1.382c-1.65-0.608-2.604-1.937-3.789-3.079
		c-1.029-0.993-2.121-1.886-3.002-3.049c-1.152-1.521-2.504-2.889-3.742-4.346c-0.385-0.452-0.738-0.95-1.008-1.477
		c-0.477-0.938-0.878-1.914-1.313-2.873c-0.033-0.07-0.08-0.135-0.123-0.201c-0.543-0.861-1.181-1.68-1.605-2.597
		c-0.503-1.081-0.508-2.602-1.291-3.296c-1.221-1.082-0.395-2.72-1.613-3.829c-0.635-0.577-0.549-2.156-0.902-3.287
		c-0.666-2.131-0.237-4.501-1.047-6.728c-0.354-0.973-0.475-1.417-1.612-1.417c-7.038,0.003-14.077-0.078-21.115-0.14
		c-0.438-0.004-0.884-0.028-1.311-0.118c-1.14-0.239-2.259-0.6-3.407-0.76c-1.143-0.159-2.523,0.236-3.421-0.275
		c-1.415-0.807-2.838-0.605-4.266-0.789c-0.276-0.035-0.716,0.027-0.804-0.12c-0.719-1.204-1.906-0.66-2.893-0.835
		c-0.428-0.076-1.178-0.012-1.238-0.193c-0.338-1.004-1.15-0.65-1.793-0.77c-0.586-0.108-1.209-0.104-1.756-0.308
		c-1.352-0.506-2.653-1.147-4.007-1.647c-1.317-0.487-2.677-0.863-4.015-1.299c-0.143-0.046-0.254-0.179-0.389-0.256
		c-0.869-0.502-1.719-1.047-2.619-1.484c-1.068-0.519-2.227-0.861-3.262-1.435c-0.955-0.528-1.617-1.54-2.8-1.734
		c-0.153-0.025-0.271-0.241-0.419-0.347c-0.74-0.528-1.49-1.043-2.23-1.573c-0.614-0.441-1.38-0.784-1.793-1.372
		c-0.873-1.239-1.885-1.832-3.379-1.642c-1.586,0.203-3.196,0.012-4.725,0.865C35.05,141.931,33.942,141.727,32.771,141.824z
		 M172.46,112.75c-0.441-0.026-1.08-0.047-1.715-0.108c-0.262-0.025-0.525-0.114-0.768-0.22c-0.493-0.213-0.952-0.574-1.462-0.664
		c-1.058-0.186-2.29,0.053-3.169-0.414c-0.963-0.512-1.871-0.535-2.826-0.546c-2.799-0.029-5.599,0.003-8.398,0.016
		c-0.319,0.001-0.744-0.101-0.941,0.063c-1.338,1.113-2.958,0.67-4.455,0.891c-0.271,0.04-0.727,0.041-0.775,0.177
		c-0.347,0.956-1.152,0.695-1.819,0.739c-1.413,0.092-2.169,0.883-2.171,2.346c-0.004,3.8-0.004,7.6-0.006,11.398
		c-0.002,1.383,0.74,2.135,2.168,2.136c8.52,0.006,17.037,0.004,25.557-0.001c1.078,0,2.002-0.962,2.003-2.062
		c0.004-2.88,0.048-5.761-0.013-8.639C173.632,116.125,174.244,114.227,172.46,112.75z M161.55,148.729
		c1.594-2.516,1.303-5.118,1.426-7.657c0.014-0.278-0.021-0.622,0.125-0.818c1.164-1.568,0.59-3.392,0.76-5.095
		c0.078-0.789-0.32-1.284-1.311-1.256c-2.475,0.073-4.953,0.062-7.43,0.004c-0.814-0.019-1.301,0.306-1.296,1.028
		c0.011,1.752-0.23,3.642,0.343,5.216c0.559,1.533,0.479,3.002,0.643,4.504c0.081,0.751-0.018,1.55,0.207,2.25
		c0.227,0.708,0.356,1.742,1.344,1.797C158.148,148.799,159.946,148.729,161.55,148.729z"/>
	<path fill-rule="evenodd" clip-rule="evenodd" d="M123.017,51.478c-0.973,0.398-2.025-0.065-2.327,1.08
		c-0.024,0.093-0.437,0.086-0.67,0.12c-0.595,0.086-1.308-0.1-1.579,0.718c-0.025,0.079-0.197,0.124-0.31,0.157
		c-1.296,0.384-2.866,0.436-3.821,1.229c-1.119,0.929-2.818,0.364-3.613,1.756c-0.09,0.158-0.526,0.092-0.782,0.186
		c-0.493,0.181-0.964,0.427-1.46,0.6c-1.369,0.479-2.754,0.916-4.121,1.405c-0.475,0.171-0.913,0.445-1.366,0.677
		c-0.165,0.084-0.315,0.244-0.485,0.263c-0.729,0.083-1.425,0.655-1.902,0.729c-1.174,0.184-1.935,0.984-2.939,1.357
		c-1.02,0.379-1.932,1.09-2.832,1.738c-0.953,0.685-1.932,1.379-2.723,2.231c-0.877,0.945-1.592,2.051-2.311,3.132
		c-0.625,0.938-1.157,1.939-1.73,2.913c-0.041,0.067-0.119,0.132-0.121,0.199c-0.052,1.784-1.527,3.229-1.18,5.142
		c0.083,0.455-0.412,1.003-0.604,1.522c-0.119,0.32-0.215,0.663-0.238,1.001c-0.101,1.394,0.191,2.947-0.332,4.148
		c-0.863,1.977-0.502,3.966-0.721,5.94c-0.033,0.302,0.037,0.616,0.076,1.151c1.711-0.53,3.537,0.408,5.055-0.98
		c0.242-0.221,0.769-0.115,1.158-0.188c0.672-0.126,1.564,0.283,1.865-0.807c0.035-0.129,0.584-0.117,0.896-0.168
		c0.73-0.12,1.653,0.222,2-0.835c0.018-0.052,0.129-0.081,0.202-0.105c1.089-0.373,2.229-0.644,3.255-1.144
		c0.866-0.422,1.604-1.109,2.396-1.681c0.525-0.38,0.998-0.945,1.584-1.111c1.611-0.458,2.455-1.757,3.527-2.84
		c0.846-0.854,1.843-1.558,2.704-2.398c0.495-0.483,0.743-1.276,1.294-1.631c1.336-0.859,1.269-2.746,2.708-3.472
		c0.032-0.017,0.057-0.059,0.071-0.095c0.443-1.058,0.611-2.454,1.396-3.09c1.008-0.815,0.313-2.35,1.597-2.852
		c0.122-0.047,0.105-0.435,0.164-0.661c0.207-0.801-0.285-1.814,0.861-2.357c0.236-0.111,0.131-0.971,0.162-1.486
		c0.043-0.678-0.002-1.37,0.121-2.032c0.069-0.377,0.314-0.847,0.626-1.032c0.976-0.584,4.493,0.019,5.179,0.829
		c0.112,0.133,0.138,0.375,0.133,0.564c-0.025,0.959-0.07,1.917-0.119,2.876c-0.007,0.153-0.025,0.413-0.105,0.441
		c-0.99,0.355-0.692,1.22-0.798,1.928c-0.122,0.819,0.196,1.816-0.886,2.264c-0.026,0.011-0.035,0.067-0.047,0.104
		c-0.357,1.087-0.631,2.211-1.094,3.251c-0.416,0.938-1.037,1.787-1.57,2.674c-0.117,0.194-0.318,0.368-0.354,0.573
		c-0.198,1.119-0.954,1.851-1.715,2.586c-0.083,0.08-0.199,0.167-0.217,0.266c-0.216,1.203-1.091,1.884-1.924,2.664
		c-1.038,0.973-1.864,2.171-2.873,3.18c-0.978,0.978-2.235,1.712-3.075,2.783c-1.107,1.412-2.743,1.929-4.074,2.932
		c-1.172,0.884-2.313,1.675-3.769,2.096c-0.944,0.273-1.73,1.079-2.606,1.614c-0.189,0.115-0.479,0.055-0.691,0.146
		c-0.508,0.215-0.998,0.471-1.493,0.714c-0.071,0.034-0.126,0.108-0.199,0.128c-1.417,0.389-2.837,0.761-4.251,1.159
		c-0.841,0.237-1.662,0.548-2.51,0.759c-0.535,0.133-1.102,0.14-1.653,0.208c-1.433,0.176-2.821,0.162-4.281,0.716
		c-1.596,0.605-3.546,0.293-5.343,0.313c-0.148,0.002-0.432-0.519-0.429-0.795c0.007-1.077-0.2-2.298,0.226-3.204
		c1.251-2.658,0.306-5.564,1.084-8.146c0.639-2.116,0.172-4.36,0.938-6.227c0.693-1.689,0.289-3.477,0.981-4.91
		c0.55-1.137,0.454-2.365,0.985-3.336c0.742-1.354,1.057-2.954,1.947-4.113c0.893-1.162,1.475-2.521,2.54-3.63
		c0.813-0.848,1.481-1.982,2.442-2.778c0.824-0.683,1.918-1.104,2.586-1.898c1.161-1.382,2.975-1.563,4.291-2.672
		c0.85-0.717,2.307-0.701,3.188-1.397c1.178-0.931,2.897-0.39,3.86-1.676c0.105-0.141,0.436-0.115,0.663-0.163
		c0.56-0.116,1.344,0.19,1.46-0.774c0.005-0.046,0.123-0.091,0.197-0.112c1.289-0.377,2.581-0.748,3.871-1.126
		c0.254-0.074,0.517-0.144,0.75-0.264c0.45-0.231,0.874-0.514,1.324-0.745c0.555-0.286,1.124-0.543,1.688-0.811
		c0.14-0.065,0.279-0.166,0.425-0.177c0.776-0.056,1.383-0.381,2.077-0.776c1.168-0.667,2.604-0.861,3.918-1.281
		c0.223-0.071,0.455-0.238,0.594-0.427c0.499-0.676,1.395-0.643,1.732,0.135c0.186,0.424,0.172,0.932,0.326,1.374
		c0.114,0.328,0.439,0.592,0.523,0.921C122.663,49.604,122.829,50.563,123.017,51.478z"/>
	<path fill-rule="evenodd" clip-rule="evenodd" d="M152.596,66.558c0.616,1.018,1.12,1.908,1.685,2.759
		c0.384,0.579,0.875,1.086,1.26,1.665c0.061,0.093-0.158,0.541-0.309,0.577c-1.107,0.269-1.883,0.95-2.521,1.849
		c-0.075,0.106-0.269,0.152-0.415,0.182c-1.123,0.218-1.789,1.073-2.564,1.788c-0.182,0.168-0.51,0.167-0.723,0.313
		c-0.764,0.521-1.509,1.071-2.258,1.614c-0.118,0.086-0.212,0.253-0.335,0.273c-0.717,0.121-1.256,0.389-1.884,0.88
		c-0.916,0.716-2.268,0.873-3.432,1.275c-1.561,0.539-3.086,1.235-4.688,1.586c-1.609,0.353-3.322,0.937-4.9-0.272
		c-0.23-0.178-0.602-0.237-0.909-0.24c-1.372-0.011-2.14-0.817-2.776-1.915c-0.512-0.883-1.154-1.688-1.72-2.54
		c-0.473-0.712-0.28-2.168,0.344-2.815c0.081-0.084,0.181-0.169,0.218-0.273c0.41-1.142,0.734-2.321,1.23-3.424
		c0.492-1.093,1.153-2.11,1.741-3.161c0.038-0.066,0.103-0.122,0.126-0.192c0.365-1.095,0.672-2.212,1.102-3.28
		c0.336-0.837,0.823-1.613,1.323-2.57c0.817,0.23,2.006-0.425,2.813,0.793c0.142,0.215,0.664,0.255,1.008,0.244
		c0.923-0.028,1.182,0.577,0.99,1.238c-0.299,1.039,0.022,2.145-0.879,3.175c-0.777,0.887-0.865,2.356-1.331,3.54
		c-0.38,0.967-0.767,1.958-1.335,2.816c-0.651,0.984-0.887,1.801-0.458,3.264c1.274-0.268,2.739,0.521,3.866-0.799
		c0.116-0.137,0.471-0.041,0.688-0.127c0.54-0.215,1.064-0.472,1.596-0.711c0.143-0.064,0.285-0.131,0.433-0.185
		c1.231-0.451,2.503-0.819,3.683-1.38c0.653-0.312,1.154-0.943,1.725-1.431c0.11-0.095,0.218-0.265,0.333-0.271
		c1.264-0.063,1.897-1.031,2.724-1.771c0.602-0.539,1.399-0.854,2.086-1.307c0.316-0.208,0.535-0.598,0.869-0.74
		C151.517,66.764,152.094,66.685,152.596,66.558z"/>
	<path fill-rule="evenodd" clip-rule="evenodd" d="M134.202,158.146c0.63,0.253,1.096,0.427,1.551,0.625
		c0.892,0.389,1.816,0.724,2.652,1.208c0.699,0.404,0.633,1.994,0.022,2.583c-0.247,0.239-0.402,0.581-0.577,0.888
		c-0.408,0.714-0.714,1.515-1.252,2.108c-0.183,0.202-0.994,0.002-1.416-0.214c-0.883-0.452-1.699-1.035-2.54-1.567
		c-0.298-0.188-0.858-0.43-0.837-0.575c0.122-0.793,0.372-1.569,0.619-2.337c0.049-0.15,0.355-0.215,0.41-0.366
		c0.169-0.478,0.183-1.032,0.432-1.453C133.507,158.641,133.966,158.364,134.202,158.146z"/>
	<path fill-rule="evenodd" clip-rule="evenodd" d="M183.562,158.043c0.42,0.875,0.889,1.87,1.375,2.855
		c0.293,0.593,0.682,1.147,0.902,1.764c0.184,0.518,0.061,0.854-0.643,1.113c-1.182,0.434-2.244,1.19-3.375,1.773
		c-0.216,0.111-0.675,0.161-0.76,0.047c-0.453-0.615-0.822-1.291-1.221-1.945c-0.224-0.366-0.54-0.704-0.654-1.102
		c-0.179-0.617-0.361-1.296-0.267-1.905c0.054-0.347,0.616-0.687,1.021-0.894C181.075,159.168,182.246,158.656,183.562,158.043z"/>
	<path fill-rule="evenodd" clip-rule="evenodd" d="M146.886,180.648c-2.022,0-3.917,0-5.972,0c0-1.516-0.184-2.936,0.083-4.266
		c0.12-0.596,1.076-1.241,1.774-1.446c0.845-0.248,1.827,0.024,2.733-0.07c1-0.104,1.395,0.277,1.385,1.237
		C146.874,177.611,146.886,179.12,146.886,180.648z"/>
	<path fill-rule="evenodd" clip-rule="evenodd" d="M132.448,180.781c-2.689-0.016-2.689-0.016-2.69-2.699
		c-0.001-3.178-0.001-3.178,3.217-3.195c2.122-0.013,2.733,0.601,2.728,2.728c0,0.199,0,0.398,0,0.598c0,2.588,0,2.588-2.656,2.57
		C132.847,180.78,132.647,180.781,132.448,180.781z"/>
	<path fill-rule="evenodd" clip-rule="evenodd" d="M181.94,180.648c0-1.55-0.146-2.884,0.054-4.163
		c0.126-0.805,0.769-1.562,1.776-1.604c0.955-0.04,1.918,0.05,2.871-0.019c0.852-0.062,1.206,0.377,1.227,1.096
		c0.047,1.546,0.015,3.096,0.015,4.69C185.887,180.648,183.999,180.648,181.94,180.648z"/>
	<path fill-rule="evenodd" clip-rule="evenodd" d="M147.689,170.639c-0.904,0.065-1.565,0.271-2.331-0.534
		c-0.71-0.748-1.919-1.061-2.951-1.45c-0.631-0.238-0.607-0.466-0.282-0.931c0.267-0.38,0.487-0.797,0.685-1.218
		c0.416-0.879,0.744-1.805,1.223-2.646c0.279-0.493,2.232-0.14,2.721,0.396c0.183,0.201,0.447,0.338,0.691,0.475
		c0.705,0.395,1.433,0.752,2.112,1.186c0.095,0.061-0.009,0.675-0.06,0.681c-0.869,0.093-0.521,0.851-0.751,1.283
		c-0.216,0.407-0.627,0.724-0.788,1.144C147.777,169.491,147.78,170.031,147.689,170.639z"/>
	<path fill-rule="evenodd" clip-rule="evenodd" d="M170.847,180.752c0-1.785-0.042-3.451,0.043-5.11
		c0.014-0.273,0.566-0.709,0.902-0.741c1.029-0.099,2.073-0.049,3.111-0.035c0.74,0.011,1.834,1.124,1.842,1.863
		c0.008,0.879-0.09,1.769,0.016,2.634c0.121,0.996-0.439,1.336-1.207,1.369C174.011,180.799,172.464,180.752,170.847,180.752z"/>
	<path fill-rule="evenodd" clip-rule="evenodd" d="M175.647,168.277c-1.301,0.793-2.521,1.613-3.816,2.287
		c-0.481,0.25-1.141,0.158-1.688,0.218c-0.48-1.296-0.908-2.485-1.374-3.659c-0.069-0.177-0.421-0.258-0.462-0.428
		c-0.072-0.297-0.093-0.666,0.027-0.933c0.123-0.274,0.45-0.452,0.67-0.688c0.506-0.546,3.768-1.419,4.463-1.266
		C174.231,165.373,174.949,166.845,175.647,168.277z"/>
</g>
</svg>
